<?xml version="1.0" encoding="UTF-8" standalone="no"?>
<!DOCTYPE svg PUBLIC "-//W3C//DTD SVG 1.1//EN"
 "http://www.w3.org/Graphics/SVG/1.1/DTD/svg11.dtd">
<!-- Generated by graphviz version 2.43.0 (0)
 -->
<!-- Title: AbstractValidator Pages: 1 -->
<!--zoomable 175 -->

<svg id="main" version="1.1" xmlns="http://www.w3.org/2000/svg" xmlns:xlink="http://www.w3.org/1999/xlink" xml:space="preserve" onload="init(evt)">

<style type="text/css"><![CDATA[
.node, .edge {opacity: 0.7;}
.node.selected, .edge.selected {opacity: 1;}
.edge:hover path { stroke: red; }
.edge:hover polygon { stroke: red; fill: red; }
]]></style>

<defs>
  <circle id="rim" cx="0" cy="0" r="7"/>
  <circle id="rim2" cx="0" cy="0" r="3.5"/>
  <g id="zoomPlus">
    <use xlink:href="#rim" fill="#404040"><set attributeName="fill" to="#808080" begin="zoomplus.mouseover" end="zoomplus.mouseout"/></use>
    <path d="M-4,0h8M0,-4v8" fill="none" stroke="white" stroke-width="1.5" pointer-events="none"/>
  </g>
  <g id="zoomMin">
    <use xlink:href="#rim" fill="#404040"><set attributeName="fill" to="#808080" begin="zoomminus.mouseover" end="zoomminus.mouseout"/></use>
    <path d="M-4,0h8" fill="none" stroke="white" stroke-width="1.5" pointer-events="none"/>
  </g>
  <g id="arrowUp" transform="translate(30 24)">
    <use xlink:href="#rim"/>
    <path pointer-events="none" fill="none" stroke="white" stroke-width="1.5" d="M0,-3.0v7 M-2.5,-0.5L0,-3.0L2.5,-0.5"/>
  </g>
  <g id="arrowRight" transform="rotate(90) translate(36 -43)">
    <use xlink:href="#rim"/>
    <path pointer-events="none" fill="none" stroke="white" stroke-width="1.5" d="M0,-3.0v7 M-2.5,-0.5L0,-3.0L2.5,-0.5"/>
  </g>
  <g id="arrowDown" transform="rotate(180) translate(-30 -48)">
    <use xlink:href="#rim"/>
    <path pointer-events="none" fill="none" stroke="white" stroke-width="1.5" d="M0,-3.0v7 M-2.5,-0.5L0,-3.0L2.5,-0.5"/>
  </g>
  <g id="arrowLeft" transform="rotate(270) translate(-36 17)">
    <use xlink:href="#rim"/>
    <path pointer-events="none" fill="none" stroke="white" stroke-width="1.5" d="M0,-3.0v7 M-2.5,-0.5L0,-3.0L2.5,-0.5"/>
  </g>
  <g id="resetDef">
    <use xlink:href="#rim2" fill="#404040"><set attributeName="fill" to="#808080" begin="reset.mouseover" end="reset.mouseout"/></use>
  </g>
</defs>
<script type="application/ecmascript">
var viewWidth = 806;
var viewHeight = 175;
var sectionId = 'dynsection-0';
</script>
<script type="application/ecmascript" xlink:href="svg.min.js"/>
<svg id="graph" class="graph">
<g id="viewport">
<title>AbstractValidator</title>
<!-- Node1 -->
<g id="Node000001" class="node">
<title>Node1</title>
<g id="a_Node000001"><a xlink:title=" ">
<polygon fill="#999999" stroke="transparent" points="454.5,-167 359.5,-167 359.5,-118 454.5,-118 454.5,-167"/>
<text text-anchor="start" x="365" y="-154.5" font-family="Helvetica,sans-Serif" font-size="10.00">AbstractValidator</text>
<text text-anchor="start" x="405.5" y="-139.5" font-family="Helvetica,sans-Serif" font-size="10.00"> </text>
<text text-anchor="start" x="405.5" y="-124.5" font-family="Helvetica,sans-Serif" font-size="10.00"> </text>
<polygon fill="#666666" stroke="#666666" points="360,-149.5 360,-149.5 455,-149.5 455,-149.5 360,-149.5"/>
<polygon fill="#666666" stroke="#666666" points="360,-134.5 360,-134.5 455,-134.5 455,-134.5 360,-134.5"/>
<polygon fill="none" stroke="#666666" points="359.5,-118 359.5,-167 454.5,-167 454.5,-118 359.5,-118"/>
</a>
</g>
</g>
<!-- Node2 -->
<g id="Node000002" class="node">
<title>Node2</title>
<g id="a_Node000002"><a xlink:title=" ">
<polygon fill="white" stroke="transparent" points="184,-82 0,-82 0,0 184,0 184,-82"/>
<text text-anchor="start" x="5" y="-70" font-family="Helvetica,sans-Serif" font-size="10.00">Ebceys.Infrastructure.Database</text>
<text text-anchor="start" x="5" y="-59" font-family="Helvetica,sans-Serif" font-size="10.00">Registration.DbContextRegistration</text>
<text text-anchor="start" x="51" y="-48" font-family="Helvetica,sans-Serif" font-size="10.00">OptionsValidator</text>
<text text-anchor="start" x="90" y="-33" font-family="Helvetica,sans-Serif" font-size="10.00"> </text>
<text text-anchor="start" x="7.5" y="-18" font-family="Helvetica,sans-Serif" font-size="10.00">+</text>
<text text-anchor="start" x="24" y="-18" font-family="Helvetica,sans-Serif" font-size="10.00">DbContextRegistrationOptions</text>
<text text-anchor="start" x="24" y="-7" font-family="Helvetica,sans-Serif" font-size="10.00">Validator()</text>
<polygon fill="#666666" stroke="#666666" points="0,-43 0,-43 184,-43 184,-43 0,-43"/>
<polygon fill="#666666" stroke="#666666" points="0,-28 0,-28 184,-28 184,-28 0,-28"/>
<polygon fill="none" stroke="#666666" points="0,0 0,-82 184,-82 184,0 0,0"/>
</a>
</g>
</g>
<!-- Node1&#45;&gt;Node2 -->
<g id="edge1_Node000001_Node000002" class="edge">
<title>Node1&#45;&gt;Node2</title>
<g id="a_edge1_Node000001_Node000002"><a xlink:title=" ">
<path fill="none" stroke="#63b8ff" d="M349.58,-127.3C306.2,-116.15 245.39,-99.6 193,-82 190.05,-81.01 187.06,-79.98 184.05,-78.92"/>
<polygon fill="none" stroke="#63b8ff" points="348.83,-130.72 359.39,-129.81 350.57,-123.94 348.83,-130.72"/>
</a>
</g>
</g>
<!-- Node3 -->
<g id="Node000003" class="node">
<title>Node3</title>
<g id="a_Node000003"><a xlink:title=" ">
<polygon fill="white" stroke="transparent" points="402,-76.5 202,-76.5 202,-5.5 402,-5.5 402,-76.5"/>
<text text-anchor="start" x="207" y="-64" font-family="Helvetica,sans-Serif" font-size="10.00">Ebceys.Infrastructure.Options.</text>
<text text-anchor="start" x="207" y="-53" font-family="Helvetica,sans-Serif" font-size="10.00">SimpleRabbitMqConfigurationValidator</text>
<text text-anchor="start" x="300" y="-38" font-family="Helvetica,sans-Serif" font-size="10.00"> </text>
<text text-anchor="start" x="214" y="-23" font-family="Helvetica,sans-Serif" font-size="10.00">+</text>
<text text-anchor="start" x="235" y="-23" font-family="Helvetica,sans-Serif" font-size="10.00">SimpleRabbitMqConfiguration</text>
<text text-anchor="start" x="235" y="-12" font-family="Helvetica,sans-Serif" font-size="10.00">Validator()</text>
<polygon fill="#666666" stroke="#666666" points="202,-48 202,-48 402,-48 402,-48 202,-48"/>
<polygon fill="#666666" stroke="#666666" points="202,-33 202,-33 402,-33 402,-33 202,-33"/>
<polygon fill="none" stroke="#666666" points="202,-5.5 202,-76.5 402,-76.5 402,-5.5 202,-5.5"/>
</a>
</g>
</g>
<!-- Node1&#45;&gt;Node3 -->
<g id="edge2_Node000001_Node000003" class="edge">
<title>Node1&#45;&gt;Node3</title>
<g id="a_edge2_Node000001_Node000003"><a xlink:title=" ">
<path fill="none" stroke="#63b8ff" d="M374.84,-111.03C363.4,-100.18 350.43,-87.89 338.64,-76.72"/>
<polygon fill="none" stroke="#63b8ff" points="372.45,-113.58 382.12,-117.92 377.27,-108.5 372.45,-113.58"/>
</a>
</g>
</g>
<!-- Node4 -->
<g id="Node000004" class="node">
<title>Node4</title>
<g id="a_Node000004"><a xlink:href="classEbceys_1_1Infrastructure_1_1TestApplication_1_1Validators_1_1ChangeNameRequestValidator.html" target="_top" xlink:title=" ">
<polygon fill="white" stroke="transparent" points="606,-76.5 420,-76.5 420,-5.5 606,-5.5 606,-76.5"/>
<text text-anchor="start" x="425" y="-64" font-family="Helvetica,sans-Serif" font-size="10.00">Ebceys.Infrastructure.Test</text>
<text text-anchor="start" x="425" y="-53" font-family="Helvetica,sans-Serif" font-size="10.00">Application.Validators.ChangeName</text>
<text text-anchor="start" x="471" y="-42" font-family="Helvetica,sans-Serif" font-size="10.00">RequestValidator</text>
<text text-anchor="start" x="511" y="-27" font-family="Helvetica,sans-Serif" font-size="10.00"> </text>
<text text-anchor="start" x="426" y="-12" font-family="Helvetica,sans-Serif" font-size="10.00">+</text>
<text text-anchor="start" x="441" y="-12" font-family="Helvetica,sans-Serif" font-size="10.00">ChangeNameRequestValidator()</text>
<polygon fill="#666666" stroke="#666666" points="420,-37 420,-37 606,-37 606,-37 420,-37"/>
<polygon fill="#666666" stroke="#666666" points="420,-22 420,-22 606,-22 606,-22 420,-22"/>
<polygon fill="none" stroke="#666666" points="420,-5.5 420,-76.5 606,-76.5 606,-5.5 420,-5.5"/>
</a>
</g>
</g>
<!-- Node1&#45;&gt;Node4 -->
<g id="edge3_Node000001_Node000004" class="edge">
<title>Node1&#45;&gt;Node4</title>
<g id="a_edge3_Node000001_Node000004"><a xlink:title=" ">
<path fill="none" stroke="#63b8ff" d="M439.46,-111.03C451.02,-100.18 464.11,-87.89 476.01,-76.72"/>
<polygon fill="none" stroke="#63b8ff" points="437.02,-108.52 432.12,-117.92 441.81,-113.63 437.02,-108.52"/>
</a>
</g>
</g>
<!-- Node5 -->
<g id="Node000005" class="node">
<title>Node5</title>
<g id="a_Node000005"><a xlink:href="classEbceys_1_1Infrastructure_1_1TestApplication_1_1Validators_1_1SomeBodyRequestValidator.html" target="_top" xlink:title=" ">
<polygon fill="white" stroke="transparent" points="797.5,-76.5 624.5,-76.5 624.5,-5.5 797.5,-5.5 797.5,-76.5"/>
<text text-anchor="start" x="630" y="-64" font-family="Helvetica,sans-Serif" font-size="10.00">Ebceys.Infrastructure.Test</text>
<text text-anchor="start" x="630" y="-53" font-family="Helvetica,sans-Serif" font-size="10.00">Application.Validators.SomeBody</text>
<text text-anchor="start" x="669.5" y="-42" font-family="Helvetica,sans-Serif" font-size="10.00">RequestValidator</text>
<text text-anchor="start" x="709.5" y="-27" font-family="Helvetica,sans-Serif" font-size="10.00"> </text>
<text text-anchor="start" x="631" y="-12" font-family="Helvetica,sans-Serif" font-size="10.00">+</text>
<text text-anchor="start" x="646" y="-12" font-family="Helvetica,sans-Serif" font-size="10.00">SomeBodyRequestValidator()</text>
<polygon fill="#666666" stroke="#666666" points="625,-37 625,-37 798,-37 798,-37 625,-37"/>
<polygon fill="#666666" stroke="#666666" points="625,-22 625,-22 798,-22 798,-22 625,-22"/>
<polygon fill="none" stroke="#666666" points="624.5,-5.5 624.5,-76.5 797.5,-76.5 797.5,-5.5 624.5,-5.5"/>
</a>
</g>
</g>
<!-- Node1&#45;&gt;Node5 -->
<g id="edge4_Node000001_Node000005" class="edge">
<title>Node1&#45;&gt;Node5</title>
<g id="a_edge4_Node000001_Node000005"><a xlink:title=" ">
<path fill="none" stroke="#63b8ff" d="M464.37,-127.01C506.46,-115.92 564.79,-99.58 615,-82 619.86,-80.3 624.82,-78.48 629.81,-76.6"/>
<polygon fill="none" stroke="#63b8ff" points="463.37,-123.66 454.58,-129.58 465.14,-130.43 463.37,-123.66"/>
</a>
</g>
</g>
</g>
</svg>

<g id="navigator" transform="translate(0 0)" fill="#404254">
  <rect fill="#f2f5e9" fill-opacity="0.5" stroke="#606060" stroke-width=".5" x="0" y="0" width="60" height="60"/>
  <use id="zoomplus" xlink:href="#zoomPlus" x="17" y="9" onmousedown="handleZoom(evt,'in')"/>
  <use id="zoomminus" xlink:href="#zoomMin" x="42" y="9" onmousedown="handleZoom(evt,'out')"/>
  <use id="reset" xlink:href="#resetDef" x="30" y="36" onmousedown="handleReset()"/>
   <use id="arrowup" xlink:href="#arrowUp" x="0" y="0" onmousedown="handlePan(0,-1)"/>
  <use id="arrowright" xlink:href="#arrowRight" x="0" y="0" onmousedown="handlePan(1,0)"/>
  <use id="arrowdown" xlink:href="#arrowDown" x="0" y="0" onmousedown="handlePan(0,1)"/>
  <use id="arrowleft" xlink:href="#arrowLeft" x="0" y="0" onmousedown="handlePan(-1,0)"/>
</g>
<svg viewBox="0 0 15 15" width="100%" height="30px" preserveAspectRatio="xMaxYMin meet">
 <g id="arrow_out" transform="scale(0.3 0.3)">
  <a xlink:href="classAbstractValidator-1-g__inherit__graph_org.svg" target="_base">
   <rect id="button" ry="5" rx="5" y="6" x="6" height="38" width="38"
        fill="#f2f5e9" fill-opacity="0.5" stroke="#606060" stroke-width="1.0"/>
   <path id="arrow"
     d="M 11.500037,31.436501 C 11.940474,20.09759 22.043105,11.32322 32.158766,21.979434 L 37.068811,17.246167 C 37.068811,17.246167 37.088388,32 37.088388,32 L 22.160133,31.978069 C 22.160133,31.978069 26.997745,27.140456 26.997745,27.140456 C 18.528582,18.264221 13.291696,25.230495 11.500037,31.436501 z"
     style="fill:#404040;"/>
  </a>
 </g>
</svg>

<style type='text/css'>
<![CDATA[
[data-mouse-over-selected='false'] { opacity: 0.7; }
[data-mouse-over-selected='true']  { opacity: 1.0; }
]]>
</style>
<script type="application/ecmascript"><![CDATA[
document.addEventListener('DOMContentLoaded', (event) => {
  highlightEdges();
  highlightAdjacentNodes();
});
]]></script>
</svg>
