<?xml version="1.0" encoding="UTF-8" standalone="no"?>
<!DOCTYPE svg PUBLIC "-//W3C//DTD SVG 1.1//EN"
 "http://www.w3.org/Graphics/SVG/1.1/DTD/svg11.dtd">
<!-- Generated by graphviz version 2.43.0 (0)
 -->
<!-- Title: Ebceys.Tests.Infrastructure.Helpers.StopWatchElapser.StopWatchElapser Pages: 1 -->
<svg width="634pt" height="49pt"
 viewBox="0.00 0.00 634.00 49.00" xmlns="http://www.w3.org/2000/svg" xmlns:xlink="http://www.w3.org/1999/xlink">
<g id="graph0" class="graph" transform="scale(1 1) rotate(0) translate(4 45)">
<title>Ebceys.Tests.Infrastructure.Helpers.StopWatchElapser.StopWatchElapser</title>
<!-- Node1 -->
<g id="Node000001" class="node">
<title>Node1</title>
<g id="a_Node000001"><a xlink:title=" ">
<polygon fill="#999999" stroke="#666666" points="626,-41 427,-41 427,0 626,0 626,-41"/>
<text text-anchor="start" x="435" y="-29" font-family="Helvetica,sans-Serif" font-size="10.00">Ebceys.Tests.Infrastructure.</text>
<text text-anchor="start" x="435" y="-18" font-family="Helvetica,sans-Serif" font-size="10.00">Helpers.StopWatchElapser.StopWatch</text>
<text text-anchor="middle" x="526.5" y="-7" font-family="Helvetica,sans-Serif" font-size="10.00">Elapser</text>
</a>
</g>
</g>
<!-- Node2 -->
<g id="Node000002" class="node">
<title>Node2</title>
<g id="a_Node000002"><a xlink:href="classEbceys_1_1Tests_1_1Infrastructure_1_1Helpers_1_1StopWatchElapser.html#acfdf2ae952b2930267ed83c2bd682ee0" target="_top" xlink:title="Creates the new instance of StopWatchElapser.">
<polygon fill="white" stroke="#666666" points="391,-35.5 212,-35.5 212,-5.5 391,-5.5 391,-35.5"/>
<text text-anchor="start" x="220" y="-23.5" font-family="Helvetica,sans-Serif" font-size="10.00">Ebceys.Tests.Infrastructure.</text>
<text text-anchor="middle" x="301.5" y="-12.5" font-family="Helvetica,sans-Serif" font-size="10.00">Helpers.StopWatchElapser.Create</text>
</a>
</g>
</g>
<!-- Node1&#45;&gt;Node2 -->
<g id="edge1_Node000001_Node000002" class="edge">
<title>Node1&#45;&gt;Node2</title>
<g id="a_edge1_Node000001_Node000002"><a xlink:title=" ">
<path fill="none" stroke="#63b8ff" d="M416.65,-20.5C408.07,-20.5 399.46,-20.5 391.03,-20.5"/>
<polygon fill="#63b8ff" stroke="#63b8ff" points="416.72,-24 426.72,-20.5 416.72,-17 416.72,-24"/>
</a>
</g>
</g>
<!-- Node3 -->
<g id="Node000003" class="node">
<title>Node3</title>
<g id="a_Node000003"><a xlink:href="classEbceys_1_1Infrastructure_1_1Tests_1_1ClientTests_1_1RabbitMqClientTests.html#aeb8aafad37548dc1545d50784ac6cea4" target="_top" xlink:title=" ">
<polygon fill="white" stroke="#666666" points="176,-41 0,-41 0,0 176,0 176,-41"/>
<text text-anchor="start" x="8" y="-29" font-family="Helvetica,sans-Serif" font-size="10.00">Ebceys.Infrastructure.Tests.</text>
<text text-anchor="start" x="8" y="-18" font-family="Helvetica,sans-Serif" font-size="10.00">ClientTests.RabbitMqClientTests.</text>
<text text-anchor="middle" x="88" y="-7" font-family="Helvetica,sans-Serif" font-size="10.00">LittleBenchmark</text>
</a>
</g>
</g>
<!-- Node2&#45;&gt;Node3 -->
<g id="edge2_Node000002_Node000003" class="edge">
<title>Node2&#45;&gt;Node3</title>
<g id="a_edge2_Node000002_Node000003"><a xlink:title=" ">
<path fill="none" stroke="#63b8ff" d="M201.47,-20.5C193.03,-20.5 184.53,-20.5 176.19,-20.5"/>
<polygon fill="#63b8ff" stroke="#63b8ff" points="201.72,-24 211.72,-20.5 201.72,-17 201.72,-24"/>
</a>
</g>
</g>
</g>
</svg>
