<?xml version="1.0" encoding="UTF-8" standalone="no"?>
<!DOCTYPE svg PUBLIC "-//W3C//DTD SVG 1.1//EN"
 "http://www.w3.org/Graphics/SVG/1.1/DTD/svg11.dtd">
<!-- Generated by graphviz version 2.43.0 (0)
 -->
<!-- Title: Ebceys.Tests.Infrastructure.IntegrationTests.WebApplication.RoutingMessageHandler.AddHandler Pages: 1 -->
<!--zoomable 74 -->

<svg id="main" version="1.1" xmlns="http://www.w3.org/2000/svg" xmlns:xlink="http://www.w3.org/1999/xlink" xml:space="preserve" onload="init(evt)">

<style type="text/css"><![CDATA[
.node, .edge {opacity: 0.7;}
.node.selected, .edge.selected {opacity: 1;}
.edge:hover path { stroke: red; }
.edge:hover polygon { stroke: red; fill: red; }
]]></style>

<defs>
  <circle id="rim" cx="0" cy="0" r="7"/>
  <circle id="rim2" cx="0" cy="0" r="3.5"/>
  <g id="zoomPlus">
    <use xlink:href="#rim" fill="#404040"><set attributeName="fill" to="#808080" begin="zoomplus.mouseover" end="zoomplus.mouseout"/></use>
    <path d="M-4,0h8M0,-4v8" fill="none" stroke="white" stroke-width="1.5" pointer-events="none"/>
  </g>
  <g id="zoomMin">
    <use xlink:href="#rim" fill="#404040"><set attributeName="fill" to="#808080" begin="zoomminus.mouseover" end="zoomminus.mouseout"/></use>
    <path d="M-4,0h8" fill="none" stroke="white" stroke-width="1.5" pointer-events="none"/>
  </g>
  <g id="arrowUp" transform="translate(30 24)">
    <use xlink:href="#rim"/>
    <path pointer-events="none" fill="none" stroke="white" stroke-width="1.5" d="M0,-3.0v7 M-2.5,-0.5L0,-3.0L2.5,-0.5"/>
  </g>
  <g id="arrowRight" transform="rotate(90) translate(36 -43)">
    <use xlink:href="#rim"/>
    <path pointer-events="none" fill="none" stroke="white" stroke-width="1.5" d="M0,-3.0v7 M-2.5,-0.5L0,-3.0L2.5,-0.5"/>
  </g>
  <g id="arrowDown" transform="rotate(180) translate(-30 -48)">
    <use xlink:href="#rim"/>
    <path pointer-events="none" fill="none" stroke="white" stroke-width="1.5" d="M0,-3.0v7 M-2.5,-0.5L0,-3.0L2.5,-0.5"/>
  </g>
  <g id="arrowLeft" transform="rotate(270) translate(-36 17)">
    <use xlink:href="#rim"/>
    <path pointer-events="none" fill="none" stroke="white" stroke-width="1.5" d="M0,-3.0v7 M-2.5,-0.5L0,-3.0L2.5,-0.5"/>
  </g>
  <g id="resetDef">
    <use xlink:href="#rim2" fill="#404040"><set attributeName="fill" to="#808080" begin="reset.mouseover" end="reset.mouseout"/></use>
  </g>
</defs>
<script type="application/ecmascript">
var viewWidth = 970;
var viewHeight = 74;
var sectionId = 'dynsection-4';
</script>
<script type="application/ecmascript" xlink:href="svg.min.js"/>
<svg id="graph" class="graph">
<g id="viewport">
<title>Ebceys.Tests.Infrastructure.IntegrationTests.WebApplication.RoutingMessageHandler.AddHandler</title>
<!-- Node1 -->
<g id="Node000001" class="node">
<title>Node1</title>
<g id="a_Node000001"><a xlink:title=" ">
<polygon fill="#999999" stroke="#666666" points="195,-41 0,-41 0,0 195,0 195,-41"/>
<text text-anchor="start" x="8" y="-29" font-family="Helvetica,sans-Serif" font-size="10.00">Ebceys.Tests.Infrastructure.</text>
<text text-anchor="start" x="8" y="-18" font-family="Helvetica,sans-Serif" font-size="10.00">IntegrationTests.WebApplication.</text>
<text text-anchor="middle" x="97.5" y="-7" font-family="Helvetica,sans-Serif" font-size="10.00">RoutingMessageHandler.AddHandler</text>
</a>
</g>
</g>
<!-- Node2 -->
<g id="Node000002" class="node">
<title>Node2</title>
<g id="a_Node000002"><a xlink:href="classEbceys_1_1Tests_1_1Infrastructure_1_1IntegrationTests_1_1WebApplication_1_1RoutingMessageHandler.html#a41104c488923453d1353dacc7ab2d341" target="_top" xlink:title=" ">
<polygon fill="white" stroke="#666666" points="430,-41 231,-41 231,0 430,0 430,-41"/>
<text text-anchor="start" x="239" y="-29" font-family="Helvetica,sans-Serif" font-size="10.00">Ebceys.Tests.Infrastructure.</text>
<text text-anchor="start" x="239" y="-18" font-family="Helvetica,sans-Serif" font-size="10.00">IntegrationTests.WebApplication.</text>
<text text-anchor="middle" x="330.5" y="-7" font-family="Helvetica,sans-Serif" font-size="10.00">RoutingMessageHandler.HostHandler</text>
</a>
</g>
</g>
<!-- Node1&#45;&gt;Node2 -->
<g id="edge1_Node000001_Node000002" class="edge">
<title>Node1&#45;&gt;Node2</title>
<g id="a_edge1_Node000001_Node000002"><a xlink:title=" ">
<path fill="none" stroke="#63b8ff" d="M195.13,-20.5C203.48,-20.5 211.96,-20.5 220.4,-20.5"/>
<polygon fill="#63b8ff" stroke="#63b8ff" points="220.66,-24 230.66,-20.5 220.66,-17 220.66,-24"/>
</a>
</g>
</g>
<!-- Node2&#45;&gt;Node2 -->
<g id="edge2_Node000002_Node000002" class="edge">
<title>Node2&#45;&gt;Node2</title>
<g id="a_edge2_Node000002_Node000002"><a xlink:title=" ">
<path fill="none" stroke="#63b8ff" d="M288.23,-41.1C283.62,-50.65 297.71,-59 330.5,-59 351,-59 364.19,-55.74 370.07,-50.96"/>
<polygon fill="#63b8ff" stroke="#63b8ff" points="373.51,-51.67 372.77,-41.1 366.75,-49.82 373.51,-51.67"/>
</a>
</g>
</g>
<!-- Node3 -->
<g id="Node000003" class="node">
<title>Node3</title>
<g id="a_Node000003"><a xlink:href="classEbceys_1_1Tests_1_1Infrastructure_1_1IntegrationTests_1_1WebApplication_1_1RoutingMessageHandler.html#a234667c66978e641af16324747d16cc7" target="_top" xlink:title=" ">
<polygon fill="white" stroke="#666666" points="657,-66 466,-66 466,-25 657,-25 657,-66"/>
<text text-anchor="start" x="474" y="-54" font-family="Helvetica,sans-Serif" font-size="10.00">Ebceys.Tests.Infrastructure.</text>
<text text-anchor="start" x="474" y="-43" font-family="Helvetica,sans-Serif" font-size="10.00">IntegrationTests.WebApplication.</text>
<text text-anchor="middle" x="561.5" y="-32" font-family="Helvetica,sans-Serif" font-size="10.00">RoutingMessageHandler.SendAsync</text>
</a>
</g>
</g>
<!-- Node2&#45;&gt;Node3 -->
<g id="edge3_Node000002_Node000003" class="edge">
<title>Node2&#45;&gt;Node3</title>
<g id="a_edge3_Node000002_Node000003"><a xlink:title=" ">
<path fill="none" stroke="#63b8ff" d="M430.28,-31.28C438.63,-32.19 447.09,-33.12 455.48,-34.04"/>
<polygon fill="#63b8ff" stroke="#63b8ff" points="455.35,-37.54 465.67,-35.15 456.11,-30.58 455.35,-37.54"/>
</a>
</g>
</g>
<!-- Node4 -->
<g id="Node000004" class="node">
<title>Node4</title>
<g id="a_Node000004"><a xlink:href="classEbceys_1_1Tests_1_1Infrastructure_1_1IntegrationTests_1_1WebApplication_1_1RoutingMessageHandler.html#a6899a4700a3e7686457571da40d9fa90" target="_top" xlink:title=" ">
<polygon fill="white" stroke="#666666" points="962,-41 693,-41 693,0 962,0 962,-41"/>
<text text-anchor="start" x="701" y="-29" font-family="Helvetica,sans-Serif" font-size="10.00">Ebceys.Tests.Infrastructure.</text>
<text text-anchor="start" x="701" y="-18" font-family="Helvetica,sans-Serif" font-size="10.00">IntegrationTests.WebApplication.</text>
<text text-anchor="middle" x="827.5" y="-7" font-family="Helvetica,sans-Serif" font-size="10.00">RoutingMessageHandler.ReplaceHttpHandlerByTest</text>
</a>
</g>
</g>
<!-- Node3&#45;&gt;Node4 -->
<g id="edge4_Node000003_Node000004" class="edge">
<title>Node3&#45;&gt;Node4</title>
<g id="a_edge4_Node000003_Node000004"><a xlink:title=" ">
<path fill="none" stroke="#63b8ff" d="M657.06,-36.55C665.47,-35.75 674.09,-34.93 682.78,-34.11"/>
<polygon fill="#63b8ff" stroke="#63b8ff" points="683.37,-37.57 693,-33.14 682.71,-30.6 683.37,-37.57"/>
</a>
</g>
</g>
<!-- Node4&#45;&gt;Node2 -->
<g id="edge5_Node000004_Node000002" class="edge">
<title>Node4&#45;&gt;Node2</title>
<g id="a_edge5_Node000004_Node000002"><a xlink:title=" ">
<path fill="none" stroke="#63b8ff" d="M692.81,-17.05C680.7,-16.83 668.63,-16.64 657,-16.5 572.12,-15.5 550.88,-15.24 466,-16.5 457.69,-16.62 449.09,-16.79 440.45,-16.99"/>
<polygon fill="#63b8ff" stroke="#63b8ff" points="440.2,-13.49 430.29,-17.23 440.37,-20.49 440.2,-13.49"/>
</a>
</g>
</g>
</g>
</svg>

<g id="navigator" transform="translate(0 0)" fill="#404254">
  <rect fill="#f2f5e9" fill-opacity="0.5" stroke="#606060" stroke-width=".5" x="0" y="0" width="60" height="60"/>
  <use id="zoomplus" xlink:href="#zoomPlus" x="17" y="9" onmousedown="handleZoom(evt,'in')"/>
  <use id="zoomminus" xlink:href="#zoomMin" x="42" y="9" onmousedown="handleZoom(evt,'out')"/>
  <use id="reset" xlink:href="#resetDef" x="30" y="36" onmousedown="handleReset()"/>
   <use id="arrowup" xlink:href="#arrowUp" x="0" y="0" onmousedown="handlePan(0,-1)"/>
  <use id="arrowright" xlink:href="#arrowRight" x="0" y="0" onmousedown="handlePan(1,0)"/>
  <use id="arrowdown" xlink:href="#arrowDown" x="0" y="0" onmousedown="handlePan(0,1)"/>
  <use id="arrowleft" xlink:href="#arrowLeft" x="0" y="0" onmousedown="handlePan(-1,0)"/>
</g>
<svg viewBox="0 0 15 15" width="100%" height="30px" preserveAspectRatio="xMaxYMin meet">
 <g id="arrow_out" transform="scale(0.3 0.3)">
  <a xlink:href="classEbceys_1_1Tests_1_1Infrastructure_1_1IntegrationTests_1_1WebApplication_1_1RoutingMessageHandler_a0e485af43e8c2e0098a1b28a1edc9bfc_cgraph_org.svg" target="_base">
   <rect id="button" ry="5" rx="5" y="6" x="6" height="38" width="38"
        fill="#f2f5e9" fill-opacity="0.5" stroke="#606060" stroke-width="1.0"/>
   <path id="arrow"
     d="M 11.500037,31.436501 C 11.940474,20.09759 22.043105,11.32322 32.158766,21.979434 L 37.068811,17.246167 C 37.068811,17.246167 37.088388,32 37.088388,32 L 22.160133,31.978069 C 22.160133,31.978069 26.997745,27.140456 26.997745,27.140456 C 18.528582,18.264221 13.291696,25.230495 11.500037,31.436501 z"
     style="fill:#404040;"/>
  </a>
 </g>
</svg>

<style type='text/css'>
<![CDATA[
[data-mouse-over-selected='false'] { opacity: 0.7; }
[data-mouse-over-selected='true']  { opacity: 1.0; }
]]>
</style>
<script type="application/ecmascript"><![CDATA[
document.addEventListener('DOMContentLoaded', (event) => {
  highlightEdges();
  highlightAdjacentNodes();
});
]]></script>
</svg>
