<?xml version="1.0" encoding="UTF-8" standalone="no"?>
<!DOCTYPE svg PUBLIC "-//W3C//DTD SVG 1.1//EN"
 "http://www.w3.org/Graphics/SVG/1.1/DTD/svg11.dtd">
<!-- Generated by graphviz version 2.43.0 (0)
 -->
<!-- Title: ControllerBase Pages: 1 -->
<svg width="434pt" height="318pt"
 viewBox="0.00 0.00 433.50 318.00" xmlns="http://www.w3.org/2000/svg" xmlns:xlink="http://www.w3.org/1999/xlink">

<svg id="main" version="1.1" xmlns="http://www.w3.org/2000/svg" xmlns:xlink="http://www.w3.org/1999/xlink" xml:space="preserve">

<style type="text/css"><![CDATA[
.node, .edge {opacity: 0.7;}
.node.selected, .edge.selected {opacity: 1;}
.edge:hover path { stroke: red; }
.edge:hover polygon { stroke: red; fill: red; }
]]></style>
<script type="application/ecmascript" xlink:href="svg.min.js"/>
<svg id="graph" class="graph">
<g id="graph0" class="graph" transform="scale(1 1) rotate(0) translate(4 314)">
<title>ControllerBase</title>
<!-- Node1 -->
<g id="Node000001" class="node">
<title>Node1</title>
<g id="a_Node000001"><a xlink:title=" ">
<polygon fill="#999999" stroke="transparent" points="260,-310 177,-310 177,-261 260,-261 260,-310"/>
<text text-anchor="start" x="182.5" y="-297.5" font-family="Helvetica,sans-Serif" font-size="10.00">ControllerBase</text>
<text text-anchor="start" x="217" y="-282.5" font-family="Helvetica,sans-Serif" font-size="10.00"> </text>
<text text-anchor="start" x="217" y="-267.5" font-family="Helvetica,sans-Serif" font-size="10.00"> </text>
<polygon fill="#666666" stroke="#666666" points="177.5,-292.5 177.5,-292.5 260.5,-292.5 260.5,-292.5 177.5,-292.5"/>
<polygon fill="#666666" stroke="#666666" points="177.5,-277.5 177.5,-277.5 260.5,-277.5 260.5,-277.5 177.5,-277.5"/>
<polygon fill="none" stroke="#666666" points="177,-261 177,-310 260,-310 260,-261 177,-261"/>
</a>
</g>
</g>
<!-- Node2 -->
<g id="Node000002" class="node">
<title>Node2</title>
<g id="a_Node000002"><a xlink:href="classEbceys_1_1Infrastructure_1_1AuthorizationTestApplication_1_1Controllers_1_1AuthController.html" target="_top" xlink:title=" ">
<polygon fill="white" stroke="transparent" points="215,-157.5 0,-157.5 0,-67.5 215,-67.5 215,-157.5"/>
<text text-anchor="start" x="5.5" y="-145.5" font-family="Helvetica,sans-Serif" font-size="10.00">Ebceys.Infrastructure.Authorization</text>
<text text-anchor="start" x="5.5" y="-134.5" font-family="Helvetica,sans-Serif" font-size="10.00">TestApplication.Controllers.AuthController</text>
<text text-anchor="start" x="36.5" y="-119.5" font-family="Helvetica,sans-Serif" font-size="10.00">&#45;</text>
<text text-anchor="start" x="76.5" y="-119.5" font-family="Helvetica,sans-Serif" font-size="10.00">AuthHeader</text>
<text text-anchor="start" x="34" y="-104.5" font-family="Helvetica,sans-Serif" font-size="10.00">+</text>
<text text-anchor="start" x="76.5" y="-104.5" font-family="Helvetica,sans-Serif" font-size="10.00">GetToken()</text>
<text text-anchor="start" x="34" y="-89.5" font-family="Helvetica,sans-Serif" font-size="10.00">+</text>
<text text-anchor="start" x="76.5" y="-89.5" font-family="Helvetica,sans-Serif" font-size="10.00">ValidateToken()</text>
<text text-anchor="start" x="34" y="-74.5" font-family="Helvetica,sans-Serif" font-size="10.00">+</text>
<text text-anchor="start" x="76.5" y="-74.5" font-family="Helvetica,sans-Serif" font-size="10.00">ValidateAuth()</text>
<polygon fill="#666666" stroke="#666666" points="0.5,-129.5 0.5,-129.5 215.5,-129.5 215.5,-129.5 0.5,-129.5"/>
<polygon fill="#666666" stroke="#666666" points="0.5,-114.5 0.5,-114.5 74.5,-114.5 74.5,-114.5 0.5,-114.5"/>
<polygon fill="#666666" stroke="#666666" points="74.5,-114.5 74.5,-114.5 215.5,-114.5 215.5,-114.5 74.5,-114.5"/>
<polygon fill="none" stroke="#666666" points="0,-67.5 0,-157.5 215,-157.5 215,-67.5 0,-67.5"/>
</a>
</g>
</g>
<!-- Node1&#45;&gt;Node2 -->
<g id="edge1_Node000001_Node000002" class="edge">
<title>Node1&#45;&gt;Node2</title>
<g id="a_edge1_Node000001_Node000002"><a xlink:title=" ">
<path fill="none" stroke="#63b8ff" d="M197.48,-252.12C180.1,-225.35 155.26,-187.07 136.08,-157.52"/>
<polygon fill="none" stroke="#63b8ff" points="194.69,-254.24 203.07,-260.72 200.56,-250.43 194.69,-254.24"/>
</a>
</g>
</g>
<!-- Node3 -->
<g id="Node000003" class="node">
<title>Node3</title>
<g id="a_Node000003"><a xlink:href="classEbceys_1_1Infrastructure_1_1TestApplication_1_1Controllers_1_1TestController.html" target="_top" xlink:title=" ">
<polygon fill="white" stroke="transparent" points="425.5,-225 233.5,-225 233.5,0 425.5,0 425.5,-225"/>
<text text-anchor="start" x="238.5" y="-212.5" font-family="Helvetica,sans-Serif" font-size="10.00">Ebceys.Infrastructure.Test</text>
<text text-anchor="start" x="238.5" y="-201.5" font-family="Helvetica,sans-Serif" font-size="10.00">Application.Controllers.TestController</text>
<text text-anchor="start" x="327.5" y="-186.5" font-family="Helvetica,sans-Serif" font-size="10.00"> </text>
<text text-anchor="start" x="257.5" y="-171.5" font-family="Helvetica,sans-Serif" font-size="10.00">+</text>
<text text-anchor="start" x="290.5" y="-171.5" font-family="Helvetica,sans-Serif" font-size="10.00">GetOk()</text>
<text text-anchor="start" x="257.5" y="-156.5" font-family="Helvetica,sans-Serif" font-size="10.00">+</text>
<text text-anchor="start" x="290.5" y="-156.5" font-family="Helvetica,sans-Serif" font-size="10.00">GetJson()</text>
<text text-anchor="start" x="257.5" y="-141.5" font-family="Helvetica,sans-Serif" font-size="10.00">+</text>
<text text-anchor="start" x="290.5" y="-141.5" font-family="Helvetica,sans-Serif" font-size="10.00">GetException()</text>
<text text-anchor="start" x="257.5" y="-126.5" font-family="Helvetica,sans-Serif" font-size="10.00">+</text>
<text text-anchor="start" x="290.5" y="-126.5" font-family="Helvetica,sans-Serif" font-size="10.00">PostBody()</text>
<text text-anchor="start" x="257.5" y="-111.5" font-family="Helvetica,sans-Serif" font-size="10.00">+</text>
<text text-anchor="start" x="290.5" y="-111.5" font-family="Helvetica,sans-Serif" font-size="10.00">GetQuery()</text>
<text text-anchor="start" x="257.5" y="-96.5" font-family="Helvetica,sans-Serif" font-size="10.00">+</text>
<text text-anchor="start" x="290.5" y="-96.5" font-family="Helvetica,sans-Serif" font-size="10.00">PostCommand()</text>
<text text-anchor="start" x="257.5" y="-81.5" font-family="Helvetica,sans-Serif" font-size="10.00">+</text>
<text text-anchor="start" x="290.5" y="-81.5" font-family="Helvetica,sans-Serif" font-size="10.00">GetCommand()</text>
<text text-anchor="start" x="257.5" y="-66.5" font-family="Helvetica,sans-Serif" font-size="10.00">+</text>
<text text-anchor="start" x="290.5" y="-66.5" font-family="Helvetica,sans-Serif" font-size="10.00">DeleteCommand()</text>
<text text-anchor="start" x="257.5" y="-51.5" font-family="Helvetica,sans-Serif" font-size="10.00">+</text>
<text text-anchor="start" x="290.5" y="-51.5" font-family="Helvetica,sans-Serif" font-size="10.00">PutCommand()</text>
<text text-anchor="start" x="257.5" y="-36.5" font-family="Helvetica,sans-Serif" font-size="10.00">+</text>
<text text-anchor="start" x="290.5" y="-36.5" font-family="Helvetica,sans-Serif" font-size="10.00">GetToken()</text>
<text text-anchor="start" x="257.5" y="-21.5" font-family="Helvetica,sans-Serif" font-size="10.00">+</text>
<text text-anchor="start" x="290.5" y="-21.5" font-family="Helvetica,sans-Serif" font-size="10.00">ValidateToken()</text>
<text text-anchor="start" x="257.5" y="-6.5" font-family="Helvetica,sans-Serif" font-size="10.00">+</text>
<text text-anchor="start" x="290.5" y="-6.5" font-family="Helvetica,sans-Serif" font-size="10.00">ValidateAuth()</text>
<polygon fill="#666666" stroke="#666666" points="233.5,-196.5 233.5,-196.5 425.5,-196.5 425.5,-196.5 233.5,-196.5"/>
<polygon fill="#666666" stroke="#666666" points="233.5,-181.5 233.5,-181.5 425.5,-181.5 425.5,-181.5 233.5,-181.5"/>
<polygon fill="none" stroke="#666666" points="233.5,0 233.5,-225 425.5,-225 425.5,0 233.5,0"/>
</a>
</g>
</g>
<!-- Node1&#45;&gt;Node3 -->
<g id="edge2_Node000001_Node000003" class="edge">
<title>Node1&#45;&gt;Node3</title>
<g id="a_edge2_Node000001_Node000003"><a xlink:title=" ">
<path fill="none" stroke="#63b8ff" d="M239.54,-252.09C244.77,-244.03 250.68,-234.92 256.91,-225.32"/>
<polygon fill="none" stroke="#63b8ff" points="236.44,-250.43 233.93,-260.72 242.31,-254.24 236.44,-250.43"/>
</a>
</g>
</g>
</g>
</svg>
</svg>

<style type='text/css'>
<![CDATA[
[data-mouse-over-selected='false'] { opacity: 0.7; }
[data-mouse-over-selected='true']  { opacity: 1.0; }
]]>
</style>
<script type="application/ecmascript"><![CDATA[
document.addEventListener('DOMContentLoaded', (event) => {
  highlightEdges();
  highlightAdjacentNodes();
});
]]></script>
</svg>
