<?xml version="1.0" encoding="UTF-8" standalone="no"?>
<!DOCTYPE svg PUBLIC "-//W3C//DTD SVG 1.1//EN"
 "http://www.w3.org/Graphics/SVG/1.1/DTD/svg11.dtd">
<!-- Generated by graphviz version 2.43.0 (0)
 -->
<!-- Title: Ebceys.Infrastructure.UnitTests.Helpers.EbRandomizerTests.GetJwts Pages: 1 -->
<svg width="378pt" height="62pt"
 viewBox="0.00 0.00 378.00 61.50" xmlns="http://www.w3.org/2000/svg" xmlns:xlink="http://www.w3.org/1999/xlink">
<g id="graph0" class="graph" transform="scale(1 1) rotate(0) translate(4 57.5)">
<title>Ebceys.Infrastructure.UnitTests.Helpers.EbRandomizerTests.GetJwts</title>
<!-- Node1 -->
<g id="Node000001" class="node">
<title>Node1</title>
<g id="a_Node000001"><a xlink:title=" ">
<polygon fill="#999999" stroke="#666666" points="183,-41 0,-41 0,0 183,0 183,-41"/>
<text text-anchor="start" x="8" y="-29" font-family="Helvetica,sans-Serif" font-size="10.00">Ebceys.Infrastructure.Unit</text>
<text text-anchor="start" x="8" y="-18" font-family="Helvetica,sans-Serif" font-size="10.00">Tests.Helpers.EbRandomizerTests.</text>
<text text-anchor="middle" x="91.5" y="-7" font-family="Helvetica,sans-Serif" font-size="10.00">GetJwts</text>
</a>
</g>
</g>
<!-- Node2 -->
<g id="Node000002" class="node">
<title>Node2</title>
<g id="a_Node000002"><a xlink:href="namespaceEbceys_1_1Tests_1_1Infrastructure_1_1Helpers.html#ac9492a2eeccc0965c21683f27daac5b1" target="_top" xlink:title="The EbRandomizer class.">
<polygon fill="white" stroke="#666666" points="370,-35.5 219,-35.5 219,-5.5 370,-5.5 370,-35.5"/>
<text text-anchor="start" x="227" y="-23.5" font-family="Helvetica,sans-Serif" font-size="10.00">Ebceys.Tests.Infrastructure.</text>
<text text-anchor="middle" x="294.5" y="-12.5" font-family="Helvetica,sans-Serif" font-size="10.00">Helpers.EbRandomizer</text>
</a>
</g>
</g>
<!-- Node1&#45;&gt;Node2 -->
<g id="edge1_Node000001_Node000002" class="edge">
<title>Node1&#45;&gt;Node2</title>
<g id="a_edge1_Node000001_Node000002"><a xlink:title=" ">
<path fill="none" stroke="#63b8ff" d="M183,-20.5C191.52,-20.5 200.14,-20.5 208.6,-20.5"/>
<polygon fill="#63b8ff" stroke="#63b8ff" points="208.84,-24 218.84,-20.5 208.84,-17 208.84,-24"/>
</a>
</g>
</g>
<!-- Node2&#45;&gt;Node2 -->
<g id="edge2_Node000002_Node000002" class="edge">
<title>Node2&#45;&gt;Node2</title>
<g id="a_edge2_Node000002_Node000002"><a xlink:title=" ">
<path fill="none" stroke="#63b8ff" d="M258.99,-35.78C251.1,-44.91 262.94,-53.5 294.5,-53.5 313.24,-53.5 325.03,-50.47 329.86,-46.1"/>
<polygon fill="#63b8ff" stroke="#63b8ff" points="333.36,-45.83 330.01,-35.78 326.36,-45.72 333.36,-45.83"/>
</a>
</g>
</g>
</g>
</svg>
