<?xml version="1.0" encoding="UTF-8" standalone="no"?>
<!DOCTYPE svg PUBLIC "-//W3C//DTD SVG 1.1//EN"
 "http://www.w3.org/Graphics/SVG/1.1/DTD/svg11.dtd">
<!-- Generated by graphviz version 2.43.0 (0)
 -->
<!-- Title: Ebceys.Infrastructure.UnitTests.Validators.ClientConfigurationValidatorTests.ClientConfigurationValidatorCaseSource Pages: 1 -->
<svg width="227pt" height="287pt"
 viewBox="0.00 0.00 227.00 287.00" xmlns="http://www.w3.org/2000/svg" xmlns:xlink="http://www.w3.org/1999/xlink">

<svg id="main" version="1.1" xmlns="http://www.w3.org/2000/svg" xmlns:xlink="http://www.w3.org/1999/xlink" xml:space="preserve">

<style type="text/css"><![CDATA[
.node, .edge {opacity: 0.7;}
.node.selected, .edge.selected {opacity: 1;}
.edge:hover path { stroke: red; }
.edge:hover polygon { stroke: red; fill: red; }
]]></style>
<script type="application/ecmascript" xlink:href="svg.min.js"/>
<svg id="graph" class="graph">
<g id="graph0" class="graph" transform="scale(1 1) rotate(0) translate(4 283)">
<title>Ebceys.Infrastructure.UnitTests.Validators.ClientConfigurationValidatorTests.ClientConfigurationValidatorCaseSource</title>
<!-- Node1 -->
<g id="Node000001" class="node">
<title>Node1</title>
<g id="a_Node000001"><a xlink:title=" ">
<polygon fill="#999999" stroke="transparent" points="219,-127 0,-127 0,0 219,0 219,-127"/>
<text text-anchor="start" x="5.5" y="-114.5" font-family="Helvetica,sans-Serif" font-size="10.00">Ebceys.Infrastructure.Unit</text>
<text text-anchor="start" x="5.5" y="-103.5" font-family="Helvetica,sans-Serif" font-size="10.00">Tests.Validators.ClientConfiguration</text>
<text text-anchor="start" x="5.5" y="-92.5" font-family="Helvetica,sans-Serif" font-size="10.00">ValidatorTests.ClientConfigurationValidator</text>
<text text-anchor="start" x="81" y="-81.5" font-family="Helvetica,sans-Serif" font-size="10.00">CaseSource</text>
<text text-anchor="start" x="108" y="-66.5" font-family="Helvetica,sans-Serif" font-size="10.00"> </text>
<text text-anchor="start" x="30.5" y="-51.5" font-family="Helvetica,sans-Serif" font-size="10.00">+</text>
<text text-anchor="start" x="69.5" y="-51.5" font-family="Helvetica,sans-Serif" font-size="10.00">SetupValidBase()</text>
<text text-anchor="start" x="30.5" y="-36.5" font-family="Helvetica,sans-Serif" font-size="10.00">+</text>
<text text-anchor="start" x="69.5" y="-36.5" font-family="Helvetica,sans-Serif" font-size="10.00">SetupInvalidBase()</text>
<text text-anchor="start" x="30.5" y="-21.5" font-family="Helvetica,sans-Serif" font-size="10.00">+</text>
<text text-anchor="start" x="69.5" y="-21.5" font-family="Helvetica,sans-Serif" font-size="10.00">GetValidCases()</text>
<text text-anchor="start" x="30.5" y="-6.5" font-family="Helvetica,sans-Serif" font-size="10.00">+</text>
<text text-anchor="start" x="69.5" y="-6.5" font-family="Helvetica,sans-Serif" font-size="10.00">GetInvalidCases()</text>
<polygon fill="#666666" stroke="#666666" points="0.5,-76.5 0.5,-76.5 219.5,-76.5 219.5,-76.5 0.5,-76.5"/>
<polygon fill="#666666" stroke="#666666" points="0.5,-61.5 0.5,-61.5 219.5,-61.5 219.5,-61.5 0.5,-61.5"/>
<polygon fill="none" stroke="#666666" points="0,0 0,-127 219,-127 219,0 0,0"/>
</a>
</g>
</g>
<!-- Node2 -->
<g id="Node000002" class="node">
<title>Node2</title>
<g id="a_Node000002"><a xlink:href="classEbceys_1_1Tests_1_1Infrastructure_1_1Helpers_1_1TestCaseSources_1_1EbTestCaseSource-1-g.html" target="_top" xlink:title="The test case source.">
<polygon fill="white" stroke="transparent" points="205,-279 14,-279 14,-163 205,-163 205,-279"/>
<text text-anchor="start" x="19.5" y="-267" font-family="Helvetica,sans-Serif" font-size="10.00">Ebceys.Tests.Infrastructure.</text>
<text text-anchor="start" x="19.5" y="-256" font-family="Helvetica,sans-Serif" font-size="10.00">Helpers.TestCaseSources.EbTestCase</text>
<text text-anchor="start" x="67.5" y="-245" font-family="Helvetica,sans-Serif" font-size="10.00">Source&lt; TData &gt;</text>
<text text-anchor="start" x="108" y="-230" font-family="Helvetica,sans-Serif" font-size="10.00"> </text>
<text text-anchor="start" x="37.5" y="-215" font-family="Helvetica,sans-Serif" font-size="10.00">+</text>
<text text-anchor="start" x="69.5" y="-215" font-family="Helvetica,sans-Serif" font-size="10.00">SetupValidBase()</text>
<text text-anchor="start" x="37.5" y="-200" font-family="Helvetica,sans-Serif" font-size="10.00">+</text>
<text text-anchor="start" x="69.5" y="-200" font-family="Helvetica,sans-Serif" font-size="10.00">SetupInvalidBase()</text>
<text text-anchor="start" x="37.5" y="-185" font-family="Helvetica,sans-Serif" font-size="10.00">+</text>
<text text-anchor="start" x="69.5" y="-185" font-family="Helvetica,sans-Serif" font-size="10.00">GetValidCases()</text>
<text text-anchor="start" x="37.5" y="-170" font-family="Helvetica,sans-Serif" font-size="10.00">+</text>
<text text-anchor="start" x="69.5" y="-170" font-family="Helvetica,sans-Serif" font-size="10.00">GetInvalidCases()</text>
<polygon fill="#666666" stroke="#666666" points="14.5,-240 14.5,-240 205.5,-240 205.5,-240 14.5,-240"/>
<polygon fill="#666666" stroke="#666666" points="14.5,-225 14.5,-225 205.5,-225 205.5,-225 14.5,-225"/>
<polygon fill="none" stroke="#666666" points="14,-163 14,-279 205,-279 205,-163 14,-163"/>
</a>
</g>
</g>
<!-- Node2&#45;&gt;Node1 -->
<g id="edge1_Node000001_Node000002" class="edge">
<title>Node2&#45;&gt;Node1</title>
<g id="a_edge1_Node000001_Node000002"><a xlink:title=" ">
<path fill="none" stroke="#63b8ff" d="M109.5,-152.97C109.5,-144.36 109.5,-135.56 109.5,-127.02"/>
<polygon fill="none" stroke="#63b8ff" points="106,-152.98 109.5,-162.98 113,-152.98 106,-152.98"/>
</a>
</g>
</g>
</g>
</svg>
</svg>

<style type='text/css'>
<![CDATA[
[data-mouse-over-selected='false'] { opacity: 0.7; }
[data-mouse-over-selected='true']  { opacity: 1.0; }
]]>
</style>
<script type="application/ecmascript"><![CDATA[
document.addEventListener('DOMContentLoaded', (event) => {
  highlightEdges();
  highlightAdjacentNodes();
});
]]></script>
</svg>
