<?xml version="1.0" encoding="UTF-8" standalone="no"?>
<!DOCTYPE svg PUBLIC "-//W3C//DTD SVG 1.1//EN"
 "http://www.w3.org/Graphics/SVG/1.1/DTD/svg11.dtd">
<!-- Generated by graphviz version 2.43.0 (0)
 -->
<!-- Title: Ebceys.Infrastructure.HttpClient.ClientBase.GetRawAsync&lt; TError &gt; Pages: 1 -->
<svg width="671pt" height="194pt"
 viewBox="0.00 0.00 671.00 193.50" xmlns="http://www.w3.org/2000/svg" xmlns:xlink="http://www.w3.org/1999/xlink">
<g id="graph0" class="graph" transform="scale(1 1) rotate(0) translate(4 189.5)">
<title>Ebceys.Infrastructure.HttpClient.ClientBase.GetRawAsync&lt; TError &gt;</title>
<!-- Node1 -->
<g id="Node000001" class="node">
<title>Node1</title>
<g id="a_Node000001"><a xlink:title="Sends GET request with awaiting byte array response.">
<polygon fill="#999999" stroke="#666666" points="171,-83.5 0,-83.5 0,-42.5 171,-42.5 171,-83.5"/>
<text text-anchor="start" x="8" y="-71.5" font-family="Helvetica,sans-Serif" font-size="10.00">Ebceys.Infrastructure.Http</text>
<text text-anchor="start" x="8" y="-60.5" font-family="Helvetica,sans-Serif" font-size="10.00">Client.ClientBase.GetRawAsync</text>
<text text-anchor="middle" x="85.5" y="-49.5" font-family="Helvetica,sans-Serif" font-size="10.00">&lt; TError &gt;</text>
</a>
</g>
</g>
<!-- Node2 -->
<g id="Node000002" class="node">
<title>Node2</title>
<g id="a_Node000002"><a xlink:href="classEbceys_1_1Infrastructure_1_1HttpClient_1_1ClientBase.html#a1696185a0f91cbdecdbda5181719877b" target="_top" xlink:title="Executes the flurl request with Policy.">
<polygon fill="white" stroke="#666666" points="430,-114 207,-114 207,-84 430,-84 430,-114"/>
<text text-anchor="start" x="215" y="-102" font-family="Helvetica,sans-Serif" font-size="10.00">Ebceys.Infrastructure.Http</text>
<text text-anchor="middle" x="318.5" y="-91" font-family="Helvetica,sans-Serif" font-size="10.00">Client.ClientBase.ExecuteWithPolicyAsync</text>
</a>
</g>
</g>
<!-- Node1&#45;&gt;Node2 -->
<g id="edge1_Node000001_Node000002" class="edge">
<title>Node1&#45;&gt;Node2</title>
<g id="a_edge1_Node000001_Node000002"><a xlink:title=" ">
<path fill="none" stroke="#63b8ff" d="M171.2,-76.2C184.13,-78.22 197.62,-80.32 210.94,-82.39"/>
<polygon fill="#63b8ff" stroke="#63b8ff" points="210.67,-85.89 221.09,-83.97 211.75,-78.98 210.67,-85.89"/>
</a>
</g>
</g>
<!-- Node6 -->
<g id="Node000006" class="node">
<title>Node6</title>
<g id="a_Node000006"><a xlink:href="classEbceys_1_1Infrastructure_1_1HttpClient_1_1ClientBase.html#a1215a1d2418cd433a86229b07718ee6e" target="_top" xlink:title=" ">
<polygon fill="white" stroke="#666666" points="409,-54 228,-54 228,-24 409,-24 409,-54"/>
<text text-anchor="start" x="236" y="-42" font-family="Helvetica,sans-Serif" font-size="10.00">Ebceys.Infrastructure.Http</text>
<text text-anchor="middle" x="318.5" y="-31" font-family="Helvetica,sans-Serif" font-size="10.00">Client.ClientBase.PrepareRequest</text>
</a>
</g>
</g>
<!-- Node1&#45;&gt;Node6 -->
<g id="edge5_Node000001_Node000006" class="edge">
<title>Node1&#45;&gt;Node6</title>
<g id="a_edge5_Node000001_Node000006"><a xlink:title=" ">
<path fill="none" stroke="#63b8ff" d="M171.2,-54.2C186.31,-52.63 202.17,-50.98 217.65,-49.37"/>
<polygon fill="#63b8ff" stroke="#63b8ff" points="218.17,-52.84 227.76,-48.32 217.45,-45.88 218.17,-52.84"/>
</a>
</g>
</g>
<!-- Node3 -->
<g id="Node000003" class="node">
<title>Node3</title>
<g id="a_Node000003"><a xlink:href="classEbceys_1_1Infrastructure_1_1HttpClient_1_1ClientBase.html#ae6d5d118c5f95d84981e1b675278b16f" target="_top" xlink:title="Executes the request delegate without policy.">
<polygon fill="white" stroke="#666666" points="654.5,-185.5 474.5,-185.5 474.5,-144.5 654.5,-144.5 654.5,-185.5"/>
<text text-anchor="start" x="482.5" y="-173.5" font-family="Helvetica,sans-Serif" font-size="10.00">Ebceys.Infrastructure.Http</text>
<text text-anchor="start" x="482.5" y="-162.5" font-family="Helvetica,sans-Serif" font-size="10.00">Client.ClientBase.ExecuteWithout</text>
<text text-anchor="middle" x="564.5" y="-151.5" font-family="Helvetica,sans-Serif" font-size="10.00">PolicyAsync</text>
</a>
</g>
</g>
<!-- Node2&#45;&gt;Node3 -->
<g id="edge2_Node000002_Node000003" class="edge">
<title>Node2&#45;&gt;Node3</title>
<g id="a_edge2_Node000002_Node000003"><a xlink:title=" ">
<path fill="none" stroke="#63b8ff" d="M375.17,-114.06C405.38,-122.23 443.39,-132.51 477.34,-141.69"/>
<polygon fill="#63b8ff" stroke="#63b8ff" points="476.69,-145.15 487.26,-144.38 478.52,-138.39 476.69,-145.15"/>
</a>
</g>
</g>
<!-- Node4 -->
<g id="Node000004" class="node">
<title>Node4</title>
<g id="a_Node000004"><a xlink:href="classEbceys_1_1Infrastructure_1_1HttpClient_1_1ClientBase.html#adbe434b6f97c2a5c74123c5aea4ac9e9" target="_top" xlink:title=" ">
<polygon fill="white" stroke="#666666" points="645,-126 484,-126 484,-96 645,-96 645,-126"/>
<text text-anchor="start" x="492" y="-114" font-family="Helvetica,sans-Serif" font-size="10.00">Ebceys.Infrastructure.Http</text>
<text text-anchor="middle" x="564.5" y="-103" font-family="Helvetica,sans-Serif" font-size="10.00">Client.ClientBase.LogRequest</text>
</a>
</g>
</g>
<!-- Node2&#45;&gt;Node4 -->
<g id="edge3_Node000002_Node000004" class="edge">
<title>Node2&#45;&gt;Node4</title>
<g id="a_edge3_Node000002_Node000004"><a xlink:title=" ">
<path fill="none" stroke="#63b8ff" d="M430.08,-104.44C444.69,-105.16 459.52,-105.89 473.72,-106.58"/>
<polygon fill="#63b8ff" stroke="#63b8ff" points="473.78,-110.09 483.94,-107.09 474.13,-103.1 473.78,-110.09"/>
</a>
</g>
</g>
<!-- Node5 -->
<g id="Node000005" class="node">
<title>Node5</title>
<g id="a_Node000005"><a xlink:href="classEbceys_1_1Infrastructure_1_1HttpClient_1_1ClientBase.html#a306e46acd18714d98371240e19234a68" target="_top" xlink:title=" ">
<polygon fill="white" stroke="#666666" points="648.5,-78 480.5,-78 480.5,-48 648.5,-48 648.5,-78"/>
<text text-anchor="start" x="488.5" y="-66" font-family="Helvetica,sans-Serif" font-size="10.00">Ebceys.Infrastructure.Http</text>
<text text-anchor="middle" x="564.5" y="-55" font-family="Helvetica,sans-Serif" font-size="10.00">Client.ClientBase.LogResponse</text>
</a>
</g>
</g>
<!-- Node2&#45;&gt;Node5 -->
<g id="edge4_Node000002_Node000005" class="edge">
<title>Node2&#45;&gt;Node5</title>
<g id="a_edge4_Node000002_Node000005"><a xlink:title=" ">
<path fill="none" stroke="#63b8ff" d="M421.21,-83.99C437.56,-81.58 454.41,-79.09 470.55,-76.71"/>
<polygon fill="#63b8ff" stroke="#63b8ff" points="471.11,-80.17 480.49,-75.25 470.08,-73.24 471.11,-80.17"/>
</a>
</g>
</g>
<!-- Node7 -->
<g id="Node000007" class="node">
<title>Node7</title>
<g id="a_Node000007"><a xlink:href="classEbceys_1_1Infrastructure_1_1HttpClient_1_1ClientBase.html#a9c91605887d6727560a6cc2f94938c16" target="_top" xlink:title=" ">
<polygon fill="white" stroke="#666666" points="663,-30 466,-30 466,0 663,0 663,-30"/>
<text text-anchor="start" x="474" y="-18" font-family="Helvetica,sans-Serif" font-size="10.00">Ebceys.Infrastructure.Http</text>
<text text-anchor="middle" x="564.5" y="-7" font-family="Helvetica,sans-Serif" font-size="10.00">Client.ClientBase.GetDefaultHeaders</text>
</a>
</g>
</g>
<!-- Node6&#45;&gt;Node7 -->
<g id="edge6_Node000006_Node000007" class="edge">
<title>Node6&#45;&gt;Node7</title>
<g id="a_edge6_Node000006_Node000007"><a xlink:title=" ">
<path fill="none" stroke="#63b8ff" d="M409.32,-30.17C424.37,-28.69 440.12,-27.14 455.56,-25.62"/>
<polygon fill="#63b8ff" stroke="#63b8ff" points="456.05,-29.09 465.66,-24.62 455.37,-22.12 456.05,-29.09"/>
</a>
</g>
</g>
</g>
</svg>
