<?xml version="1.0" encoding="UTF-8" standalone="no"?>
<!DOCTYPE svg PUBLIC "-//W3C//DTD SVG 1.1//EN"
 "http://www.w3.org/Graphics/SVG/1.1/DTD/svg11.dtd">
<!-- Generated by graphviz version 2.43.0 (0)
 -->
<!-- Title: DelegatingHandler Pages: 1 -->
<svg width="388pt" height="239pt"
 viewBox="0.00 0.00 388.00 239.00" xmlns="http://www.w3.org/2000/svg" xmlns:xlink="http://www.w3.org/1999/xlink">

<svg id="main" version="1.1" xmlns="http://www.w3.org/2000/svg" xmlns:xlink="http://www.w3.org/1999/xlink" xml:space="preserve">

<style type="text/css"><![CDATA[
.node, .edge {opacity: 0.7;}
.node.selected, .edge.selected {opacity: 1;}
.edge:hover path { stroke: red; }
.edge:hover polygon { stroke: red; fill: red; }
]]></style>
<script type="application/ecmascript" xlink:href="svg.min.js"/>
<svg id="graph" class="graph">
<g id="graph0" class="graph" transform="scale(1 1) rotate(0) translate(4 235)">
<title>DelegatingHandler</title>
<!-- Node1 -->
<g id="Node000001" class="node">
<title>Node1</title>
<g id="a_Node000001"><a xlink:title=" ">
<polygon fill="#999999" stroke="transparent" points="246,-231 144,-231 144,-182 246,-182 246,-231"/>
<text text-anchor="start" x="149" y="-218.5" font-family="Helvetica,sans-Serif" font-size="10.00">DelegatingHandler</text>
<text text-anchor="start" x="193" y="-203.5" font-family="Helvetica,sans-Serif" font-size="10.00"> </text>
<text text-anchor="start" x="193" y="-188.5" font-family="Helvetica,sans-Serif" font-size="10.00"> </text>
<polygon fill="#666666" stroke="#666666" points="144,-213.5 144,-213.5 246,-213.5 246,-213.5 144,-213.5"/>
<polygon fill="#666666" stroke="#666666" points="144,-198.5 144,-198.5 246,-198.5 246,-198.5 144,-198.5"/>
<polygon fill="none" stroke="#666666" points="144,-182 144,-231 246,-231 246,-182 144,-182"/>
</a>
</g>
</g>
<!-- Node2 -->
<g id="Node000002" class="node">
<title>Node2</title>
<g id="a_Node000002"><a xlink:href="classEbceys_1_1Tests_1_1Infrastructure_1_1IntegrationTests_1_1TestRoutingMessageHandler.html" target="_top" xlink:title="The TestRoutingMessageHandler class.">
<polygon fill="white" stroke="transparent" points="192,-123.5 0,-123.5 0,-22.5 192,-22.5 192,-123.5"/>
<text text-anchor="start" x="5" y="-111" font-family="Helvetica,sans-Serif" font-size="10.00">Ebceys.Tests.Infrastructure.</text>
<text text-anchor="start" x="5" y="-100" font-family="Helvetica,sans-Serif" font-size="10.00">IntegrationTests.TestRoutingMessage</text>
<text text-anchor="start" x="76.5" y="-89" font-family="Helvetica,sans-Serif" font-size="10.00">Handler</text>
<text text-anchor="start" x="23" y="-74" font-family="Helvetica,sans-Serif" font-size="10.00">+</text>
<text text-anchor="start" x="55" y="-74" font-family="Helvetica,sans-Serif" font-size="10.00">RouteConfiguration</text>
<text text-anchor="start" x="25.5" y="-59" font-family="Helvetica,sans-Serif" font-size="10.00">&#45;</text>
<text text-anchor="start" x="55" y="-59" font-family="Helvetica,sans-Serif" font-size="10.00">_hosts</text>
<text text-anchor="start" x="23" y="-44" font-family="Helvetica,sans-Serif" font-size="10.00">#</text>
<text text-anchor="start" x="55" y="-44" font-family="Helvetica,sans-Serif" font-size="10.00">SendAsync()</text>
<text text-anchor="start" x="25.5" y="-29" font-family="Helvetica,sans-Serif" font-size="10.00">&#45;</text>
<text text-anchor="start" x="55" y="-29" font-family="Helvetica,sans-Serif" font-size="10.00">HostHandler()</text>
<polygon fill="#666666" stroke="#666666" points="0,-84 0,-84 192,-84 192,-84 0,-84"/>
<polygon fill="#666666" stroke="#666666" points="0,-54 0,-54 53,-54 53,-54 0,-54"/>
<polygon fill="#666666" stroke="#666666" points="53,-54 53,-54 192,-54 192,-54 53,-54"/>
<polygon fill="none" stroke="#666666" points="0,-22.5 0,-123.5 192,-123.5 192,-22.5 0,-22.5"/>
</a>
</g>
</g>
<!-- Node1&#45;&gt;Node2 -->
<g id="edge1_Node000001_Node000002" class="edge">
<title>Node1&#45;&gt;Node2</title>
<g id="a_edge1_Node000001_Node000002"><a xlink:title=" ">
<path fill="none" stroke="#63b8ff" d="M170.97,-173.59C159.7,-158.62 146.02,-140.44 133.44,-123.72"/>
<polygon fill="none" stroke="#63b8ff" points="168.49,-176.11 177.3,-181.99 174.08,-171.9 168.49,-176.11"/>
</a>
</g>
</g>
<!-- Node3 -->
<g id="Node000003" class="node">
<title>Node3</title>
<g id="a_Node000003"><a xlink:href="classEbceys_1_1Tests_1_1Infrastructure_1_1IntegrationTests_1_1WebApplication_1_1RoutingMessageHandler.html" target="_top" xlink:title=" ">
<polygon fill="white" stroke="transparent" points="380,-146 210,-146 210,0 380,0 380,-146"/>
<text text-anchor="start" x="215" y="-134" font-family="Helvetica,sans-Serif" font-size="10.00">Ebceys.Tests.Infrastructure.</text>
<text text-anchor="start" x="215" y="-123" font-family="Helvetica,sans-Serif" font-size="10.00">IntegrationTests.WebApplication.</text>
<text text-anchor="start" x="235" y="-112" font-family="Helvetica,sans-Serif" font-size="10.00">RoutingMessageHandler</text>
<text text-anchor="start" x="219" y="-97" font-family="Helvetica,sans-Serif" font-size="10.00">&#45;</text>
<text text-anchor="start" x="232" y="-97" font-family="Helvetica,sans-Serif" font-size="10.00">_hosts</text>
<text text-anchor="start" x="216.5" y="-82" font-family="Helvetica,sans-Serif" font-size="10.00">+</text>
<text text-anchor="start" x="232" y="-82" font-family="Helvetica,sans-Serif" font-size="10.00">RoutingMessageHandler()</text>
<text text-anchor="start" x="216.5" y="-67" font-family="Helvetica,sans-Serif" font-size="10.00">#</text>
<text text-anchor="start" x="232" y="-67" font-family="Helvetica,sans-Serif" font-size="10.00">SendAsync()</text>
<text text-anchor="start" x="219" y="-52" font-family="Helvetica,sans-Serif" font-size="10.00">&#45;</text>
<text text-anchor="start" x="232" y="-52" font-family="Helvetica,sans-Serif" font-size="10.00">AddHandler()</text>
<text text-anchor="start" x="219" y="-37" font-family="Helvetica,sans-Serif" font-size="10.00">&#45;</text>
<text text-anchor="start" x="232" y="-37" font-family="Helvetica,sans-Serif" font-size="10.00">AddHandler()</text>
<text text-anchor="start" x="219" y="-22" font-family="Helvetica,sans-Serif" font-size="10.00">&#45;</text>
<text text-anchor="start" x="232" y="-22" font-family="Helvetica,sans-Serif" font-size="10.00">HostHandler()</text>
<text text-anchor="start" x="219" y="-7" font-family="Helvetica,sans-Serif" font-size="10.00">&#45;</text>
<text text-anchor="start" x="232" y="-7" font-family="Helvetica,sans-Serif" font-size="10.00">ReplaceHttpHandlerByTest()</text>
<polygon fill="#666666" stroke="#666666" points="210,-107 210,-107 380,-107 380,-107 210,-107"/>
<polygon fill="#666666" stroke="#666666" points="210,-92 210,-92 230,-92 230,-92 210,-92"/>
<polygon fill="#666666" stroke="#666666" points="230,-92 230,-92 380,-92 380,-92 230,-92"/>
<polygon fill="none" stroke="#666666" points="210,0 210,-146 380,-146 380,0 210,0"/>
</a>
</g>
</g>
<!-- Node1&#45;&gt;Node3 -->
<g id="edge2_Node000001_Node000003" class="edge">
<title>Node1&#45;&gt;Node3</title>
<g id="a_edge2_Node000001_Node000003"><a xlink:title=" ">
<path fill="none" stroke="#63b8ff" d="M219.05,-173.87C225.51,-165.37 232.78,-155.82 240.18,-146.08"/>
<polygon fill="none" stroke="#63b8ff" points="216.15,-171.91 212.88,-181.99 221.72,-176.15 216.15,-171.91"/>
</a>
</g>
</g>
</g>
</svg>
</svg>

<style type='text/css'>
<![CDATA[
[data-mouse-over-selected='false'] { opacity: 0.7; }
[data-mouse-over-selected='true']  { opacity: 1.0; }
]]>
</style>
<script type="application/ecmascript"><![CDATA[
document.addEventListener('DOMContentLoaded', (event) => {
  highlightEdges();
  highlightAdjacentNodes();
});
]]></script>
</svg>
