<?xml version="1.0" encoding="UTF-8" standalone="no"?>
<!DOCTYPE svg PUBLIC "-//W3C//DTD SVG 1.1//EN"
 "http://www.w3.org/Graphics/SVG/1.1/DTD/svg11.dtd">
<!-- Generated by graphviz version 2.43.0 (0)
 -->
<!-- Title: Ebceys.Tests.Infrastructure.IntegrationTests.WebApplication.ClientTestContext&lt; TClient, TEntrypoint &gt; Pages: 1 -->
<svg width="223pt" height="388pt"
 viewBox="0.00 0.00 223.00 388.00" xmlns="http://www.w3.org/2000/svg" xmlns:xlink="http://www.w3.org/1999/xlink">
<g id="graph0" class="graph" transform="scale(1 1) rotate(0) translate(4 384)">
<title>Ebceys.Tests.Infrastructure.IntegrationTests.WebApplication.ClientTestContext&lt; TClient, TEntrypoint &gt;</title>
<!-- Node1 -->
<g id="Node000001" class="node">
<title>Node1</title>
<g id="a_Node000001"><a xlink:title="The ClientTestContext&lt;TClient,TEntrypoint&gt; class.">
<polygon fill="#999999" stroke="transparent" points="215,-131 0,-131 0,0 215,0 215,-131"/>
<text text-anchor="start" x="5.5" y="-118.5" font-family="Helvetica,sans-Serif" font-size="10.00">Ebceys.Tests.Infrastructure.</text>
<text text-anchor="start" x="5.5" y="-107.5" font-family="Helvetica,sans-Serif" font-size="10.00">IntegrationTests.WebApplication.</text>
<text text-anchor="start" x="5.5" y="-96.5" font-family="Helvetica,sans-Serif" font-size="10.00">ClientTestContext&lt; TClient, TEntrypoint &gt;</text>
<text text-anchor="start" x="17.5" y="-81.5" font-family="Helvetica,sans-Serif" font-size="10.00">+</text>
<text text-anchor="start" x="43.5" y="-81.5" font-family="Helvetica,sans-Serif" font-size="10.00">ServiceClient</text>
<text text-anchor="start" x="17.5" y="-66.5" font-family="Helvetica,sans-Serif" font-size="10.00">+</text>
<text text-anchor="start" x="43.5" y="-66.5" font-family="Helvetica,sans-Serif" font-size="10.00">Services</text>
<text text-anchor="start" x="17.5" y="-51.5" font-family="Helvetica,sans-Serif" font-size="10.00">+</text>
<text text-anchor="start" x="43.5" y="-51.5" font-family="Helvetica,sans-Serif" font-size="10.00">Initialize()</text>
<text text-anchor="start" x="17.5" y="-36.5" font-family="Helvetica,sans-Serif" font-size="10.00">+</text>
<text text-anchor="start" x="43.5" y="-36.5" font-family="Helvetica,sans-Serif" font-size="10.00">CreateServiceSystemClient()</text>
<text text-anchor="start" x="17.5" y="-21.5" font-family="Helvetica,sans-Serif" font-size="10.00">#</text>
<text text-anchor="start" x="43.5" y="-21.5" font-family="Helvetica,sans-Serif" font-size="10.00">CreateServiceClient()</text>
<text text-anchor="start" x="17.5" y="-6.5" font-family="Helvetica,sans-Serif" font-size="10.00">#</text>
<text text-anchor="start" x="43.5" y="-6.5" font-family="Helvetica,sans-Serif" font-size="10.00">CreateFlurlCache()</text>
<polygon fill="#666666" stroke="#666666" points="0.5,-91.5 0.5,-91.5 215.5,-91.5 215.5,-91.5 0.5,-91.5"/>
<polygon fill="#666666" stroke="#666666" points="0.5,-61.5 0.5,-61.5 41.5,-61.5 41.5,-61.5 0.5,-61.5"/>
<polygon fill="#666666" stroke="#666666" points="41.5,-61.5 41.5,-61.5 215.5,-61.5 215.5,-61.5 41.5,-61.5"/>
<polygon fill="none" stroke="#666666" points="0,0 0,-131 215,-131 215,0 0,0"/>
</a>
</g>
</g>
<!-- Node2 -->
<g id="Node000002" class="node">
<title>Node2</title>
<g id="a_Node000002"><a xlink:href="classEbceys_1_1Tests_1_1Infrastructure_1_1IntegrationTests_1_1WebApplication_1_1ServiceTestContext-1-g.html" target="_top" xlink:title="The ServiceTestContext&lt;TEntrypoint&gt; class.">
<polygon fill="white" stroke="transparent" points="199,-284 16,-284 16,-168 199,-168 199,-284"/>
<text text-anchor="start" x="21.5" y="-272" font-family="Helvetica,sans-Serif" font-size="10.00">Ebceys.Tests.Infrastructure.</text>
<text text-anchor="start" x="21.5" y="-261" font-family="Helvetica,sans-Serif" font-size="10.00">IntegrationTests.WebApplication.</text>
<text text-anchor="start" x="21.5" y="-250" font-family="Helvetica,sans-Serif" font-size="10.00">ServiceTestContext&lt; TEntrypoint &gt;</text>
<text text-anchor="start" x="23" y="-235" font-family="Helvetica,sans-Serif" font-size="10.00">+</text>
<text text-anchor="start" x="38.5" y="-235" font-family="Helvetica,sans-Serif" font-size="10.00">Factory</text>
<text text-anchor="start" x="23" y="-220" font-family="Helvetica,sans-Serif" font-size="10.00">+</text>
<text text-anchor="start" x="38.5" y="-220" font-family="Helvetica,sans-Serif" font-size="10.00">BaseAddress</text>
<text text-anchor="start" x="23" y="-205" font-family="Helvetica,sans-Serif" font-size="10.00">+</text>
<text text-anchor="start" x="38.5" y="-205" font-family="Helvetica,sans-Serif" font-size="10.00">Initialize()</text>
<text text-anchor="start" x="23" y="-190" font-family="Helvetica,sans-Serif" font-size="10.00">+</text>
<text text-anchor="start" x="38.5" y="-190" font-family="Helvetica,sans-Serif" font-size="10.00">Teardown()</text>
<text text-anchor="start" x="23" y="-175" font-family="Helvetica,sans-Serif" font-size="10.00">#</text>
<text text-anchor="start" x="38.5" y="-175" font-family="Helvetica,sans-Serif" font-size="10.00">CreateWebApplicationFactory()</text>
<polygon fill="#666666" stroke="#666666" points="16.5,-245 16.5,-245 199.5,-245 199.5,-245 16.5,-245"/>
<polygon fill="#666666" stroke="#666666" points="16.5,-215 16.5,-215 36.5,-215 36.5,-215 16.5,-215"/>
<polygon fill="#666666" stroke="#666666" points="36.5,-215 36.5,-215 199.5,-215 199.5,-215 36.5,-215"/>
<polygon fill="none" stroke="#666666" points="16,-168 16,-284 199,-284 199,-168 16,-168"/>
</a>
</g>
</g>
<!-- Node2&#45;&gt;Node1 -->
<g id="edge1_Node000001_Node000002" class="edge">
<title>Node2&#45;&gt;Node1</title>
<g id="a_edge1_Node000001_Node000002"><a xlink:title=" ">
<path fill="none" stroke="#63b8ff" d="M107.5,-157.61C107.5,-148.85 107.5,-139.88 107.5,-131.17"/>
<polygon fill="none" stroke="#63b8ff" points="104,-157.78 107.5,-167.78 111,-157.78 104,-157.78"/>
</a>
</g>
</g>
<!-- Node3 -->
<g id="Node000003" class="node">
<title>Node3</title>
<g id="a_Node000003"><a xlink:title=" ">
<polygon fill="white" stroke="transparent" points="123.5,-380 91.5,-380 91.5,-331 123.5,-331 123.5,-380"/>
<text text-anchor="start" x="96.5" y="-367.5" font-family="Helvetica,sans-Serif" font-size="10.00">bool</text>
<text text-anchor="start" x="105.5" y="-352.5" font-family="Helvetica,sans-Serif" font-size="10.00"> </text>
<text text-anchor="start" x="105.5" y="-337.5" font-family="Helvetica,sans-Serif" font-size="10.00"> </text>
<polygon fill="#666666" stroke="#666666" points="91.5,-362.5 91.5,-362.5 123.5,-362.5 123.5,-362.5 91.5,-362.5"/>
<polygon fill="#666666" stroke="#666666" points="91.5,-347.5 91.5,-347.5 123.5,-347.5 123.5,-347.5 91.5,-347.5"/>
<polygon fill="none" stroke="#666666" points="91.5,-331 91.5,-380 123.5,-380 123.5,-331 91.5,-331"/>
</a>
</g>
</g>
<!-- Node3&#45;&gt;Node2 -->
<g id="edge2_Node000002_Node000003" class="edge">
<title>Node3&#45;&gt;Node2</title>
<g id="a_edge2_Node000002_Node000003"><a xlink:title=" ">
<path fill="none" stroke="#63b8ff" d="M107.5,-330.82C107.5,-320.93 107.5,-308.89 107.5,-296.55"/>
<polygon fill="none" stroke="#63b8ff" points="107.5,-296.18 103.5,-290.18 107.5,-284.18 111.5,-290.18 107.5,-296.18"/>
</a>
</g>
<text text-anchor="middle" x="142" y="-305" font-family="Helvetica,sans-Serif" font-size="10.00" fill="grey"> &#45;_isInitialized</text>
</g>
</g>
</svg>
