<?xml version="1.0" encoding="UTF-8" standalone="no"?>
<!DOCTYPE svg PUBLIC "-//W3C//DTD SVG 1.1//EN"
 "http://www.w3.org/Graphics/SVG/1.1/DTD/svg11.dtd">
<!-- Generated by graphviz version 2.43.0 (0)
 -->
<!-- Title: Ebceys.Infrastructure.TestApplication.BoundedContext.RoutesDictionary.TestControllerV1.Methods Pages: 1 -->
<svg width="196pt" height="300pt"
 viewBox="0.00 0.00 196.00 300.00" xmlns="http://www.w3.org/2000/svg" xmlns:xlink="http://www.w3.org/1999/xlink">
<g id="graph0" class="graph" transform="scale(1 1) rotate(0) translate(4 296)">
<title>Ebceys.Infrastructure.TestApplication.BoundedContext.RoutesDictionary.TestControllerV1.Methods</title>
<!-- Node1 -->
<g id="Node000001" class="node">
<title>Node1</title>
<g id="a_Node000001"><a xlink:title=" ">
<polygon fill="#999999" stroke="transparent" points="188,-86 0,-86 0,0 188,0 188,-86"/>
<text text-anchor="start" x="5" y="-74" font-family="Helvetica,sans-Serif" font-size="10.00">Ebceys.Infrastructure.Test</text>
<text text-anchor="start" x="5" y="-63" font-family="Helvetica,sans-Serif" font-size="10.00">Application.BoundedContext.Routes</text>
<text text-anchor="start" x="5" y="-52" font-family="Helvetica,sans-Serif" font-size="10.00">Dictionary.TestControllerV1.Methods</text>
<text text-anchor="start" x="28.5" y="-37" font-family="Helvetica,sans-Serif" font-size="10.00">+</text>
<text text-anchor="start" x="66" y="-37" font-family="Helvetica,sans-Serif" font-size="10.00">ValidateToken</text>
<text text-anchor="start" x="28.5" y="-22" font-family="Helvetica,sans-Serif" font-size="10.00">+</text>
<text text-anchor="start" x="66" y="-22" font-family="Helvetica,sans-Serif" font-size="10.00">ValidateAuth</text>
<text text-anchor="start" x="92" y="-7" font-family="Helvetica,sans-Serif" font-size="10.00"> </text>
<polygon fill="#666666" stroke="#666666" points="0,-47 0,-47 188,-47 188,-47 0,-47"/>
<polygon fill="#666666" stroke="#666666" points="0,-17 0,-17 64,-17 64,-17 0,-17"/>
<polygon fill="#666666" stroke="#666666" points="64,-17 64,-17 188,-17 188,-17 64,-17"/>
<polygon fill="none" stroke="#666666" points="0,0 0,-86 188,-86 188,0 0,0"/>
</a>
</g>
</g>
<!-- Node2 -->
<g id="Node000002" class="node">
<title>Node2</title>
<g id="a_Node000002"><a xlink:title=" ">
<polygon fill="white" stroke="transparent" points="128,-292 60,-292 60,-243 128,-243 128,-292"/>
<text text-anchor="start" x="65" y="-279.5" font-family="Helvetica,sans-Serif" font-size="10.00">const string</text>
<text text-anchor="start" x="92" y="-264.5" font-family="Helvetica,sans-Serif" font-size="10.00"> </text>
<text text-anchor="start" x="92" y="-249.5" font-family="Helvetica,sans-Serif" font-size="10.00"> </text>
<polygon fill="#666666" stroke="#666666" points="60,-274.5 60,-274.5 128,-274.5 128,-274.5 60,-274.5"/>
<polygon fill="#666666" stroke="#666666" points="60,-259.5 60,-259.5 128,-259.5 128,-259.5 60,-259.5"/>
<polygon fill="none" stroke="#666666" points="60,-243 60,-292 128,-292 128,-243 60,-243"/>
</a>
</g>
</g>
<!-- Node2&#45;&gt;Node1 -->
<g id="edge1_Node000001_Node000002" class="edge">
<title>Node2&#45;&gt;Node1</title>
<g id="a_edge1_Node000001_Node000002"><a xlink:title=" ">
<path fill="none" stroke="#63b8ff" d="M94,-242.69C94,-208.49 94,-144.52 94,-98.39"/>
<polygon fill="none" stroke="#63b8ff" points="94,-98.19 90,-92.19 94,-86.19 98,-92.19 94,-98.19"/>
</a>
</g>
<text text-anchor="middle" x="141" y="-217" font-family="Helvetica,sans-Serif" font-size="10.00" fill="grey"> +DeleteCommand</text>
<text text-anchor="middle" x="141" y="-206" font-family="Helvetica,sans-Serif" font-size="10.00" fill="grey">+GetCommand</text>
<text text-anchor="middle" x="141" y="-195" font-family="Helvetica,sans-Serif" font-size="10.00" fill="grey">+GetException</text>
<text text-anchor="middle" x="141" y="-184" font-family="Helvetica,sans-Serif" font-size="10.00" fill="grey">+GetJson</text>
<text text-anchor="middle" x="141" y="-173" font-family="Helvetica,sans-Serif" font-size="10.00" fill="grey">+GetOk</text>
<text text-anchor="middle" x="141" y="-162" font-family="Helvetica,sans-Serif" font-size="10.00" fill="grey">+GetQuery</text>
<text text-anchor="middle" x="141" y="-151" font-family="Helvetica,sans-Serif" font-size="10.00" fill="grey">+GetToken</text>
<text text-anchor="middle" x="141" y="-140" font-family="Helvetica,sans-Serif" font-size="10.00" fill="grey">+PostBody</text>
<text text-anchor="middle" x="141" y="-129" font-family="Helvetica,sans-Serif" font-size="10.00" fill="grey">+PostCommand</text>
<text text-anchor="middle" x="141" y="-118" font-family="Helvetica,sans-Serif" font-size="10.00" fill="grey">+PutCommand</text>
<text text-anchor="middle" x="141" y="-107" font-family="Helvetica,sans-Serif" font-size="10.00" fill="grey">...</text>
</g>
</g>
</svg>
