<?xml version="1.0" encoding="UTF-8" standalone="no"?>
<!DOCTYPE svg PUBLIC "-//W3C//DTD SVG 1.1//EN"
 "http://www.w3.org/Graphics/SVG/1.1/DTD/svg11.dtd">
<!-- Generated by graphviz version 2.43.0 (0)
 -->
<!-- Title: Ebceys.Infrastructure.Options.RabbitMqExtensions Pages: 1 -->
<svg width="214pt" height="230pt"
 viewBox="0.00 0.00 214.00 230.00" xmlns="http://www.w3.org/2000/svg" xmlns:xlink="http://www.w3.org/1999/xlink">
<g id="graph0" class="graph" transform="scale(1 1) rotate(0) translate(4 226)">
<title>Ebceys.Infrastructure.Options.RabbitMqExtensions</title>
<!-- Node1 -->
<g id="Node000001" class="node">
<title>Node1</title>
<g id="a_Node000001"><a xlink:title="The RabbitMqExtensions class.">
<polygon fill="#999999" stroke="transparent" points="158,-60 0,-60 0,0 158,0 158,-60"/>
<text text-anchor="start" x="5" y="-48" font-family="Helvetica,sans-Serif" font-size="10.00">Ebceys.Infrastructure.Options.</text>
<text text-anchor="start" x="29" y="-37" font-family="Helvetica,sans-Serif" font-size="10.00">RabbitMqExtensions</text>
<text text-anchor="start" x="77" y="-22" font-family="Helvetica,sans-Serif" font-size="10.00"> </text>
<text text-anchor="start" x="25.5" y="-7" font-family="Helvetica,sans-Serif" font-size="10.00">&#45;</text>
<text text-anchor="start" x="55" y="-7" font-family="Helvetica,sans-Serif" font-size="10.00">extension()</text>
<polygon fill="#666666" stroke="#666666" points="0,-32 0,-32 158,-32 158,-32 0,-32"/>
<polygon fill="#666666" stroke="#666666" points="0,-17 0,-17 158,-17 158,-17 0,-17"/>
<polygon fill="none" stroke="#666666" points="0,0 0,-60 158,-60 158,0 0,0"/>
</a>
</g>
</g>
<!-- Node2 -->
<g id="Node000002" class="node">
<title>Node2</title>
<g id="a_Node000002"><a xlink:title=" ">
<polygon fill="white" stroke="transparent" points="113,-222 45,-222 45,-173 113,-173 113,-222"/>
<text text-anchor="start" x="50" y="-209.5" font-family="Helvetica,sans-Serif" font-size="10.00">const string</text>
<text text-anchor="start" x="77" y="-194.5" font-family="Helvetica,sans-Serif" font-size="10.00"> </text>
<text text-anchor="start" x="77" y="-179.5" font-family="Helvetica,sans-Serif" font-size="10.00"> </text>
<polygon fill="#666666" stroke="#666666" points="45,-204.5 45,-204.5 113,-204.5 113,-204.5 45,-204.5"/>
<polygon fill="#666666" stroke="#666666" points="45,-189.5 45,-189.5 113,-189.5 113,-189.5 45,-189.5"/>
<polygon fill="none" stroke="#666666" points="45,-173 45,-222 113,-222 113,-173 45,-173"/>
</a>
</g>
</g>
<!-- Node2&#45;&gt;Node1 -->
<g id="edge1_Node000001_Node000002" class="edge">
<title>Node2&#45;&gt;Node1</title>
<g id="a_edge1_Node000001_Node000002"><a xlink:title=" ">
<path fill="none" stroke="#63b8ff" d="M79,-172.79C79,-146.71 79,-104.3 79,-72.65"/>
<polygon fill="none" stroke="#63b8ff" points="79,-72.25 75,-66.25 79,-60.25 83,-66.25 79,-72.25"/>
</a>
</g>
<text text-anchor="middle" x="142.5" y="-147" font-family="Helvetica,sans-Serif" font-size="10.00" fill="grey"> ~CallbackConfField</text>
<text text-anchor="middle" x="142.5" y="-136" font-family="Helvetica,sans-Serif" font-size="10.00" fill="grey">~ConnectionStringField</text>
<text text-anchor="middle" x="142.5" y="-125" font-family="Helvetica,sans-Serif" font-size="10.00" fill="grey">~CreateChannelConfField</text>
<text text-anchor="middle" x="142.5" y="-114" font-family="Helvetica,sans-Serif" font-size="10.00" fill="grey">~ExchangeConfField</text>
<text text-anchor="middle" x="142.5" y="-103" font-family="Helvetica,sans-Serif" font-size="10.00" fill="grey">~OnStartConfField</text>
<text text-anchor="middle" x="142.5" y="-92" font-family="Helvetica,sans-Serif" font-size="10.00" fill="grey">~QoSConfField</text>
<text text-anchor="middle" x="142.5" y="-81" font-family="Helvetica,sans-Serif" font-size="10.00" fill="grey">~QueueConfField</text>
</g>
</g>
</svg>
