<?xml version="1.0" encoding="UTF-8" standalone="no"?>
<!DOCTYPE svg PUBLIC "-//W3C//DTD SVG 1.1//EN"
 "http://www.w3.org/Graphics/SVG/1.1/DTD/svg11.dtd">
<!-- Generated by graphviz version 2.43.0 (0)
 -->
<!-- Title: Ebceys.Infrastructure.UnitTests.Helpers.AtomicLongGeneratorTests Pages: 1 -->
<svg width="254pt" height="249pt"
 viewBox="0.00 0.00 253.50 249.00" xmlns="http://www.w3.org/2000/svg" xmlns:xlink="http://www.w3.org/1999/xlink">

<svg id="main" version="1.1" xmlns="http://www.w3.org/2000/svg" xmlns:xlink="http://www.w3.org/1999/xlink" xml:space="preserve">

<style type="text/css"><![CDATA[
.node, .edge {opacity: 0.7;}
.node.selected, .edge.selected {opacity: 1;}
.edge:hover path { stroke: red; }
.edge:hover polygon { stroke: red; fill: red; }
]]></style>
<script type="application/ecmascript" xlink:href="svg.min.js"/>
<svg id="graph" class="graph">
<g id="graph0" class="graph" transform="scale(1 1) rotate(0) translate(4 245)">
<title>Ebceys.Infrastructure.UnitTests.Helpers.AtomicLongGeneratorTests</title>
<!-- Node1 -->
<g id="Node000001" class="node">
<title>Node1</title>
<g id="a_Node000001"><a xlink:title=" ">
<polygon fill="#999999" stroke="transparent" points="244,-145 0,-145 0,0 244,0 244,-145"/>
<text text-anchor="start" x="22" y="-132.5" font-family="Helvetica,sans-Serif" font-size="10.00">Ebceys.Infrastructure.Unit</text>
<text text-anchor="start" x="22" y="-121.5" font-family="Helvetica,sans-Serif" font-size="10.00">Tests.Helpers.AtomicLongGeneratorTests</text>
<text text-anchor="start" x="120" y="-106.5" font-family="Helvetica,sans-Serif" font-size="10.00"> </text>
<text text-anchor="start" x="4" y="-91.5" font-family="Helvetica,sans-Serif" font-size="10.00">+</text>
<text text-anchor="start" x="17" y="-91.5" font-family="Helvetica,sans-Serif" font-size="10.00">Setup()</text>
<text text-anchor="start" x="4" y="-76.5" font-family="Helvetica,sans-Serif" font-size="10.00">+</text>
<text text-anchor="start" x="17" y="-76.5" font-family="Helvetica,sans-Serif" font-size="10.00">When_LongGenManyParallel</text>
<text text-anchor="start" x="17" y="-65.5" font-family="Helvetica,sans-Serif" font-size="10.00">Increments_With_SpecifiedNum</text>
<text text-anchor="start" x="17" y="-54.5" font-family="Helvetica,sans-Serif" font-size="10.00">OfThreadsAndOperations_Result</text>
<text text-anchor="start" x="17" y="-43.5" font-family="Helvetica,sans-Serif" font-size="10.00">_NoDuplicates()</text>
<text text-anchor="start" x="4" y="-28.5" font-family="Helvetica,sans-Serif" font-size="10.00">+</text>
<text text-anchor="start" x="17" y="-28.5" font-family="Helvetica,sans-Serif" font-size="10.00">When_intGenManyParallelIncrements</text>
<text text-anchor="start" x="17" y="-17.5" font-family="Helvetica,sans-Serif" font-size="10.00">_With_SpecifiedNumOfThreadsAndOperations</text>
<text text-anchor="start" x="17" y="-6.5" font-family="Helvetica,sans-Serif" font-size="10.00">_Result_NoDuplicates()</text>
<polygon fill="#666666" stroke="#666666" points="0,-116.5 0,-116.5 244,-116.5 244,-116.5 0,-116.5"/>
<polygon fill="#666666" stroke="#666666" points="0,-101.5 0,-101.5 244,-101.5 244,-101.5 0,-101.5"/>
<polygon fill="none" stroke="#666666" points="0,0 0,-145 244,-145 244,0 0,0"/>
</a>
</g>
</g>
<!-- Node2 -->
<g id="Node000002" class="node">
<title>Node2</title>
<g id="a_Node000002"><a xlink:title=" ">
<polygon fill="white" stroke="transparent" points="110.5,-241 3.5,-241 3.5,-192 110.5,-192 110.5,-241"/>
<text text-anchor="start" x="9" y="-228.5" font-family="Helvetica,sans-Serif" font-size="10.00">AtomicIntGenerator</text>
<text text-anchor="start" x="55.5" y="-213.5" font-family="Helvetica,sans-Serif" font-size="10.00"> </text>
<text text-anchor="start" x="55.5" y="-198.5" font-family="Helvetica,sans-Serif" font-size="10.00"> </text>
<polygon fill="#666666" stroke="#666666" points="4,-223.5 4,-223.5 111,-223.5 111,-223.5 4,-223.5"/>
<polygon fill="#666666" stroke="#666666" points="4,-208.5 4,-208.5 111,-208.5 111,-208.5 4,-208.5"/>
<polygon fill="none" stroke="#666666" points="3.5,-192 3.5,-241 110.5,-241 110.5,-192 3.5,-192"/>
</a>
</g>
</g>
<!-- Node2&#45;&gt;Node1 -->
<g id="edge1_Node000001_Node000002" class="edge">
<title>Node2&#45;&gt;Node1</title>
<g id="a_edge1_Node000001_Node000002"><a xlink:title=" ">
<path fill="none" stroke="#63b8ff" d="M67.88,-191.73C72.51,-181.62 78.21,-169.16 84.16,-156.17"/>
<polygon fill="none" stroke="#63b8ff" points="84.2,-156.08 83.06,-148.96 89.2,-145.17 90.33,-152.29 84.2,-156.08"/>
</a>
</g>
<text text-anchor="middle" x="102.5" y="-166" font-family="Helvetica,sans-Serif" font-size="10.00" fill="grey"> &#45;_intGen</text>
</g>
<!-- Node3 -->
<g id="Node000003" class="node">
<title>Node3</title>
<g id="a_Node000003"><a xlink:title=" ">
<polygon fill="white" stroke="transparent" points="245.5,-241 128.5,-241 128.5,-192 245.5,-192 245.5,-241"/>
<text text-anchor="start" x="134" y="-228.5" font-family="Helvetica,sans-Serif" font-size="10.00">AtomicLongGenerator</text>
<text text-anchor="start" x="185.5" y="-213.5" font-family="Helvetica,sans-Serif" font-size="10.00"> </text>
<text text-anchor="start" x="185.5" y="-198.5" font-family="Helvetica,sans-Serif" font-size="10.00"> </text>
<polygon fill="#666666" stroke="#666666" points="129,-223.5 129,-223.5 246,-223.5 246,-223.5 129,-223.5"/>
<polygon fill="#666666" stroke="#666666" points="129,-208.5 129,-208.5 246,-208.5 246,-208.5 129,-208.5"/>
<polygon fill="none" stroke="#666666" points="128.5,-192 128.5,-241 245.5,-241 245.5,-192 128.5,-192"/>
</a>
</g>
</g>
<!-- Node3&#45;&gt;Node1 -->
<g id="edge2_Node000001_Node000003" class="edge">
<title>Node3&#45;&gt;Node1</title>
<g id="a_edge2_Node000001_Node000003"><a xlink:title=" ">
<path fill="none" stroke="#63b8ff" d="M176.12,-191.73C171.49,-181.62 165.79,-169.16 159.84,-156.17"/>
<polygon fill="none" stroke="#63b8ff" points="159.8,-156.08 153.67,-152.29 154.8,-145.17 160.94,-148.96 159.8,-156.08"/>
</a>
</g>
<text text-anchor="middle" x="193.5" y="-166" font-family="Helvetica,sans-Serif" font-size="10.00" fill="grey"> &#45;_longGen</text>
</g>
</g>
</svg>
</svg>

<style type='text/css'>
<![CDATA[
[data-mouse-over-selected='false'] { opacity: 0.7; }
[data-mouse-over-selected='true']  { opacity: 1.0; }
]]>
</style>
<script type="application/ecmascript"><![CDATA[
document.addEventListener('DOMContentLoaded', (event) => {
  highlightEdges();
  highlightAdjacentNodes();
});
]]></script>
</svg>
