<?xml version="1.0" encoding="UTF-8" standalone="no"?>
<!DOCTYPE svg PUBLIC "-//W3C//DTD SVG 1.1//EN"
 "http://www.w3.org/Graphics/SVG/1.1/DTD/svg11.dtd">
<!-- Generated by graphviz version 2.43.0 (0)
 -->
<!-- Title: IDisposable Pages: 1 -->
<svg width="153pt" height="198pt"
 viewBox="0.00 0.00 153.00 198.00" xmlns="http://www.w3.org/2000/svg" xmlns:xlink="http://www.w3.org/1999/xlink">

<svg id="main" version="1.1" xmlns="http://www.w3.org/2000/svg" xmlns:xlink="http://www.w3.org/1999/xlink" xml:space="preserve">

<style type="text/css"><![CDATA[
.node, .edge {opacity: 0.7;}
.node.selected, .edge.selected {opacity: 1;}
.edge:hover path { stroke: red; }
.edge:hover polygon { stroke: red; fill: red; }
]]></style>
<script type="application/ecmascript" xlink:href="svg.min.js"/>
<svg id="graph" class="graph">
<g id="graph0" class="graph" transform="scale(1 1) rotate(0) translate(4 194)">
<title>IDisposable</title>
<!-- Node1 -->
<g id="Node000001" class="node">
<title>Node1</title>
<g id="a_Node000001"><a xlink:title=" ">
<polygon fill="#999999" stroke="transparent" points="106.5,-190 38.5,-190 38.5,-141 106.5,-141 106.5,-190"/>
<text text-anchor="start" x="43.5" y="-177.5" font-family="Helvetica,sans-Serif" font-size="10.00">IDisposable</text>
<text text-anchor="start" x="70.5" y="-162.5" font-family="Helvetica,sans-Serif" font-size="10.00"> </text>
<text text-anchor="start" x="70.5" y="-147.5" font-family="Helvetica,sans-Serif" font-size="10.00"> </text>
<polygon fill="#666666" stroke="#666666" points="38.5,-172.5 38.5,-172.5 106.5,-172.5 106.5,-172.5 38.5,-172.5"/>
<polygon fill="#666666" stroke="#666666" points="38.5,-157.5 38.5,-157.5 106.5,-157.5 106.5,-157.5 38.5,-157.5"/>
<polygon fill="none" stroke="#666666" points="38.5,-141 38.5,-190 106.5,-190 106.5,-141 38.5,-141"/>
</a>
</g>
</g>
<!-- Node2 -->
<g id="Node000002" class="node">
<title>Node2</title>
<g id="a_Node000002"><a xlink:href="classEbceys_1_1Tests_1_1Infrastructure_1_1Helpers_1_1StopWatchElapser.html" target="_top" xlink:title="The StopWatchElapser class.">
<polygon fill="white" stroke="transparent" points="145,-105 0,-105 0,0 145,0 145,-105"/>
<text text-anchor="start" x="5.5" y="-92.5" font-family="Helvetica,sans-Serif" font-size="10.00">Ebceys.Tests.Infrastructure.</text>
<text text-anchor="start" x="8.5" y="-81.5" font-family="Helvetica,sans-Serif" font-size="10.00">Helpers.StopWatchElapser</text>
<text text-anchor="start" x="14" y="-66.5" font-family="Helvetica,sans-Serif" font-size="10.00">&#45;</text>
<text text-anchor="start" x="31.5" y="-66.5" font-family="Helvetica,sans-Serif" font-size="10.00">_elapsedAction</text>
<text text-anchor="start" x="14" y="-51.5" font-family="Helvetica,sans-Serif" font-size="10.00">&#45;</text>
<text text-anchor="start" x="31.5" y="-51.5" font-family="Helvetica,sans-Serif" font-size="10.00">_sw</text>
<text text-anchor="start" x="11.5" y="-36.5" font-family="Helvetica,sans-Serif" font-size="10.00">+</text>
<text text-anchor="start" x="31.5" y="-36.5" font-family="Helvetica,sans-Serif" font-size="10.00">Dispose()</text>
<text text-anchor="start" x="11.5" y="-21.5" font-family="Helvetica,sans-Serif" font-size="10.00">+</text>
<text text-anchor="start" x="31.5" y="-21.5" font-family="Helvetica,sans-Serif" font-size="10.00">Create()</text>
<text text-anchor="start" x="14" y="-6.5" font-family="Helvetica,sans-Serif" font-size="10.00">&#45;</text>
<text text-anchor="start" x="31.5" y="-6.5" font-family="Helvetica,sans-Serif" font-size="10.00">StopWatchElapser()</text>
<polygon fill="#666666" stroke="#666666" points="0.5,-76.5 0.5,-76.5 145.5,-76.5 145.5,-76.5 0.5,-76.5"/>
<polygon fill="#666666" stroke="#666666" points="0.5,-46.5 0.5,-46.5 29.5,-46.5 29.5,-46.5 0.5,-46.5"/>
<polygon fill="#666666" stroke="#666666" points="29.5,-46.5 29.5,-46.5 145.5,-46.5 145.5,-46.5 29.5,-46.5"/>
<polygon fill="none" stroke="#666666" points="0,0 0,-105 145,-105 145,0 0,0"/>
</a>
</g>
</g>
<!-- Node1&#45;&gt;Node2 -->
<g id="edge1_Node000001_Node000002" class="edge">
<title>Node1&#45;&gt;Node2</title>
<g id="a_edge1_Node000001_Node000002"><a xlink:title=" ">
<path fill="none" stroke="#63b8ff" d="M72.5,-130.85C72.5,-122.79 72.5,-114 72.5,-105.32"/>
<polygon fill="none" stroke="#63b8ff" points="69,-130.96 72.5,-140.96 76,-130.96 69,-130.96"/>
</a>
</g>
</g>
</g>
</svg>
</svg>

<style type='text/css'>
<![CDATA[
[data-mouse-over-selected='false'] { opacity: 0.7; }
[data-mouse-over-selected='true']  { opacity: 1.0; }
]]>
</style>
<script type="application/ecmascript"><![CDATA[
document.addEventListener('DOMContentLoaded', (event) => {
  highlightEdges();
  highlightAdjacentNodes();
});
]]></script>
</svg>
