<?xml version="1.0" encoding="UTF-8" standalone="no"?>
<!DOCTYPE svg PUBLIC "-//W3C//DTD SVG 1.1//EN"
 "http://www.w3.org/Graphics/SVG/1.1/DTD/svg11.dtd">
<!-- Generated by graphviz version 2.43.0 (0)
 -->
<!-- Title: Ebceys.Infrastructure.UnitTests.Validators.DbContextRegistrationOptionsValidatorTests Pages: 1 -->
<svg width="308pt" height="368pt"
 viewBox="0.00 0.00 307.50 368.00" xmlns="http://www.w3.org/2000/svg" xmlns:xlink="http://www.w3.org/1999/xlink">

<svg id="main" version="1.1" xmlns="http://www.w3.org/2000/svg" xmlns:xlink="http://www.w3.org/1999/xlink" xml:space="preserve">

<style type="text/css"><![CDATA[
.node, .edge {opacity: 0.7;}
.node.selected, .edge.selected {opacity: 1;}
.edge:hover path { stroke: red; }
.edge:hover polygon { stroke: red; fill: red; }
]]></style>
<script type="application/ecmascript" xlink:href="svg.min.js"/>
<svg id="graph" class="graph">
<g id="graph0" class="graph" transform="scale(1 1) rotate(0) translate(4 364)">
<title>Ebceys.Infrastructure.UnitTests.Validators.DbContextRegistrationOptionsValidatorTests</title>
<!-- Node1 -->
<g id="Node000001" class="node">
<title>Node1</title>
<g id="a_Node000001"><a xlink:title=" ">
<polygon fill="#999999" stroke="transparent" points="201,-134 0,-134 0,0 201,0 201,-134"/>
<text text-anchor="start" x="5.5" y="-122" font-family="Helvetica,sans-Serif" font-size="10.00">Ebceys.Infrastructure.Unit</text>
<text text-anchor="start" x="5.5" y="-111" font-family="Helvetica,sans-Serif" font-size="10.00">Tests.Validators.DbContextRegistration</text>
<text text-anchor="start" x="48" y="-100" font-family="Helvetica,sans-Serif" font-size="10.00">OptionsValidatorTests</text>
<text text-anchor="start" x="99" y="-85" font-family="Helvetica,sans-Serif" font-size="10.00"> </text>
<text text-anchor="start" x="10.5" y="-70" font-family="Helvetica,sans-Serif" font-size="10.00">+</text>
<text text-anchor="start" x="29.5" y="-70" font-family="Helvetica,sans-Serif" font-size="10.00">Setup()</text>
<text text-anchor="start" x="10.5" y="-55" font-family="Helvetica,sans-Serif" font-size="10.00">+</text>
<text text-anchor="start" x="29.5" y="-55" font-family="Helvetica,sans-Serif" font-size="10.00">When_Validate_With</text>
<text text-anchor="start" x="29.5" y="-44" font-family="Helvetica,sans-Serif" font-size="10.00">_ValidCase_Result_NotThrows()</text>
<text text-anchor="start" x="10.5" y="-29" font-family="Helvetica,sans-Serif" font-size="10.00">+</text>
<text text-anchor="start" x="29.5" y="-29" font-family="Helvetica,sans-Serif" font-size="10.00">When_Validate_With</text>
<text text-anchor="start" x="29.5" y="-18" font-family="Helvetica,sans-Serif" font-size="10.00">_InvalidCase_Result</text>
<text text-anchor="start" x="29.5" y="-7" font-family="Helvetica,sans-Serif" font-size="10.00">_NotThrows()</text>
<polygon fill="#666666" stroke="#666666" points="0.5,-95 0.5,-95 201.5,-95 201.5,-95 0.5,-95"/>
<polygon fill="#666666" stroke="#666666" points="0.5,-80 0.5,-80 201.5,-80 201.5,-80 0.5,-80"/>
<polygon fill="none" stroke="#666666" points="0,0 0,-134 201,-134 201,0 0,0"/>
</a>
</g>
</g>
<!-- Node2 -->
<g id="Node000002" class="node">
<title>Node2</title>
<g id="a_Node000002"><a xlink:title=" ">
<polygon fill="white" stroke="transparent" points="97,-246.5 16,-246.5 16,-197.5 97,-197.5 97,-246.5"/>
<text text-anchor="start" x="21.5" y="-234" font-family="Helvetica,sans-Serif" font-size="10.00">EbRandomizer</text>
<text text-anchor="start" x="55" y="-219" font-family="Helvetica,sans-Serif" font-size="10.00"> </text>
<text text-anchor="start" x="55" y="-204" font-family="Helvetica,sans-Serif" font-size="10.00"> </text>
<polygon fill="#666666" stroke="#666666" points="16.5,-229 16.5,-229 97.5,-229 97.5,-229 16.5,-229"/>
<polygon fill="#666666" stroke="#666666" points="16.5,-214 16.5,-214 97.5,-214 97.5,-214 16.5,-214"/>
<polygon fill="none" stroke="#666666" points="16,-197.5 16,-246.5 97,-246.5 97,-197.5 16,-197.5"/>
</a>
</g>
</g>
<!-- Node2&#45;&gt;Node1 -->
<g id="edge1_Node000001_Node000002" class="edge">
<title>Node2&#45;&gt;Node1</title>
<g id="a_edge1_Node000001_Node000002"><a xlink:title=" ">
<path fill="none" stroke="#63b8ff" d="M63.28,-197.43C67.31,-183.41 72.68,-164.73 78.09,-145.94"/>
<polygon fill="none" stroke="#63b8ff" points="78.13,-145.8 75.94,-138.93 81.44,-134.27 83.63,-141.14 78.13,-145.8"/>
</a>
</g>
<text text-anchor="middle" x="109.5" y="-155" font-family="Helvetica,sans-Serif" font-size="10.00" fill="grey"> &#45;Randomizer</text>
</g>
<!-- Node3 -->
<g id="Node000003" class="node">
<title>Node3</title>
<g id="a_Node000003"><a xlink:title=" ">
<polygon fill="white" stroke="transparent" points="299.5,-263 115.5,-263 115.5,-181 299.5,-181 299.5,-263"/>
<text text-anchor="start" x="120.5" y="-251" font-family="Helvetica,sans-Serif" font-size="10.00">Ebceys.Infrastructure.Database</text>
<text text-anchor="start" x="120.5" y="-240" font-family="Helvetica,sans-Serif" font-size="10.00">Registration.DbContextRegistration</text>
<text text-anchor="start" x="166.5" y="-229" font-family="Helvetica,sans-Serif" font-size="10.00">OptionsValidator</text>
<text text-anchor="start" x="205.5" y="-214" font-family="Helvetica,sans-Serif" font-size="10.00"> </text>
<text text-anchor="start" x="123" y="-199" font-family="Helvetica,sans-Serif" font-size="10.00">+</text>
<text text-anchor="start" x="139.5" y="-199" font-family="Helvetica,sans-Serif" font-size="10.00">DbContextRegistrationOptions</text>
<text text-anchor="start" x="139.5" y="-188" font-family="Helvetica,sans-Serif" font-size="10.00">Validator()</text>
<polygon fill="#666666" stroke="#666666" points="115.5,-224 115.5,-224 299.5,-224 299.5,-224 115.5,-224"/>
<polygon fill="#666666" stroke="#666666" points="115.5,-209 115.5,-209 299.5,-209 299.5,-209 115.5,-209"/>
<polygon fill="none" stroke="#666666" points="115.5,-181 115.5,-263 299.5,-263 299.5,-181 115.5,-181"/>
</a>
</g>
</g>
<!-- Node3&#45;&gt;Node1 -->
<g id="edge2_Node000001_Node000003" class="edge">
<title>Node3&#45;&gt;Node1</title>
<g id="a_edge2_Node000001_Node000003"><a xlink:title=" ">
<path fill="none" stroke="#63b8ff" d="M179.39,-180.8C171.52,-169.55 162.7,-156.94 153.89,-144.34"/>
<polygon fill="none" stroke="#63b8ff" points="153.71,-144.09 147,-141.47 146.84,-134.26 153.55,-136.88 153.71,-144.09"/>
</a>
</g>
<text text-anchor="middle" x="194.5" y="-155" font-family="Helvetica,sans-Serif" font-size="10.00" fill="grey"> &#45;_validator</text>
</g>
<!-- Node4 -->
<g id="Node000004" class="node">
<title>Node4</title>
<g id="a_Node000004"><a xlink:href="classAbstractValidator-1-g.html" target="_top" xlink:title=" ">
<polygon fill="white" stroke="transparent" points="294,-360 121,-360 121,-300 294,-300 294,-360"/>
<text text-anchor="start" x="126.5" y="-348" font-family="Helvetica,sans-Serif" font-size="10.00">AbstractValidator&lt;</text>
<text text-anchor="start" x="126.5" y="-337" font-family="Helvetica,sans-Serif" font-size="10.00"> DbContextRegistrationOptions &gt;</text>
<text text-anchor="start" x="206" y="-322" font-family="Helvetica,sans-Serif" font-size="10.00"> </text>
<text text-anchor="start" x="206" y="-307" font-family="Helvetica,sans-Serif" font-size="10.00"> </text>
<polygon fill="#666666" stroke="#666666" points="121.5,-332 121.5,-332 294.5,-332 294.5,-332 121.5,-332"/>
<polygon fill="#666666" stroke="#666666" points="121.5,-317 121.5,-317 294.5,-317 294.5,-317 121.5,-317"/>
<polygon fill="none" stroke="#666666" points="121,-300 121,-360 294,-360 294,-300 121,-300"/>
</a>
</g>
</g>
<!-- Node4&#45;&gt;Node3 -->
<g id="edge3_Node000003_Node000004" class="edge">
<title>Node4&#45;&gt;Node3</title>
<g id="a_edge3_Node000003_Node000004"><a xlink:title=" ">
<path fill="none" stroke="#63b8ff" d="M207.5,-289.59C207.5,-280.99 207.5,-271.89 207.5,-263.26"/>
<polygon fill="none" stroke="#63b8ff" points="204,-289.75 207.5,-299.75 211,-289.75 204,-289.75"/>
</a>
</g>
</g>
</g>
</svg>
</svg>

<style type='text/css'>
<![CDATA[
[data-mouse-over-selected='false'] { opacity: 0.7; }
[data-mouse-over-selected='true']  { opacity: 1.0; }
]]>
</style>
<script type="application/ecmascript"><![CDATA[
document.addEventListener('DOMContentLoaded', (event) => {
  highlightEdges();
  highlightAdjacentNodes();
});
]]></script>
</svg>
