<?xml version="1.0" encoding="UTF-8" standalone="no"?>
<!DOCTYPE svg PUBLIC "-//W3C//DTD SVG 1.1//EN"
 "http://www.w3.org/Graphics/SVG/1.1/DTD/svg11.dtd">
<!-- Generated by graphviz version 2.43.0 (0)
 -->
<!-- Title: Controller Pages: 1 -->
<svg width="168pt" height="164pt"
 viewBox="0.00 0.00 168.00 164.00" xmlns="http://www.w3.org/2000/svg" xmlns:xlink="http://www.w3.org/1999/xlink">
<g id="graph0" class="graph" transform="scale(1 1) rotate(0) translate(4 160)">
<title>Controller</title>
<!-- Node1 -->
<g id="Node000001" class="node">
<title>Node1</title>
<g id="a_Node000001"><a xlink:title=" ">
<polygon fill="#999999" stroke="transparent" points="109.5,-156 50.5,-156 50.5,-107 109.5,-107 109.5,-156"/>
<text text-anchor="start" x="56" y="-143.5" font-family="Helvetica,sans-Serif" font-size="10.00">Controller</text>
<text text-anchor="start" x="78.5" y="-128.5" font-family="Helvetica,sans-Serif" font-size="10.00"> </text>
<text text-anchor="start" x="78.5" y="-113.5" font-family="Helvetica,sans-Serif" font-size="10.00"> </text>
<polygon fill="#666666" stroke="#666666" points="51,-138.5 51,-138.5 110,-138.5 110,-138.5 51,-138.5"/>
<polygon fill="#666666" stroke="#666666" points="51,-123.5 51,-123.5 110,-123.5 110,-123.5 51,-123.5"/>
<polygon fill="none" stroke="#666666" points="50.5,-107 50.5,-156 109.5,-156 109.5,-107 50.5,-107"/>
</a>
</g>
</g>
<!-- Node2 -->
<g id="Node000002" class="node">
<title>Node2</title>
<g id="a_Node000002"><a xlink:href="classEbceys_1_1Infrastructure_1_1TestApplication_1_1Controllers_1_1V2_1_1TestV2Controller.html" target="_top" xlink:title=" ">
<polygon fill="white" stroke="transparent" points="160,-71 0,-71 0,0 160,0 160,-71"/>
<text text-anchor="start" x="5" y="-58.5" font-family="Helvetica,sans-Serif" font-size="10.00">Ebceys.Infrastructure.Test</text>
<text text-anchor="start" x="5" y="-47.5" font-family="Helvetica,sans-Serif" font-size="10.00">Application.Controllers.V2.Test</text>
<text text-anchor="start" x="49.5" y="-36.5" font-family="Helvetica,sans-Serif" font-size="10.00">V2Controller</text>
<text text-anchor="start" x="78" y="-21.5" font-family="Helvetica,sans-Serif" font-size="10.00"> </text>
<text text-anchor="start" x="30" y="-6.5" font-family="Helvetica,sans-Serif" font-size="10.00">+</text>
<text text-anchor="start" x="69" y="-6.5" font-family="Helvetica,sans-Serif" font-size="10.00">Index()</text>
<polygon fill="#666666" stroke="#666666" points="0,-31.5 0,-31.5 160,-31.5 160,-31.5 0,-31.5"/>
<polygon fill="#666666" stroke="#666666" points="0,-16.5 0,-16.5 160,-16.5 160,-16.5 0,-16.5"/>
<polygon fill="none" stroke="#666666" points="0,0 0,-71 160,-71 160,0 0,0"/>
</a>
</g>
</g>
<!-- Node1&#45;&gt;Node2 -->
<g id="edge1_Node000001_Node000002" class="edge">
<title>Node1&#45;&gt;Node2</title>
<g id="a_edge1_Node000001_Node000002"><a xlink:title=" ">
<path fill="none" stroke="#63b8ff" d="M80,-96.7C80,-88.42 80,-79.55 80,-71.23"/>
<polygon fill="none" stroke="#63b8ff" points="76.5,-96.78 80,-106.78 83.5,-96.78 76.5,-96.78"/>
</a>
</g>
</g>
</g>
</svg>
