<?xml version="1.0" encoding="UTF-8" standalone="no"?>
<!DOCTYPE svg PUBLIC "-//W3C//DTD SVG 1.1//EN"
 "http://www.w3.org/Graphics/SVG/1.1/DTD/svg11.dtd">
<!-- Generated by graphviz version 2.43.0 (0)
 -->
<!-- Title: Ebceys.Infrastructure.TestApplication.BoundedContext.RoutesDictionary Pages: 1 -->
<svg width="194pt" height="175pt"
 viewBox="0.00 0.00 194.00 175.00" xmlns="http://www.w3.org/2000/svg" xmlns:xlink="http://www.w3.org/1999/xlink">

<svg id="main" version="1.1" xmlns="http://www.w3.org/2000/svg" xmlns:xlink="http://www.w3.org/1999/xlink" xml:space="preserve">

<style type="text/css"><![CDATA[
.node, .edge {opacity: 0.7;}
.node.selected, .edge.selected {opacity: 1;}
.edge:hover path { stroke: red; }
.edge:hover polygon { stroke: red; fill: red; }
]]></style>
<script type="application/ecmascript" xlink:href="svg.min.js"/>
<svg id="graph" class="graph">
<g id="graph0" class="graph" transform="scale(1 1) rotate(0) translate(4 171)">
<title>Ebceys.Infrastructure.TestApplication.BoundedContext.RoutesDictionary</title>
<!-- Node1 -->
<g id="Node000001" class="node">
<title>Node1</title>
<g id="a_Node000001"><a xlink:title=" ">
<polygon fill="#999999" stroke="transparent" points="186,-71 0,-71 0,0 186,0 186,-71"/>
<text text-anchor="start" x="5" y="-58.5" font-family="Helvetica,sans-Serif" font-size="10.00">Ebceys.Infrastructure.Test</text>
<text text-anchor="start" x="5" y="-47.5" font-family="Helvetica,sans-Serif" font-size="10.00">Application.BoundedContext.Routes</text>
<text text-anchor="start" x="67.5" y="-36.5" font-family="Helvetica,sans-Serif" font-size="10.00">Dictionary</text>
<text text-anchor="start" x="91" y="-21.5" font-family="Helvetica,sans-Serif" font-size="10.00"> </text>
<text text-anchor="start" x="91" y="-6.5" font-family="Helvetica,sans-Serif" font-size="10.00"> </text>
<polygon fill="#666666" stroke="#666666" points="0,-31.5 0,-31.5 186,-31.5 186,-31.5 0,-31.5"/>
<polygon fill="#666666" stroke="#666666" points="0,-16.5 0,-16.5 186,-16.5 186,-16.5 0,-16.5"/>
<polygon fill="none" stroke="#666666" points="0,0 0,-71 186,-71 186,0 0,0"/>
</a>
</g>
</g>
<!-- Node2 -->
<g id="Node000002" class="node">
<title>Node2</title>
<g id="a_Node000002"><a xlink:title=" ">
<polygon fill="white" stroke="transparent" points="127,-167 59,-167 59,-118 127,-118 127,-167"/>
<text text-anchor="start" x="64" y="-154.5" font-family="Helvetica,sans-Serif" font-size="10.00">const string</text>
<text text-anchor="start" x="91" y="-139.5" font-family="Helvetica,sans-Serif" font-size="10.00"> </text>
<text text-anchor="start" x="91" y="-124.5" font-family="Helvetica,sans-Serif" font-size="10.00"> </text>
<polygon fill="#666666" stroke="#666666" points="59,-149.5 59,-149.5 127,-149.5 127,-149.5 59,-149.5"/>
<polygon fill="#666666" stroke="#666666" points="59,-134.5 59,-134.5 127,-134.5 127,-134.5 59,-134.5"/>
<polygon fill="none" stroke="#666666" points="59,-118 59,-167 127,-167 127,-118 59,-118"/>
</a>
</g>
</g>
<!-- Node2&#45;&gt;Node1 -->
<g id="edge1_Node000001_Node000002" class="edge">
<title>Node2&#45;&gt;Node1</title>
<g id="a_edge1_Node000001_Node000002"><a xlink:title=" ">
<path fill="none" stroke="#63b8ff" d="M93,-117.94C93,-107.7 93,-95.34 93,-83.37"/>
<polygon fill="none" stroke="#63b8ff" points="93,-83.15 89,-77.15 93,-71.15 97,-77.15 93,-83.15"/>
</a>
</g>
<text text-anchor="middle" x="121.5" y="-92" font-family="Helvetica,sans-Serif" font-size="10.00" fill="grey"> +BasePath</text>
</g>
</g>
</svg>
</svg>

<style type='text/css'>
<![CDATA[
[data-mouse-over-selected='false'] { opacity: 0.7; }
[data-mouse-over-selected='true']  { opacity: 1.0; }
]]>
</style>
<script type="application/ecmascript"><![CDATA[
document.addEventListener('DOMContentLoaded', (event) => {
  highlightEdges();
  highlightAdjacentNodes();
});
]]></script>
</svg>
