<?xml version="1.0" encoding="UTF-8" standalone="no"?>
<!DOCTYPE svg PUBLIC "-//W3C//DTD SVG 1.1//EN"
 "http://www.w3.org/Graphics/SVG/1.1/DTD/svg11.dtd">
<!-- Generated by graphviz version 2.43.0 (0)
 -->
<!-- Title: Attribute Pages: 1 -->
<svg width="374pt" height="153pt"
 viewBox="0.00 0.00 373.50 153.00" xmlns="http://www.w3.org/2000/svg" xmlns:xlink="http://www.w3.org/1999/xlink">

<svg id="main" version="1.1" xmlns="http://www.w3.org/2000/svg" xmlns:xlink="http://www.w3.org/1999/xlink" xml:space="preserve">

<style type="text/css"><![CDATA[
.node, .edge {opacity: 0.7;}
.node.selected, .edge.selected {opacity: 1;}
.edge:hover path { stroke: red; }
.edge:hover polygon { stroke: red; fill: red; }
]]></style>
<script type="application/ecmascript" xlink:href="svg.min.js"/>
<svg id="graph" class="graph">
<g id="graph0" class="graph" transform="scale(1 1) rotate(0) translate(4 149)">
<title>Attribute</title>
<!-- Node1 -->
<g id="Node000001" class="node">
<title>Node1</title>
<g id="a_Node000001"><a xlink:title=" ">
<polygon fill="#999999" stroke="transparent" points="207.5,-145 154.5,-145 154.5,-96 207.5,-96 207.5,-145"/>
<text text-anchor="start" x="160" y="-132.5" font-family="Helvetica,sans-Serif" font-size="10.00">Attribute</text>
<text text-anchor="start" x="179.5" y="-117.5" font-family="Helvetica,sans-Serif" font-size="10.00"> </text>
<text text-anchor="start" x="179.5" y="-102.5" font-family="Helvetica,sans-Serif" font-size="10.00"> </text>
<polygon fill="#666666" stroke="#666666" points="155,-127.5 155,-127.5 208,-127.5 208,-127.5 155,-127.5"/>
<polygon fill="#666666" stroke="#666666" points="155,-112.5 155,-112.5 208,-112.5 208,-112.5 155,-112.5"/>
<polygon fill="none" stroke="#666666" points="154.5,-96 154.5,-145 207.5,-145 207.5,-96 154.5,-96"/>
</a>
</g>
</g>
<!-- Node2 -->
<g id="Node000002" class="node">
<title>Node2</title>
<g id="a_Node000002"><a xlink:href="classEbceys_1_1Infrastructure_1_1Attributes_1_1NoRequestBodyLoggingAttribute.html" target="_top" xlink:title="The NoRequestBodyLoggingAttribute class.">
<polygon fill="white" stroke="transparent" points="170,-60 0,-60 0,0 170,0 170,-60"/>
<text text-anchor="start" x="5" y="-48" font-family="Helvetica,sans-Serif" font-size="10.00">Ebceys.Infrastructure.Attributes.</text>
<text text-anchor="start" x="5" y="-37" font-family="Helvetica,sans-Serif" font-size="10.00">NoRequestBodyLoggingAttribute</text>
<text text-anchor="start" x="83" y="-22" font-family="Helvetica,sans-Serif" font-size="10.00"> </text>
<text text-anchor="start" x="83" y="-7" font-family="Helvetica,sans-Serif" font-size="10.00"> </text>
<polygon fill="#666666" stroke="#666666" points="0,-32 0,-32 170,-32 170,-32 0,-32"/>
<polygon fill="#666666" stroke="#666666" points="0,-17 0,-17 170,-17 170,-17 0,-17"/>
<polygon fill="none" stroke="#666666" points="0,0 0,-60 170,-60 170,0 0,0"/>
</a>
</g>
</g>
<!-- Node1&#45;&gt;Node2 -->
<g id="edge1_Node000001_Node000002" class="edge">
<title>Node1&#45;&gt;Node2</title>
<g id="a_edge1_Node000001_Node000002"><a xlink:title=" ">
<path fill="none" stroke="#63b8ff" d="M147.78,-88.87C137.68,-79.56 126.62,-69.36 116.63,-60.16"/>
<polygon fill="none" stroke="#63b8ff" points="145.55,-91.58 155.27,-95.78 150.29,-86.43 145.55,-91.58"/>
</a>
</g>
</g>
<!-- Node3 -->
<g id="Node000003" class="node">
<title>Node3</title>
<g id="a_Node000003"><a xlink:href="classEbceys_1_1Infrastructure_1_1Attributes_1_1NoResponseBodyLoggingAttribute.html" target="_top" xlink:title="The NoResponseBodyLoggingAttribute class.">
<polygon fill="white" stroke="transparent" points="365.5,-60 188.5,-60 188.5,0 365.5,0 365.5,-60"/>
<text text-anchor="start" x="194" y="-48" font-family="Helvetica,sans-Serif" font-size="10.00">Ebceys.Infrastructure.Attributes.</text>
<text text-anchor="start" x="194" y="-37" font-family="Helvetica,sans-Serif" font-size="10.00">NoResponseBodyLoggingAttribute</text>
<text text-anchor="start" x="275.5" y="-22" font-family="Helvetica,sans-Serif" font-size="10.00"> </text>
<text text-anchor="start" x="275.5" y="-7" font-family="Helvetica,sans-Serif" font-size="10.00"> </text>
<polygon fill="#666666" stroke="#666666" points="189,-32 189,-32 366,-32 366,-32 189,-32"/>
<polygon fill="#666666" stroke="#666666" points="189,-17 189,-17 366,-17 366,-17 189,-17"/>
<polygon fill="none" stroke="#666666" points="188.5,0 188.5,-60 365.5,-60 365.5,0 188.5,0"/>
</a>
</g>
</g>
<!-- Node1&#45;&gt;Node3 -->
<g id="edge2_Node000001_Node000003" class="edge">
<title>Node1&#45;&gt;Node3</title>
<g id="a_edge2_Node000001_Node000003"><a xlink:title=" ">
<path fill="none" stroke="#63b8ff" d="M214.22,-88.87C224.32,-79.56 235.38,-69.36 245.37,-60.16"/>
<polygon fill="none" stroke="#63b8ff" points="211.71,-86.43 206.73,-95.78 216.45,-91.58 211.71,-86.43"/>
</a>
</g>
</g>
</g>
</svg>
</svg>

<style type='text/css'>
<![CDATA[
[data-mouse-over-selected='false'] { opacity: 0.7; }
[data-mouse-over-selected='true']  { opacity: 1.0; }
]]>
</style>
<script type="application/ecmascript"><![CDATA[
document.addEventListener('DOMContentLoaded', (event) => {
  highlightEdges();
  highlightAdjacentNodes();
});
]]></script>
</svg>
