<?xml version="1.0" encoding="UTF-8" standalone="no"?>
<!DOCTYPE svg PUBLIC "-//W3C//DTD SVG 1.1//EN"
 "http://www.w3.org/Graphics/SVG/1.1/DTD/svg11.dtd">
<!-- Generated by graphviz version 2.43.0 (0)
 -->
<!-- Title: Ebceys.Infrastructure.TestApplication.Controllers.TestController.DeleteCommand Pages: 1 -->
<svg width="692pt" height="116pt"
 viewBox="0.00 0.00 692.00 116.00" xmlns="http://www.w3.org/2000/svg" xmlns:xlink="http://www.w3.org/1999/xlink">
<g id="graph0" class="graph" transform="scale(1 1) rotate(0) translate(4 112)">
<title>Ebceys.Infrastructure.TestApplication.Controllers.TestController.DeleteCommand</title>
<!-- Node1 -->
<g id="Node000001" class="node">
<title>Node1</title>
<g id="a_Node000001"><a xlink:title=" ">
<polygon fill="#999999" stroke="#666666" points="200,-74 0,-74 0,-33 200,-33 200,-74"/>
<text text-anchor="start" x="8" y="-62" font-family="Helvetica,sans-Serif" font-size="10.00">Ebceys.Infrastructure.Test</text>
<text text-anchor="start" x="8" y="-51" font-family="Helvetica,sans-Serif" font-size="10.00">Application.Controllers.TestController.</text>
<text text-anchor="middle" x="100" y="-40" font-family="Helvetica,sans-Serif" font-size="10.00">DeleteCommand</text>
</a>
</g>
</g>
<!-- Node2 -->
<g id="Node000002" class="node">
<title>Node2</title>
<g id="a_Node000002"><a xlink:href="namespaceEbceys_1_1Infrastructure_1_1TestApplication_1_1Commands.html#a20e4f18f3273a3f5832d377084c5125f" target="_top" xlink:title=" ">
<polygon fill="white" stroke="#666666" points="684,-108 478,-108 478,-67 684,-67 684,-108"/>
<text text-anchor="start" x="486" y="-96" font-family="Helvetica,sans-Serif" font-size="10.00">Ebceys.Infrastructure.Test</text>
<text text-anchor="start" x="486" y="-85" font-family="Helvetica,sans-Serif" font-size="10.00">Application.Commands.DeleteElement</text>
<text text-anchor="middle" x="581" y="-74" font-family="Helvetica,sans-Serif" font-size="10.00">CommandContext</text>
</a>
</g>
</g>
<!-- Node1&#45;&gt;Node2 -->
<g id="edge1_Node000001_Node000002" class="edge">
<title>Node1&#45;&gt;Node2</title>
<g id="a_edge1_Node000001_Node000002"><a xlink:title=" ">
<path fill="none" stroke="#63b8ff" d="M200.12,-64.3C212.2,-65.46 224.37,-66.56 236,-67.5 313.28,-73.75 400.47,-78.8 467.74,-82.26"/>
<polygon fill="#63b8ff" stroke="#63b8ff" points="467.77,-85.76 477.94,-82.78 468.13,-78.77 467.77,-85.76"/>
</a>
</g>
</g>
<!-- Node3 -->
<g id="Node000003" class="node">
<title>Node3</title>
<g id="a_Node000003"><a xlink:href="namespaceEbceys_1_1Infrastructure_1_1TestApplication_1_1Commands.html#a2a114d426beecb5d879d15b53da8f89c" target="_top" xlink:title=" ">
<polygon fill="white" stroke="#666666" points="442,-41 236,-41 236,0 442,0 442,-41"/>
<text text-anchor="start" x="244" y="-29" font-family="Helvetica,sans-Serif" font-size="10.00">Ebceys.Infrastructure.Test</text>
<text text-anchor="start" x="244" y="-18" font-family="Helvetica,sans-Serif" font-size="10.00">Application.Commands.DeleteElement</text>
<text text-anchor="middle" x="339" y="-7" font-family="Helvetica,sans-Serif" font-size="10.00">CommandResult</text>
</a>
</g>
</g>
<!-- Node1&#45;&gt;Node3 -->
<g id="edge2_Node000001_Node000003" class="edge">
<title>Node1&#45;&gt;Node3</title>
<g id="a_edge2_Node000001_Node000003"><a xlink:title=" ">
<path fill="none" stroke="#63b8ff" d="M200.14,-39.7C208.61,-38.52 217.23,-37.32 225.8,-36.12"/>
<polygon fill="#63b8ff" stroke="#63b8ff" points="226.41,-39.57 235.83,-34.73 225.44,-32.64 226.41,-39.57"/>
</a>
</g>
</g>
<!-- Node3&#45;&gt;Node2 -->
<g id="edge5_Node000003_Node000002" class="edge">
<title>Node3&#45;&gt;Node2</title>
<g id="a_edge5_Node000003_Node000002"><a xlink:title=" ">
<path fill="none" stroke="#63b8ff" d="M413.64,-41.06C439.9,-48.39 469.66,-56.7 496.68,-64.24"/>
<polygon fill="#63b8ff" stroke="#63b8ff" points="495.93,-67.66 506.5,-66.98 497.81,-60.92 495.93,-67.66"/>
</a>
</g>
</g>
<!-- Node3&#45;&gt;Node3 -->
<g id="edge6_Node000003_Node000003" class="edge">
<title>Node3&#45;&gt;Node3</title>
<g id="a_edge6_Node000003_Node000003"><a xlink:title=" ">
<path fill="none" stroke="#63b8ff" d="M295.26,-41.1C290.49,-50.65 305.07,-59 339,-59 360.21,-59 373.86,-55.74 379.95,-50.96"/>
<polygon fill="#63b8ff" stroke="#63b8ff" points="383.38,-51.67 382.74,-41.1 376.65,-49.76 383.38,-51.67"/>
</a>
</g>
</g>
<!-- Node4 -->
<g id="Node000004" class="node">
<title>Node4</title>
<g id="a_Node000004"><a xlink:href="namespaceEbceys_1_1Infrastructure_1_1TestApplication_1_1DaL.html#a3cb9ad5fd6ae558d6f20c0c275eb32da" target="_top" xlink:title=" ">
<polygon fill="white" stroke="#666666" points="675,-30.5 487,-30.5 487,-0.5 675,-0.5 675,-30.5"/>
<text text-anchor="start" x="495" y="-18.5" font-family="Helvetica,sans-Serif" font-size="10.00">Ebceys.Infrastructure.Test</text>
<text text-anchor="middle" x="581" y="-7.5" font-family="Helvetica,sans-Serif" font-size="10.00">Application.DaL.DataModelContext</text>
</a>
</g>
</g>
<!-- Node3&#45;&gt;Node4 -->
<g id="edge3_Node000003_Node000004" class="edge">
<title>Node3&#45;&gt;Node4</title>
<g id="a_edge3_Node000003_Node000004"><a xlink:title=" ">
<path fill="none" stroke="#63b8ff" d="M442.13,-18.37C453.58,-18.13 465.24,-17.89 476.71,-17.65"/>
<polygon fill="#63b8ff" stroke="#63b8ff" points="476.79,-21.15 486.71,-17.44 476.64,-14.15 476.79,-21.15"/>
</a>
</g>
</g>
<!-- Node4&#45;&gt;Node4 -->
<g id="edge4_Node000004_Node000004" class="edge">
<title>Node4&#45;&gt;Node4</title>
<g id="a_edge4_Node000004_Node000004"><a xlink:title=" ">
<path fill="none" stroke="#63b8ff" d="M538.46,-30.78C529.01,-39.91 543.19,-48.5 581,-48.5 603.45,-48.5 617.57,-45.47 623.36,-41.1"/>
<polygon fill="#63b8ff" stroke="#63b8ff" points="626.86,-40.83 623.54,-30.78 619.87,-40.71 626.86,-40.83"/>
</a>
</g>
</g>
</g>
</svg>
