<?xml version="1.0" encoding="UTF-8" standalone="no"?>
<!DOCTYPE svg PUBLIC "-//W3C//DTD SVG 1.1//EN"
 "http://www.w3.org/Graphics/SVG/1.1/DTD/svg11.dtd">
<!-- Generated by graphviz version 2.43.0 (0)
 -->
<!-- Title: AbstractValidator Pages: 1 -->
<svg width="806pt" height="175pt"
 viewBox="0.00 0.00 805.50 175.00" xmlns="http://www.w3.org/2000/svg" xmlns:xlink="http://www.w3.org/1999/xlink">
<g id="graph0" class="graph" transform="scale(1 1) rotate(0) translate(4 171)">
<title>AbstractValidator</title>
<!-- Node1 -->
<g id="Node000001" class="node">
<title>Node1</title>
<g id="a_Node000001"><a xlink:title=" ">
<polygon fill="#999999" stroke="transparent" points="454.5,-167 359.5,-167 359.5,-118 454.5,-118 454.5,-167"/>
<text text-anchor="start" x="365" y="-154.5" font-family="Helvetica,sans-Serif" font-size="10.00">AbstractValidator</text>
<text text-anchor="start" x="405.5" y="-139.5" font-family="Helvetica,sans-Serif" font-size="10.00"> </text>
<text text-anchor="start" x="405.5" y="-124.5" font-family="Helvetica,sans-Serif" font-size="10.00"> </text>
<polygon fill="#666666" stroke="#666666" points="360,-149.5 360,-149.5 455,-149.5 455,-149.5 360,-149.5"/>
<polygon fill="#666666" stroke="#666666" points="360,-134.5 360,-134.5 455,-134.5 455,-134.5 360,-134.5"/>
<polygon fill="none" stroke="#666666" points="359.5,-118 359.5,-167 454.5,-167 454.5,-118 359.5,-118"/>
</a>
</g>
</g>
<!-- Node2 -->
<g id="Node000002" class="node">
<title>Node2</title>
<g id="a_Node000002"><a xlink:title=" ">
<polygon fill="white" stroke="transparent" points="184,-82 0,-82 0,0 184,0 184,-82"/>
<text text-anchor="start" x="5" y="-70" font-family="Helvetica,sans-Serif" font-size="10.00">Ebceys.Infrastructure.Database</text>
<text text-anchor="start" x="5" y="-59" font-family="Helvetica,sans-Serif" font-size="10.00">Registration.DbContextRegistration</text>
<text text-anchor="start" x="51" y="-48" font-family="Helvetica,sans-Serif" font-size="10.00">OptionsValidator</text>
<text text-anchor="start" x="90" y="-33" font-family="Helvetica,sans-Serif" font-size="10.00"> </text>
<text text-anchor="start" x="7.5" y="-18" font-family="Helvetica,sans-Serif" font-size="10.00">+</text>
<text text-anchor="start" x="24" y="-18" font-family="Helvetica,sans-Serif" font-size="10.00">DbContextRegistrationOptions</text>
<text text-anchor="start" x="24" y="-7" font-family="Helvetica,sans-Serif" font-size="10.00">Validator()</text>
<polygon fill="#666666" stroke="#666666" points="0,-43 0,-43 184,-43 184,-43 0,-43"/>
<polygon fill="#666666" stroke="#666666" points="0,-28 0,-28 184,-28 184,-28 0,-28"/>
<polygon fill="none" stroke="#666666" points="0,0 0,-82 184,-82 184,0 0,0"/>
</a>
</g>
</g>
<!-- Node1&#45;&gt;Node2 -->
<g id="edge1_Node000001_Node000002" class="edge">
<title>Node1&#45;&gt;Node2</title>
<g id="a_edge1_Node000001_Node000002"><a xlink:title=" ">
<path fill="none" stroke="#63b8ff" d="M349.58,-127.3C306.2,-116.15 245.39,-99.6 193,-82 190.05,-81.01 187.06,-79.98 184.05,-78.92"/>
<polygon fill="none" stroke="#63b8ff" points="348.83,-130.72 359.39,-129.81 350.57,-123.94 348.83,-130.72"/>
</a>
</g>
</g>
<!-- Node3 -->
<g id="Node000003" class="node">
<title>Node3</title>
<g id="a_Node000003"><a xlink:title=" ">
<polygon fill="white" stroke="transparent" points="402,-76.5 202,-76.5 202,-5.5 402,-5.5 402,-76.5"/>
<text text-anchor="start" x="207" y="-64" font-family="Helvetica,sans-Serif" font-size="10.00">Ebceys.Infrastructure.Options.</text>
<text text-anchor="start" x="207" y="-53" font-family="Helvetica,sans-Serif" font-size="10.00">SimpleRabbitMqConfigurationValidator</text>
<text text-anchor="start" x="300" y="-38" font-family="Helvetica,sans-Serif" font-size="10.00"> </text>
<text text-anchor="start" x="214" y="-23" font-family="Helvetica,sans-Serif" font-size="10.00">+</text>
<text text-anchor="start" x="235" y="-23" font-family="Helvetica,sans-Serif" font-size="10.00">SimpleRabbitMqConfiguration</text>
<text text-anchor="start" x="235" y="-12" font-family="Helvetica,sans-Serif" font-size="10.00">Validator()</text>
<polygon fill="#666666" stroke="#666666" points="202,-48 202,-48 402,-48 402,-48 202,-48"/>
<polygon fill="#666666" stroke="#666666" points="202,-33 202,-33 402,-33 402,-33 202,-33"/>
<polygon fill="none" stroke="#666666" points="202,-5.5 202,-76.5 402,-76.5 402,-5.5 202,-5.5"/>
</a>
</g>
</g>
<!-- Node1&#45;&gt;Node3 -->
<g id="edge2_Node000001_Node000003" class="edge">
<title>Node1&#45;&gt;Node3</title>
<g id="a_edge2_Node000001_Node000003"><a xlink:title=" ">
<path fill="none" stroke="#63b8ff" d="M374.84,-111.03C363.4,-100.18 350.43,-87.89 338.64,-76.72"/>
<polygon fill="none" stroke="#63b8ff" points="372.45,-113.58 382.12,-117.92 377.27,-108.5 372.45,-113.58"/>
</a>
</g>
</g>
<!-- Node4 -->
<g id="Node000004" class="node">
<title>Node4</title>
<g id="a_Node000004"><a xlink:href="classEbceys_1_1Infrastructure_1_1TestApplication_1_1Validators_1_1ChangeNameRequestValidator.html" target="_top" xlink:title=" ">
<polygon fill="white" stroke="transparent" points="606,-76.5 420,-76.5 420,-5.5 606,-5.5 606,-76.5"/>
<text text-anchor="start" x="425" y="-64" font-family="Helvetica,sans-Serif" font-size="10.00">Ebceys.Infrastructure.Test</text>
<text text-anchor="start" x="425" y="-53" font-family="Helvetica,sans-Serif" font-size="10.00">Application.Validators.ChangeName</text>
<text text-anchor="start" x="471" y="-42" font-family="Helvetica,sans-Serif" font-size="10.00">RequestValidator</text>
<text text-anchor="start" x="511" y="-27" font-family="Helvetica,sans-Serif" font-size="10.00"> </text>
<text text-anchor="start" x="426" y="-12" font-family="Helvetica,sans-Serif" font-size="10.00">+</text>
<text text-anchor="start" x="441" y="-12" font-family="Helvetica,sans-Serif" font-size="10.00">ChangeNameRequestValidator()</text>
<polygon fill="#666666" stroke="#666666" points="420,-37 420,-37 606,-37 606,-37 420,-37"/>
<polygon fill="#666666" stroke="#666666" points="420,-22 420,-22 606,-22 606,-22 420,-22"/>
<polygon fill="none" stroke="#666666" points="420,-5.5 420,-76.5 606,-76.5 606,-5.5 420,-5.5"/>
</a>
</g>
</g>
<!-- Node1&#45;&gt;Node4 -->
<g id="edge3_Node000001_Node000004" class="edge">
<title>Node1&#45;&gt;Node4</title>
<g id="a_edge3_Node000001_Node000004"><a xlink:title=" ">
<path fill="none" stroke="#63b8ff" d="M439.46,-111.03C451.02,-100.18 464.11,-87.89 476.01,-76.72"/>
<polygon fill="none" stroke="#63b8ff" points="437.02,-108.52 432.12,-117.92 441.81,-113.63 437.02,-108.52"/>
</a>
</g>
</g>
<!-- Node5 -->
<g id="Node000005" class="node">
<title>Node5</title>
<g id="a_Node000005"><a xlink:href="classEbceys_1_1Infrastructure_1_1TestApplication_1_1Validators_1_1SomeBodyRequestValidator.html" target="_top" xlink:title=" ">
<polygon fill="white" stroke="transparent" points="797.5,-76.5 624.5,-76.5 624.5,-5.5 797.5,-5.5 797.5,-76.5"/>
<text text-anchor="start" x="630" y="-64" font-family="Helvetica,sans-Serif" font-size="10.00">Ebceys.Infrastructure.Test</text>
<text text-anchor="start" x="630" y="-53" font-family="Helvetica,sans-Serif" font-size="10.00">Application.Validators.SomeBody</text>
<text text-anchor="start" x="669.5" y="-42" font-family="Helvetica,sans-Serif" font-size="10.00">RequestValidator</text>
<text text-anchor="start" x="709.5" y="-27" font-family="Helvetica,sans-Serif" font-size="10.00"> </text>
<text text-anchor="start" x="631" y="-12" font-family="Helvetica,sans-Serif" font-size="10.00">+</text>
<text text-anchor="start" x="646" y="-12" font-family="Helvetica,sans-Serif" font-size="10.00">SomeBodyRequestValidator()</text>
<polygon fill="#666666" stroke="#666666" points="625,-37 625,-37 798,-37 798,-37 625,-37"/>
<polygon fill="#666666" stroke="#666666" points="625,-22 625,-22 798,-22 798,-22 625,-22"/>
<polygon fill="none" stroke="#666666" points="624.5,-5.5 624.5,-76.5 797.5,-76.5 797.5,-5.5 624.5,-5.5"/>
</a>
</g>
</g>
<!-- Node1&#45;&gt;Node5 -->
<g id="edge4_Node000001_Node000005" class="edge">
<title>Node1&#45;&gt;Node5</title>
<g id="a_edge4_Node000001_Node000005"><a xlink:title=" ">
<path fill="none" stroke="#63b8ff" d="M464.37,-127.01C506.46,-115.92 564.79,-99.58 615,-82 619.86,-80.3 624.82,-78.48 629.81,-76.6"/>
<polygon fill="none" stroke="#63b8ff" points="463.37,-123.66 454.58,-129.58 465.14,-130.43 463.37,-123.66"/>
</a>
</g>
</g>
</g>
</svg>
