<?xml version="1.0" encoding="UTF-8" standalone="no"?>
<!DOCTYPE svg PUBLIC "-//W3C//DTD SVG 1.1//EN"
 "http://www.w3.org/Graphics/SVG/1.1/DTD/svg11.dtd">
<!-- Generated by graphviz version 2.43.0 (0)
 -->
<!-- Title: Ebceys.Infrastructure.TestApplication.Controllers.TestController.PostCommand Pages: 1 -->
<svg width="682pt" height="234pt"
 viewBox="0.00 0.00 682.00 234.00" xmlns="http://www.w3.org/2000/svg" xmlns:xlink="http://www.w3.org/1999/xlink">
<g id="graph0" class="graph" transform="scale(1 1) rotate(0) translate(4 230)">
<title>Ebceys.Infrastructure.TestApplication.Controllers.TestController.PostCommand</title>
<!-- Node1 -->
<g id="Node000001" class="node">
<title>Node1</title>
<g id="a_Node000001"><a xlink:title=" ">
<polygon fill="#999999" stroke="#666666" points="200,-147 0,-147 0,-106 200,-106 200,-147"/>
<text text-anchor="start" x="8" y="-135" font-family="Helvetica,sans-Serif" font-size="10.00">Ebceys.Infrastructure.Test</text>
<text text-anchor="start" x="8" y="-124" font-family="Helvetica,sans-Serif" font-size="10.00">Application.Controllers.TestController.</text>
<text text-anchor="middle" x="100" y="-113" font-family="Helvetica,sans-Serif" font-size="10.00">PostCommand</text>
</a>
</g>
</g>
<!-- Node2 -->
<g id="Node000002" class="node">
<title>Node2</title>
<g id="a_Node000002"><a xlink:href="namespaceEbceys_1_1Infrastructure_1_1TestApplication_1_1Commands.html#a73b52a43bcbe10adc6505765c367a3db" target="_top" xlink:title=" ">
<polygon fill="white" stroke="#666666" points="670,-226 490,-226 490,-185 670,-185 670,-226"/>
<text text-anchor="start" x="498" y="-214" font-family="Helvetica,sans-Serif" font-size="10.00">Ebceys.Infrastructure.Test</text>
<text text-anchor="start" x="498" y="-203" font-family="Helvetica,sans-Serif" font-size="10.00">Application.Commands.AddEntity</text>
<text text-anchor="middle" x="580" y="-192" font-family="Helvetica,sans-Serif" font-size="10.00">CommandContext</text>
</a>
</g>
</g>
<!-- Node1&#45;&gt;Node2 -->
<g id="edge1_Node000001_Node000002" class="edge">
<title>Node1&#45;&gt;Node2</title>
<g id="a_edge1_Node000001_Node000002"><a xlink:title=" ">
<path fill="none" stroke="#63b8ff" d="M138.15,-147.02C164.6,-160.53 201.42,-177.22 236,-185.5 316.58,-204.81 410.71,-209.05 479.96,-208.89"/>
<polygon fill="#63b8ff" stroke="#63b8ff" points="480.01,-212.39 489.99,-208.84 479.97,-205.39 480.01,-212.39"/>
</a>
</g>
</g>
<!-- Node3 -->
<g id="Node000003" class="node">
<title>Node3</title>
<g id="a_Node000003"><a xlink:href="namespaceEbceys_1_1Infrastructure_1_1TestApplication_1_1Commands.html#a250926b0041b9824f967701a7a10ab96" target="_top" xlink:title=" ">
<polygon fill="white" stroke="#666666" points="433,-177 253,-177 253,-136 433,-136 433,-177"/>
<text text-anchor="start" x="261" y="-165" font-family="Helvetica,sans-Serif" font-size="10.00">Ebceys.Infrastructure.Test</text>
<text text-anchor="start" x="261" y="-154" font-family="Helvetica,sans-Serif" font-size="10.00">Application.Commands.AddEntity</text>
<text text-anchor="middle" x="343" y="-143" font-family="Helvetica,sans-Serif" font-size="10.00">CommandResult</text>
</a>
</g>
</g>
<!-- Node1&#45;&gt;Node3 -->
<g id="edge2_Node000001_Node000003" class="edge">
<title>Node1&#45;&gt;Node3</title>
<g id="a_edge2_Node000001_Node000003"><a xlink:title=" ">
<path fill="none" stroke="#63b8ff" d="M200.07,-138.83C214.17,-140.59 228.68,-142.39 242.78,-144.15"/>
<polygon fill="#63b8ff" stroke="#63b8ff" points="242.62,-147.66 252.97,-145.42 243.48,-140.71 242.62,-147.66"/>
</a>
</g>
</g>
<!-- Node5 -->
<g id="Node000005" class="node">
<title>Node5</title>
<g id="a_Node000005"><a xlink:href="namespaceEbceys_1_1Infrastructure_1_1TestApplication_1_1BoundedContext_1_1Responses.html#a403e221c8eb0383945de301c01b5ffd6" target="_top" xlink:title=" ">
<polygon fill="white" stroke="#666666" points="450,-118 236,-118 236,-77 450,-77 450,-118"/>
<text text-anchor="start" x="244" y="-106" font-family="Helvetica,sans-Serif" font-size="10.00">Ebceys.Infrastructure.Test</text>
<text text-anchor="start" x="244" y="-95" font-family="Helvetica,sans-Serif" font-size="10.00">Application.BoundedContext.Responses.</text>
<text text-anchor="middle" x="343" y="-84" font-family="Helvetica,sans-Serif" font-size="10.00">CommandResultResponse</text>
</a>
</g>
</g>
<!-- Node1&#45;&gt;Node5 -->
<g id="edge6_Node000001_Node000005" class="edge">
<title>Node1&#45;&gt;Node5</title>
<g id="a_edge6_Node000001_Node000005"><a xlink:title=" ">
<path fill="none" stroke="#63b8ff" d="M200.07,-114.58C208.56,-113.56 217.2,-112.52 225.81,-111.48"/>
<polygon fill="#63b8ff" stroke="#63b8ff" points="226.38,-114.94 235.89,-110.27 225.54,-107.99 226.38,-114.94"/>
</a>
</g>
</g>
<!-- Node6 -->
<g id="Node000006" class="node">
<title>Node6</title>
<g id="a_Node000006"><a xlink:href="namespaceEbceys_1_1Infrastructure_1_1TestApplication_1_1BoundedContext_1_1Responses.html#ab1301f025190a08f032f6fe846003414" target="_top" xlink:title=" ">
<polygon fill="white" stroke="#666666" points="450,-41 236,-41 236,0 450,0 450,-41"/>
<text text-anchor="start" x="244" y="-29" font-family="Helvetica,sans-Serif" font-size="10.00">Ebceys.Infrastructure.Test</text>
<text text-anchor="start" x="244" y="-18" font-family="Helvetica,sans-Serif" font-size="10.00">Application.BoundedContext.Responses.</text>
<text text-anchor="middle" x="343" y="-7" font-family="Helvetica,sans-Serif" font-size="10.00">EntityResponseDto</text>
</a>
</g>
</g>
<!-- Node1&#45;&gt;Node6 -->
<g id="edge7_Node000001_Node000006" class="edge">
<title>Node1&#45;&gt;Node6</title>
<g id="a_edge7_Node000001_Node000006"><a xlink:title=" ">
<path fill="none" stroke="#63b8ff" d="M147.75,-105.94C187.33,-88.53 244.15,-63.54 286.12,-45.08"/>
<polygon fill="#63b8ff" stroke="#63b8ff" points="287.63,-48.24 295.38,-41.01 284.81,-41.83 287.63,-48.24"/>
</a>
</g>
</g>
<!-- Node3&#45;&gt;Node2 -->
<g id="edge3_Node000003_Node000002" class="edge">
<title>Node3&#45;&gt;Node2</title>
<g id="a_edge3_Node000003_Node000002"><a xlink:title=" ">
<path fill="none" stroke="#63b8ff" d="M433.18,-175.09C448.41,-178.27 464.32,-181.59 479.79,-184.81"/>
<polygon fill="#63b8ff" stroke="#63b8ff" points="479.38,-188.3 489.88,-186.92 480.81,-181.45 479.38,-188.3"/>
</a>
</g>
</g>
<!-- Node4 -->
<g id="Node000004" class="node">
<title>Node4</title>
<g id="a_Node000004"><a xlink:href="namespaceEbceys_1_1Infrastructure_1_1TestApplication_1_1DaL.html#a3cb9ad5fd6ae558d6f20c0c275eb32da" target="_top" xlink:title=" ">
<polygon fill="white" stroke="#666666" points="674,-148.5 486,-148.5 486,-118.5 674,-118.5 674,-148.5"/>
<text text-anchor="start" x="494" y="-136.5" font-family="Helvetica,sans-Serif" font-size="10.00">Ebceys.Infrastructure.Test</text>
<text text-anchor="middle" x="580" y="-125.5" font-family="Helvetica,sans-Serif" font-size="10.00">Application.DaL.DataModelContext</text>
</a>
</g>
</g>
<!-- Node3&#45;&gt;Node4 -->
<g id="edge4_Node000003_Node000004" class="edge">
<title>Node3&#45;&gt;Node4</title>
<g id="a_edge4_Node000003_Node000004"><a xlink:title=" ">
<path fill="none" stroke="#63b8ff" d="M433.18,-147.77C447.07,-146.41 461.53,-145 475.71,-143.61"/>
<polygon fill="#63b8ff" stroke="#63b8ff" points="476.36,-147.06 485.97,-142.6 475.68,-140.1 476.36,-147.06"/>
</a>
</g>
</g>
<!-- Node4&#45;&gt;Node4 -->
<g id="edge5_Node000004_Node000004" class="edge">
<title>Node4&#45;&gt;Node4</title>
<g id="a_edge5_Node000004_Node000004"><a xlink:title=" ">
<path fill="none" stroke="#63b8ff" d="M538.52,-148.78C529.3,-157.91 543.12,-166.5 580,-166.5 601.89,-166.5 615.66,-163.47 621.31,-159.1"/>
<polygon fill="#63b8ff" stroke="#63b8ff" points="624.81,-158.83 621.48,-148.78 617.81,-158.71 624.81,-158.83"/>
</a>
</g>
</g>
<!-- Node6&#45;&gt;Node6 -->
<g id="edge8_Node000006_Node000006" class="edge">
<title>Node6&#45;&gt;Node6</title>
<g id="a_edge8_Node000006_Node000006"><a xlink:title=" ">
<path fill="none" stroke="#63b8ff" d="M299.63,-41.1C294.89,-50.65 309.35,-59 343,-59 364.03,-59 377.56,-55.74 383.6,-50.96"/>
<polygon fill="#63b8ff" stroke="#63b8ff" points="387.04,-51.67 386.37,-41.1 380.3,-49.78 387.04,-51.67"/>
</a>
</g>
</g>
</g>
</svg>
