<?xml version="1.0" encoding="UTF-8" standalone="no"?>
<!DOCTYPE svg PUBLIC "-//W3C//DTD SVG 1.1//EN"
 "http://www.w3.org/Graphics/SVG/1.1/DTD/svg11.dtd">
<!-- Generated by graphviz version 2.43.0 (0)
 -->
<!-- Title: Migration Pages: 1 -->
<svg width="159pt" height="183pt"
 viewBox="0.00 0.00 159.00 183.00" xmlns="http://www.w3.org/2000/svg" xmlns:xlink="http://www.w3.org/1999/xlink">
<g id="graph0" class="graph" transform="scale(1 1) rotate(0) translate(4 179)">
<title>Migration</title>
<!-- Node1 -->
<g id="Node000001" class="node">
<title>Node1</title>
<g id="a_Node000001"><a xlink:title=" ">
<polygon fill="#999999" stroke="transparent" points="104,-175 47,-175 47,-126 104,-126 104,-175"/>
<text text-anchor="start" x="52.5" y="-162.5" font-family="Helvetica,sans-Serif" font-size="10.00">Migration</text>
<text text-anchor="start" x="74" y="-147.5" font-family="Helvetica,sans-Serif" font-size="10.00"> </text>
<text text-anchor="start" x="74" y="-132.5" font-family="Helvetica,sans-Serif" font-size="10.00"> </text>
<polygon fill="#666666" stroke="#666666" points="47.5,-157.5 47.5,-157.5 104.5,-157.5 104.5,-157.5 47.5,-157.5"/>
<polygon fill="#666666" stroke="#666666" points="47.5,-142.5 47.5,-142.5 104.5,-142.5 104.5,-142.5 47.5,-142.5"/>
<polygon fill="none" stroke="#666666" points="47,-126 47,-175 104,-175 104,-126 47,-126"/>
</a>
</g>
</g>
<!-- Node2 -->
<g id="Node000002" class="node">
<title>Node2</title>
<g id="a_Node000002"><a xlink:href="classEbceys_1_1Infrastructure_1_1TestApplication_1_1Migrations_1_1Initial.html" target="_top" xlink:title=" ">
<polygon fill="white" stroke="transparent" points="151,-90 0,-90 0,0 151,0 151,-90"/>
<text text-anchor="start" x="5.5" y="-78" font-family="Helvetica,sans-Serif" font-size="10.00">Ebceys.Infrastructure.Test</text>
<text text-anchor="start" x="5.5" y="-67" font-family="Helvetica,sans-Serif" font-size="10.00">Application.Migrations.Initial</text>
<text text-anchor="start" x="74" y="-52" font-family="Helvetica,sans-Serif" font-size="10.00"> </text>
<text text-anchor="start" x="13.5" y="-37" font-family="Helvetica,sans-Serif" font-size="10.00">#</text>
<text text-anchor="start" x="35.5" y="-37" font-family="Helvetica,sans-Serif" font-size="10.00">Up()</text>
<text text-anchor="start" x="13.5" y="-22" font-family="Helvetica,sans-Serif" font-size="10.00">#</text>
<text text-anchor="start" x="35.5" y="-22" font-family="Helvetica,sans-Serif" font-size="10.00">Down()</text>
<text text-anchor="start" x="13.5" y="-7" font-family="Helvetica,sans-Serif" font-size="10.00">#</text>
<text text-anchor="start" x="35.5" y="-7" font-family="Helvetica,sans-Serif" font-size="10.00">BuildTargetModel()</text>
<polygon fill="#666666" stroke="#666666" points="0.5,-62 0.5,-62 151.5,-62 151.5,-62 0.5,-62"/>
<polygon fill="#666666" stroke="#666666" points="0.5,-47 0.5,-47 151.5,-47 151.5,-47 0.5,-47"/>
<polygon fill="none" stroke="#666666" points="0,0 0,-90 151,-90 151,0 0,0"/>
</a>
</g>
</g>
<!-- Node1&#45;&gt;Node2 -->
<g id="edge1_Node000001_Node000002" class="edge">
<title>Node1&#45;&gt;Node2</title>
<g id="a_edge1_Node000001_Node000002"><a xlink:title=" ">
<path fill="none" stroke="#63b8ff" d="M75.5,-115.62C75.5,-107.56 75.5,-98.84 75.5,-90.39"/>
<polygon fill="none" stroke="#63b8ff" points="72,-115.75 75.5,-125.76 79,-115.76 72,-115.75"/>
</a>
</g>
</g>
</g>
</svg>
