<?xml version="1.0" encoding="UTF-8" standalone="no"?>
<!DOCTYPE svg PUBLIC "-//W3C//DTD SVG 1.1//EN"
 "http://www.w3.org/Graphics/SVG/1.1/DTD/svg11.dtd">
<!-- Generated by graphviz version 2.43.0 (0)
 -->
<!-- Title: Ebceys.Infrastructure.UnitTests.Validators.SimpleRabbitMqConfigurationValidatorTests.SimpleRabbitMqConfigurationTestCaseSource Pages: 1 -->
<svg width="220pt" height="287pt"
 viewBox="0.00 0.00 220.00 287.00" xmlns="http://www.w3.org/2000/svg" xmlns:xlink="http://www.w3.org/1999/xlink">

<svg id="main" version="1.1" xmlns="http://www.w3.org/2000/svg" xmlns:xlink="http://www.w3.org/1999/xlink" xml:space="preserve">

<style type="text/css"><![CDATA[
.node, .edge {opacity: 0.7;}
.node.selected, .edge.selected {opacity: 1;}
.edge:hover path { stroke: red; }
.edge:hover polygon { stroke: red; fill: red; }
]]></style>
<script type="application/ecmascript" xlink:href="svg.min.js"/>
<svg id="graph" class="graph">
<g id="graph0" class="graph" transform="scale(1 1) rotate(0) translate(4 283)">
<title>Ebceys.Infrastructure.UnitTests.Validators.SimpleRabbitMqConfigurationValidatorTests.SimpleRabbitMqConfigurationTestCaseSource</title>
<!-- Node1 -->
<g id="Node000001" class="node">
<title>Node1</title>
<g id="a_Node000001"><a xlink:title=" ">
<polygon fill="#999999" stroke="transparent" points="212,-127 0,-127 0,0 212,0 212,-127"/>
<text text-anchor="start" x="5" y="-114.5" font-family="Helvetica,sans-Serif" font-size="10.00">Ebceys.Infrastructure.Unit</text>
<text text-anchor="start" x="5" y="-103.5" font-family="Helvetica,sans-Serif" font-size="10.00">Tests.Validators.SimpleRabbitMq</text>
<text text-anchor="start" x="5" y="-92.5" font-family="Helvetica,sans-Serif" font-size="10.00">ConfigurationValidatorTests.SimpleRabbit</text>
<text text-anchor="start" x="27.5" y="-81.5" font-family="Helvetica,sans-Serif" font-size="10.00">MqConfigurationTestCaseSource</text>
<text text-anchor="start" x="104" y="-66.5" font-family="Helvetica,sans-Serif" font-size="10.00"> </text>
<text text-anchor="start" x="28.5" y="-51.5" font-family="Helvetica,sans-Serif" font-size="10.00">+</text>
<text text-anchor="start" x="66" y="-51.5" font-family="Helvetica,sans-Serif" font-size="10.00">SetupValidBase()</text>
<text text-anchor="start" x="28.5" y="-36.5" font-family="Helvetica,sans-Serif" font-size="10.00">+</text>
<text text-anchor="start" x="66" y="-36.5" font-family="Helvetica,sans-Serif" font-size="10.00">SetupInvalidBase()</text>
<text text-anchor="start" x="28.5" y="-21.5" font-family="Helvetica,sans-Serif" font-size="10.00">+</text>
<text text-anchor="start" x="66" y="-21.5" font-family="Helvetica,sans-Serif" font-size="10.00">GetValidCases()</text>
<text text-anchor="start" x="28.5" y="-6.5" font-family="Helvetica,sans-Serif" font-size="10.00">+</text>
<text text-anchor="start" x="66" y="-6.5" font-family="Helvetica,sans-Serif" font-size="10.00">GetInvalidCases()</text>
<polygon fill="#666666" stroke="#666666" points="0,-76.5 0,-76.5 212,-76.5 212,-76.5 0,-76.5"/>
<polygon fill="#666666" stroke="#666666" points="0,-61.5 0,-61.5 212,-61.5 212,-61.5 0,-61.5"/>
<polygon fill="none" stroke="#666666" points="0,0 0,-127 212,-127 212,0 0,0"/>
</a>
</g>
</g>
<!-- Node2 -->
<g id="Node000002" class="node">
<title>Node2</title>
<g id="a_Node000002"><a xlink:href="classEbceys_1_1Tests_1_1Infrastructure_1_1Helpers_1_1TestCaseSources_1_1EbTestCaseSource-1-g.html" target="_top" xlink:title="The test case source.">
<polygon fill="white" stroke="transparent" points="201.5,-279 10.5,-279 10.5,-163 201.5,-163 201.5,-279"/>
<text text-anchor="start" x="16" y="-267" font-family="Helvetica,sans-Serif" font-size="10.00">Ebceys.Tests.Infrastructure.</text>
<text text-anchor="start" x="16" y="-256" font-family="Helvetica,sans-Serif" font-size="10.00">Helpers.TestCaseSources.EbTestCase</text>
<text text-anchor="start" x="64" y="-245" font-family="Helvetica,sans-Serif" font-size="10.00">Source&lt; TData &gt;</text>
<text text-anchor="start" x="104.5" y="-230" font-family="Helvetica,sans-Serif" font-size="10.00"> </text>
<text text-anchor="start" x="34" y="-215" font-family="Helvetica,sans-Serif" font-size="10.00">+</text>
<text text-anchor="start" x="66" y="-215" font-family="Helvetica,sans-Serif" font-size="10.00">SetupValidBase()</text>
<text text-anchor="start" x="34" y="-200" font-family="Helvetica,sans-Serif" font-size="10.00">+</text>
<text text-anchor="start" x="66" y="-200" font-family="Helvetica,sans-Serif" font-size="10.00">SetupInvalidBase()</text>
<text text-anchor="start" x="34" y="-185" font-family="Helvetica,sans-Serif" font-size="10.00">+</text>
<text text-anchor="start" x="66" y="-185" font-family="Helvetica,sans-Serif" font-size="10.00">GetValidCases()</text>
<text text-anchor="start" x="34" y="-170" font-family="Helvetica,sans-Serif" font-size="10.00">+</text>
<text text-anchor="start" x="66" y="-170" font-family="Helvetica,sans-Serif" font-size="10.00">GetInvalidCases()</text>
<polygon fill="#666666" stroke="#666666" points="11,-240 11,-240 202,-240 202,-240 11,-240"/>
<polygon fill="#666666" stroke="#666666" points="11,-225 11,-225 202,-225 202,-225 11,-225"/>
<polygon fill="none" stroke="#666666" points="10.5,-163 10.5,-279 201.5,-279 201.5,-163 10.5,-163"/>
</a>
</g>
</g>
<!-- Node2&#45;&gt;Node1 -->
<g id="edge1_Node000001_Node000002" class="edge">
<title>Node2&#45;&gt;Node1</title>
<g id="a_edge1_Node000001_Node000002"><a xlink:title=" ">
<path fill="none" stroke="#63b8ff" d="M106,-152.97C106,-144.36 106,-135.56 106,-127.02"/>
<polygon fill="none" stroke="#63b8ff" points="102.5,-152.98 106,-162.98 109.5,-152.98 102.5,-152.98"/>
</a>
</g>
</g>
</g>
</svg>
</svg>

<style type='text/css'>
<![CDATA[
[data-mouse-over-selected='false'] { opacity: 0.7; }
[data-mouse-over-selected='true']  { opacity: 1.0; }
]]>
</style>
<script type="application/ecmascript"><![CDATA[
document.addEventListener('DOMContentLoaded', (event) => {
  highlightEdges();
  highlightAdjacentNodes();
});
]]></script>
</svg>
