<?xml version="1.0" encoding="UTF-8" standalone="no"?>
<!DOCTYPE svg PUBLIC "-//W3C//DTD SVG 1.1//EN"
 "http://www.w3.org/Graphics/SVG/1.1/DTD/svg11.dtd">
<!-- Generated by graphviz version 2.43.0 (0)
 -->
<!-- Title: AbstractValidator Pages: 1 -->
<svg width="990pt" height="175pt"
 viewBox="0.00 0.00 989.50 175.00" xmlns="http://www.w3.org/2000/svg" xmlns:xlink="http://www.w3.org/1999/xlink">
<g id="graph0" class="graph" transform="scale(1 1) rotate(0) translate(4 171)">
<title>AbstractValidator</title>
<!-- Node1 -->
<g id="Node000001" class="node">
<title>Node1</title>
<g id="a_Node000001"><a xlink:title=" ">
<polygon fill="#999999" stroke="transparent" points="533.5,-167 438.5,-167 438.5,-118 533.5,-118 533.5,-167"/>
<text text-anchor="start" x="444" y="-154.5" font-family="Helvetica,sans-Serif" font-size="10.00">AbstractValidator</text>
<text text-anchor="start" x="484.5" y="-139.5" font-family="Helvetica,sans-Serif" font-size="10.00"> </text>
<text text-anchor="start" x="484.5" y="-124.5" font-family="Helvetica,sans-Serif" font-size="10.00"> </text>
<polygon fill="#666666" stroke="#666666" points="439,-149.5 439,-149.5 534,-149.5 534,-149.5 439,-149.5"/>
<polygon fill="#666666" stroke="#666666" points="439,-134.5 439,-134.5 534,-134.5 534,-134.5 439,-134.5"/>
<polygon fill="none" stroke="#666666" points="438.5,-118 438.5,-167 533.5,-167 533.5,-118 438.5,-118"/>
</a>
</g>
</g>
<!-- Node2 -->
<g id="Node000002" class="node">
<title>Node2</title>
<g id="a_Node000002"><a xlink:title=" ">
<polygon fill="white" stroke="transparent" points="184,-82 0,-82 0,0 184,0 184,-82"/>
<text text-anchor="start" x="5" y="-70" font-family="Helvetica,sans-Serif" font-size="10.00">Ebceys.Infrastructure.Database</text>
<text text-anchor="start" x="5" y="-59" font-family="Helvetica,sans-Serif" font-size="10.00">Registration.DbContextRegistration</text>
<text text-anchor="start" x="51" y="-48" font-family="Helvetica,sans-Serif" font-size="10.00">OptionsValidator</text>
<text text-anchor="start" x="90" y="-33" font-family="Helvetica,sans-Serif" font-size="10.00"> </text>
<text text-anchor="start" x="7.5" y="-18" font-family="Helvetica,sans-Serif" font-size="10.00">+</text>
<text text-anchor="start" x="24" y="-18" font-family="Helvetica,sans-Serif" font-size="10.00">DbContextRegistrationOptions</text>
<text text-anchor="start" x="24" y="-7" font-family="Helvetica,sans-Serif" font-size="10.00">Validator()</text>
<polygon fill="#666666" stroke="#666666" points="0,-43 0,-43 184,-43 184,-43 0,-43"/>
<polygon fill="#666666" stroke="#666666" points="0,-28 0,-28 184,-28 184,-28 0,-28"/>
<polygon fill="none" stroke="#666666" points="0,0 0,-82 184,-82 184,0 0,0"/>
</a>
</g>
</g>
<!-- Node1&#45;&gt;Node2 -->
<g id="edge1_Node000001_Node000002" class="edge">
<title>Node1&#45;&gt;Node2</title>
<g id="a_edge1_Node000001_Node000002"><a xlink:title=" ">
<path fill="none" stroke="#63b8ff" d="M428.45,-132.9C368.83,-123.28 273.32,-105.85 193,-82 190.11,-81.14 187.18,-80.23 184.24,-79.29"/>
<polygon fill="none" stroke="#63b8ff" points="428,-136.38 438.43,-134.5 429.11,-129.46 428,-136.38"/>
</a>
</g>
</g>
<!-- Node3 -->
<g id="Node000003" class="node">
<title>Node3</title>
<g id="a_Node000003"><a xlink:title=" ">
<polygon fill="white" stroke="transparent" points="368,-76.5 202,-76.5 202,-5.5 368,-5.5 368,-76.5"/>
<text text-anchor="start" x="209.5" y="-64" font-family="Helvetica,sans-Serif" font-size="10.00">Ebceys.Infrastructure.Http</text>
<text text-anchor="start" x="209.5" y="-53" font-family="Helvetica,sans-Serif" font-size="10.00">Client.ClientRegistration.Client</text>
<text text-anchor="start" x="230.5" y="-42" font-family="Helvetica,sans-Serif" font-size="10.00">ConfigurationValidator</text>
<text text-anchor="start" x="283" y="-27" font-family="Helvetica,sans-Serif" font-size="10.00"> </text>
<text text-anchor="start" x="206" y="-12" font-family="Helvetica,sans-Serif" font-size="10.00">+</text>
<text text-anchor="start" x="219" y="-12" font-family="Helvetica,sans-Serif" font-size="10.00">ClientConfigurationValidator()</text>
<polygon fill="#666666" stroke="#666666" points="202,-37 202,-37 368,-37 368,-37 202,-37"/>
<polygon fill="#666666" stroke="#666666" points="202,-22 202,-22 368,-22 368,-22 202,-22"/>
<polygon fill="none" stroke="#666666" points="202,-5.5 202,-76.5 368,-76.5 368,-5.5 202,-5.5"/>
</a>
</g>
</g>
<!-- Node1&#45;&gt;Node3 -->
<g id="edge2_Node000001_Node000003" class="edge">
<title>Node1&#45;&gt;Node3</title>
<g id="a_edge2_Node000001_Node000003"><a xlink:title=" ">
<path fill="none" stroke="#63b8ff" d="M429.36,-113.46C406.18,-101.99 379.13,-88.6 354.75,-76.53"/>
<polygon fill="none" stroke="#63b8ff" points="427.85,-116.62 438.37,-117.92 430.96,-110.35 427.85,-116.62"/>
</a>
</g>
</g>
<!-- Node4 -->
<g id="Node000004" class="node">
<title>Node4</title>
<g id="a_Node000004"><a xlink:title=" ">
<polygon fill="white" stroke="transparent" points="586,-76.5 386,-76.5 386,-5.5 586,-5.5 586,-76.5"/>
<text text-anchor="start" x="391" y="-64" font-family="Helvetica,sans-Serif" font-size="10.00">Ebceys.Infrastructure.Options.</text>
<text text-anchor="start" x="391" y="-53" font-family="Helvetica,sans-Serif" font-size="10.00">SimpleRabbitMqConfigurationValidator</text>
<text text-anchor="start" x="484" y="-38" font-family="Helvetica,sans-Serif" font-size="10.00"> </text>
<text text-anchor="start" x="398" y="-23" font-family="Helvetica,sans-Serif" font-size="10.00">+</text>
<text text-anchor="start" x="419" y="-23" font-family="Helvetica,sans-Serif" font-size="10.00">SimpleRabbitMqConfiguration</text>
<text text-anchor="start" x="419" y="-12" font-family="Helvetica,sans-Serif" font-size="10.00">Validator()</text>
<polygon fill="#666666" stroke="#666666" points="386,-48 386,-48 586,-48 586,-48 386,-48"/>
<polygon fill="#666666" stroke="#666666" points="386,-33 386,-33 586,-33 586,-33 386,-33"/>
<polygon fill="none" stroke="#666666" points="386,-5.5 386,-76.5 586,-76.5 586,-5.5 386,-5.5"/>
</a>
</g>
</g>
<!-- Node1&#45;&gt;Node4 -->
<g id="edge3_Node000001_Node000004" class="edge">
<title>Node1&#45;&gt;Node4</title>
<g id="a_edge3_Node000001_Node000004"><a xlink:title=" ">
<path fill="none" stroke="#63b8ff" d="M486,-107.89C486,-97.85 486,-86.83 486,-76.72"/>
<polygon fill="none" stroke="#63b8ff" points="482.5,-107.92 486,-117.92 489.5,-107.92 482.5,-107.92"/>
</a>
</g>
</g>
<!-- Node5 -->
<g id="Node000005" class="node">
<title>Node5</title>
<g id="a_Node000005"><a xlink:href="classEbceys_1_1Infrastructure_1_1TestApplication_1_1Validators_1_1ChangeNameRequestValidator.html" target="_top" xlink:title=" ">
<polygon fill="white" stroke="transparent" points="790,-76.5 604,-76.5 604,-5.5 790,-5.5 790,-76.5"/>
<text text-anchor="start" x="609" y="-64" font-family="Helvetica,sans-Serif" font-size="10.00">Ebceys.Infrastructure.Test</text>
<text text-anchor="start" x="609" y="-53" font-family="Helvetica,sans-Serif" font-size="10.00">Application.Validators.ChangeName</text>
<text text-anchor="start" x="655" y="-42" font-family="Helvetica,sans-Serif" font-size="10.00">RequestValidator</text>
<text text-anchor="start" x="695" y="-27" font-family="Helvetica,sans-Serif" font-size="10.00"> </text>
<text text-anchor="start" x="610" y="-12" font-family="Helvetica,sans-Serif" font-size="10.00">+</text>
<text text-anchor="start" x="625" y="-12" font-family="Helvetica,sans-Serif" font-size="10.00">ChangeNameRequestValidator()</text>
<polygon fill="#666666" stroke="#666666" points="604,-37 604,-37 790,-37 790,-37 604,-37"/>
<polygon fill="#666666" stroke="#666666" points="604,-22 604,-22 790,-22 790,-22 604,-22"/>
<polygon fill="none" stroke="#666666" points="604,-5.5 604,-76.5 790,-76.5 790,-5.5 604,-5.5"/>
</a>
</g>
</g>
<!-- Node1&#45;&gt;Node5 -->
<g id="edge4_Node000001_Node000005" class="edge">
<title>Node1&#45;&gt;Node5</title>
<g id="a_edge4_Node000001_Node000005"><a xlink:title=" ">
<path fill="none" stroke="#63b8ff" d="M542.88,-114.68C567.67,-102.99 597.04,-89.14 623.46,-76.68"/>
<polygon fill="none" stroke="#63b8ff" points="541.17,-111.62 533.62,-119.05 544.15,-117.95 541.17,-111.62"/>
</a>
</g>
</g>
<!-- Node6 -->
<g id="Node000006" class="node">
<title>Node6</title>
<g id="a_Node000006"><a xlink:href="classEbceys_1_1Infrastructure_1_1TestApplication_1_1Validators_1_1SomeBodyRequestValidator.html" target="_top" xlink:title=" ">
<polygon fill="white" stroke="transparent" points="981.5,-76.5 808.5,-76.5 808.5,-5.5 981.5,-5.5 981.5,-76.5"/>
<text text-anchor="start" x="814" y="-64" font-family="Helvetica,sans-Serif" font-size="10.00">Ebceys.Infrastructure.Test</text>
<text text-anchor="start" x="814" y="-53" font-family="Helvetica,sans-Serif" font-size="10.00">Application.Validators.SomeBody</text>
<text text-anchor="start" x="853.5" y="-42" font-family="Helvetica,sans-Serif" font-size="10.00">RequestValidator</text>
<text text-anchor="start" x="893.5" y="-27" font-family="Helvetica,sans-Serif" font-size="10.00"> </text>
<text text-anchor="start" x="815" y="-12" font-family="Helvetica,sans-Serif" font-size="10.00">+</text>
<text text-anchor="start" x="830" y="-12" font-family="Helvetica,sans-Serif" font-size="10.00">SomeBodyRequestValidator()</text>
<polygon fill="#666666" stroke="#666666" points="809,-37 809,-37 982,-37 982,-37 809,-37"/>
<polygon fill="#666666" stroke="#666666" points="809,-22 809,-22 982,-22 982,-22 809,-22"/>
<polygon fill="none" stroke="#666666" points="808.5,-5.5 808.5,-76.5 981.5,-76.5 981.5,-5.5 808.5,-5.5"/>
</a>
</g>
</g>
<!-- Node1&#45;&gt;Node6 -->
<g id="edge5_Node000001_Node000006" class="edge">
<title>Node1&#45;&gt;Node6</title>
<g id="a_edge5_Node000001_Node000006"><a xlink:title=" ">
<path fill="none" stroke="#63b8ff" d="M543.87,-134.16C607.35,-125.27 711.8,-108.15 799,-82 804.45,-80.37 810.01,-78.53 815.57,-76.56"/>
<polygon fill="none" stroke="#63b8ff" points="543.09,-130.74 533.66,-135.57 544.04,-137.67 543.09,-130.74"/>
</a>
</g>
</g>
</g>
</svg>
