<?xml version="1.0" encoding="UTF-8" standalone="no"?>
<!DOCTYPE svg PUBLIC "-//W3C//DTD SVG 1.1//EN"
 "http://www.w3.org/Graphics/SVG/1.1/DTD/svg11.dtd">
<!-- Generated by graphviz version 2.43.0 (0)
 -->
<!-- Title: IJob Pages: 1 -->
<svg width="187pt" height="179pt"
 viewBox="0.00 0.00 187.00 179.00" xmlns="http://www.w3.org/2000/svg" xmlns:xlink="http://www.w3.org/1999/xlink">
<g id="graph0" class="graph" transform="scale(1 1) rotate(0) translate(4 175)">
<title>IJob</title>
<!-- Node1 -->
<g id="Node000001" class="node">
<title>Node1</title>
<g id="a_Node000001"><a xlink:title=" ">
<polygon fill="#999999" stroke="transparent" points="104,-171 75,-171 75,-122 104,-122 104,-171"/>
<text text-anchor="start" x="80.5" y="-158.5" font-family="Helvetica,sans-Serif" font-size="10.00">IJob</text>
<text text-anchor="start" x="88" y="-143.5" font-family="Helvetica,sans-Serif" font-size="10.00"> </text>
<text text-anchor="start" x="88" y="-128.5" font-family="Helvetica,sans-Serif" font-size="10.00"> </text>
<polygon fill="#666666" stroke="#666666" points="75.5,-153.5 75.5,-153.5 104.5,-153.5 104.5,-153.5 75.5,-153.5"/>
<polygon fill="#666666" stroke="#666666" points="75.5,-138.5 75.5,-138.5 104.5,-138.5 104.5,-138.5 75.5,-138.5"/>
<polygon fill="none" stroke="#666666" points="75,-122 75,-171 104,-171 104,-122 75,-122"/>
</a>
</g>
</g>
<!-- Node2 -->
<g id="Node000002" class="node">
<title>Node2</title>
<g id="a_Node000002"><a xlink:href="classEbceys_1_1Infrastructure_1_1Tests_1_1ScheduledTests_1_1Helpers_1_1ScheduledTestJob.html" target="_top" xlink:title=" ">
<polygon fill="white" stroke="transparent" points="179,-86 0,-86 0,0 179,0 179,-86"/>
<text text-anchor="start" x="5.5" y="-74" font-family="Helvetica,sans-Serif" font-size="10.00">Ebceys.Infrastructure.Tests.</text>
<text text-anchor="start" x="5.5" y="-63" font-family="Helvetica,sans-Serif" font-size="10.00">ScheduledTests.Helpers.Scheduled</text>
<text text-anchor="start" x="72.5" y="-52" font-family="Helvetica,sans-Serif" font-size="10.00">TestJob</text>
<text text-anchor="start" x="32.5" y="-37" font-family="Helvetica,sans-Serif" font-size="10.00">+</text>
<text text-anchor="start" x="73.5" y="-37" font-family="Helvetica,sans-Serif" font-size="10.00">Times</text>
<text text-anchor="start" x="32.5" y="-22" font-family="Helvetica,sans-Serif" font-size="10.00">+</text>
<text text-anchor="start" x="73.5" y="-22" font-family="Helvetica,sans-Serif" font-size="10.00">IsCalled</text>
<text text-anchor="start" x="32.5" y="-7" font-family="Helvetica,sans-Serif" font-size="10.00">+</text>
<text text-anchor="start" x="73.5" y="-7" font-family="Helvetica,sans-Serif" font-size="10.00">Execute()</text>
<polygon fill="#666666" stroke="#666666" points="0.5,-47 0.5,-47 179.5,-47 179.5,-47 0.5,-47"/>
<polygon fill="#666666" stroke="#666666" points="0.5,-17 0.5,-17 71.5,-17 71.5,-17 0.5,-17"/>
<polygon fill="#666666" stroke="#666666" points="71.5,-17 71.5,-17 179.5,-17 179.5,-17 71.5,-17"/>
<polygon fill="none" stroke="#666666" points="0,0 0,-86 179,-86 179,0 0,0"/>
</a>
</g>
</g>
<!-- Node1&#45;&gt;Node2 -->
<g id="edge1_Node000001_Node000002" class="edge">
<title>Node1&#45;&gt;Node2</title>
<g id="a_edge1_Node000001_Node000002"><a xlink:title=" ">
<path fill="none" stroke="#63b8ff" d="M89.5,-111.94C89.5,-103.68 89.5,-94.73 89.5,-86.13"/>
<polygon fill="none" stroke="#63b8ff" points="86,-111.96 89.5,-121.96 93,-111.96 86,-111.96"/>
</a>
</g>
</g>
</g>
</svg>
