<?xml version="1.0" encoding="UTF-8" standalone="no"?>
<!DOCTYPE svg PUBLIC "-//W3C//DTD SVG 1.1//EN"
 "http://www.w3.org/Graphics/SVG/1.1/DTD/svg11.dtd">
<!-- Generated by graphviz version 2.43.0 (0)
 -->
<!-- Title: Ebceys.Infrastructure.TestApplication.Controllers.TestController.GetCommand Pages: 1 -->
<svg width="682pt" height="203pt"
 viewBox="0.00 0.00 682.00 203.00" xmlns="http://www.w3.org/2000/svg" xmlns:xlink="http://www.w3.org/1999/xlink">
<g id="graph0" class="graph" transform="scale(1 1) rotate(0) translate(4 199)">
<title>Ebceys.Infrastructure.TestApplication.Controllers.TestController.GetCommand</title>
<!-- Node1 -->
<g id="Node000001" class="node">
<title>Node1</title>
<g id="a_Node000001"><a xlink:title=" ">
<polygon fill="#999999" stroke="#666666" points="200,-118 0,-118 0,-77 200,-77 200,-118"/>
<text text-anchor="start" x="8" y="-106" font-family="Helvetica,sans-Serif" font-size="10.00">Ebceys.Infrastructure.Test</text>
<text text-anchor="start" x="8" y="-95" font-family="Helvetica,sans-Serif" font-size="10.00">Application.Controllers.TestController.</text>
<text text-anchor="middle" x="100" y="-84" font-family="Helvetica,sans-Serif" font-size="10.00">GetCommand</text>
</a>
</g>
</g>
<!-- Node2 -->
<g id="Node000002" class="node">
<title>Node2</title>
<g id="a_Node000002"><a xlink:href="namespaceEbceys_1_1Infrastructure_1_1TestApplication_1_1BoundedContext_1_1Responses.html#a403e221c8eb0383945de301c01b5ffd6" target="_top" xlink:title=" ">
<polygon fill="white" stroke="#666666" points="450,-195 236,-195 236,-154 450,-154 450,-195"/>
<text text-anchor="start" x="244" y="-183" font-family="Helvetica,sans-Serif" font-size="10.00">Ebceys.Infrastructure.Test</text>
<text text-anchor="start" x="244" y="-172" font-family="Helvetica,sans-Serif" font-size="10.00">Application.BoundedContext.Responses.</text>
<text text-anchor="middle" x="343" y="-161" font-family="Helvetica,sans-Serif" font-size="10.00">CommandResultResponse</text>
</a>
</g>
</g>
<!-- Node1&#45;&gt;Node2 -->
<g id="edge1_Node000001_Node000002" class="edge">
<title>Node1&#45;&gt;Node2</title>
<g id="a_edge1_Node000001_Node000002"><a xlink:title=" ">
<path fill="none" stroke="#63b8ff" d="M155.86,-118.05C180.26,-126.92 209.42,-137.15 236,-145.5 241.97,-147.38 248.16,-149.25 254.4,-151.08"/>
<polygon fill="#63b8ff" stroke="#63b8ff" points="253.65,-154.51 264.23,-153.94 255.6,-147.79 253.65,-154.51"/>
</a>
</g>
</g>
<!-- Node3 -->
<g id="Node000003" class="node">
<title>Node3</title>
<g id="a_Node000003"><a xlink:href="namespaceEbceys_1_1Infrastructure_1_1TestApplication_1_1BoundedContext_1_1Responses.html#ab1301f025190a08f032f6fe846003414" target="_top" xlink:title=" ">
<polygon fill="white" stroke="#666666" points="450,-118 236,-118 236,-77 450,-77 450,-118"/>
<text text-anchor="start" x="244" y="-106" font-family="Helvetica,sans-Serif" font-size="10.00">Ebceys.Infrastructure.Test</text>
<text text-anchor="start" x="244" y="-95" font-family="Helvetica,sans-Serif" font-size="10.00">Application.BoundedContext.Responses.</text>
<text text-anchor="middle" x="343" y="-84" font-family="Helvetica,sans-Serif" font-size="10.00">EntityResponseDto</text>
</a>
</g>
</g>
<!-- Node1&#45;&gt;Node3 -->
<g id="edge2_Node000001_Node000003" class="edge">
<title>Node1&#45;&gt;Node3</title>
<g id="a_edge2_Node000001_Node000003"><a xlink:title=" ">
<path fill="none" stroke="#63b8ff" d="M200.07,-97.5C208.56,-97.5 217.2,-97.5 225.81,-97.5"/>
<polygon fill="#63b8ff" stroke="#63b8ff" points="225.89,-101 235.89,-97.5 225.89,-94 225.89,-101"/>
</a>
</g>
</g>
<!-- Node4 -->
<g id="Node000004" class="node">
<title>Node4</title>
<g id="a_Node000004"><a xlink:href="namespaceEbceys_1_1Infrastructure_1_1TestApplication_1_1Commands.html#a71cd9444528c7fa8dc1deddf1b7c50a9" target="_top" xlink:title=" ">
<polygon fill="white" stroke="#666666" points="436.5,-41 249.5,-41 249.5,0 436.5,0 436.5,-41"/>
<text text-anchor="start" x="257.5" y="-29" font-family="Helvetica,sans-Serif" font-size="10.00">Ebceys.Infrastructure.Test</text>
<text text-anchor="start" x="257.5" y="-18" font-family="Helvetica,sans-Serif" font-size="10.00">Application.Commands.GetEntities</text>
<text text-anchor="middle" x="343" y="-7" font-family="Helvetica,sans-Serif" font-size="10.00">CommandResult</text>
</a>
</g>
</g>
<!-- Node1&#45;&gt;Node4 -->
<g id="edge4_Node000001_Node000004" class="edge">
<title>Node1&#45;&gt;Node4</title>
<g id="a_edge4_Node000001_Node000004"><a xlink:title=" ">
<path fill="none" stroke="#63b8ff" d="M165.27,-76.97C196.87,-66.87 235.12,-54.65 267.94,-44.16"/>
<polygon fill="#63b8ff" stroke="#63b8ff" points="269.03,-47.49 277.49,-41.11 266.9,-40.82 269.03,-47.49"/>
</a>
</g>
</g>
<!-- Node3&#45;&gt;Node3 -->
<g id="edge3_Node000003_Node000003" class="edge">
<title>Node3&#45;&gt;Node3</title>
<g id="a_edge3_Node000003_Node000003"><a xlink:title=" ">
<path fill="none" stroke="#63b8ff" d="M299.63,-118.1C294.89,-127.65 309.35,-136 343,-136 364.03,-136 377.56,-132.74 383.6,-127.96"/>
<polygon fill="#63b8ff" stroke="#63b8ff" points="387.04,-128.67 386.37,-118.1 380.3,-126.78 387.04,-128.67"/>
</a>
</g>
</g>
<!-- Node4&#45;&gt;Node4 -->
<g id="edge7_Node000004_Node000004" class="edge">
<title>Node4&#45;&gt;Node4</title>
<g id="a_edge7_Node000004_Node000004"><a xlink:title=" ">
<path fill="none" stroke="#63b8ff" d="M299.63,-41.1C294.89,-50.65 309.35,-59 343,-59 364.03,-59 377.56,-55.74 383.6,-50.96"/>
<polygon fill="#63b8ff" stroke="#63b8ff" points="387.04,-51.67 386.37,-41.1 380.3,-49.78 387.04,-51.67"/>
</a>
</g>
</g>
<!-- Node5 -->
<g id="Node000005" class="node">
<title>Node5</title>
<g id="a_Node000005"><a xlink:href="namespaceEbceys_1_1Infrastructure_1_1TestApplication_1_1DaL.html#a3cb9ad5fd6ae558d6f20c0c275eb32da" target="_top" xlink:title=" ">
<polygon fill="white" stroke="#666666" points="674,-35.5 486,-35.5 486,-5.5 674,-5.5 674,-35.5"/>
<text text-anchor="start" x="494" y="-23.5" font-family="Helvetica,sans-Serif" font-size="10.00">Ebceys.Infrastructure.Test</text>
<text text-anchor="middle" x="580" y="-12.5" font-family="Helvetica,sans-Serif" font-size="10.00">Application.DaL.DataModelContext</text>
</a>
</g>
</g>
<!-- Node4&#45;&gt;Node5 -->
<g id="edge5_Node000004_Node000005" class="edge">
<title>Node4&#45;&gt;Node5</title>
<g id="a_edge5_Node000004_Node000005"><a xlink:title=" ">
<path fill="none" stroke="#63b8ff" d="M436.54,-20.5C449.31,-20.5 462.49,-20.5 475.45,-20.5"/>
<polygon fill="#63b8ff" stroke="#63b8ff" points="475.77,-24 485.77,-20.5 475.77,-17 475.77,-24"/>
</a>
</g>
</g>
<!-- Node5&#45;&gt;Node5 -->
<g id="edge6_Node000005_Node000005" class="edge">
<title>Node5&#45;&gt;Node5</title>
<g id="a_edge6_Node000005_Node000005"><a xlink:title=" ">
<path fill="none" stroke="#63b8ff" d="M538.52,-35.78C529.3,-44.91 543.12,-53.5 580,-53.5 601.89,-53.5 615.66,-50.47 621.31,-46.1"/>
<polygon fill="#63b8ff" stroke="#63b8ff" points="624.81,-45.83 621.48,-35.78 617.81,-45.71 624.81,-45.83"/>
</a>
</g>
</g>
</g>
</svg>
