<?xml version="1.0" encoding="UTF-8" standalone="no"?>
<!DOCTYPE svg PUBLIC "-//W3C//DTD SVG 1.1//EN"
 "http://www.w3.org/Graphics/SVG/1.1/DTD/svg11.dtd">
<!-- Generated by graphviz version 2.43.0 (0)
 -->
<!-- Title: Ebceys.Infrastructure.Exceptions.ApiExceptionHelper.ThrowApiException Pages: 1 -->
<svg width="515pt" height="496pt"
 viewBox="0.00 0.00 515.00 495.50" xmlns="http://www.w3.org/2000/svg" xmlns:xlink="http://www.w3.org/1999/xlink">
<g id="graph0" class="graph" transform="scale(1 1) rotate(0) translate(4 491.5)">
<title>Ebceys.Infrastructure.Exceptions.ApiExceptionHelper.ThrowApiException</title>
<!-- Node1 -->
<g id="Node000001" class="node">
<title>Node1</title>
<g id="a_Node000001"><a xlink:title="Throws the api exception.">
<polygon fill="#999999" stroke="#666666" points="507,-275 298,-275 298,-245 507,-245 507,-275"/>
<text text-anchor="start" x="306" y="-263" font-family="Helvetica,sans-Serif" font-size="10.00">Ebceys.Infrastructure.Exceptions.</text>
<text text-anchor="middle" x="402.5" y="-252" font-family="Helvetica,sans-Serif" font-size="10.00">ApiExceptionHelper.ThrowApiException</text>
</a>
</g>
</g>
<!-- Node2 -->
<g id="Node000002" class="node">
<title>Node2</title>
<g id="a_Node000002"><a xlink:href="classEbceys_1_1Infrastructure_1_1Exceptions_1_1ApiExceptionHelper.html#aa04cfd1832380df5f4eac3908baa41c6" target="_top" xlink:title="Throws the api exception created by operationResult .">
<polygon fill="white" stroke="#666666" points="235.5,-487.5 26.5,-487.5 26.5,-446.5 235.5,-446.5 235.5,-487.5"/>
<text text-anchor="start" x="34.5" y="-475.5" font-family="Helvetica,sans-Serif" font-size="10.00">Ebceys.Infrastructure.Exceptions.</text>
<text text-anchor="start" x="34.5" y="-464.5" font-family="Helvetica,sans-Serif" font-size="10.00">ApiExceptionHelper.ThrowApiException</text>
<text text-anchor="middle" x="131" y="-453.5" font-family="Helvetica,sans-Serif" font-size="10.00">&lt; TError &gt;</text>
</a>
</g>
</g>
<!-- Node1&#45;&gt;Node2 -->
<g id="edge1_Node000001_Node000002" class="edge">
<title>Node1&#45;&gt;Node2</title>
<g id="a_edge1_Node000001_Node000002"><a xlink:title=" ">
<path fill="none" stroke="#63b8ff" d="M389.69,-284.06C369.3,-322.93 323.68,-399.09 262,-438 253.88,-443.12 244.98,-447.34 235.76,-450.82"/>
<polygon fill="#63b8ff" stroke="#63b8ff" points="392.87,-285.52 394.32,-275.03 386.64,-282.33 392.87,-285.52"/>
</a>
</g>
</g>
<!-- Node3 -->
<g id="Node000003" class="node">
<title>Node3</title>
<g id="a_Node000003"><a xlink:href="classEbceys_1_1Infrastructure_1_1Exceptions_1_1ApiExceptionHelper.html#a0997d232d88b49e6e8fe4af68eced46c" target="_top" xlink:title="Throws the api exception.">
<polygon fill="white" stroke="#666666" points="235.5,-428.5 26.5,-428.5 26.5,-387.5 235.5,-387.5 235.5,-428.5"/>
<text text-anchor="start" x="34.5" y="-416.5" font-family="Helvetica,sans-Serif" font-size="10.00">Ebceys.Infrastructure.Exceptions.</text>
<text text-anchor="start" x="34.5" y="-405.5" font-family="Helvetica,sans-Serif" font-size="10.00">ApiExceptionHelper.ThrowApiException</text>
<text text-anchor="middle" x="131" y="-394.5" font-family="Helvetica,sans-Serif" font-size="10.00">&lt; TResult &gt;</text>
</a>
</g>
</g>
<!-- Node1&#45;&gt;Node3 -->
<g id="edge2_Node000001_Node000003" class="edge">
<title>Node1&#45;&gt;Node3</title>
<g id="a_edge2_Node000001_Node000003"><a xlink:title=" ">
<path fill="none" stroke="#63b8ff" d="M381.73,-282.55C356.65,-309.71 310.74,-354.68 262,-379 253.72,-383.13 244.86,-386.68 235.79,-389.72"/>
<polygon fill="#63b8ff" stroke="#63b8ff" points="384.4,-284.83 388.54,-275.07 379.22,-280.12 384.4,-284.83"/>
</a>
</g>
</g>
<!-- Node4 -->
<g id="Node000004" class="node">
<title>Node4</title>
<g id="a_Node000004"><a xlink:href="classEbceys_1_1Infrastructure_1_1Exceptions_1_1ApiExceptionHelper.html#a06918d032b62ce3ddf785675011fa3f2" target="_top" xlink:title="Throws the api exception created by operationResult .">
<polygon fill="white" stroke="#666666" points="235.5,-369.5 26.5,-369.5 26.5,-328.5 235.5,-328.5 235.5,-369.5"/>
<text text-anchor="start" x="34.5" y="-357.5" font-family="Helvetica,sans-Serif" font-size="10.00">Ebceys.Infrastructure.Exceptions.</text>
<text text-anchor="start" x="34.5" y="-346.5" font-family="Helvetica,sans-Serif" font-size="10.00">ApiExceptionHelper.ThrowApiException</text>
<text text-anchor="middle" x="131" y="-335.5" font-family="Helvetica,sans-Serif" font-size="10.00">&lt; TResult, TError &gt;</text>
</a>
</g>
</g>
<!-- Node1&#45;&gt;Node4 -->
<g id="edge3_Node000001_Node000004" class="edge">
<title>Node1&#45;&gt;Node4</title>
<g id="a_edge3_Node000001_Node000004"><a xlink:title=" ">
<path fill="none" stroke="#63b8ff" d="M361.83,-279.42C334.32,-292.3 296.56,-308.82 262,-320 252.65,-323.02 242.82,-325.84 232.93,-328.44"/>
<polygon fill="#63b8ff" stroke="#63b8ff" points="363.56,-282.47 371.11,-275.03 360.57,-276.14 363.56,-282.47"/>
</a>
</g>
</g>
<!-- Node5 -->
<g id="Node000005" class="node">
<title>Node5</title>
<g id="a_Node000005"><a xlink:href="classEbceys_1_1Infrastructure_1_1Exceptions_1_1ApiExceptionHelper.html#a9b01c1b3c78d2a3736e3b0017cf7ac8e" target="_top" xlink:title="Throws the api exception created by operationResult .">
<polygon fill="white" stroke="#666666" points="235.5,-310.5 26.5,-310.5 26.5,-269.5 235.5,-269.5 235.5,-310.5"/>
<text text-anchor="start" x="34.5" y="-298.5" font-family="Helvetica,sans-Serif" font-size="10.00">Ebceys.Infrastructure.Exceptions.</text>
<text text-anchor="start" x="34.5" y="-287.5" font-family="Helvetica,sans-Serif" font-size="10.00">ApiExceptionHelper.ThrowApiException</text>
<text text-anchor="middle" x="131" y="-276.5" font-family="Helvetica,sans-Serif" font-size="10.00">&lt; TResult, TError &gt;</text>
</a>
</g>
</g>
<!-- Node1&#45;&gt;Node5 -->
<g id="edge4_Node000001_Node000005" class="edge">
<title>Node1&#45;&gt;Node5</title>
<g id="a_edge4_Node000001_Node000005"><a xlink:title=" ">
<path fill="none" stroke="#63b8ff" d="M287.62,-272.68C270.41,-274.59 252.74,-276.56 235.76,-278.45"/>
<polygon fill="#63b8ff" stroke="#63b8ff" points="288.14,-276.14 297.69,-271.56 287.36,-269.18 288.14,-276.14"/>
</a>
</g>
</g>
<!-- Node6 -->
<g id="Node000006" class="node">
<title>Node6</title>
<g id="a_Node000006"><a xlink:href="classEbceys_1_1Infrastructure_1_1AuthorizationTestApplication_1_1Controllers_1_1AuthController.html#a8eba667312dc5a90e97222e584d54396" target="_top" xlink:title=" ">
<polygon fill="white" stroke="#666666" points="242.5,-251.5 19.5,-251.5 19.5,-210.5 242.5,-210.5 242.5,-251.5"/>
<text text-anchor="start" x="27.5" y="-239.5" font-family="Helvetica,sans-Serif" font-size="10.00">Ebceys.Infrastructure.Authorization</text>
<text text-anchor="start" x="27.5" y="-228.5" font-family="Helvetica,sans-Serif" font-size="10.00">TestApplication.Controllers.AuthController.</text>
<text text-anchor="middle" x="131" y="-217.5" font-family="Helvetica,sans-Serif" font-size="10.00">ValidateToken</text>
</a>
</g>
</g>
<!-- Node1&#45;&gt;Node6 -->
<g id="edge5_Node000001_Node000006" class="edge">
<title>Node1&#45;&gt;Node6</title>
<g id="a_edge5_Node000001_Node000006"><a xlink:title=" ">
<path fill="none" stroke="#63b8ff" d="M287.52,-247.74C272.75,-246.15 257.63,-244.52 242.91,-242.93"/>
<polygon fill="#63b8ff" stroke="#63b8ff" points="287.37,-251.24 297.69,-248.83 288.12,-244.28 287.37,-251.24"/>
</a>
</g>
</g>
<!-- Node7 -->
<g id="Node000007" class="node">
<title>Node7</title>
<g id="a_Node000007"><a xlink:href="classEbceys_1_1Infrastructure_1_1UnitTests_1_1Exceptions_1_1ApiExceptionTests.html#a38139e19fd38bf15e39daf299442421f" target="_top" xlink:title=" ">
<polygon fill="white" stroke="#666666" points="257.5,-192 4.5,-192 4.5,-140 257.5,-140 257.5,-192"/>
<text text-anchor="start" x="12.5" y="-180" font-family="Helvetica,sans-Serif" font-size="10.00">Ebceys.Infrastructure.Unit</text>
<text text-anchor="start" x="12.5" y="-169" font-family="Helvetica,sans-Serif" font-size="10.00">Tests.Exceptions.ApiExceptionTests.</text>
<text text-anchor="start" x="12.5" y="-158" font-family="Helvetica,sans-Serif" font-size="10.00">When_ApiException_With_EmptyProblemDetails</text>
<text text-anchor="middle" x="131" y="-147" font-family="Helvetica,sans-Serif" font-size="10.00">_Result_CorrectFields</text>
</a>
</g>
</g>
<!-- Node1&#45;&gt;Node7 -->
<g id="edge6_Node000001_Node000007" class="edge">
<title>Node1&#45;&gt;Node7</title>
<g id="a_edge6_Node000001_Node000007"><a xlink:title=" ">
<path fill="none" stroke="#63b8ff" d="M359.12,-240.77C331.74,-228.75 295.16,-213.44 262,-202 252.04,-198.56 241.56,-195.22 231.06,-192.05"/>
<polygon fill="#63b8ff" stroke="#63b8ff" points="357.84,-244.03 368.41,-244.88 360.67,-237.63 357.84,-244.03"/>
</a>
</g>
</g>
<!-- Node8 -->
<g id="Node000008" class="node">
<title>Node8</title>
<g id="a_Node000008"><a xlink:href="classEbceys_1_1Infrastructure_1_1UnitTests_1_1Exceptions_1_1ApiExceptionTests.html#a493ae888907bf9083629d93b40000687" target="_top" xlink:title=" ">
<polygon fill="white" stroke="#666666" points="251.5,-122 10.5,-122 10.5,-70 251.5,-70 251.5,-122"/>
<text text-anchor="start" x="18.5" y="-110" font-family="Helvetica,sans-Serif" font-size="10.00">Ebceys.Infrastructure.Unit</text>
<text text-anchor="start" x="18.5" y="-99" font-family="Helvetica,sans-Serif" font-size="10.00">Tests.Exceptions.ApiExceptionTests.</text>
<text text-anchor="start" x="18.5" y="-88" font-family="Helvetica,sans-Serif" font-size="10.00">When_ApiException_With_NullProblemDetails</text>
<text text-anchor="middle" x="131" y="-77" font-family="Helvetica,sans-Serif" font-size="10.00">_Result_CorrectFields</text>
</a>
</g>
</g>
<!-- Node1&#45;&gt;Node8 -->
<g id="edge7_Node000001_Node000008" class="edge">
<title>Node1&#45;&gt;Node8</title>
<g id="a_edge7_Node000001_Node000008"><a xlink:title=" ">
<path fill="none" stroke="#63b8ff" d="M382.74,-236.78C358.06,-207.76 311.93,-158.58 262,-131 256.07,-127.72 249.81,-124.74 243.38,-122.02"/>
<polygon fill="#63b8ff" stroke="#63b8ff" points="380.3,-239.32 389.4,-244.74 385.67,-234.83 380.3,-239.32"/>
</a>
</g>
</g>
<!-- Node9 -->
<g id="Node000009" class="node">
<title>Node9</title>
<g id="a_Node000009"><a xlink:href="classEbceys_1_1Infrastructure_1_1UnitTests_1_1Exceptions_1_1ApiExceptionTests.html#a43a45a8a209946f2b91acd302b1ee17c" target="_top" xlink:title=" ">
<polygon fill="white" stroke="#666666" points="262,-52 0,-52 0,0 262,0 262,-52"/>
<text text-anchor="start" x="8" y="-40" font-family="Helvetica,sans-Serif" font-size="10.00">Ebceys.Infrastructure.Unit</text>
<text text-anchor="start" x="8" y="-29" font-family="Helvetica,sans-Serif" font-size="10.00">Tests.Exceptions.ApiExceptionTests.</text>
<text text-anchor="start" x="8" y="-18" font-family="Helvetica,sans-Serif" font-size="10.00">When_ApiException_With_RandomProblemDetails</text>
<text text-anchor="middle" x="131" y="-7" font-family="Helvetica,sans-Serif" font-size="10.00">_Result_CorrectFields</text>
</a>
</g>
</g>
<!-- Node1&#45;&gt;Node9 -->
<g id="edge8_Node000001_Node000009" class="edge">
<title>Node1&#45;&gt;Node9</title>
<g id="a_edge8_Node000001_Node000009"><a xlink:title=" ">
<path fill="none" stroke="#63b8ff" d="M391.21,-235.55C372.15,-193.29 327.26,-106.73 262,-61 257.31,-57.71 252.33,-54.74 247.15,-52.04"/>
<polygon fill="#63b8ff" stroke="#63b8ff" points="388.06,-237.08 395.3,-244.82 394.47,-234.25 388.06,-237.08"/>
</a>
</g>
</g>
</g>
</svg>
