<?xml version="1.0" encoding="UTF-8" standalone="no"?>
<!DOCTYPE svg PUBLIC "-//W3C//DTD SVG 1.1//EN"
 "http://www.w3.org/Graphics/SVG/1.1/DTD/svg11.dtd">
<!-- Generated by graphviz version 2.43.0 (0)
 -->
<!-- Title: Ebceys.Infrastructure.AuthorizationTestApplication.Controllers.AuthController Pages: 1 -->
<svg width="223pt" height="194pt"
 viewBox="0.00 0.00 223.00 194.00" xmlns="http://www.w3.org/2000/svg" xmlns:xlink="http://www.w3.org/1999/xlink">

<svg id="main" version="1.1" xmlns="http://www.w3.org/2000/svg" xmlns:xlink="http://www.w3.org/1999/xlink" xml:space="preserve">

<style type="text/css"><![CDATA[
.node, .edge {opacity: 0.7;}
.node.selected, .edge.selected {opacity: 1;}
.edge:hover path { stroke: red; }
.edge:hover polygon { stroke: red; fill: red; }
]]></style>
<script type="application/ecmascript" xlink:href="svg.min.js"/>
<svg id="graph" class="graph">
<g id="graph0" class="graph" transform="scale(1 1) rotate(0) translate(4 190)">
<title>Ebceys.Infrastructure.AuthorizationTestApplication.Controllers.AuthController</title>
<!-- Node1 -->
<g id="Node000001" class="node">
<title>Node1</title>
<g id="a_Node000001"><a xlink:title=" ">
<polygon fill="#999999" stroke="transparent" points="215,-90 0,-90 0,0 215,0 215,-90"/>
<text text-anchor="start" x="5.5" y="-78" font-family="Helvetica,sans-Serif" font-size="10.00">Ebceys.Infrastructure.Authorization</text>
<text text-anchor="start" x="5.5" y="-67" font-family="Helvetica,sans-Serif" font-size="10.00">TestApplication.Controllers.AuthController</text>
<text text-anchor="start" x="106" y="-52" font-family="Helvetica,sans-Serif" font-size="10.00"> </text>
<text text-anchor="start" x="34" y="-37" font-family="Helvetica,sans-Serif" font-size="10.00">+</text>
<text text-anchor="start" x="76.5" y="-37" font-family="Helvetica,sans-Serif" font-size="10.00">GetToken()</text>
<text text-anchor="start" x="34" y="-22" font-family="Helvetica,sans-Serif" font-size="10.00">+</text>
<text text-anchor="start" x="76.5" y="-22" font-family="Helvetica,sans-Serif" font-size="10.00">ValidateToken()</text>
<text text-anchor="start" x="34" y="-7" font-family="Helvetica,sans-Serif" font-size="10.00">+</text>
<text text-anchor="start" x="76.5" y="-7" font-family="Helvetica,sans-Serif" font-size="10.00">ValidateAuth()</text>
<polygon fill="#666666" stroke="#666666" points="0.5,-62 0.5,-62 215.5,-62 215.5,-62 0.5,-62"/>
<polygon fill="#666666" stroke="#666666" points="0.5,-47 0.5,-47 215.5,-47 215.5,-47 0.5,-47"/>
<polygon fill="none" stroke="#666666" points="0,0 0,-90 215,-90 215,0 0,0"/>
</a>
</g>
</g>
<!-- Node2 -->
<g id="Node000002" class="node">
<title>Node2</title>
<g id="a_Node000002"><a xlink:href="classControllerBase.html" target="_top" xlink:title=" ">
<polygon fill="white" stroke="transparent" points="102,-186 19,-186 19,-137 102,-137 102,-186"/>
<text text-anchor="start" x="24.5" y="-173.5" font-family="Helvetica,sans-Serif" font-size="10.00">ControllerBase</text>
<text text-anchor="start" x="59" y="-158.5" font-family="Helvetica,sans-Serif" font-size="10.00"> </text>
<text text-anchor="start" x="59" y="-143.5" font-family="Helvetica,sans-Serif" font-size="10.00"> </text>
<polygon fill="#666666" stroke="#666666" points="19.5,-168.5 19.5,-168.5 102.5,-168.5 102.5,-168.5 19.5,-168.5"/>
<polygon fill="#666666" stroke="#666666" points="19.5,-153.5 19.5,-153.5 102.5,-153.5 102.5,-153.5 19.5,-153.5"/>
<polygon fill="none" stroke="#666666" points="19,-137 19,-186 102,-186 102,-137 19,-137"/>
</a>
</g>
</g>
<!-- Node2&#45;&gt;Node1 -->
<g id="edge1_Node000001_Node000002" class="edge">
<title>Node2&#45;&gt;Node1</title>
<g id="a_edge1_Node000001_Node000002"><a xlink:title=" ">
<path fill="none" stroke="#63b8ff" d="M74.08,-127.42C78.86,-115.77 84.32,-102.47 89.42,-90.06"/>
<polygon fill="none" stroke="#63b8ff" points="70.8,-126.2 70.24,-136.78 77.27,-128.85 70.8,-126.2"/>
</a>
</g>
</g>
<!-- Node3 -->
<g id="Node000003" class="node">
<title>Node3</title>
<g id="a_Node000003"><a xlink:title=" ">
<polygon fill="white" stroke="transparent" points="188.5,-186 120.5,-186 120.5,-137 188.5,-137 188.5,-186"/>
<text text-anchor="start" x="125.5" y="-173.5" font-family="Helvetica,sans-Serif" font-size="10.00">const string</text>
<text text-anchor="start" x="152.5" y="-158.5" font-family="Helvetica,sans-Serif" font-size="10.00"> </text>
<text text-anchor="start" x="152.5" y="-143.5" font-family="Helvetica,sans-Serif" font-size="10.00"> </text>
<polygon fill="#666666" stroke="#666666" points="120.5,-168.5 120.5,-168.5 188.5,-168.5 188.5,-168.5 120.5,-168.5"/>
<polygon fill="#666666" stroke="#666666" points="120.5,-153.5 120.5,-153.5 188.5,-153.5 188.5,-153.5 120.5,-153.5"/>
<polygon fill="none" stroke="#666666" points="120.5,-137 120.5,-186 188.5,-186 188.5,-137 120.5,-137"/>
</a>
</g>
</g>
<!-- Node3&#45;&gt;Node1 -->
<g id="edge2_Node000001_Node000003" class="edge">
<title>Node3&#45;&gt;Node1</title>
<g id="a_edge2_Node000001_Node000003"><a xlink:title=" ">
<path fill="none" stroke="#63b8ff" d="M144.76,-136.78C140.52,-126.44 135.36,-113.86 130.24,-101.4"/>
<polygon fill="none" stroke="#63b8ff" points="130.14,-101.16 124.16,-97.13 125.58,-90.06 131.56,-94.09 130.14,-101.16"/>
</a>
</g>
<text text-anchor="middle" x="169" y="-111" font-family="Helvetica,sans-Serif" font-size="10.00" fill="grey"> &#45;AuthHeader</text>
</g>
</g>
</svg>
</svg>

<style type='text/css'>
<![CDATA[
[data-mouse-over-selected='false'] { opacity: 0.7; }
[data-mouse-over-selected='true']  { opacity: 1.0; }
]]>
</style>
<script type="application/ecmascript"><![CDATA[
document.addEventListener('DOMContentLoaded', (event) => {
  highlightEdges();
  highlightAdjacentNodes();
});
]]></script>
</svg>
