<?xml version="1.0" encoding="UTF-8" standalone="no"?>
<!DOCTYPE svg PUBLIC "-//W3C//DTD SVG 1.1//EN"
 "http://www.w3.org/Graphics/SVG/1.1/DTD/svg11.dtd">
<!-- Generated by graphviz version 2.43.0 (0)
 -->
<!-- Title: Ebceys.Infrastructure.UnitTests.Exceptions.ApiExceptionTests Pages: 1 -->
<svg width="203pt" height="519pt"
 viewBox="0.00 0.00 203.00 519.00" xmlns="http://www.w3.org/2000/svg" xmlns:xlink="http://www.w3.org/1999/xlink">
<g id="graph0" class="graph" transform="scale(1 1) rotate(0) translate(4 515)">
<title>Ebceys.Infrastructure.UnitTests.Exceptions.ApiExceptionTests</title>
<!-- Node1 -->
<g id="Node000001" class="node">
<title>Node1</title>
<g id="a_Node000001"><a xlink:title=" ">
<polygon fill="#999999" stroke="transparent" points="195,-415 0,-415 0,0 195,0 195,-415"/>
<text text-anchor="start" x="11.5" y="-402.5" font-family="Helvetica,sans-Serif" font-size="10.00">Ebceys.Infrastructure.Unit</text>
<text text-anchor="start" x="11.5" y="-391.5" font-family="Helvetica,sans-Serif" font-size="10.00">Tests.Exceptions.ApiExceptionTests</text>
<text text-anchor="start" x="96" y="-376.5" font-family="Helvetica,sans-Serif" font-size="10.00"> </text>
<text text-anchor="start" x="4.5" y="-361.5" font-family="Helvetica,sans-Serif" font-size="10.00">+</text>
<text text-anchor="start" x="17.5" y="-361.5" font-family="Helvetica,sans-Serif" font-size="10.00">When_NotFound_With</text>
<text text-anchor="start" x="17.5" y="-350.5" font-family="Helvetica,sans-Serif" font-size="10.00">_RandomMessage_Result</text>
<text text-anchor="start" x="17.5" y="-339.5" font-family="Helvetica,sans-Serif" font-size="10.00">_CorrectFields()</text>
<text text-anchor="start" x="4.5" y="-324.5" font-family="Helvetica,sans-Serif" font-size="10.00">+</text>
<text text-anchor="start" x="17.5" y="-324.5" font-family="Helvetica,sans-Serif" font-size="10.00">When_NotFound_With</text>
<text text-anchor="start" x="17.5" y="-313.5" font-family="Helvetica,sans-Serif" font-size="10.00">_RandomException_Result</text>
<text text-anchor="start" x="17.5" y="-302.5" font-family="Helvetica,sans-Serif" font-size="10.00">_CorrectFields()</text>
<text text-anchor="start" x="4.5" y="-287.5" font-family="Helvetica,sans-Serif" font-size="10.00">+</text>
<text text-anchor="start" x="17.5" y="-287.5" font-family="Helvetica,sans-Serif" font-size="10.00">When_Conflict_With</text>
<text text-anchor="start" x="17.5" y="-276.5" font-family="Helvetica,sans-Serif" font-size="10.00">_RandomMessage_Result</text>
<text text-anchor="start" x="17.5" y="-265.5" font-family="Helvetica,sans-Serif" font-size="10.00">_CorrectFields()</text>
<text text-anchor="start" x="4.5" y="-250.5" font-family="Helvetica,sans-Serif" font-size="10.00">+</text>
<text text-anchor="start" x="17.5" y="-250.5" font-family="Helvetica,sans-Serif" font-size="10.00">When_Conflict_With</text>
<text text-anchor="start" x="17.5" y="-239.5" font-family="Helvetica,sans-Serif" font-size="10.00">_RandomException_Result</text>
<text text-anchor="start" x="17.5" y="-228.5" font-family="Helvetica,sans-Serif" font-size="10.00">_CorrectFields()</text>
<text text-anchor="start" x="4.5" y="-213.5" font-family="Helvetica,sans-Serif" font-size="10.00">+</text>
<text text-anchor="start" x="17.5" y="-213.5" font-family="Helvetica,sans-Serif" font-size="10.00">When_Validation_With</text>
<text text-anchor="start" x="17.5" y="-202.5" font-family="Helvetica,sans-Serif" font-size="10.00">_RandomMessage_Result</text>
<text text-anchor="start" x="17.5" y="-191.5" font-family="Helvetica,sans-Serif" font-size="10.00">_CorrectFields()</text>
<text text-anchor="start" x="4.5" y="-176.5" font-family="Helvetica,sans-Serif" font-size="10.00">+</text>
<text text-anchor="start" x="17.5" y="-176.5" font-family="Helvetica,sans-Serif" font-size="10.00">When_Exception_With</text>
<text text-anchor="start" x="17.5" y="-165.5" font-family="Helvetica,sans-Serif" font-size="10.00">_RandomException_Result</text>
<text text-anchor="start" x="17.5" y="-154.5" font-family="Helvetica,sans-Serif" font-size="10.00">_CorrectFields()</text>
<text text-anchor="start" x="4.5" y="-139.5" font-family="Helvetica,sans-Serif" font-size="10.00">+</text>
<text text-anchor="start" x="17.5" y="-139.5" font-family="Helvetica,sans-Serif" font-size="10.00">When_Exception_With</text>
<text text-anchor="start" x="17.5" y="-128.5" font-family="Helvetica,sans-Serif" font-size="10.00">_RandomExceptionAndNoReturning</text>
<text text-anchor="start" x="17.5" y="-117.5" font-family="Helvetica,sans-Serif" font-size="10.00">Type_Result_CorrectFields()</text>
<text text-anchor="start" x="4.5" y="-102.5" font-family="Helvetica,sans-Serif" font-size="10.00">+</text>
<text text-anchor="start" x="17.5" y="-102.5" font-family="Helvetica,sans-Serif" font-size="10.00">When_ApiException_With</text>
<text text-anchor="start" x="17.5" y="-91.5" font-family="Helvetica,sans-Serif" font-size="10.00">_EmptyProblemDetails_Result</text>
<text text-anchor="start" x="17.5" y="-80.5" font-family="Helvetica,sans-Serif" font-size="10.00">_CorrectFields()</text>
<text text-anchor="start" x="4.5" y="-65.5" font-family="Helvetica,sans-Serif" font-size="10.00">+</text>
<text text-anchor="start" x="17.5" y="-65.5" font-family="Helvetica,sans-Serif" font-size="10.00">When_ApiException_With</text>
<text text-anchor="start" x="17.5" y="-54.5" font-family="Helvetica,sans-Serif" font-size="10.00">_NullProblemDetails_Result</text>
<text text-anchor="start" x="17.5" y="-43.5" font-family="Helvetica,sans-Serif" font-size="10.00">_CorrectFields()</text>
<text text-anchor="start" x="4.5" y="-28.5" font-family="Helvetica,sans-Serif" font-size="10.00">+</text>
<text text-anchor="start" x="17.5" y="-28.5" font-family="Helvetica,sans-Serif" font-size="10.00">When_ApiException_With</text>
<text text-anchor="start" x="17.5" y="-17.5" font-family="Helvetica,sans-Serif" font-size="10.00">_RandomProblemDetails</text>
<text text-anchor="start" x="17.5" y="-6.5" font-family="Helvetica,sans-Serif" font-size="10.00">_Result_CorrectFields()</text>
<polygon fill="#666666" stroke="#666666" points="0.5,-386.5 0.5,-386.5 195.5,-386.5 195.5,-386.5 0.5,-386.5"/>
<polygon fill="#666666" stroke="#666666" points="0.5,-371.5 0.5,-371.5 195.5,-371.5 195.5,-371.5 0.5,-371.5"/>
<polygon fill="none" stroke="#666666" points="0,0 0,-415 195,-415 195,0 0,0"/>
</a>
</g>
</g>
<!-- Node2 -->
<g id="Node000002" class="node">
<title>Node2</title>
<g id="a_Node000002"><a xlink:title=" ">
<polygon fill="white" stroke="transparent" points="176,-511 19,-511 19,-462 176,-462 176,-511"/>
<text text-anchor="start" x="24.5" y="-498.5" font-family="Helvetica,sans-Serif" font-size="10.00">static readonly EbRandomizer</text>
<text text-anchor="start" x="96" y="-483.5" font-family="Helvetica,sans-Serif" font-size="10.00"> </text>
<text text-anchor="start" x="96" y="-468.5" font-family="Helvetica,sans-Serif" font-size="10.00"> </text>
<polygon fill="#666666" stroke="#666666" points="19.5,-493.5 19.5,-493.5 176.5,-493.5 176.5,-493.5 19.5,-493.5"/>
<polygon fill="#666666" stroke="#666666" points="19.5,-478.5 19.5,-478.5 176.5,-478.5 176.5,-478.5 19.5,-478.5"/>
<polygon fill="none" stroke="#666666" points="19,-462 19,-511 176,-511 176,-462 19,-462"/>
</a>
</g>
</g>
<!-- Node2&#45;&gt;Node1 -->
<g id="edge1_Node000001_Node000002" class="edge">
<title>Node2&#45;&gt;Node1</title>
<g id="a_edge1_Node000001_Node000002"><a xlink:title=" ">
<path fill="none" stroke="#63b8ff" d="M97.5,-461.88C97.5,-452.42 97.5,-440.58 97.5,-427.21"/>
<polygon fill="none" stroke="#63b8ff" points="97.5,-427.1 93.5,-421.1 97.5,-415.1 101.5,-421.1 97.5,-427.1"/>
</a>
</g>
<text text-anchor="middle" x="130.5" y="-436" font-family="Helvetica,sans-Serif" font-size="10.00" fill="grey"> &#45;Randomizer</text>
</g>
</g>
</svg>
