<?xml version="1.0" encoding="UTF-8" standalone="no"?>
<!DOCTYPE svg PUBLIC "-//W3C//DTD SVG 1.1//EN"
 "http://www.w3.org/Graphics/SVG/1.1/DTD/svg11.dtd">
<!-- Generated by graphviz version 2.43.0 (0)
 -->
<!-- Title: Ebceys.Tests.Infrastructure.IntegrationTests.WebApplication.TestClientInitializeOptions Pages: 1 -->
<svg width="178pt" height="124pt"
 viewBox="0.00 0.00 178.00 124.00" xmlns="http://www.w3.org/2000/svg" xmlns:xlink="http://www.w3.org/1999/xlink">
<g id="graph0" class="graph" transform="scale(1 1) rotate(0) translate(4 120)">
<title>Ebceys.Tests.Infrastructure.IntegrationTests.WebApplication.TestClientInitializeOptions</title>
<!-- Node1 -->
<g id="Node000001" class="node">
<title>Node1</title>
<g id="a_Node000001"><a xlink:title="The TestClientInitializeOptions class.">
<polygon fill="#999999" stroke="transparent" points="170,-116 0,-116 0,0 170,0 170,-116"/>
<text text-anchor="start" x="5" y="-104" font-family="Helvetica,sans-Serif" font-size="10.00">Ebceys.Tests.Infrastructure.</text>
<text text-anchor="start" x="5" y="-93" font-family="Helvetica,sans-Serif" font-size="10.00">IntegrationTests.WebApplication.</text>
<text text-anchor="start" x="21" y="-82" font-family="Helvetica,sans-Serif" font-size="10.00">TestClientInitializeOptions</text>
<text text-anchor="start" x="7" y="-67" font-family="Helvetica,sans-Serif" font-size="10.00">+</text>
<text text-anchor="start" x="23" y="-67" font-family="Helvetica,sans-Serif" font-size="10.00">SolutionRelativePath</text>
<text text-anchor="start" x="7" y="-52" font-family="Helvetica,sans-Serif" font-size="10.00">+</text>
<text text-anchor="start" x="23" y="-52" font-family="Helvetica,sans-Serif" font-size="10.00">BuilderConfiguration</text>
<text text-anchor="start" x="7" y="-37" font-family="Helvetica,sans-Serif" font-size="10.00">+</text>
<text text-anchor="start" x="23" y="-37" font-family="Helvetica,sans-Serif" font-size="10.00">BaseAddress</text>
<text text-anchor="start" x="7" y="-22" font-family="Helvetica,sans-Serif" font-size="10.00">+</text>
<text text-anchor="start" x="23" y="-22" font-family="Helvetica,sans-Serif" font-size="10.00">UseProductionAppSettings</text>
<text text-anchor="start" x="7" y="-7" font-family="Helvetica,sans-Serif" font-size="10.00">+</text>
<text text-anchor="start" x="23" y="-7" font-family="Helvetica,sans-Serif" font-size="10.00">TestClientInitializeOptions()</text>
<polygon fill="#666666" stroke="#666666" points="0,-77 0,-77 170,-77 170,-77 0,-77"/>
<polygon fill="#666666" stroke="#666666" points="0,-17 0,-17 21,-17 21,-17 0,-17"/>
<polygon fill="#666666" stroke="#666666" points="21,-17 21,-17 170,-17 170,-17 21,-17"/>
<polygon fill="none" stroke="#666666" points="0,0 0,-116 170,-116 170,0 0,0"/>
</a>
</g>
</g>
</g>
</svg>
