<?xml version="1.0" encoding="UTF-8" standalone="no"?>
<!DOCTYPE svg PUBLIC "-//W3C//DTD SVG 1.1//EN"
 "http://www.w3.org/Graphics/SVG/1.1/DTD/svg11.dtd">
<!-- Generated by graphviz version 2.43.0 (0)
 -->
<!-- Title: Ebceys.Infrastructure.HttpClient.ClientBase.GetStreamAsync&lt; TError &gt; Pages: 1 -->
<svg width="685pt" height="194pt"
 viewBox="0.00 0.00 685.00 193.50" xmlns="http://www.w3.org/2000/svg" xmlns:xlink="http://www.w3.org/1999/xlink">
<g id="graph0" class="graph" transform="scale(1 1) rotate(0) translate(4 189.5)">
<title>Ebceys.Infrastructure.HttpClient.ClientBase.GetStreamAsync&lt; TError &gt;</title>
<!-- Node1 -->
<g id="Node000001" class="node">
<title>Node1</title>
<g id="a_Node000001"><a xlink:title="Sends GET request with awaiting Stream response.">
<polygon fill="#999999" stroke="#666666" points="185,-83.5 0,-83.5 0,-42.5 185,-42.5 185,-83.5"/>
<text text-anchor="start" x="8" y="-71.5" font-family="Helvetica,sans-Serif" font-size="10.00">Ebceys.Infrastructure.Http</text>
<text text-anchor="start" x="8" y="-60.5" font-family="Helvetica,sans-Serif" font-size="10.00">Client.ClientBase.GetStreamAsync</text>
<text text-anchor="middle" x="92.5" y="-49.5" font-family="Helvetica,sans-Serif" font-size="10.00">&lt; TError &gt;</text>
</a>
</g>
</g>
<!-- Node2 -->
<g id="Node000002" class="node">
<title>Node2</title>
<g id="a_Node000002"><a xlink:href="classEbceys_1_1Infrastructure_1_1HttpClient_1_1ClientBase.html#a1696185a0f91cbdecdbda5181719877b" target="_top" xlink:title="Executes the flurl request with Policy.">
<polygon fill="white" stroke="#666666" points="444,-114 221,-114 221,-84 444,-84 444,-114"/>
<text text-anchor="start" x="229" y="-102" font-family="Helvetica,sans-Serif" font-size="10.00">Ebceys.Infrastructure.Http</text>
<text text-anchor="middle" x="332.5" y="-91" font-family="Helvetica,sans-Serif" font-size="10.00">Client.ClientBase.ExecuteWithPolicyAsync</text>
</a>
</g>
</g>
<!-- Node1&#45;&gt;Node2 -->
<g id="edge1_Node000001_Node000002" class="edge">
<title>Node1&#45;&gt;Node2</title>
<g id="a_edge1_Node000001_Node000002"><a xlink:title=" ">
<path fill="none" stroke="#63b8ff" d="M185.18,-76.87C197.15,-78.68 209.51,-80.55 221.73,-82.4"/>
<polygon fill="#63b8ff" stroke="#63b8ff" points="221.55,-85.91 231.96,-83.94 222.6,-78.99 221.55,-85.91"/>
</a>
</g>
</g>
<!-- Node6 -->
<g id="Node000006" class="node">
<title>Node6</title>
<g id="a_Node000006"><a xlink:href="classEbceys_1_1Infrastructure_1_1HttpClient_1_1ClientBase.html#a1215a1d2418cd433a86229b07718ee6e" target="_top" xlink:title=" ">
<polygon fill="white" stroke="#666666" points="423,-54 242,-54 242,-24 423,-24 423,-54"/>
<text text-anchor="start" x="250" y="-42" font-family="Helvetica,sans-Serif" font-size="10.00">Ebceys.Infrastructure.Http</text>
<text text-anchor="middle" x="332.5" y="-31" font-family="Helvetica,sans-Serif" font-size="10.00">Client.ClientBase.PrepareRequest</text>
</a>
</g>
</g>
<!-- Node1&#45;&gt;Node6 -->
<g id="edge5_Node000001_Node000006" class="edge">
<title>Node1&#45;&gt;Node6</title>
<g id="a_edge5_Node000001_Node000006"><a xlink:title=" ">
<path fill="none" stroke="#63b8ff" d="M185.18,-53.76C200.43,-52.22 216.32,-50.62 231.76,-49.06"/>
<polygon fill="#63b8ff" stroke="#63b8ff" points="232.23,-52.53 241.83,-48.04 231.53,-45.56 232.23,-52.53"/>
</a>
</g>
</g>
<!-- Node3 -->
<g id="Node000003" class="node">
<title>Node3</title>
<g id="a_Node000003"><a xlink:href="classEbceys_1_1Infrastructure_1_1HttpClient_1_1ClientBase.html#ae6d5d118c5f95d84981e1b675278b16f" target="_top" xlink:title="Executes the request delegate without policy.">
<polygon fill="white" stroke="#666666" points="668.5,-185.5 488.5,-185.5 488.5,-144.5 668.5,-144.5 668.5,-185.5"/>
<text text-anchor="start" x="496.5" y="-173.5" font-family="Helvetica,sans-Serif" font-size="10.00">Ebceys.Infrastructure.Http</text>
<text text-anchor="start" x="496.5" y="-162.5" font-family="Helvetica,sans-Serif" font-size="10.00">Client.ClientBase.ExecuteWithout</text>
<text text-anchor="middle" x="578.5" y="-151.5" font-family="Helvetica,sans-Serif" font-size="10.00">PolicyAsync</text>
</a>
</g>
</g>
<!-- Node2&#45;&gt;Node3 -->
<g id="edge2_Node000002_Node000003" class="edge">
<title>Node2&#45;&gt;Node3</title>
<g id="a_edge2_Node000002_Node000003"><a xlink:title=" ">
<path fill="none" stroke="#63b8ff" d="M389.17,-114.06C419.38,-122.23 457.39,-132.51 491.34,-141.69"/>
<polygon fill="#63b8ff" stroke="#63b8ff" points="490.69,-145.15 501.26,-144.38 492.52,-138.39 490.69,-145.15"/>
</a>
</g>
</g>
<!-- Node4 -->
<g id="Node000004" class="node">
<title>Node4</title>
<g id="a_Node000004"><a xlink:href="classEbceys_1_1Infrastructure_1_1HttpClient_1_1ClientBase.html#adbe434b6f97c2a5c74123c5aea4ac9e9" target="_top" xlink:title=" ">
<polygon fill="white" stroke="#666666" points="659,-126 498,-126 498,-96 659,-96 659,-126"/>
<text text-anchor="start" x="506" y="-114" font-family="Helvetica,sans-Serif" font-size="10.00">Ebceys.Infrastructure.Http</text>
<text text-anchor="middle" x="578.5" y="-103" font-family="Helvetica,sans-Serif" font-size="10.00">Client.ClientBase.LogRequest</text>
</a>
</g>
</g>
<!-- Node2&#45;&gt;Node4 -->
<g id="edge3_Node000002_Node000004" class="edge">
<title>Node2&#45;&gt;Node4</title>
<g id="a_edge3_Node000002_Node000004"><a xlink:title=" ">
<path fill="none" stroke="#63b8ff" d="M444.08,-104.44C458.69,-105.16 473.52,-105.89 487.72,-106.58"/>
<polygon fill="#63b8ff" stroke="#63b8ff" points="487.78,-110.09 497.94,-107.09 488.13,-103.1 487.78,-110.09"/>
</a>
</g>
</g>
<!-- Node5 -->
<g id="Node000005" class="node">
<title>Node5</title>
<g id="a_Node000005"><a xlink:href="classEbceys_1_1Infrastructure_1_1HttpClient_1_1ClientBase.html#a306e46acd18714d98371240e19234a68" target="_top" xlink:title=" ">
<polygon fill="white" stroke="#666666" points="662.5,-78 494.5,-78 494.5,-48 662.5,-48 662.5,-78"/>
<text text-anchor="start" x="502.5" y="-66" font-family="Helvetica,sans-Serif" font-size="10.00">Ebceys.Infrastructure.Http</text>
<text text-anchor="middle" x="578.5" y="-55" font-family="Helvetica,sans-Serif" font-size="10.00">Client.ClientBase.LogResponse</text>
</a>
</g>
</g>
<!-- Node2&#45;&gt;Node5 -->
<g id="edge4_Node000002_Node000005" class="edge">
<title>Node2&#45;&gt;Node5</title>
<g id="a_edge4_Node000002_Node000005"><a xlink:title=" ">
<path fill="none" stroke="#63b8ff" d="M435.21,-83.99C451.56,-81.58 468.41,-79.09 484.55,-76.71"/>
<polygon fill="#63b8ff" stroke="#63b8ff" points="485.11,-80.17 494.49,-75.25 484.08,-73.24 485.11,-80.17"/>
</a>
</g>
</g>
<!-- Node7 -->
<g id="Node000007" class="node">
<title>Node7</title>
<g id="a_Node000007"><a xlink:href="classEbceys_1_1Infrastructure_1_1HttpClient_1_1ClientBase.html#a9c91605887d6727560a6cc2f94938c16" target="_top" xlink:title=" ">
<polygon fill="white" stroke="#666666" points="677,-30 480,-30 480,0 677,0 677,-30"/>
<text text-anchor="start" x="488" y="-18" font-family="Helvetica,sans-Serif" font-size="10.00">Ebceys.Infrastructure.Http</text>
<text text-anchor="middle" x="578.5" y="-7" font-family="Helvetica,sans-Serif" font-size="10.00">Client.ClientBase.GetDefaultHeaders</text>
</a>
</g>
</g>
<!-- Node6&#45;&gt;Node7 -->
<g id="edge6_Node000006_Node000007" class="edge">
<title>Node6&#45;&gt;Node7</title>
<g id="a_edge6_Node000006_Node000007"><a xlink:title=" ">
<path fill="none" stroke="#63b8ff" d="M423.32,-30.17C438.37,-28.69 454.12,-27.14 469.56,-25.62"/>
<polygon fill="#63b8ff" stroke="#63b8ff" points="470.05,-29.09 479.66,-24.62 469.37,-22.12 470.05,-29.09"/>
</a>
</g>
</g>
</g>
</svg>
