<?xml version="1.0" encoding="UTF-8" standalone="no"?>
<!DOCTYPE svg PUBLIC "-//W3C//DTD SVG 1.1//EN"
 "http://www.w3.org/Graphics/SVG/1.1/DTD/svg11.dtd">
<!-- Generated by graphviz version 2.43.0 (0)
 -->
<!-- Title: Ebceys.Infrastructure.Options.SimpleRabbitMqConfigurationExtensions Pages: 1 -->
<svg width="217pt" height="272pt"
 viewBox="0.00 0.00 217.00 272.00" xmlns="http://www.w3.org/2000/svg" xmlns:xlink="http://www.w3.org/1999/xlink">
<g id="graph0" class="graph" transform="scale(1 1) rotate(0) translate(4 268)">
<title>Ebceys.Infrastructure.Options.SimpleRabbitMqConfigurationExtensions</title>
<!-- Node1 -->
<g id="Node000001" class="node">
<title>Node1</title>
<g id="a_Node000001"><a xlink:title="The SimpleRabbitMqConfiguration extensions.">
<polygon fill="#999999" stroke="transparent" points="209,-60 0,-60 0,0 209,0 209,-60"/>
<text text-anchor="start" x="5.5" y="-48" font-family="Helvetica,sans-Serif" font-size="10.00">Ebceys.Infrastructure.Options.</text>
<text text-anchor="start" x="5.5" y="-37" font-family="Helvetica,sans-Serif" font-size="10.00">SimpleRabbitMqConfigurationExtensions</text>
<text text-anchor="start" x="103" y="-22" font-family="Helvetica,sans-Serif" font-size="10.00"> </text>
<text text-anchor="start" x="38.5" y="-7" font-family="Helvetica,sans-Serif" font-size="10.00">&#45;</text>
<text text-anchor="start" x="80.5" y="-7" font-family="Helvetica,sans-Serif" font-size="10.00">extension()</text>
<polygon fill="#666666" stroke="#666666" points="0.5,-32 0.5,-32 209.5,-32 209.5,-32 0.5,-32"/>
<polygon fill="#666666" stroke="#666666" points="0.5,-17 0.5,-17 209.5,-17 209.5,-17 0.5,-17"/>
<polygon fill="none" stroke="#666666" points="0,0 0,-60 209,-60 209,0 0,0"/>
</a>
</g>
</g>
<!-- Node2 -->
<g id="Node000002" class="node">
<title>Node2</title>
<g id="a_Node000002"><a xlink:title=" ">
<polygon fill="white" stroke="transparent" points="204.5,-178 4.5,-178 4.5,-107 204.5,-107 204.5,-178"/>
<text text-anchor="start" x="9.5" y="-165.5" font-family="Helvetica,sans-Serif" font-size="10.00">Ebceys.Infrastructure.Options.</text>
<text text-anchor="start" x="9.5" y="-154.5" font-family="Helvetica,sans-Serif" font-size="10.00">SimpleRabbitMqConfigurationValidator</text>
<text text-anchor="start" x="102.5" y="-139.5" font-family="Helvetica,sans-Serif" font-size="10.00"> </text>
<text text-anchor="start" x="16.5" y="-124.5" font-family="Helvetica,sans-Serif" font-size="10.00">+</text>
<text text-anchor="start" x="37.5" y="-124.5" font-family="Helvetica,sans-Serif" font-size="10.00">SimpleRabbitMqConfiguration</text>
<text text-anchor="start" x="37.5" y="-113.5" font-family="Helvetica,sans-Serif" font-size="10.00">Validator()</text>
<polygon fill="#666666" stroke="#666666" points="4.5,-149.5 4.5,-149.5 204.5,-149.5 204.5,-149.5 4.5,-149.5"/>
<polygon fill="#666666" stroke="#666666" points="4.5,-134.5 4.5,-134.5 204.5,-134.5 204.5,-134.5 4.5,-134.5"/>
<polygon fill="none" stroke="#666666" points="4.5,-107 4.5,-178 204.5,-178 204.5,-107 4.5,-107"/>
</a>
</g>
</g>
<!-- Node2&#45;&gt;Node1 -->
<g id="edge1_Node000001_Node000002" class="edge">
<title>Node2&#45;&gt;Node1</title>
<g id="a_edge1_Node000001_Node000002"><a xlink:title=" ">
<path fill="none" stroke="#63b8ff" d="M104.5,-106.84C104.5,-95.99 104.5,-83.9 104.5,-72.62"/>
<polygon fill="none" stroke="#63b8ff" points="104.5,-72.33 100.5,-66.33 104.5,-60.33 108.5,-66.33 104.5,-72.33"/>
</a>
</g>
<text text-anchor="middle" x="129.5" y="-81" font-family="Helvetica,sans-Serif" font-size="10.00" fill="grey"> &#45;Validator</text>
</g>
<!-- Node3 -->
<g id="Node000003" class="node">
<title>Node3</title>
<g id="a_Node000003"><a xlink:href="classAbstractValidator-1-g.html" target="_top" xlink:title=" ">
<polygon fill="white" stroke="transparent" points="152,-264 57,-264 57,-215 152,-215 152,-264"/>
<text text-anchor="start" x="62.5" y="-251.5" font-family="Helvetica,sans-Serif" font-size="10.00">AbstractValidator</text>
<text text-anchor="start" x="103" y="-236.5" font-family="Helvetica,sans-Serif" font-size="10.00"> </text>
<text text-anchor="start" x="103" y="-221.5" font-family="Helvetica,sans-Serif" font-size="10.00"> </text>
<polygon fill="#666666" stroke="#666666" points="57.5,-246.5 57.5,-246.5 152.5,-246.5 152.5,-246.5 57.5,-246.5"/>
<polygon fill="#666666" stroke="#666666" points="57.5,-231.5 57.5,-231.5 152.5,-231.5 152.5,-231.5 57.5,-231.5"/>
<polygon fill="none" stroke="#666666" points="57,-215 57,-264 152,-264 152,-215 57,-215"/>
</a>
</g>
</g>
<!-- Node3&#45;&gt;Node2 -->
<g id="edge2_Node000002_Node000003" class="edge">
<title>Node3&#45;&gt;Node2</title>
<g id="a_edge2_Node000002_Node000003"><a xlink:title=" ">
<path fill="none" stroke="#63b8ff" d="M104.5,-204.51C104.5,-195.98 104.5,-186.81 104.5,-178.23"/>
<polygon fill="none" stroke="#63b8ff" points="101,-204.53 104.5,-214.53 108,-204.53 101,-204.53"/>
</a>
</g>
</g>
</g>
</svg>
