<?xml version="1.0" encoding="UTF-8" standalone="no"?>
<!DOCTYPE svg PUBLIC "-//W3C//DTD SVG 1.1//EN"
 "http://www.w3.org/Graphics/SVG/1.1/DTD/svg11.dtd">
<!-- Generated by graphviz version 2.43.0 (0)
 -->
<!-- Title: Ebceys.Infrastructure.HttpClient.ClientBase Pages: 1 -->
<!--zoomable 534 -->

<svg id="main" version="1.1" xmlns="http://www.w3.org/2000/svg" xmlns:xlink="http://www.w3.org/1999/xlink" xml:space="preserve" onload="init(evt)">

<style type="text/css"><![CDATA[
.node, .edge {opacity: 0.7;}
.node.selected, .edge.selected {opacity: 1;}
.edge:hover path { stroke: red; }
.edge:hover polygon { stroke: red; fill: red; }
]]></style>

<defs>
  <circle id="rim" cx="0" cy="0" r="7"/>
  <circle id="rim2" cx="0" cy="0" r="3.5"/>
  <g id="zoomPlus">
    <use xlink:href="#rim" fill="#404040"><set attributeName="fill" to="#808080" begin="zoomplus.mouseover" end="zoomplus.mouseout"/></use>
    <path d="M-4,0h8M0,-4v8" fill="none" stroke="white" stroke-width="1.5" pointer-events="none"/>
  </g>
  <g id="zoomMin">
    <use xlink:href="#rim" fill="#404040"><set attributeName="fill" to="#808080" begin="zoomminus.mouseover" end="zoomminus.mouseout"/></use>
    <path d="M-4,0h8" fill="none" stroke="white" stroke-width="1.5" pointer-events="none"/>
  </g>
  <g id="arrowUp" transform="translate(30 24)">
    <use xlink:href="#rim"/>
    <path pointer-events="none" fill="none" stroke="white" stroke-width="1.5" d="M0,-3.0v7 M-2.5,-0.5L0,-3.0L2.5,-0.5"/>
  </g>
  <g id="arrowRight" transform="rotate(90) translate(36 -43)">
    <use xlink:href="#rim"/>
    <path pointer-events="none" fill="none" stroke="white" stroke-width="1.5" d="M0,-3.0v7 M-2.5,-0.5L0,-3.0L2.5,-0.5"/>
  </g>
  <g id="arrowDown" transform="rotate(180) translate(-30 -48)">
    <use xlink:href="#rim"/>
    <path pointer-events="none" fill="none" stroke="white" stroke-width="1.5" d="M0,-3.0v7 M-2.5,-0.5L0,-3.0L2.5,-0.5"/>
  </g>
  <g id="arrowLeft" transform="rotate(270) translate(-36 17)">
    <use xlink:href="#rim"/>
    <path pointer-events="none" fill="none" stroke="white" stroke-width="1.5" d="M0,-3.0v7 M-2.5,-0.5L0,-3.0L2.5,-0.5"/>
  </g>
  <g id="resetDef">
    <use xlink:href="#rim2" fill="#404040"><set attributeName="fill" to="#808080" begin="reset.mouseover" end="reset.mouseout"/></use>
  </g>
</defs>
<script type="application/ecmascript">
var viewWidth = 464;
var viewHeight = 534;
var sectionId = 'dynsection-0';
</script>
<script type="application/ecmascript" xlink:href="svg.min.js"/>
<svg id="graph" class="graph">
<g id="viewport">
<title>Ebceys.Infrastructure.HttpClient.ClientBase</title>
<!-- Node1 -->
<g id="Node000001" class="node">
<title>Node1</title>
<g id="a_Node000001"><a xlink:title="The ClientBase class.">
<polygon fill="#999999" stroke="transparent" points="308.5,-419 133.5,-419 133.5,0 308.5,0 308.5,-419"/>
<text text-anchor="start" x="157.5" y="-406.5" font-family="Helvetica,sans-Serif" font-size="10.00">Ebceys.Infrastructure.Http</text>
<text text-anchor="start" x="179" y="-395.5" font-family="Helvetica,sans-Serif" font-size="10.00">Client.ClientBase</text>
<text text-anchor="start" x="138" y="-380.5" font-family="Helvetica,sans-Serif" font-size="10.00">+</text>
<text text-anchor="start" x="151" y="-380.5" font-family="Helvetica,sans-Serif" font-size="10.00">ClientName</text>
<text text-anchor="start" x="138" y="-365.5" font-family="Helvetica,sans-Serif" font-size="10.00">+</text>
<text text-anchor="start" x="151" y="-365.5" font-family="Helvetica,sans-Serif" font-size="10.00">Timeout</text>
<text text-anchor="start" x="138" y="-350.5" font-family="Helvetica,sans-Serif" font-size="10.00">+</text>
<text text-anchor="start" x="151" y="-350.5" font-family="Helvetica,sans-Serif" font-size="10.00">DelayBetweenRetries</text>
<text text-anchor="start" x="138" y="-335.5" font-family="Helvetica,sans-Serif" font-size="10.00">+</text>
<text text-anchor="start" x="151" y="-335.5" font-family="Helvetica,sans-Serif" font-size="10.00">Policy</text>
<text text-anchor="start" x="138" y="-320.5" font-family="Helvetica,sans-Serif" font-size="10.00">+</text>
<text text-anchor="start" x="151" y="-320.5" font-family="Helvetica,sans-Serif" font-size="10.00">DefaultSerializer</text>
<text text-anchor="start" x="138" y="-305.5" font-family="Helvetica,sans-Serif" font-size="10.00">+</text>
<text text-anchor="start" x="151" y="-305.5" font-family="Helvetica,sans-Serif" font-size="10.00">GetClientName()</text>
<text text-anchor="start" x="138" y="-290.5" font-family="Helvetica,sans-Serif" font-size="10.00">#</text>
<text text-anchor="start" x="151" y="-290.5" font-family="Helvetica,sans-Serif" font-size="10.00">ClientBase()</text>
<text text-anchor="start" x="138" y="-275.5" font-family="Helvetica,sans-Serif" font-size="10.00">#</text>
<text text-anchor="start" x="151" y="-275.5" font-family="Helvetica,sans-Serif" font-size="10.00">GetJsonAsync&lt; TResponse,</text>
<text text-anchor="start" x="151" y="-264.5" font-family="Helvetica,sans-Serif" font-size="10.00"> TError &gt;()</text>
<text text-anchor="start" x="138" y="-249.5" font-family="Helvetica,sans-Serif" font-size="10.00">#</text>
<text text-anchor="start" x="151" y="-249.5" font-family="Helvetica,sans-Serif" font-size="10.00">GetAsync&lt; TError &gt;()</text>
<text text-anchor="start" x="138" y="-234.5" font-family="Helvetica,sans-Serif" font-size="10.00">#</text>
<text text-anchor="start" x="151" y="-234.5" font-family="Helvetica,sans-Serif" font-size="10.00">GetStreamAsync&lt; TError &gt;()</text>
<text text-anchor="start" x="138" y="-219.5" font-family="Helvetica,sans-Serif" font-size="10.00">#</text>
<text text-anchor="start" x="151" y="-219.5" font-family="Helvetica,sans-Serif" font-size="10.00">GetRawAsync&lt; TError &gt;()</text>
<text text-anchor="start" x="138" y="-204.5" font-family="Helvetica,sans-Serif" font-size="10.00">#</text>
<text text-anchor="start" x="151" y="-204.5" font-family="Helvetica,sans-Serif" font-size="10.00">DeleteJsonAsync&lt; TResponse,</text>
<text text-anchor="start" x="151" y="-193.5" font-family="Helvetica,sans-Serif" font-size="10.00"> TError &gt;()</text>
<text text-anchor="start" x="138" y="-178.5" font-family="Helvetica,sans-Serif" font-size="10.00">#</text>
<text text-anchor="start" x="151" y="-178.5" font-family="Helvetica,sans-Serif" font-size="10.00">DeleteAsync&lt; TError &gt;()</text>
<text text-anchor="start" x="138" y="-163.5" font-family="Helvetica,sans-Serif" font-size="10.00">#</text>
<text text-anchor="start" x="151" y="-163.5" font-family="Helvetica,sans-Serif" font-size="10.00">PostAsync&lt; TError &gt;()</text>
<text text-anchor="start" x="138" y="-148.5" font-family="Helvetica,sans-Serif" font-size="10.00">#</text>
<text text-anchor="start" x="151" y="-148.5" font-family="Helvetica,sans-Serif" font-size="10.00">PostJsonAsync&lt; TRequest,</text>
<text text-anchor="start" x="151" y="-137.5" font-family="Helvetica,sans-Serif" font-size="10.00"> TError &gt;()</text>
<text text-anchor="start" x="138" y="-122.5" font-family="Helvetica,sans-Serif" font-size="10.00">#</text>
<text text-anchor="start" x="151" y="-122.5" font-family="Helvetica,sans-Serif" font-size="10.00">PostStreamAsync&lt; TResponse,</text>
<text text-anchor="start" x="151" y="-111.5" font-family="Helvetica,sans-Serif" font-size="10.00"> TError &gt;()</text>
<text text-anchor="start" x="151" y="-96.5" font-family="Helvetica,sans-Serif" font-size="10.00">and 8 more...</text>
<text text-anchor="start" x="138" y="-81.5" font-family="Helvetica,sans-Serif" font-size="10.00">#</text>
<text text-anchor="start" x="151" y="-81.5" font-family="Helvetica,sans-Serif" font-size="10.00">GetAuthHeaders()</text>
<text text-anchor="start" x="140.5" y="-66.5" font-family="Helvetica,sans-Serif" font-size="10.00">&#45;</text>
<text text-anchor="start" x="151" y="-66.5" font-family="Helvetica,sans-Serif" font-size="10.00">ConfigureClient()</text>
<text text-anchor="start" x="140.5" y="-51.5" font-family="Helvetica,sans-Serif" font-size="10.00">&#45;</text>
<text text-anchor="start" x="151" y="-51.5" font-family="Helvetica,sans-Serif" font-size="10.00">PrepareRequest()</text>
<text text-anchor="start" x="140.5" y="-36.5" font-family="Helvetica,sans-Serif" font-size="10.00">&#45;</text>
<text text-anchor="start" x="151" y="-36.5" font-family="Helvetica,sans-Serif" font-size="10.00">GetDefaultHeaders()</text>
<text text-anchor="start" x="140.5" y="-21.5" font-family="Helvetica,sans-Serif" font-size="10.00">&#45;</text>
<text text-anchor="start" x="151" y="-21.5" font-family="Helvetica,sans-Serif" font-size="10.00">LogRequest()</text>
<text text-anchor="start" x="140.5" y="-6.5" font-family="Helvetica,sans-Serif" font-size="10.00">&#45;</text>
<text text-anchor="start" x="151" y="-6.5" font-family="Helvetica,sans-Serif" font-size="10.00">LogResponse()</text>
<polygon fill="#666666" stroke="#666666" points="134,-390.5 134,-390.5 309,-390.5 309,-390.5 134,-390.5"/>
<polygon fill="#666666" stroke="#666666" points="134,-315.5 134,-315.5 149,-315.5 149,-315.5 134,-315.5"/>
<polygon fill="#666666" stroke="#666666" points="149,-315.5 149,-315.5 309,-315.5 309,-315.5 149,-315.5"/>
<polygon fill="none" stroke="#666666" points="133.5,0 133.5,-419 308.5,-419 308.5,0 133.5,0"/>
</a>
</g>
</g>
<!-- Node2 -->
<g id="Node000002" class="node">
<title>Node2</title>
<g id="a_Node000002"><a xlink:title=" ">
<polygon fill="white" stroke="transparent" points="68,-520.5 0,-520.5 0,-471.5 68,-471.5 68,-520.5"/>
<text text-anchor="start" x="5" y="-508" font-family="Helvetica,sans-Serif" font-size="10.00">const string</text>
<text text-anchor="start" x="32" y="-493" font-family="Helvetica,sans-Serif" font-size="10.00"> </text>
<text text-anchor="start" x="32" y="-478" font-family="Helvetica,sans-Serif" font-size="10.00"> </text>
<polygon fill="#666666" stroke="#666666" points="0,-503 0,-503 68,-503 68,-503 0,-503"/>
<polygon fill="#666666" stroke="#666666" points="0,-488 0,-488 68,-488 68,-488 0,-488"/>
<polygon fill="none" stroke="#666666" points="0,-471.5 0,-520.5 68,-520.5 68,-471.5 0,-471.5"/>
</a>
</g>
</g>
<!-- Node2&#45;&gt;Node1 -->
<g id="edge1_Node000001_Node000002" class="edge">
<title>Node2&#45;&gt;Node1</title>
<g id="a_edge1_Node000001_Node000002"><a xlink:title=" ">
<path fill="none" stroke="#63b8ff" d="M38.38,-471.4C40.92,-460.57 44.69,-447.77 50,-437 70.21,-396 98.23,-354.97 125.74,-319.31"/>
<polygon fill="none" stroke="#63b8ff" points="126.1,-318.86 126.64,-311.67 133.49,-309.4 132.94,-316.59 126.1,-318.86"/>
</a>
</g>
<text text-anchor="middle" x="106" y="-440" font-family="Helvetica,sans-Serif" font-size="10.00" fill="grey"> +AuthorizationHeader</text>
</g>
<!-- Node3 -->
<g id="Node000003" class="node">
<title>Node3</title>
<g id="a_Node000003"><a xlink:title=" ">
<polygon fill="white" stroke="transparent" points="210,-520.5 100,-520.5 100,-471.5 210,-471.5 210,-520.5"/>
<text text-anchor="start" x="105" y="-508" font-family="Helvetica,sans-Serif" font-size="10.00">readonly IFlurlClient</text>
<text text-anchor="start" x="153" y="-493" font-family="Helvetica,sans-Serif" font-size="10.00"> </text>
<text text-anchor="start" x="153" y="-478" font-family="Helvetica,sans-Serif" font-size="10.00"> </text>
<polygon fill="#666666" stroke="#666666" points="100,-503 100,-503 210,-503 210,-503 100,-503"/>
<polygon fill="#666666" stroke="#666666" points="100,-488 100,-488 210,-488 210,-488 100,-488"/>
<polygon fill="none" stroke="#666666" points="100,-471.5 100,-520.5 210,-520.5 210,-471.5 100,-471.5"/>
</a>
</g>
</g>
<!-- Node3&#45;&gt;Node1 -->
<g id="edge2_Node000001_Node000003" class="edge">
<title>Node3&#45;&gt;Node1</title>
<g id="a_edge2_Node000001_Node000003"><a xlink:title=" ">
<path fill="none" stroke="#63b8ff" d="M160.51,-471.23C163.02,-460.43 166.24,-446.54 169.89,-430.8"/>
<polygon fill="none" stroke="#63b8ff" points="169.91,-430.72 167.37,-423.97 172.62,-419.03 175.16,-425.78 169.91,-430.72"/>
</a>
</g>
<text text-anchor="middle" x="187" y="-440" font-family="Helvetica,sans-Serif" font-size="10.00" fill="grey"> &#45;_client</text>
</g>
<!-- Node4 -->
<g id="Node000004" class="node">
<title>Node4</title>
<g id="a_Node000004"><a xlink:title=" ">
<polygon fill="white" stroke="transparent" points="320,-520.5 228,-520.5 228,-471.5 320,-471.5 320,-520.5"/>
<text text-anchor="start" x="233" y="-508" font-family="Helvetica,sans-Serif" font-size="10.00">readonly ILogger</text>
<text text-anchor="start" x="272" y="-493" font-family="Helvetica,sans-Serif" font-size="10.00"> </text>
<text text-anchor="start" x="272" y="-478" font-family="Helvetica,sans-Serif" font-size="10.00"> </text>
<polygon fill="#666666" stroke="#666666" points="228,-503 228,-503 320,-503 320,-503 228,-503"/>
<polygon fill="#666666" stroke="#666666" points="228,-488 228,-488 320,-488 320,-488 228,-488"/>
<polygon fill="none" stroke="#666666" points="228,-471.5 228,-520.5 320,-520.5 320,-471.5 228,-471.5"/>
</a>
</g>
</g>
<!-- Node4&#45;&gt;Node1 -->
<g id="edge3_Node000001_Node000004" class="edge">
<title>Node4&#45;&gt;Node1</title>
<g id="a_edge3_Node000001_Node000004"><a xlink:title=" ">
<path fill="none" stroke="#63b8ff" d="M269.57,-471.23C267.58,-460.54 265.02,-446.81 262.13,-431.26"/>
<polygon fill="none" stroke="#63b8ff" points="262.05,-430.83 257.01,-425.66 259.85,-419.03 264.88,-424.2 262.05,-430.83"/>
</a>
</g>
<text text-anchor="middle" x="286.5" y="-440" font-family="Helvetica,sans-Serif" font-size="10.00" fill="grey"> &#45;_logger</text>
</g>
<!-- Node5 -->
<g id="Node000005" class="node">
<title>Node5</title>
<g id="a_Node000005"><a xlink:title=" ">
<polygon fill="white" stroke="transparent" points="455.5,-526 338.5,-526 338.5,-466 455.5,-466 455.5,-526"/>
<text text-anchor="start" x="344" y="-514" font-family="Helvetica,sans-Serif" font-size="10.00">readonly? Func&lt; Task</text>
<text text-anchor="start" x="366.5" y="-503" font-family="Helvetica,sans-Serif" font-size="10.00">&lt; string &gt; &gt;</text>
<text text-anchor="start" x="395.5" y="-488" font-family="Helvetica,sans-Serif" font-size="10.00"> </text>
<text text-anchor="start" x="395.5" y="-473" font-family="Helvetica,sans-Serif" font-size="10.00"> </text>
<polygon fill="#666666" stroke="#666666" points="339,-498 339,-498 456,-498 456,-498 339,-498"/>
<polygon fill="#666666" stroke="#666666" points="339,-483 339,-483 456,-483 456,-483 339,-483"/>
<polygon fill="none" stroke="#666666" points="338.5,-466 338.5,-526 455.5,-526 455.5,-466 338.5,-466"/>
</a>
</g>
</g>
<!-- Node5&#45;&gt;Node1 -->
<g id="edge4_Node000001_Node000005" class="edge">
<title>Node5&#45;&gt;Node1</title>
<g id="a_edge4_Node000001_Node000005"><a xlink:title=" ">
<path fill="none" stroke="#63b8ff" d="M378.99,-465.89C363.4,-440.68 339.55,-402.13 315.07,-362.56"/>
<polygon fill="none" stroke="#63b8ff" points="314.98,-362.42 308.42,-359.42 308.67,-352.22 315.23,-355.21 314.98,-362.42"/>
</a>
</g>
<text text-anchor="middle" x="408" y="-440" font-family="Helvetica,sans-Serif" font-size="10.00" fill="grey"> &#45;_tokenResolver</text>
</g>
</g>
</svg>

<g id="navigator" transform="translate(0 0)" fill="#404254">
  <rect fill="#f2f5e9" fill-opacity="0.5" stroke="#606060" stroke-width=".5" x="0" y="0" width="60" height="60"/>
  <use id="zoomplus" xlink:href="#zoomPlus" x="17" y="9" onmousedown="handleZoom(evt,'in')"/>
  <use id="zoomminus" xlink:href="#zoomMin" x="42" y="9" onmousedown="handleZoom(evt,'out')"/>
  <use id="reset" xlink:href="#resetDef" x="30" y="36" onmousedown="handleReset()"/>
   <use id="arrowup" xlink:href="#arrowUp" x="0" y="0" onmousedown="handlePan(0,-1)"/>
  <use id="arrowright" xlink:href="#arrowRight" x="0" y="0" onmousedown="handlePan(1,0)"/>
  <use id="arrowdown" xlink:href="#arrowDown" x="0" y="0" onmousedown="handlePan(0,1)"/>
  <use id="arrowleft" xlink:href="#arrowLeft" x="0" y="0" onmousedown="handlePan(-1,0)"/>
</g>
<svg viewBox="0 0 15 15" width="100%" height="30px" preserveAspectRatio="xMaxYMin meet">
 <g id="arrow_out" transform="scale(0.3 0.3)">
  <a xlink:href="classEbceys_1_1Infrastructure_1_1HttpClient_1_1ClientBase__coll__graph_org.svg" target="_base">
   <rect id="button" ry="5" rx="5" y="6" x="6" height="38" width="38"
        fill="#f2f5e9" fill-opacity="0.5" stroke="#606060" stroke-width="1.0"/>
   <path id="arrow"
     d="M 11.500037,31.436501 C 11.940474,20.09759 22.043105,11.32322 32.158766,21.979434 L 37.068811,17.246167 C 37.068811,17.246167 37.088388,32 37.088388,32 L 22.160133,31.978069 C 22.160133,31.978069 26.997745,27.140456 26.997745,27.140456 C 18.528582,18.264221 13.291696,25.230495 11.500037,31.436501 z"
     style="fill:#404040;"/>
  </a>
 </g>
</svg>

<style type='text/css'>
<![CDATA[
[data-mouse-over-selected='false'] { opacity: 0.7; }
[data-mouse-over-selected='true']  { opacity: 1.0; }
]]>
</style>
<script type="application/ecmascript"><![CDATA[
document.addEventListener('DOMContentLoaded', (event) => {
  highlightEdges();
  highlightAdjacentNodes();
});
]]></script>
</svg>
