<?xml version="1.0" encoding="UTF-8" standalone="no"?>
<!DOCTYPE svg PUBLIC "-//W3C//DTD SVG 1.1//EN"
 "http://www.w3.org/Graphics/SVG/1.1/DTD/svg11.dtd">
<!-- Generated by graphviz version 2.43.0 (0)
 -->
<!-- Title: Ebceys.Infrastructure.HttpClient.ClientBase.PrepareRequest Pages: 1 -->
<!--zoomable 875 -->

<svg id="main" version="1.1" xmlns="http://www.w3.org/2000/svg" xmlns:xlink="http://www.w3.org/1999/xlink" xml:space="preserve" onload="init(evt)">

<style type="text/css"><![CDATA[
.node, .edge {opacity: 0.7;}
.node.selected, .edge.selected {opacity: 1;}
.edge:hover path { stroke: red; }
.edge:hover polygon { stroke: red; fill: red; }
]]></style>

<defs>
  <circle id="rim" cx="0" cy="0" r="7"/>
  <circle id="rim2" cx="0" cy="0" r="3.5"/>
  <g id="zoomPlus">
    <use xlink:href="#rim" fill="#404040"><set attributeName="fill" to="#808080" begin="zoomplus.mouseover" end="zoomplus.mouseout"/></use>
    <path d="M-4,0h8M0,-4v8" fill="none" stroke="white" stroke-width="1.5" pointer-events="none"/>
  </g>
  <g id="zoomMin">
    <use xlink:href="#rim" fill="#404040"><set attributeName="fill" to="#808080" begin="zoomminus.mouseover" end="zoomminus.mouseout"/></use>
    <path d="M-4,0h8" fill="none" stroke="white" stroke-width="1.5" pointer-events="none"/>
  </g>
  <g id="arrowUp" transform="translate(30 24)">
    <use xlink:href="#rim"/>
    <path pointer-events="none" fill="none" stroke="white" stroke-width="1.5" d="M0,-3.0v7 M-2.5,-0.5L0,-3.0L2.5,-0.5"/>
  </g>
  <g id="arrowRight" transform="rotate(90) translate(36 -43)">
    <use xlink:href="#rim"/>
    <path pointer-events="none" fill="none" stroke="white" stroke-width="1.5" d="M0,-3.0v7 M-2.5,-0.5L0,-3.0L2.5,-0.5"/>
  </g>
  <g id="arrowDown" transform="rotate(180) translate(-30 -48)">
    <use xlink:href="#rim"/>
    <path pointer-events="none" fill="none" stroke="white" stroke-width="1.5" d="M0,-3.0v7 M-2.5,-0.5L0,-3.0L2.5,-0.5"/>
  </g>
  <g id="arrowLeft" transform="rotate(270) translate(-36 17)">
    <use xlink:href="#rim"/>
    <path pointer-events="none" fill="none" stroke="white" stroke-width="1.5" d="M0,-3.0v7 M-2.5,-0.5L0,-3.0L2.5,-0.5"/>
  </g>
  <g id="resetDef">
    <use xlink:href="#rim2" fill="#404040"><set attributeName="fill" to="#808080" begin="reset.mouseover" end="reset.mouseout"/></use>
  </g>
</defs>
<script type="application/ecmascript">
var viewWidth = 414;
var viewHeight = 875;
var sectionId = 'dynsection-23';
</script>
<script type="application/ecmascript" xlink:href="svg.min.js"/>
<svg id="graph" class="graph">
<g id="viewport">
<title>Ebceys.Infrastructure.HttpClient.ClientBase.PrepareRequest</title>
<!-- Node1 -->
<g id="Node000001" class="node">
<title>Node1</title>
<g id="a_Node000001"><a xlink:title=" ">
<polygon fill="#999999" stroke="#666666" points="406,-448.5 225,-448.5 225,-418.5 406,-418.5 406,-448.5"/>
<text text-anchor="start" x="233" y="-436.5" font-family="Helvetica,sans-Serif" font-size="10.00">Ebceys.Infrastructure.Http</text>
<text text-anchor="middle" x="315.5" y="-425.5" font-family="Helvetica,sans-Serif" font-size="10.00">Client.ClientBase.PrepareRequest</text>
</a>
</g>
</g>
<!-- Node2 -->
<g id="Node000002" class="node">
<title>Node2</title>
<g id="a_Node000002"><a xlink:href="classEbceys_1_1Infrastructure_1_1HttpClient_1_1ClientBase.html#a3df617522e4af3ecef207afdef216eea" target="_top" xlink:title="Sends DELETE request.">
<polygon fill="white" stroke="#666666" points="177,-867 12,-867 12,-826 177,-826 177,-867"/>
<text text-anchor="start" x="20" y="-855" font-family="Helvetica,sans-Serif" font-size="10.00">Ebceys.Infrastructure.Http</text>
<text text-anchor="start" x="20" y="-844" font-family="Helvetica,sans-Serif" font-size="10.00">Client.ClientBase.DeleteAsync</text>
<text text-anchor="middle" x="94.5" y="-833" font-family="Helvetica,sans-Serif" font-size="10.00">&lt; TError &gt;</text>
</a>
</g>
</g>
<!-- Node1&#45;&gt;Node2 -->
<g id="edge1_Node000001_Node000002" class="edge">
<title>Node1&#45;&gt;Node2</title>
<g id="a_edge1_Node000001_Node000002"><a xlink:title=" ">
<path fill="none" stroke="#63b8ff" d="M313.83,-459.14C310.65,-527.47 292.42,-715.63 189,-817.5 185.49,-820.96 181.57,-824.01 177.39,-826.69"/>
<polygon fill="#63b8ff" stroke="#63b8ff" points="317.34,-459.01 314.24,-448.88 310.35,-458.74 317.34,-459.01"/>
</a>
</g>
</g>
<!-- Node3 -->
<g id="Node000003" class="node">
<title>Node3</title>
<g id="a_Node000003"><a xlink:href="classEbceys_1_1Infrastructure_1_1HttpClient_1_1ClientBase.html#a26ef17508251ba0fd49ca8be0b8425c1" target="_top" xlink:title="Sends DELETE request with awaiting serialized body response.">
<polygon fill="white" stroke="#666666" points="187,-808 2,-808 2,-767 187,-767 187,-808"/>
<text text-anchor="start" x="10" y="-796" font-family="Helvetica,sans-Serif" font-size="10.00">Ebceys.Infrastructure.Http</text>
<text text-anchor="start" x="10" y="-785" font-family="Helvetica,sans-Serif" font-size="10.00">Client.ClientBase.DeleteJsonAsync</text>
<text text-anchor="middle" x="94.5" y="-774" font-family="Helvetica,sans-Serif" font-size="10.00">&lt; TResponse, TError &gt;</text>
</a>
</g>
</g>
<!-- Node1&#45;&gt;Node3 -->
<g id="edge2_Node000001_Node000003" class="edge">
<title>Node1&#45;&gt;Node3</title>
<g id="a_edge2_Node000001_Node000003"><a xlink:title=" ">
<path fill="none" stroke="#63b8ff" d="M312.11,-458.86C305.03,-519.62 278.66,-674.72 189,-758.5 185.65,-761.63 181.96,-764.43 178.05,-766.92"/>
<polygon fill="#63b8ff" stroke="#63b8ff" points="315.62,-458.97 313.22,-448.65 308.66,-458.21 315.62,-458.97"/>
</a>
</g>
</g>
<!-- Node4 -->
<g id="Node000004" class="node">
<title>Node4</title>
<g id="a_Node000004"><a xlink:href="classEbceys_1_1Infrastructure_1_1HttpClient_1_1ClientBase.html#a7a7a02d4d110ad85f9a49edcaeefe31c" target="_top" xlink:title="Sends GET request.">
<polygon fill="white" stroke="#666666" points="169.5,-749 19.5,-749 19.5,-708 169.5,-708 169.5,-749"/>
<text text-anchor="start" x="27.5" y="-737" font-family="Helvetica,sans-Serif" font-size="10.00">Ebceys.Infrastructure.Http</text>
<text text-anchor="start" x="27.5" y="-726" font-family="Helvetica,sans-Serif" font-size="10.00">Client.ClientBase.GetAsync</text>
<text text-anchor="middle" x="94.5" y="-715" font-family="Helvetica,sans-Serif" font-size="10.00">&lt; TError &gt;</text>
</a>
</g>
</g>
<!-- Node1&#45;&gt;Node4 -->
<g id="edge3_Node000001_Node000004" class="edge">
<title>Node1&#45;&gt;Node4</title>
<g id="a_edge3_Node000001_Node000004"><a xlink:title=" ">
<path fill="none" stroke="#63b8ff" d="M309.74,-458.54C298.45,-511.07 265.09,-633.39 189,-699.5 183.23,-704.52 176.59,-708.66 169.58,-712.1"/>
<polygon fill="#63b8ff" stroke="#63b8ff" points="313.18,-459.22 311.77,-448.72 306.32,-457.8 313.18,-459.22"/>
</a>
</g>
</g>
<!-- Node5 -->
<g id="Node000005" class="node">
<title>Node5</title>
<g id="a_Node000005"><a xlink:href="classEbceys_1_1Infrastructure_1_1HttpClient_1_1ClientBase.html#a7aff94b2db61e56d4c6bab5e76c620ba" target="_top" xlink:title="Sends GET request with awaiting serialized body response.">
<polygon fill="white" stroke="#666666" points="179.5,-690 9.5,-690 9.5,-649 179.5,-649 179.5,-690"/>
<text text-anchor="start" x="17.5" y="-678" font-family="Helvetica,sans-Serif" font-size="10.00">Ebceys.Infrastructure.Http</text>
<text text-anchor="start" x="17.5" y="-667" font-family="Helvetica,sans-Serif" font-size="10.00">Client.ClientBase.GetJsonAsync</text>
<text text-anchor="middle" x="94.5" y="-656" font-family="Helvetica,sans-Serif" font-size="10.00">&lt; TResponse, TError &gt;</text>
</a>
</g>
</g>
<!-- Node1&#45;&gt;Node5 -->
<g id="edge4_Node000001_Node000005" class="edge">
<title>Node1&#45;&gt;Node5</title>
<g id="a_edge4_Node000001_Node000005"><a xlink:title=" ">
<path fill="none" stroke="#63b8ff" d="M306.27,-458.03C290.49,-501.33 251.85,-591.39 189,-640.5 184.98,-643.64 180.62,-646.44 176.06,-648.94"/>
<polygon fill="#63b8ff" stroke="#63b8ff" points="309.58,-459.15 309.63,-448.56 302.99,-456.81 309.58,-459.15"/>
</a>
</g>
</g>
<!-- Node6 -->
<g id="Node000006" class="node">
<title>Node6</title>
<g id="a_Node000006"><a xlink:href="classEbceys_1_1Infrastructure_1_1HttpClient_1_1ClientBase.html#ade0c9fdbd7a5602a7fc78556bd9539a7" target="_top" xlink:title="Sends GET request with awaiting byte array response.">
<polygon fill="white" stroke="#666666" points="180,-631 9,-631 9,-590 180,-590 180,-631"/>
<text text-anchor="start" x="17" y="-619" font-family="Helvetica,sans-Serif" font-size="10.00">Ebceys.Infrastructure.Http</text>
<text text-anchor="start" x="17" y="-608" font-family="Helvetica,sans-Serif" font-size="10.00">Client.ClientBase.GetRawAsync</text>
<text text-anchor="middle" x="94.5" y="-597" font-family="Helvetica,sans-Serif" font-size="10.00">&lt; TError &gt;</text>
</a>
</g>
</g>
<!-- Node1&#45;&gt;Node6 -->
<g id="edge5_Node000001_Node000006" class="edge">
<title>Node1&#45;&gt;Node6</title>
<g id="a_edge5_Node000001_Node000006"><a xlink:title=" ">
<path fill="none" stroke="#63b8ff" d="M300.4,-457.42C279.92,-490.14 238.88,-548.53 189,-581.5 184.32,-584.59 179.3,-587.37 174.09,-589.86"/>
<polygon fill="#63b8ff" stroke="#63b8ff" points="303.61,-458.89 305.85,-448.53 297.64,-455.23 303.61,-458.89"/>
</a>
</g>
</g>
<!-- Node7 -->
<g id="Node000007" class="node">
<title>Node7</title>
<g id="a_Node000007"><a xlink:href="classEbceys_1_1Infrastructure_1_1HttpClient_1_1ClientBase.html#aaa20322fa957e48c1068dc7961aa91e6" target="_top" xlink:title="Sends GET request with awaiting Stream response.">
<polygon fill="white" stroke="#666666" points="187,-572 2,-572 2,-531 187,-531 187,-572"/>
<text text-anchor="start" x="10" y="-560" font-family="Helvetica,sans-Serif" font-size="10.00">Ebceys.Infrastructure.Http</text>
<text text-anchor="start" x="10" y="-549" font-family="Helvetica,sans-Serif" font-size="10.00">Client.ClientBase.GetStreamAsync</text>
<text text-anchor="middle" x="94.5" y="-538" font-family="Helvetica,sans-Serif" font-size="10.00">&lt; TError &gt;</text>
</a>
</g>
</g>
<!-- Node1&#45;&gt;Node7 -->
<g id="edge6_Node000001_Node000007" class="edge">
<title>Node1&#45;&gt;Node7</title>
<g id="a_edge6_Node000001_Node000007"><a xlink:title=" ">
<path fill="none" stroke="#63b8ff" d="M288.95,-455.32C264.62,-475.16 226.28,-504.09 189,-522.5 182.9,-525.51 176.43,-528.29 169.85,-530.83"/>
<polygon fill="#63b8ff" stroke="#63b8ff" points="291.47,-457.78 296.95,-448.71 287.01,-452.38 291.47,-457.78"/>
</a>
</g>
</g>
<!-- Node8 -->
<g id="Node000008" class="node">
<title>Node8</title>
<g id="a_Node000008"><a xlink:href="classEbceys_1_1Infrastructure_1_1HttpClient_1_1ClientBase.html#af235956f006b50ba47b85d8a5f09c68d" target="_top" xlink:title="Sends POST request.">
<polygon fill="white" stroke="#666666" points="171.5,-513 17.5,-513 17.5,-472 171.5,-472 171.5,-513"/>
<text text-anchor="start" x="25.5" y="-501" font-family="Helvetica,sans-Serif" font-size="10.00">Ebceys.Infrastructure.Http</text>
<text text-anchor="start" x="25.5" y="-490" font-family="Helvetica,sans-Serif" font-size="10.00">Client.ClientBase.PostAsync</text>
<text text-anchor="middle" x="94.5" y="-479" font-family="Helvetica,sans-Serif" font-size="10.00">&lt; TError &gt;</text>
</a>
</g>
</g>
<!-- Node1&#45;&gt;Node8 -->
<g id="edge7_Node000001_Node000008" class="edge">
<title>Node1&#45;&gt;Node8</title>
<g id="a_edge7_Node000001_Node000008"><a xlink:title=" ">
<path fill="none" stroke="#63b8ff" d="M248.87,-451.18C224.64,-457.71 196.98,-465.16 171.88,-471.92"/>
<polygon fill="#63b8ff" stroke="#63b8ff" points="249.93,-454.52 258.67,-448.54 248.1,-447.76 249.93,-454.52"/>
</a>
</g>
</g>
<!-- Node9 -->
<g id="Node000009" class="node">
<title>Node9</title>
<g id="a_Node000009"><a xlink:href="classEbceys_1_1Infrastructure_1_1HttpClient_1_1ClientBase.html#aa537936f9c9d2ecabebdbf7f02495f89" target="_top" xlink:title="Sends POST request.">
<polygon fill="white" stroke="#666666" points="181.5,-454 7.5,-454 7.5,-413 181.5,-413 181.5,-454"/>
<text text-anchor="start" x="15.5" y="-442" font-family="Helvetica,sans-Serif" font-size="10.00">Ebceys.Infrastructure.Http</text>
<text text-anchor="start" x="15.5" y="-431" font-family="Helvetica,sans-Serif" font-size="10.00">Client.ClientBase.PostJsonAsync</text>
<text text-anchor="middle" x="94.5" y="-420" font-family="Helvetica,sans-Serif" font-size="10.00">&lt; TError &gt;</text>
</a>
</g>
</g>
<!-- Node1&#45;&gt;Node9 -->
<g id="edge8_Node000001_Node000009" class="edge">
<title>Node1&#45;&gt;Node9</title>
<g id="a_edge8_Node000001_Node000009"><a xlink:title=" ">
<path fill="none" stroke="#63b8ff" d="M214.68,-433.5C203.61,-433.5 192.41,-433.5 181.54,-433.5"/>
<polygon fill="#63b8ff" stroke="#63b8ff" points="214.79,-437 224.79,-433.5 214.79,-430 214.79,-437"/>
</a>
</g>
</g>
<!-- Node10 -->
<g id="Node000010" class="node">
<title>Node10</title>
<g id="a_Node000010"><a xlink:href="classEbceys_1_1Infrastructure_1_1HttpClient_1_1ClientBase.html#a6bfb86b34a36d2b2d2f33c082f32fd0b" target="_top" xlink:title="Sends POST request with specified serialized body.">
<polygon fill="white" stroke="#666666" points="181.5,-395 7.5,-395 7.5,-354 181.5,-354 181.5,-395"/>
<text text-anchor="start" x="15.5" y="-383" font-family="Helvetica,sans-Serif" font-size="10.00">Ebceys.Infrastructure.Http</text>
<text text-anchor="start" x="15.5" y="-372" font-family="Helvetica,sans-Serif" font-size="10.00">Client.ClientBase.PostJsonAsync</text>
<text text-anchor="middle" x="94.5" y="-361" font-family="Helvetica,sans-Serif" font-size="10.00">&lt; TRequest, TError &gt;</text>
</a>
</g>
</g>
<!-- Node1&#45;&gt;Node10 -->
<g id="edge9_Node000001_Node000010" class="edge">
<title>Node1&#45;&gt;Node10</title>
<g id="a_edge9_Node000001_Node000010"><a xlink:title=" ">
<path fill="none" stroke="#63b8ff" d="M248.87,-415.82C224.64,-409.29 196.98,-401.84 171.88,-395.08"/>
<polygon fill="#63b8ff" stroke="#63b8ff" points="248.1,-419.24 258.67,-418.46 249.93,-412.48 248.1,-419.24"/>
</a>
</g>
</g>
<!-- Node11 -->
<g id="Node000011" class="node">
<title>Node11</title>
<g id="a_Node000011"><a xlink:href="classEbceys_1_1Infrastructure_1_1HttpClient_1_1ClientBase.html#a1d934ccb04ed3e2b666666a16bfec65c" target="_top" xlink:title="Sends POST request with specified serialized body &#160;&#160;and with awaiting TResponse &#160;deserialized respons...">
<polygon fill="white" stroke="#666666" points="184,-336 5,-336 5,-295 184,-295 184,-336"/>
<text text-anchor="start" x="13" y="-324" font-family="Helvetica,sans-Serif" font-size="10.00">Ebceys.Infrastructure.Http</text>
<text text-anchor="start" x="13" y="-313" font-family="Helvetica,sans-Serif" font-size="10.00">Client.ClientBase.PostJsonAsync</text>
<text text-anchor="middle" x="94.5" y="-302" font-family="Helvetica,sans-Serif" font-size="10.00">&lt; TRequest, TResponse, TError &gt;</text>
</a>
</g>
</g>
<!-- Node1&#45;&gt;Node11 -->
<g id="edge10_Node000001_Node000011" class="edge">
<title>Node1&#45;&gt;Node11</title>
<g id="a_edge10_Node000001_Node000011"><a xlink:title=" ">
<path fill="none" stroke="#63b8ff" d="M288.44,-411.69C264.03,-392.15 225.88,-363.82 189,-345.5 182.13,-342.09 174.79,-338.95 167.35,-336.09"/>
<polygon fill="#63b8ff" stroke="#63b8ff" points="286.51,-414.63 296.48,-418.21 290.92,-409.19 286.51,-414.63"/>
</a>
</g>
</g>
<!-- Node12 -->
<g id="Node000012" class="node">
<title>Node12</title>
<g id="a_Node000012"><a xlink:href="classEbceys_1_1Infrastructure_1_1HttpClient_1_1ClientBase.html#abe61e559a86dbeba95ed4a24c7d8aebf" target="_top" xlink:title="Sends POST request &#160;and with awaiting TResponse &#160;deserialized response.">
<polygon fill="white" stroke="#666666" points="181.5,-277 7.5,-277 7.5,-236 181.5,-236 181.5,-277"/>
<text text-anchor="start" x="15.5" y="-265" font-family="Helvetica,sans-Serif" font-size="10.00">Ebceys.Infrastructure.Http</text>
<text text-anchor="start" x="15.5" y="-254" font-family="Helvetica,sans-Serif" font-size="10.00">Client.ClientBase.PostJsonAsync</text>
<text text-anchor="middle" x="94.5" y="-243" font-family="Helvetica,sans-Serif" font-size="10.00">&lt; TResponse, TError &gt;</text>
</a>
</g>
</g>
<!-- Node1&#45;&gt;Node12 -->
<g id="edge11_Node000001_Node000012" class="edge">
<title>Node1&#45;&gt;Node12</title>
<g id="a_edge11_Node000001_Node000012"><a xlink:title=" ">
<path fill="none" stroke="#63b8ff" d="M300,-409.31C279.31,-376.81 238.32,-319.33 189,-286.5 183.75,-283 178.06,-279.89 172.18,-277.13"/>
<polygon fill="#63b8ff" stroke="#63b8ff" points="297.25,-411.53 305.52,-418.16 303.19,-407.82 297.25,-411.53"/>
</a>
</g>
</g>
<!-- Node13 -->
<g id="Node000013" class="node">
<title>Node13</title>
<g id="a_Node000013"><a xlink:href="classEbceys_1_1Infrastructure_1_1HttpClient_1_1ClientBase.html#acc1f3b304179b1f651277700d6d0e98d" target="_top" xlink:title="Sends POST request with specified stream body.">
<polygon fill="white" stroke="#666666" points="189,-218 0,-218 0,-177 189,-177 189,-218"/>
<text text-anchor="start" x="8" y="-206" font-family="Helvetica,sans-Serif" font-size="10.00">Ebceys.Infrastructure.Http</text>
<text text-anchor="start" x="8" y="-195" font-family="Helvetica,sans-Serif" font-size="10.00">Client.ClientBase.PostStreamAsync</text>
<text text-anchor="middle" x="94.5" y="-184" font-family="Helvetica,sans-Serif" font-size="10.00">&lt; TError &gt;</text>
</a>
</g>
</g>
<!-- Node1&#45;&gt;Node13 -->
<g id="edge12_Node000001_Node000013" class="edge">
<title>Node1&#45;&gt;Node13</title>
<g id="a_edge12_Node000001_Node000013"><a xlink:title=" ">
<path fill="none" stroke="#63b8ff" d="M306.07,-408.84C290.09,-365.72 251.29,-276.55 189,-227.5 184.58,-224.02 179.75,-220.94 174.68,-218.21"/>
<polygon fill="#63b8ff" stroke="#63b8ff" points="302.79,-410.06 309.48,-418.28 309.37,-407.68 302.79,-410.06"/>
</a>
</g>
</g>
<!-- Node14 -->
<g id="Node000014" class="node">
<title>Node14</title>
<g id="a_Node000014"><a xlink:href="classEbceys_1_1Infrastructure_1_1HttpClient_1_1ClientBase.html#a57c753ac70e8b3a9b7f073b58215270e" target="_top" xlink:title="Sends POST request with specified stream body &#160;&#160;and with awaiting TResponse &#160;deserialized response.">
<polygon fill="white" stroke="#666666" points="189,-159 0,-159 0,-118 189,-118 189,-159"/>
<text text-anchor="start" x="8" y="-147" font-family="Helvetica,sans-Serif" font-size="10.00">Ebceys.Infrastructure.Http</text>
<text text-anchor="start" x="8" y="-136" font-family="Helvetica,sans-Serif" font-size="10.00">Client.ClientBase.PostStreamAsync</text>
<text text-anchor="middle" x="94.5" y="-125" font-family="Helvetica,sans-Serif" font-size="10.00">&lt; TResponse, TError &gt;</text>
</a>
</g>
</g>
<!-- Node1&#45;&gt;Node14 -->
<g id="edge13_Node000001_Node000014" class="edge">
<title>Node1&#45;&gt;Node14</title>
<g id="a_edge13_Node000001_Node000014"><a xlink:title=" ">
<path fill="none" stroke="#63b8ff" d="M309.59,-408.28C298.08,-355.87 264.42,-234.58 189,-168.5 185.03,-165.02 180.64,-161.94 176.01,-159.22"/>
<polygon fill="#63b8ff" stroke="#63b8ff" points="306.23,-409.31 311.72,-418.38 313.08,-407.87 306.23,-409.31"/>
</a>
</g>
</g>
<!-- Node15 -->
<g id="Node000015" class="node">
<title>Node15</title>
<g id="a_Node000015"><a xlink:href="classEbceys_1_1Infrastructure_1_1HttpClient_1_1ClientBase.html#af30abd96d05940f0d79b965e9e5a3015" target="_top" xlink:title="Sends PUT request with specified serialized body.">
<polygon fill="white" stroke="#666666" points="179,-100 10,-100 10,-59 179,-59 179,-100"/>
<text text-anchor="start" x="18" y="-88" font-family="Helvetica,sans-Serif" font-size="10.00">Ebceys.Infrastructure.Http</text>
<text text-anchor="start" x="18" y="-77" font-family="Helvetica,sans-Serif" font-size="10.00">Client.ClientBase.PutJsonAsync</text>
<text text-anchor="middle" x="94.5" y="-66" font-family="Helvetica,sans-Serif" font-size="10.00">&lt; TRequest, TError &gt;</text>
</a>
</g>
</g>
<!-- Node1&#45;&gt;Node15 -->
<g id="edge14_Node000001_Node000015" class="edge">
<title>Node1&#45;&gt;Node15</title>
<g id="a_edge14_Node000001_Node000015"><a xlink:title=" ">
<path fill="none" stroke="#63b8ff" d="M312.03,-408.28C304.78,-347.82 278.05,-193.44 189,-109.5 185.28,-105.99 181.15,-102.89 176.75,-100.16"/>
<polygon fill="#63b8ff" stroke="#63b8ff" points="308.58,-408.89 313.17,-418.43 315.54,-408.11 308.58,-408.89"/>
</a>
</g>
</g>
<!-- Node16 -->
<g id="Node000016" class="node">
<title>Node16</title>
<g id="a_Node000016"><a xlink:href="classEbceys_1_1Infrastructure_1_1HttpClient_1_1ClientBase.html#a1feab8fb1a7c17e521ce2864f9cad37b" target="_top" xlink:title="Sends PUT request with specified serialized body and with awaiting TResponse &#160;deserialized response.">
<polygon fill="white" stroke="#666666" points="184,-41 5,-41 5,0 184,0 184,-41"/>
<text text-anchor="start" x="13" y="-29" font-family="Helvetica,sans-Serif" font-size="10.00">Ebceys.Infrastructure.Http</text>
<text text-anchor="start" x="13" y="-18" font-family="Helvetica,sans-Serif" font-size="10.00">Client.ClientBase.PutJsonAsync</text>
<text text-anchor="middle" x="94.5" y="-7" font-family="Helvetica,sans-Serif" font-size="10.00">&lt; TRequest, TResponse, TError &gt;</text>
</a>
</g>
</g>
<!-- Node1&#45;&gt;Node16 -->
<g id="edge15_Node000001_Node000016" class="edge">
<title>Node1&#45;&gt;Node16</title>
<g id="a_edge15_Node000001_Node000016"><a xlink:title=" ">
<path fill="none" stroke="#63b8ff" d="M313.76,-407.98C310.38,-339.96 291.72,-152.59 189,-50.5 185.49,-47.01 181.58,-43.93 177.4,-41.21"/>
<polygon fill="#63b8ff" stroke="#63b8ff" points="310.27,-408.35 314.19,-418.19 317.26,-408.05 310.27,-408.35"/>
</a>
</g>
</g>
</g>
</svg>

<g id="navigator" transform="translate(0 0)" fill="#404254">
  <rect fill="#f2f5e9" fill-opacity="0.5" stroke="#606060" stroke-width=".5" x="0" y="0" width="60" height="60"/>
  <use id="zoomplus" xlink:href="#zoomPlus" x="17" y="9" onmousedown="handleZoom(evt,'in')"/>
  <use id="zoomminus" xlink:href="#zoomMin" x="42" y="9" onmousedown="handleZoom(evt,'out')"/>
  <use id="reset" xlink:href="#resetDef" x="30" y="36" onmousedown="handleReset()"/>
   <use id="arrowup" xlink:href="#arrowUp" x="0" y="0" onmousedown="handlePan(0,-1)"/>
  <use id="arrowright" xlink:href="#arrowRight" x="0" y="0" onmousedown="handlePan(1,0)"/>
  <use id="arrowdown" xlink:href="#arrowDown" x="0" y="0" onmousedown="handlePan(0,1)"/>
  <use id="arrowleft" xlink:href="#arrowLeft" x="0" y="0" onmousedown="handlePan(-1,0)"/>
</g>
<svg viewBox="0 0 15 15" width="100%" height="30px" preserveAspectRatio="xMaxYMin meet">
 <g id="arrow_out" transform="scale(0.3 0.3)">
  <a xlink:href="classEbceys_1_1Infrastructure_1_1HttpClient_1_1ClientBase_a1215a1d2418cd433a86229b07718ee6e_icgraph_org.svg" target="_base">
   <rect id="button" ry="5" rx="5" y="6" x="6" height="38" width="38"
        fill="#f2f5e9" fill-opacity="0.5" stroke="#606060" stroke-width="1.0"/>
   <path id="arrow"
     d="M 11.500037,31.436501 C 11.940474,20.09759 22.043105,11.32322 32.158766,21.979434 L 37.068811,17.246167 C 37.068811,17.246167 37.088388,32 37.088388,32 L 22.160133,31.978069 C 22.160133,31.978069 26.997745,27.140456 26.997745,27.140456 C 18.528582,18.264221 13.291696,25.230495 11.500037,31.436501 z"
     style="fill:#404040;"/>
  </a>
 </g>
</svg>

<style type='text/css'>
<![CDATA[
[data-mouse-over-selected='false'] { opacity: 0.7; }
[data-mouse-over-selected='true']  { opacity: 1.0; }
]]>
</style>
<script type="application/ecmascript"><![CDATA[
document.addEventListener('DOMContentLoaded', (event) => {
  highlightEdges();
  highlightAdjacentNodes();
});
]]></script>
</svg>
