<?xml version="1.0" encoding="UTF-8" standalone="no"?>
<!DOCTYPE svg PUBLIC "-//W3C//DTD SVG 1.1//EN"
 "http://www.w3.org/Graphics/SVG/1.1/DTD/svg11.dtd">
<!-- Generated by graphviz version 2.43.0 (0)
 -->
<!-- Title: Ebceys.Infrastructure.Middlewares.HttpLoggingOptions Pages: 1 -->
<svg width="190pt" height="128pt"
 viewBox="0.00 0.00 190.00 128.00" xmlns="http://www.w3.org/2000/svg" xmlns:xlink="http://www.w3.org/1999/xlink">
<g id="graph0" class="graph" transform="scale(1 1) rotate(0) translate(4 124)">
<title>Ebceys.Infrastructure.Middlewares.HttpLoggingOptions</title>
<!-- Node1 -->
<g id="Node000001" class="node">
<title>Node1</title>
<g id="a_Node000001"><a xlink:title="The HttpLoggingOptions class.">
<polygon fill="#999999" stroke="transparent" points="182,-120 0,-120 0,0 182,0 182,-120"/>
<text text-anchor="start" x="5" y="-108" font-family="Helvetica,sans-Serif" font-size="10.00">Ebceys.Infrastructure.Middlewares.</text>
<text text-anchor="start" x="42.5" y="-97" font-family="Helvetica,sans-Serif" font-size="10.00">HttpLoggingOptions</text>
<text text-anchor="start" x="9" y="-82" font-family="Helvetica,sans-Serif" font-size="10.00">+</text>
<text text-anchor="start" x="27" y="-82" font-family="Helvetica,sans-Serif" font-size="10.00">PathStartExcludeLogging</text>
<text text-anchor="start" x="9" y="-67" font-family="Helvetica,sans-Serif" font-size="10.00">+</text>
<text text-anchor="start" x="27" y="-67" font-family="Helvetica,sans-Serif" font-size="10.00">PathContainsExcludeLogging</text>
<text text-anchor="start" x="9" y="-52" font-family="Helvetica,sans-Serif" font-size="10.00">+</text>
<text text-anchor="start" x="27" y="-52" font-family="Helvetica,sans-Serif" font-size="10.00">PathEndExcludeLogging</text>
<text text-anchor="start" x="9" y="-37" font-family="Helvetica,sans-Serif" font-size="10.00">+</text>
<text text-anchor="start" x="27" y="-37" font-family="Helvetica,sans-Serif" font-size="10.00">LogLevelToLogBodies</text>
<text text-anchor="start" x="9" y="-22" font-family="Helvetica,sans-Serif" font-size="10.00">+</text>
<text text-anchor="start" x="27" y="-22" font-family="Helvetica,sans-Serif" font-size="10.00">LoggingContentTypes</text>
<text text-anchor="start" x="89" y="-7" font-family="Helvetica,sans-Serif" font-size="10.00"> </text>
<polygon fill="#666666" stroke="#666666" points="0,-92 0,-92 182,-92 182,-92 0,-92"/>
<polygon fill="#666666" stroke="#666666" points="0,-17 0,-17 25,-17 25,-17 0,-17"/>
<polygon fill="#666666" stroke="#666666" points="25,-17 25,-17 182,-17 182,-17 25,-17"/>
<polygon fill="none" stroke="#666666" points="0,0 0,-120 182,-120 182,0 0,0"/>
</a>
</g>
</g>
</g>
</svg>
