<?xml version="1.0" encoding="UTF-8" standalone="no"?>
<!DOCTYPE svg PUBLIC "-//W3C//DTD SVG 1.1//EN"
 "http://www.w3.org/Graphics/SVG/1.1/DTD/svg11.dtd">
<!-- Generated by graphviz version 2.43.0 (0)
 -->
<!-- Title: Ebceys.Infrastructure.Tests.Middlewares.RequestLoggingMiddlewareTests Pages: 1 -->
<svg width="370pt" height="286pt"
 viewBox="0.00 0.00 369.50 286.00" xmlns="http://www.w3.org/2000/svg" xmlns:xlink="http://www.w3.org/1999/xlink">
<g id="graph0" class="graph" transform="scale(1 1) rotate(0) translate(4 282)">
<title>Ebceys.Infrastructure.Tests.Middlewares.RequestLoggingMiddlewareTests</title>
<!-- Node1 -->
<g id="Node000001" class="node">
<title>Node1</title>
<g id="a_Node000001"><a xlink:title=" ">
<polygon fill="#999999" stroke="transparent" points="291.5,-160 55.5,-160 55.5,0 291.5,0 291.5,-160"/>
<text text-anchor="start" x="60.5" y="-148" font-family="Helvetica,sans-Serif" font-size="10.00">Ebceys.Infrastructure.Tests.</text>
<text text-anchor="start" x="60.5" y="-137" font-family="Helvetica,sans-Serif" font-size="10.00">Middlewares.RequestLoggingMiddlewareTests</text>
<text text-anchor="start" x="171.5" y="-122" font-family="Helvetica,sans-Serif" font-size="10.00"> </text>
<text text-anchor="start" x="78.5" y="-107" font-family="Helvetica,sans-Serif" font-size="10.00">+</text>
<text text-anchor="start" x="110.5" y="-107" font-family="Helvetica,sans-Serif" font-size="10.00">Setup()</text>
<text text-anchor="start" x="78.5" y="-92" font-family="Helvetica,sans-Serif" font-size="10.00">+</text>
<text text-anchor="start" x="110.5" y="-92" font-family="Helvetica,sans-Serif" font-size="10.00">When_Requests_With</text>
<text text-anchor="start" x="110.5" y="-81" font-family="Helvetica,sans-Serif" font-size="10.00">_NoLoggingInOpts_Result</text>
<text text-anchor="start" x="110.5" y="-70" font-family="Helvetica,sans-Serif" font-size="10.00">_CatcherDontLogBodies()</text>
<text text-anchor="start" x="78.5" y="-55" font-family="Helvetica,sans-Serif" font-size="10.00">+</text>
<text text-anchor="start" x="110.5" y="-55" font-family="Helvetica,sans-Serif" font-size="10.00">When_Request_With_NoAttr</text>
<text text-anchor="start" x="110.5" y="-44" font-family="Helvetica,sans-Serif" font-size="10.00">OrOpts_Result_AllLogged()</text>
<text text-anchor="start" x="78.5" y="-29" font-family="Helvetica,sans-Serif" font-size="10.00">+</text>
<text text-anchor="start" x="110.5" y="-29" font-family="Helvetica,sans-Serif" font-size="10.00">When_Requests_With</text>
<text text-anchor="start" x="110.5" y="-18" font-family="Helvetica,sans-Serif" font-size="10.00">_NoLoggingInAttr_Result</text>
<text text-anchor="start" x="110.5" y="-7" font-family="Helvetica,sans-Serif" font-size="10.00">_CatcherDontLogBodies()</text>
<polygon fill="#666666" stroke="#666666" points="55.5,-132 55.5,-132 291.5,-132 291.5,-132 55.5,-132"/>
<polygon fill="#666666" stroke="#666666" points="55.5,-117 55.5,-117 291.5,-117 291.5,-117 55.5,-117"/>
<polygon fill="none" stroke="#666666" points="55.5,0 55.5,-160 291.5,-160 291.5,0 55.5,0"/>
</a>
</g>
</g>
<!-- Node2 -->
<g id="Node000002" class="node">
<title>Node2</title>
<g id="a_Node000002"><a xlink:title=" ">
<polygon fill="white" stroke="transparent" points="157,-267 0,-267 0,-218 157,-218 157,-267"/>
<text text-anchor="start" x="5.5" y="-254.5" font-family="Helvetica,sans-Serif" font-size="10.00">static readonly EbRandomizer</text>
<text text-anchor="start" x="77" y="-239.5" font-family="Helvetica,sans-Serif" font-size="10.00"> </text>
<text text-anchor="start" x="77" y="-224.5" font-family="Helvetica,sans-Serif" font-size="10.00"> </text>
<polygon fill="#666666" stroke="#666666" points="0.5,-249.5 0.5,-249.5 157.5,-249.5 157.5,-249.5 0.5,-249.5"/>
<polygon fill="#666666" stroke="#666666" points="0.5,-234.5 0.5,-234.5 157.5,-234.5 157.5,-234.5 0.5,-234.5"/>
<polygon fill="none" stroke="#666666" points="0,-218 0,-267 157,-267 157,-218 0,-218"/>
</a>
</g>
</g>
<!-- Node2&#45;&gt;Node1 -->
<g id="edge1_Node000001_Node000002" class="edge">
<title>Node2&#45;&gt;Node1</title>
<g id="a_edge1_Node000001_Node000002"><a xlink:title=" ">
<path fill="none" stroke="#63b8ff" d="M92.52,-217.82C100.15,-204.92 110.14,-188.04 120.48,-170.58"/>
<polygon fill="none" stroke="#63b8ff" points="120.48,-170.57 120.1,-163.37 126.59,-160.25 126.98,-167.45 120.48,-170.57"/>
</a>
</g>
<text text-anchor="middle" x="148.5" y="-181" font-family="Helvetica,sans-Serif" font-size="10.00" fill="grey"> &#45;Randomizer</text>
</g>
<!-- Node3 -->
<g id="Node000003" class="node">
<title>Node3</title>
<g id="a_Node000003"><a xlink:href="interfaceEbceys_1_1Infrastructure_1_1TestApplication_1_1Client_1_1Implementations_1_1ITestApplicationClient.html" target="_top" xlink:title=" ">
<polygon fill="white" stroke="transparent" points="361.5,-278 175.5,-278 175.5,-207 361.5,-207 361.5,-278"/>
<text text-anchor="start" x="180.5" y="-265.5" font-family="Helvetica,sans-Serif" font-size="10.00">Ebceys.Infrastructure.Test</text>
<text text-anchor="start" x="180.5" y="-254.5" font-family="Helvetica,sans-Serif" font-size="10.00">Application.Client.Implementations.</text>
<text text-anchor="start" x="215.5" y="-243.5" font-family="Helvetica,sans-Serif" font-size="10.00">ITestApplicationClient</text>
<text text-anchor="start" x="208.5" y="-228.5" font-family="Helvetica,sans-Serif" font-size="10.00">+</text>
<text text-anchor="start" x="250.5" y="-228.5" font-family="Helvetica,sans-Serif" font-size="10.00">TestClient</text>
<text text-anchor="start" x="266.5" y="-213.5" font-family="Helvetica,sans-Serif" font-size="10.00"> </text>
<polygon fill="#666666" stroke="#666666" points="175.5,-238.5 175.5,-238.5 361.5,-238.5 361.5,-238.5 175.5,-238.5"/>
<polygon fill="#666666" stroke="#666666" points="175.5,-223.5 175.5,-223.5 248.5,-223.5 248.5,-223.5 175.5,-223.5"/>
<polygon fill="#666666" stroke="#666666" points="248.5,-223.5 248.5,-223.5 361.5,-223.5 361.5,-223.5 248.5,-223.5"/>
<polygon fill="none" stroke="#666666" points="175.5,-207 175.5,-278 361.5,-278 361.5,-207 175.5,-207"/>
</a>
</g>
</g>
<!-- Node3&#45;&gt;Node1 -->
<g id="edge2_Node000001_Node000003" class="edge">
<title>Node3&#45;&gt;Node1</title>
<g id="a_edge2_Node000001_Node000003"><a xlink:title=" ">
<path fill="none" stroke="#63b8ff" d="M247.89,-206.67C241.53,-195.94 234.23,-183.59 226.72,-170.92"/>
<polygon fill="none" stroke="#63b8ff" points="226.5,-170.55 220.01,-167.42 220.39,-160.22 226.89,-163.35 226.5,-170.55"/>
</a>
</g>
<text text-anchor="middle" x="254.5" y="-181" font-family="Helvetica,sans-Serif" font-size="10.00" fill="grey"> &#45;_client</text>
</g>
</g>
</svg>
