<?xml version="1.0" encoding="UTF-8" standalone="no"?>
<!DOCTYPE svg PUBLIC "-//W3C//DTD SVG 1.1//EN"
 "http://www.w3.org/Graphics/SVG/1.1/DTD/svg11.dtd">
<!-- Generated by graphviz version 2.43.0 (0)
 -->
<!-- Title: Ebceys.Infrastructure.UnitTests.Helpers.EbRandomizerTests Pages: 1 -->
<svg width="201pt" height="587pt"
 viewBox="0.00 0.00 201.00 587.00" xmlns="http://www.w3.org/2000/svg" xmlns:xlink="http://www.w3.org/1999/xlink">
<g id="graph0" class="graph" transform="scale(1 1) rotate(0) translate(4 583)">
<title>Ebceys.Infrastructure.UnitTests.Helpers.EbRandomizerTests</title>
<!-- Node1 -->
<g id="Node000001" class="node">
<title>Node1</title>
<g id="a_Node000001"><a xlink:title=" ">
<polygon fill="#999999" stroke="transparent" points="178,-483 0,-483 0,0 178,0 178,-483"/>
<text text-anchor="start" x="7" y="-470.5" font-family="Helvetica,sans-Serif" font-size="10.00">Ebceys.Infrastructure.Unit</text>
<text text-anchor="start" x="7" y="-459.5" font-family="Helvetica,sans-Serif" font-size="10.00">Tests.Helpers.EbRandomizerTests</text>
<text text-anchor="start" x="87" y="-444.5" font-family="Helvetica,sans-Serif" font-size="10.00"> </text>
<text text-anchor="start" x="4" y="-429.5" font-family="Helvetica,sans-Serif" font-size="10.00">+</text>
<text text-anchor="start" x="17" y="-429.5" font-family="Helvetica,sans-Serif" font-size="10.00">Setup()</text>
<text text-anchor="start" x="4" y="-414.5" font-family="Helvetica,sans-Serif" font-size="10.00">+</text>
<text text-anchor="start" x="17" y="-414.5" font-family="Helvetica,sans-Serif" font-size="10.00">When_RandomString_With</text>
<text text-anchor="start" x="17" y="-403.5" font-family="Helvetica,sans-Serif" font-size="10.00">_SpecifiedNumOfAttempts</text>
<text text-anchor="start" x="17" y="-392.5" font-family="Helvetica,sans-Serif" font-size="10.00">_Result_ExpectedLength()</text>
<text text-anchor="start" x="4" y="-377.5" font-family="Helvetica,sans-Serif" font-size="10.00">+</text>
<text text-anchor="start" x="17" y="-377.5" font-family="Helvetica,sans-Serif" font-size="10.00">When_RandomInt_With</text>
<text text-anchor="start" x="17" y="-366.5" font-family="Helvetica,sans-Serif" font-size="10.00">_SpecifiedLimits_Result</text>
<text text-anchor="start" x="17" y="-355.5" font-family="Helvetica,sans-Serif" font-size="10.00">_ValueInRange()</text>
<text text-anchor="start" x="4" y="-340.5" font-family="Helvetica,sans-Serif" font-size="10.00">+</text>
<text text-anchor="start" x="17" y="-340.5" font-family="Helvetica,sans-Serif" font-size="10.00">When_RandomDouble_With</text>
<text text-anchor="start" x="17" y="-329.5" font-family="Helvetica,sans-Serif" font-size="10.00">_SpecifiedLimits_Result</text>
<text text-anchor="start" x="17" y="-318.5" font-family="Helvetica,sans-Serif" font-size="10.00">_ValueInRange()</text>
<text text-anchor="start" x="4" y="-303.5" font-family="Helvetica,sans-Serif" font-size="10.00">+</text>
<text text-anchor="start" x="17" y="-303.5" font-family="Helvetica,sans-Serif" font-size="10.00">When_RandomLong_With</text>
<text text-anchor="start" x="17" y="-292.5" font-family="Helvetica,sans-Serif" font-size="10.00">_SpecifiedLimits_Result</text>
<text text-anchor="start" x="17" y="-281.5" font-family="Helvetica,sans-Serif" font-size="10.00">_ValueInRange()</text>
<text text-anchor="start" x="4" y="-266.5" font-family="Helvetica,sans-Serif" font-size="10.00">+</text>
<text text-anchor="start" x="17" y="-266.5" font-family="Helvetica,sans-Serif" font-size="10.00">When_RandomUInt_With</text>
<text text-anchor="start" x="17" y="-255.5" font-family="Helvetica,sans-Serif" font-size="10.00">_SpecifiedLimits_Result</text>
<text text-anchor="start" x="17" y="-244.5" font-family="Helvetica,sans-Serif" font-size="10.00">_ValueInRange()</text>
<text text-anchor="start" x="4" y="-229.5" font-family="Helvetica,sans-Serif" font-size="10.00">+</text>
<text text-anchor="start" x="17" y="-229.5" font-family="Helvetica,sans-Serif" font-size="10.00">When_RandomDateTime</text>
<text text-anchor="start" x="17" y="-218.5" font-family="Helvetica,sans-Serif" font-size="10.00">_With_SpecifiedLimits</text>
<text text-anchor="start" x="17" y="-207.5" font-family="Helvetica,sans-Serif" font-size="10.00">_Result_ValueInRange()</text>
<text text-anchor="start" x="4" y="-192.5" font-family="Helvetica,sans-Serif" font-size="10.00">+</text>
<text text-anchor="start" x="17" y="-192.5" font-family="Helvetica,sans-Serif" font-size="10.00">When_RandomDateTimeOffset</text>
<text text-anchor="start" x="17" y="-181.5" font-family="Helvetica,sans-Serif" font-size="10.00">_With_SpecifiedLimits_Result</text>
<text text-anchor="start" x="17" y="-170.5" font-family="Helvetica,sans-Serif" font-size="10.00">_ValueInRange()</text>
<text text-anchor="start" x="4" y="-155.5" font-family="Helvetica,sans-Serif" font-size="10.00">+</text>
<text text-anchor="start" x="17" y="-155.5" font-family="Helvetica,sans-Serif" font-size="10.00">When_RandomStringArray</text>
<text text-anchor="start" x="17" y="-144.5" font-family="Helvetica,sans-Serif" font-size="10.00">_With_SpecifiedNumOfAttempts</text>
<text text-anchor="start" x="17" y="-133.5" font-family="Helvetica,sans-Serif" font-size="10.00">_Result_ExpectedLength()</text>
<text text-anchor="start" x="4" y="-118.5" font-family="Helvetica,sans-Serif" font-size="10.00">+</text>
<text text-anchor="start" x="17" y="-118.5" font-family="Helvetica,sans-Serif" font-size="10.00">When_RandomStringArray</text>
<text text-anchor="start" x="17" y="-107.5" font-family="Helvetica,sans-Serif" font-size="10.00">_WithSpecifiedLimits_Result</text>
<text text-anchor="start" x="17" y="-96.5" font-family="Helvetica,sans-Serif" font-size="10.00">_ValueInRange()</text>
<text text-anchor="start" x="17" y="-81.5" font-family="Helvetica,sans-Serif" font-size="10.00">and 12 more...</text>
<text text-anchor="start" x="6.5" y="-66.5" font-family="Helvetica,sans-Serif" font-size="10.00">&#45;</text>
<text text-anchor="start" x="17" y="-66.5" font-family="Helvetica,sans-Serif" font-size="10.00">GetTestDates()</text>
<text text-anchor="start" x="6.5" y="-51.5" font-family="Helvetica,sans-Serif" font-size="10.00">&#45;</text>
<text text-anchor="start" x="17" y="-51.5" font-family="Helvetica,sans-Serif" font-size="10.00">GetTestOffsetDates()</text>
<text text-anchor="start" x="6.5" y="-36.5" font-family="Helvetica,sans-Serif" font-size="10.00">&#45;</text>
<text text-anchor="start" x="17" y="-36.5" font-family="Helvetica,sans-Serif" font-size="10.00">IsEmailValid()</text>
<text text-anchor="start" x="6.5" y="-21.5" font-family="Helvetica,sans-Serif" font-size="10.00">&#45;</text>
<text text-anchor="start" x="17" y="-21.5" font-family="Helvetica,sans-Serif" font-size="10.00">GetTestTimeSpans()</text>
<text text-anchor="start" x="6.5" y="-6.5" font-family="Helvetica,sans-Serif" font-size="10.00">&#45;</text>
<text text-anchor="start" x="17" y="-6.5" font-family="Helvetica,sans-Serif" font-size="10.00">GetJwts()</text>
<polygon fill="#666666" stroke="#666666" points="0,-454.5 0,-454.5 178,-454.5 178,-454.5 0,-454.5"/>
<polygon fill="#666666" stroke="#666666" points="0,-439.5 0,-439.5 178,-439.5 178,-439.5 0,-439.5"/>
<polygon fill="none" stroke="#666666" points="0,0 0,-483 178,-483 178,0 0,0"/>
</a>
</g>
</g>
<!-- Node2 -->
<g id="Node000002" class="node">
<title>Node2</title>
<g id="a_Node000002"><a xlink:title=" ">
<polygon fill="white" stroke="transparent" points="73.5,-579 20.5,-579 20.5,-530 73.5,-530 73.5,-579"/>
<text text-anchor="start" x="26" y="-566.5" font-family="Helvetica,sans-Serif" font-size="10.00">const int</text>
<text text-anchor="start" x="45.5" y="-551.5" font-family="Helvetica,sans-Serif" font-size="10.00"> </text>
<text text-anchor="start" x="45.5" y="-536.5" font-family="Helvetica,sans-Serif" font-size="10.00"> </text>
<polygon fill="#666666" stroke="#666666" points="21,-561.5 21,-561.5 74,-561.5 74,-561.5 21,-561.5"/>
<polygon fill="#666666" stroke="#666666" points="21,-546.5 21,-546.5 74,-546.5 74,-546.5 21,-546.5"/>
<polygon fill="none" stroke="#666666" points="20.5,-530 20.5,-579 73.5,-579 73.5,-530 20.5,-530"/>
</a>
</g>
</g>
<!-- Node2&#45;&gt;Node1 -->
<g id="edge1_Node000001_Node000002" class="edge">
<title>Node2&#45;&gt;Node1</title>
<g id="a_edge1_Node000001_Node000002"><a xlink:title=" ">
<path fill="none" stroke="#63b8ff" d="M50.19,-529.87C51.46,-520.5 53.04,-508.75 54.85,-495.4"/>
<polygon fill="none" stroke="#63b8ff" points="54.88,-495.17 51.72,-488.69 56.48,-483.27 59.64,-489.76 54.88,-495.17"/>
</a>
</g>
<text text-anchor="middle" x="70.5" y="-504" font-family="Helvetica,sans-Serif" font-size="10.00" fill="grey"> &#45;Seed</text>
</g>
<!-- Node3 -->
<g id="Node000003" class="node">
<title>Node3</title>
<g id="a_Node000003"><a xlink:title=" ">
<polygon fill="white" stroke="transparent" points="172.5,-579 91.5,-579 91.5,-530 172.5,-530 172.5,-579"/>
<text text-anchor="start" x="97" y="-566.5" font-family="Helvetica,sans-Serif" font-size="10.00">EbRandomizer</text>
<text text-anchor="start" x="130.5" y="-551.5" font-family="Helvetica,sans-Serif" font-size="10.00"> </text>
<text text-anchor="start" x="130.5" y="-536.5" font-family="Helvetica,sans-Serif" font-size="10.00"> </text>
<polygon fill="#666666" stroke="#666666" points="92,-561.5 92,-561.5 173,-561.5 173,-561.5 92,-561.5"/>
<polygon fill="#666666" stroke="#666666" points="92,-546.5 92,-546.5 173,-546.5 173,-546.5 92,-546.5"/>
<polygon fill="none" stroke="#666666" points="91.5,-530 91.5,-579 172.5,-579 172.5,-530 91.5,-530"/>
</a>
</g>
</g>
<!-- Node3&#45;&gt;Node1 -->
<g id="edge2_Node000001_Node000003" class="edge">
<title>Node3&#45;&gt;Node1</title>
<g id="a_edge2_Node000001_Node000003"><a xlink:title=" ">
<path fill="none" stroke="#63b8ff" d="M128.73,-529.87C127.44,-520.5 125.81,-508.75 123.97,-495.4"/>
<polygon fill="none" stroke="#63b8ff" points="123.93,-495.16 119.15,-489.77 122.29,-483.27 127.07,-488.67 123.93,-495.16"/>
</a>
</g>
<text text-anchor="middle" x="159" y="-504" font-family="Helvetica,sans-Serif" font-size="10.00" fill="grey"> &#45;_randomizer</text>
</g>
</g>
</svg>
