<?xml version="1.0" encoding="UTF-8" standalone="no"?>
<!DOCTYPE svg PUBLIC "-//W3C//DTD SVG 1.1//EN"
 "http://www.w3.org/Graphics/SVG/1.1/DTD/svg11.dtd">
<!-- Generated by graphviz version 2.43.0 (0)
 -->
<!-- Title: Ebceys.Infrastructure.HttpClient.ClientBase Pages: 1 -->
<svg width="488pt" height="534pt"
 viewBox="0.00 0.00 488.00 534.00" xmlns="http://www.w3.org/2000/svg" xmlns:xlink="http://www.w3.org/1999/xlink">
<g id="graph0" class="graph" transform="scale(1 1) rotate(0) translate(4 530)">
<title>Ebceys.Infrastructure.HttpClient.ClientBase</title>
<!-- Node1 -->
<g id="Node000001" class="node">
<title>Node1</title>
<g id="a_Node000001"><a xlink:title="The ClientBase class.">
<polygon fill="#999999" stroke="transparent" points="301.5,-419 126.5,-419 126.5,0 301.5,0 301.5,-419"/>
<text text-anchor="start" x="150.5" y="-406.5" font-family="Helvetica,sans-Serif" font-size="10.00">Ebceys.Infrastructure.Http</text>
<text text-anchor="start" x="172" y="-395.5" font-family="Helvetica,sans-Serif" font-size="10.00">Client.ClientBase</text>
<text text-anchor="start" x="131" y="-380.5" font-family="Helvetica,sans-Serif" font-size="10.00">+</text>
<text text-anchor="start" x="144" y="-380.5" font-family="Helvetica,sans-Serif" font-size="10.00">ClientName</text>
<text text-anchor="start" x="131" y="-365.5" font-family="Helvetica,sans-Serif" font-size="10.00">+</text>
<text text-anchor="start" x="144" y="-365.5" font-family="Helvetica,sans-Serif" font-size="10.00">Timeout</text>
<text text-anchor="start" x="131" y="-350.5" font-family="Helvetica,sans-Serif" font-size="10.00">+</text>
<text text-anchor="start" x="144" y="-350.5" font-family="Helvetica,sans-Serif" font-size="10.00">DelayBetweenRetries</text>
<text text-anchor="start" x="131" y="-335.5" font-family="Helvetica,sans-Serif" font-size="10.00">+</text>
<text text-anchor="start" x="144" y="-335.5" font-family="Helvetica,sans-Serif" font-size="10.00">Policy</text>
<text text-anchor="start" x="131" y="-320.5" font-family="Helvetica,sans-Serif" font-size="10.00">+</text>
<text text-anchor="start" x="144" y="-320.5" font-family="Helvetica,sans-Serif" font-size="10.00">DefaultSerializer</text>
<text text-anchor="start" x="131" y="-305.5" font-family="Helvetica,sans-Serif" font-size="10.00">+</text>
<text text-anchor="start" x="144" y="-305.5" font-family="Helvetica,sans-Serif" font-size="10.00">GetClientName()</text>
<text text-anchor="start" x="131" y="-290.5" font-family="Helvetica,sans-Serif" font-size="10.00">#</text>
<text text-anchor="start" x="144" y="-290.5" font-family="Helvetica,sans-Serif" font-size="10.00">ClientBase()</text>
<text text-anchor="start" x="131" y="-275.5" font-family="Helvetica,sans-Serif" font-size="10.00">#</text>
<text text-anchor="start" x="144" y="-275.5" font-family="Helvetica,sans-Serif" font-size="10.00">GetJsonAsync&lt; TResponse,</text>
<text text-anchor="start" x="144" y="-264.5" font-family="Helvetica,sans-Serif" font-size="10.00"> TError &gt;()</text>
<text text-anchor="start" x="131" y="-249.5" font-family="Helvetica,sans-Serif" font-size="10.00">#</text>
<text text-anchor="start" x="144" y="-249.5" font-family="Helvetica,sans-Serif" font-size="10.00">GetAsync&lt; TError &gt;()</text>
<text text-anchor="start" x="131" y="-234.5" font-family="Helvetica,sans-Serif" font-size="10.00">#</text>
<text text-anchor="start" x="144" y="-234.5" font-family="Helvetica,sans-Serif" font-size="10.00">GetStreamAsync&lt; TError &gt;()</text>
<text text-anchor="start" x="131" y="-219.5" font-family="Helvetica,sans-Serif" font-size="10.00">#</text>
<text text-anchor="start" x="144" y="-219.5" font-family="Helvetica,sans-Serif" font-size="10.00">GetRawAsync&lt; TError &gt;()</text>
<text text-anchor="start" x="131" y="-204.5" font-family="Helvetica,sans-Serif" font-size="10.00">#</text>
<text text-anchor="start" x="144" y="-204.5" font-family="Helvetica,sans-Serif" font-size="10.00">DeleteJsonAsync&lt; TResponse,</text>
<text text-anchor="start" x="144" y="-193.5" font-family="Helvetica,sans-Serif" font-size="10.00"> TError &gt;()</text>
<text text-anchor="start" x="131" y="-178.5" font-family="Helvetica,sans-Serif" font-size="10.00">#</text>
<text text-anchor="start" x="144" y="-178.5" font-family="Helvetica,sans-Serif" font-size="10.00">DeleteAsync&lt; TError &gt;()</text>
<text text-anchor="start" x="131" y="-163.5" font-family="Helvetica,sans-Serif" font-size="10.00">#</text>
<text text-anchor="start" x="144" y="-163.5" font-family="Helvetica,sans-Serif" font-size="10.00">PostAsync&lt; TError &gt;()</text>
<text text-anchor="start" x="131" y="-148.5" font-family="Helvetica,sans-Serif" font-size="10.00">#</text>
<text text-anchor="start" x="144" y="-148.5" font-family="Helvetica,sans-Serif" font-size="10.00">PostJsonAsync&lt; TRequest,</text>
<text text-anchor="start" x="144" y="-137.5" font-family="Helvetica,sans-Serif" font-size="10.00"> TError &gt;()</text>
<text text-anchor="start" x="131" y="-122.5" font-family="Helvetica,sans-Serif" font-size="10.00">#</text>
<text text-anchor="start" x="144" y="-122.5" font-family="Helvetica,sans-Serif" font-size="10.00">PostStreamAsync&lt; TResponse,</text>
<text text-anchor="start" x="144" y="-111.5" font-family="Helvetica,sans-Serif" font-size="10.00"> TError &gt;()</text>
<text text-anchor="start" x="144" y="-96.5" font-family="Helvetica,sans-Serif" font-size="10.00">and 8 more...</text>
<text text-anchor="start" x="131" y="-81.5" font-family="Helvetica,sans-Serif" font-size="10.00">#</text>
<text text-anchor="start" x="144" y="-81.5" font-family="Helvetica,sans-Serif" font-size="10.00">GetAuthHeaders()</text>
<text text-anchor="start" x="133.5" y="-66.5" font-family="Helvetica,sans-Serif" font-size="10.00">&#45;</text>
<text text-anchor="start" x="144" y="-66.5" font-family="Helvetica,sans-Serif" font-size="10.00">ConfigureClient()</text>
<text text-anchor="start" x="133.5" y="-51.5" font-family="Helvetica,sans-Serif" font-size="10.00">&#45;</text>
<text text-anchor="start" x="144" y="-51.5" font-family="Helvetica,sans-Serif" font-size="10.00">PrepareRequest()</text>
<text text-anchor="start" x="133.5" y="-36.5" font-family="Helvetica,sans-Serif" font-size="10.00">&#45;</text>
<text text-anchor="start" x="144" y="-36.5" font-family="Helvetica,sans-Serif" font-size="10.00">GetDefaultHeaders()</text>
<text text-anchor="start" x="133.5" y="-21.5" font-family="Helvetica,sans-Serif" font-size="10.00">&#45;</text>
<text text-anchor="start" x="144" y="-21.5" font-family="Helvetica,sans-Serif" font-size="10.00">LogRequest()</text>
<text text-anchor="start" x="133.5" y="-6.5" font-family="Helvetica,sans-Serif" font-size="10.00">&#45;</text>
<text text-anchor="start" x="144" y="-6.5" font-family="Helvetica,sans-Serif" font-size="10.00">LogResponse()</text>
<polygon fill="#666666" stroke="#666666" points="127,-390.5 127,-390.5 302,-390.5 302,-390.5 127,-390.5"/>
<polygon fill="#666666" stroke="#666666" points="127,-315.5 127,-315.5 142,-315.5 142,-315.5 127,-315.5"/>
<polygon fill="#666666" stroke="#666666" points="142,-315.5 142,-315.5 302,-315.5 302,-315.5 142,-315.5"/>
<polygon fill="none" stroke="#666666" points="126.5,0 126.5,-419 301.5,-419 301.5,0 126.5,0"/>
</a>
</g>
</g>
<!-- Node2 -->
<g id="Node000002" class="node">
<title>Node2</title>
<g id="a_Node000002"><a xlink:title=" ">
<polygon fill="white" stroke="transparent" points="68,-520.5 0,-520.5 0,-471.5 68,-471.5 68,-520.5"/>
<text text-anchor="start" x="5" y="-508" font-family="Helvetica,sans-Serif" font-size="10.00">const string</text>
<text text-anchor="start" x="32" y="-493" font-family="Helvetica,sans-Serif" font-size="10.00"> </text>
<text text-anchor="start" x="32" y="-478" font-family="Helvetica,sans-Serif" font-size="10.00"> </text>
<polygon fill="#666666" stroke="#666666" points="0,-503 0,-503 68,-503 68,-503 0,-503"/>
<polygon fill="#666666" stroke="#666666" points="0,-488 0,-488 68,-488 68,-488 0,-488"/>
<polygon fill="none" stroke="#666666" points="0,-471.5 0,-520.5 68,-520.5 68,-471.5 0,-471.5"/>
</a>
</g>
</g>
<!-- Node2&#45;&gt;Node1 -->
<g id="edge1_Node000001_Node000002" class="edge">
<title>Node2&#45;&gt;Node1</title>
<g id="a_edge1_Node000001_Node000002"><a xlink:title=" ">
<path fill="none" stroke="#63b8ff" d="M37.5,-471.43C39.65,-460.61 42.98,-447.8 48,-437 66.62,-396.88 92.9,-356.76 119.06,-321.66"/>
<polygon fill="none" stroke="#63b8ff" points="119.19,-321.48 119.62,-314.28 126.42,-311.9 126,-319.1 119.19,-321.48"/>
</a>
</g>
<text text-anchor="middle" x="104" y="-440" font-family="Helvetica,sans-Serif" font-size="10.00" fill="grey"> +AuthorizationHeader</text>
</g>
<!-- Node3 -->
<g id="Node000003" class="node">
<title>Node3</title>
<g id="a_Node000003"><a xlink:title=" ">
<polygon fill="white" stroke="transparent" points="210,-520.5 100,-520.5 100,-471.5 210,-471.5 210,-520.5"/>
<text text-anchor="start" x="105" y="-508" font-family="Helvetica,sans-Serif" font-size="10.00">readonly IFlurlClient</text>
<text text-anchor="start" x="153" y="-493" font-family="Helvetica,sans-Serif" font-size="10.00"> </text>
<text text-anchor="start" x="153" y="-478" font-family="Helvetica,sans-Serif" font-size="10.00"> </text>
<polygon fill="#666666" stroke="#666666" points="100,-503 100,-503 210,-503 210,-503 100,-503"/>
<polygon fill="#666666" stroke="#666666" points="100,-488 100,-488 210,-488 210,-488 100,-488"/>
<polygon fill="none" stroke="#666666" points="100,-471.5 100,-520.5 210,-520.5 210,-471.5 100,-471.5"/>
</a>
</g>
</g>
<!-- Node3&#45;&gt;Node1 -->
<g id="edge2_Node000001_Node000003" class="edge">
<title>Node3&#45;&gt;Node1</title>
<g id="a_edge2_Node000001_Node000003"><a xlink:title=" ">
<path fill="none" stroke="#63b8ff" d="M159.93,-471.23C162.17,-460.43 165.05,-446.54 168.31,-430.8"/>
<polygon fill="none" stroke="#63b8ff" points="168.32,-430.78 165.62,-424.09 170.75,-419.03 173.45,-425.72 168.32,-430.78"/>
</a>
</g>
<text text-anchor="middle" x="186" y="-440" font-family="Helvetica,sans-Serif" font-size="10.00" fill="grey"> &#45;_client</text>
</g>
<!-- Node4 -->
<g id="Node000004" class="node">
<title>Node4</title>
<g id="a_Node000004"><a xlink:title=" ">
<polygon fill="white" stroke="transparent" points="320,-520.5 228,-520.5 228,-471.5 320,-471.5 320,-520.5"/>
<text text-anchor="start" x="233" y="-508" font-family="Helvetica,sans-Serif" font-size="10.00">readonly ILogger</text>
<text text-anchor="start" x="272" y="-493" font-family="Helvetica,sans-Serif" font-size="10.00"> </text>
<text text-anchor="start" x="272" y="-478" font-family="Helvetica,sans-Serif" font-size="10.00"> </text>
<polygon fill="#666666" stroke="#666666" points="228,-503 228,-503 320,-503 320,-503 228,-503"/>
<polygon fill="#666666" stroke="#666666" points="228,-488 228,-488 320,-488 320,-488 228,-488"/>
<polygon fill="none" stroke="#666666" points="228,-471.5 228,-520.5 320,-520.5 320,-471.5 228,-471.5"/>
</a>
</g>
</g>
<!-- Node4&#45;&gt;Node1 -->
<g id="edge3_Node000001_Node000004" class="edge">
<title>Node4&#45;&gt;Node1</title>
<g id="a_edge3_Node000001_Node000004"><a xlink:title=" ">
<path fill="none" stroke="#63b8ff" d="M268.99,-471.23C266.71,-460.43 263.78,-446.54 260.46,-430.8"/>
<polygon fill="none" stroke="#63b8ff" points="260.45,-430.77 255.3,-425.73 257.98,-419.03 263.13,-424.08 260.45,-430.77"/>
</a>
</g>
<text text-anchor="middle" x="284.5" y="-440" font-family="Helvetica,sans-Serif" font-size="10.00" fill="grey"> &#45;_logger</text>
</g>
<!-- Node5 -->
<g id="Node000005" class="node">
<title>Node5</title>
<g id="a_Node000005"><a xlink:title=" ">
<polygon fill="white" stroke="transparent" points="480,-526 338,-526 338,-466 480,-466 480,-526"/>
<text text-anchor="start" x="343" y="-514" font-family="Helvetica,sans-Serif" font-size="10.00">readonly? ClientBaseToken</text>
<text text-anchor="start" x="387.5" y="-503" font-family="Helvetica,sans-Serif" font-size="10.00">Resolver</text>
<text text-anchor="start" x="407" y="-488" font-family="Helvetica,sans-Serif" font-size="10.00"> </text>
<text text-anchor="start" x="407" y="-473" font-family="Helvetica,sans-Serif" font-size="10.00"> </text>
<polygon fill="#666666" stroke="#666666" points="338,-498 338,-498 480,-498 480,-498 338,-498"/>
<polygon fill="#666666" stroke="#666666" points="338,-483 338,-483 480,-483 480,-483 338,-483"/>
<polygon fill="none" stroke="#666666" points="338,-466 338,-526 480,-526 480,-466 338,-466"/>
</a>
</g>
</g>
<!-- Node5&#45;&gt;Node1 -->
<g id="edge4_Node000001_Node000005" class="edge">
<title>Node5&#45;&gt;Node1</title>
<g id="a_edge4_Node000001_Node000005"><a xlink:title=" ">
<path fill="none" stroke="#63b8ff" d="M389.05,-465.89C369.69,-437.65 338.86,-392.66 308.42,-348.26"/>
<polygon fill="none" stroke="#63b8ff" points="308.32,-348.1 301.62,-345.42 301.53,-338.21 308.22,-340.89 308.32,-348.1"/>
</a>
</g>
<text text-anchor="middle" x="417" y="-440" font-family="Helvetica,sans-Serif" font-size="10.00" fill="grey"> &#45;_tokenResolver</text>
</g>
</g>
</svg>
