<?xml version="1.0" encoding="UTF-8" standalone="no"?>
<!DOCTYPE svg PUBLIC "-//W3C//DTD SVG 1.1//EN"
 "http://www.w3.org/Graphics/SVG/1.1/DTD/svg11.dtd">
<!-- Generated by graphviz version 2.43.0 (0)
 -->
<!-- Title: Ebceys.Tests.Infrastructure.IntegrationTests.WebApplication.RoutingMessageHandler.HostHandler Pages: 1 -->
<svg width="739pt" height="74pt"
 viewBox="0.00 0.00 739.00 74.00" xmlns="http://www.w3.org/2000/svg" xmlns:xlink="http://www.w3.org/1999/xlink">
<g id="graph0" class="graph" transform="scale(1 1) rotate(0) translate(4 70)">
<title>Ebceys.Tests.Infrastructure.IntegrationTests.WebApplication.RoutingMessageHandler.HostHandler</title>
<!-- Node1 -->
<g id="Node000001" class="node">
<title>Node1</title>
<g id="a_Node000001"><a xlink:title=" ">
<polygon fill="#999999" stroke="#666666" points="199,-41 0,-41 0,0 199,0 199,-41"/>
<text text-anchor="start" x="8" y="-29" font-family="Helvetica,sans-Serif" font-size="10.00">Ebceys.Tests.Infrastructure.</text>
<text text-anchor="start" x="8" y="-18" font-family="Helvetica,sans-Serif" font-size="10.00">IntegrationTests.WebApplication.</text>
<text text-anchor="middle" x="99.5" y="-7" font-family="Helvetica,sans-Serif" font-size="10.00">RoutingMessageHandler.HostHandler</text>
</a>
</g>
</g>
<!-- Node1&#45;&gt;Node1 -->
<g id="edge1_Node000001_Node000001" class="edge">
<title>Node1&#45;&gt;Node1</title>
<g id="a_edge1_Node000001_Node000001"><a xlink:title=" ">
<path fill="none" stroke="#63b8ff" d="M57.23,-41.1C52.62,-50.65 66.71,-59 99.5,-59 120,-59 133.19,-55.74 139.07,-50.96"/>
<polygon fill="#63b8ff" stroke="#63b8ff" points="142.51,-51.67 141.77,-41.1 135.75,-49.82 142.51,-51.67"/>
</a>
</g>
</g>
<!-- Node2 -->
<g id="Node000002" class="node">
<title>Node2</title>
<g id="a_Node000002"><a xlink:href="classEbceys_1_1Tests_1_1Infrastructure_1_1IntegrationTests_1_1WebApplication_1_1RoutingMessageHandler.html#a234667c66978e641af16324747d16cc7" target="_top" xlink:title=" ">
<polygon fill="white" stroke="#666666" points="426,-66 235,-66 235,-25 426,-25 426,-66"/>
<text text-anchor="start" x="243" y="-54" font-family="Helvetica,sans-Serif" font-size="10.00">Ebceys.Tests.Infrastructure.</text>
<text text-anchor="start" x="243" y="-43" font-family="Helvetica,sans-Serif" font-size="10.00">IntegrationTests.WebApplication.</text>
<text text-anchor="middle" x="330.5" y="-32" font-family="Helvetica,sans-Serif" font-size="10.00">RoutingMessageHandler.SendAsync</text>
</a>
</g>
</g>
<!-- Node1&#45;&gt;Node2 -->
<g id="edge2_Node000001_Node000002" class="edge">
<title>Node1&#45;&gt;Node2</title>
<g id="a_edge2_Node000001_Node000002"><a xlink:title=" ">
<path fill="none" stroke="#63b8ff" d="M199.28,-31.28C207.63,-32.19 216.09,-33.12 224.48,-34.04"/>
<polygon fill="#63b8ff" stroke="#63b8ff" points="224.35,-37.54 234.67,-35.15 225.11,-30.58 224.35,-37.54"/>
</a>
</g>
</g>
<!-- Node3 -->
<g id="Node000003" class="node">
<title>Node3</title>
<g id="a_Node000003"><a xlink:href="classEbceys_1_1Tests_1_1Infrastructure_1_1IntegrationTests_1_1WebApplication_1_1RoutingMessageHandler.html#a6899a4700a3e7686457571da40d9fa90" target="_top" xlink:title=" ">
<polygon fill="white" stroke="#666666" points="731,-41 462,-41 462,0 731,0 731,-41"/>
<text text-anchor="start" x="470" y="-29" font-family="Helvetica,sans-Serif" font-size="10.00">Ebceys.Tests.Infrastructure.</text>
<text text-anchor="start" x="470" y="-18" font-family="Helvetica,sans-Serif" font-size="10.00">IntegrationTests.WebApplication.</text>
<text text-anchor="middle" x="596.5" y="-7" font-family="Helvetica,sans-Serif" font-size="10.00">RoutingMessageHandler.ReplaceHttpHandlerByTest</text>
</a>
</g>
</g>
<!-- Node2&#45;&gt;Node3 -->
<g id="edge3_Node000002_Node000003" class="edge">
<title>Node2&#45;&gt;Node3</title>
<g id="a_edge3_Node000002_Node000003"><a xlink:title=" ">
<path fill="none" stroke="#63b8ff" d="M426.06,-36.55C434.47,-35.75 443.09,-34.93 451.78,-34.11"/>
<polygon fill="#63b8ff" stroke="#63b8ff" points="452.37,-37.57 462,-33.14 451.71,-30.6 452.37,-37.57"/>
</a>
</g>
</g>
<!-- Node3&#45;&gt;Node1 -->
<g id="edge4_Node000003_Node000001" class="edge">
<title>Node3&#45;&gt;Node1</title>
<g id="a_edge4_Node000003_Node000001"><a xlink:title=" ">
<path fill="none" stroke="#63b8ff" d="M461.81,-17.05C449.7,-16.83 437.63,-16.64 426,-16.5 341.12,-15.5 319.88,-15.24 235,-16.5 226.69,-16.62 218.09,-16.79 209.45,-16.99"/>
<polygon fill="#63b8ff" stroke="#63b8ff" points="209.2,-13.49 199.29,-17.23 209.37,-20.49 209.2,-13.49"/>
</a>
</g>
</g>
</g>
</svg>
