<?xml version="1.0" encoding="UTF-8" standalone="no"?>
<!DOCTYPE svg PUBLIC "-//W3C//DTD SVG 1.1//EN"
 "http://www.w3.org/Graphics/SVG/1.1/DTD/svg11.dtd">
<!-- Generated by graphviz version 2.43.0 (0)
 -->
<!-- Title: Ebceys.Infrastructure.RabbitMq.EbRabbitMqClient Pages: 1 -->
<svg width="250pt" height="325pt"
 viewBox="0.00 0.00 249.50 325.00" xmlns="http://www.w3.org/2000/svg" xmlns:xlink="http://www.w3.org/1999/xlink">

<svg id="main" version="1.1" xmlns="http://www.w3.org/2000/svg" xmlns:xlink="http://www.w3.org/1999/xlink" xml:space="preserve">

<style type="text/css"><![CDATA[
.node, .edge {opacity: 0.7;}
.node.selected, .edge.selected {opacity: 1;}
.edge:hover path { stroke: red; }
.edge:hover polygon { stroke: red; fill: red; }
]]></style>
<script type="application/ecmascript" xlink:href="svg.min.js"/>
<svg id="graph" class="graph">
<g id="graph0" class="graph" transform="scale(1 1) rotate(0) translate(4 321)">
<title>Ebceys.Infrastructure.RabbitMq.EbRabbitMqClient</title>
<!-- Node1 -->
<g id="Node000001" class="node">
<title>Node1</title>
<g id="a_Node000001"><a xlink:title="The EbRabbitMqClient wrapper class for RabbitMQClient.">
<polygon fill="#999999" stroke="transparent" points="209,-221 11,-221 11,0 209,0 209,-221"/>
<text text-anchor="start" x="40.5" y="-208.5" font-family="Helvetica,sans-Serif" font-size="10.00">Ebceys.Infrastructure.Rabbit</text>
<text text-anchor="start" x="57" y="-197.5" font-family="Helvetica,sans-Serif" font-size="10.00">Mq.EbRabbitMqClient</text>
<text text-anchor="start" x="15" y="-182.5" font-family="Helvetica,sans-Serif" font-size="10.00">+</text>
<text text-anchor="start" x="28" y="-182.5" font-family="Helvetica,sans-Serif" font-size="10.00">ConnectionString</text>
<text text-anchor="start" x="15" y="-167.5" font-family="Helvetica,sans-Serif" font-size="10.00">+</text>
<text text-anchor="start" x="28" y="-167.5" font-family="Helvetica,sans-Serif" font-size="10.00">StartAsync()</text>
<text text-anchor="start" x="15" y="-152.5" font-family="Helvetica,sans-Serif" font-size="10.00">+</text>
<text text-anchor="start" x="28" y="-152.5" font-family="Helvetica,sans-Serif" font-size="10.00">StopAsync()</text>
<text text-anchor="start" x="15" y="-137.5" font-family="Helvetica,sans-Serif" font-size="10.00">+</text>
<text text-anchor="start" x="28" y="-137.5" font-family="Helvetica,sans-Serif" font-size="10.00">Dispose()</text>
<text text-anchor="start" x="15" y="-122.5" font-family="Helvetica,sans-Serif" font-size="10.00">+</text>
<text text-anchor="start" x="28" y="-122.5" font-family="Helvetica,sans-Serif" font-size="10.00">DisposeAsync()</text>
<text text-anchor="start" x="15" y="-107.5" font-family="Helvetica,sans-Serif" font-size="10.00">+</text>
<text text-anchor="start" x="28" y="-107.5" font-family="Helvetica,sans-Serif" font-size="10.00">SendMessageAsync()</text>
<text text-anchor="start" x="15" y="-92.5" font-family="Helvetica,sans-Serif" font-size="10.00">+</text>
<text text-anchor="start" x="28" y="-92.5" font-family="Helvetica,sans-Serif" font-size="10.00">SendRequestAsync&lt; T &gt;()</text>
<text text-anchor="start" x="15" y="-77.5" font-family="Helvetica,sans-Serif" font-size="10.00">+</text>
<text text-anchor="start" x="28" y="-77.5" font-family="Helvetica,sans-Serif" font-size="10.00">SendMessageAsync&lt; TMessage &gt;()</text>
<text text-anchor="start" x="15" y="-62.5" font-family="Helvetica,sans-Serif" font-size="10.00">+</text>
<text text-anchor="start" x="28" y="-62.5" font-family="Helvetica,sans-Serif" font-size="10.00">SendMessageAsync()</text>
<text text-anchor="start" x="15" y="-47.5" font-family="Helvetica,sans-Serif" font-size="10.00">+</text>
<text text-anchor="start" x="28" y="-47.5" font-family="Helvetica,sans-Serif" font-size="10.00">SendRequestAsync&lt; TRequest,</text>
<text text-anchor="start" x="28" y="-36.5" font-family="Helvetica,sans-Serif" font-size="10.00"> TResponse &gt;()</text>
<text text-anchor="start" x="15" y="-21.5" font-family="Helvetica,sans-Serif" font-size="10.00">+</text>
<text text-anchor="start" x="28" y="-21.5" font-family="Helvetica,sans-Serif" font-size="10.00">SendRequestAsync&lt; TResponse &gt;()</text>
<text text-anchor="start" x="15" y="-6.5" font-family="Helvetica,sans-Serif" font-size="10.00">#</text>
<text text-anchor="start" x="28" y="-6.5" font-family="Helvetica,sans-Serif" font-size="10.00">EbRabbitMqClient()</text>
<polygon fill="#666666" stroke="#666666" points="11,-192.5 11,-192.5 209,-192.5 209,-192.5 11,-192.5"/>
<polygon fill="#666666" stroke="#666666" points="11,-177.5 11,-177.5 26,-177.5 26,-177.5 11,-177.5"/>
<polygon fill="#666666" stroke="#666666" points="26,-177.5 26,-177.5 209,-177.5 209,-177.5 26,-177.5"/>
<polygon fill="none" stroke="#666666" points="11,0 11,-221 209,-221 209,0 11,0"/>
</a>
</g>
</g>
<!-- Node2 -->
<g id="Node000002" class="node">
<title>Node2</title>
<g id="a_Node000002"><a xlink:href="classIRabbitMQClient.html" target="_top" xlink:title=" ">
<polygon fill="white" stroke="transparent" points="90,-317 0,-317 0,-268 90,-268 90,-317"/>
<text text-anchor="start" x="5" y="-304.5" font-family="Helvetica,sans-Serif" font-size="10.00">IRabbitMQClient</text>
<text text-anchor="start" x="43" y="-289.5" font-family="Helvetica,sans-Serif" font-size="10.00"> </text>
<text text-anchor="start" x="43" y="-274.5" font-family="Helvetica,sans-Serif" font-size="10.00"> </text>
<polygon fill="#666666" stroke="#666666" points="0,-299.5 0,-299.5 90,-299.5 90,-299.5 0,-299.5"/>
<polygon fill="#666666" stroke="#666666" points="0,-284.5 0,-284.5 90,-284.5 90,-284.5 0,-284.5"/>
<polygon fill="none" stroke="#666666" points="0,-268 0,-317 90,-317 90,-268 0,-268"/>
</a>
</g>
</g>
<!-- Node2&#45;&gt;Node1 -->
<g id="edge1_Node000001_Node000002" class="edge">
<title>Node2&#45;&gt;Node1</title>
<g id="a_edge1_Node000001_Node000002"><a xlink:title=" ">
<path fill="none" stroke="#63b8ff" d="M56.91,-258.52C60.85,-247.6 65.48,-234.78 70.33,-221.34"/>
<polygon fill="none" stroke="#63b8ff" points="53.6,-257.37 53.5,-267.97 60.19,-259.75 53.6,-257.37"/>
</a>
</g>
</g>
<!-- Node3 -->
<g id="Node000003" class="node">
<title>Node3</title>
<g id="a_Node000003"><a xlink:title=" ">
<polygon fill="white" stroke="transparent" points="241.5,-317 108.5,-317 108.5,-268 241.5,-268 241.5,-317"/>
<text text-anchor="start" x="114" y="-304.5" font-family="Helvetica,sans-Serif" font-size="10.00">readonly RabbitMQClient</text>
<text text-anchor="start" x="173.5" y="-289.5" font-family="Helvetica,sans-Serif" font-size="10.00"> </text>
<text text-anchor="start" x="173.5" y="-274.5" font-family="Helvetica,sans-Serif" font-size="10.00"> </text>
<polygon fill="#666666" stroke="#666666" points="109,-299.5 109,-299.5 242,-299.5 242,-299.5 109,-299.5"/>
<polygon fill="#666666" stroke="#666666" points="109,-284.5 109,-284.5 242,-284.5 242,-284.5 109,-284.5"/>
<polygon fill="none" stroke="#666666" points="108.5,-268 108.5,-317 241.5,-317 241.5,-268 108.5,-268"/>
</a>
</g>
</g>
<!-- Node3&#45;&gt;Node1 -->
<g id="edge2_Node000001_Node000003" class="edge">
<title>Node3&#45;&gt;Node1</title>
<g id="a_edge2_Node000001_Node000003"><a xlink:title=" ">
<path fill="none" stroke="#63b8ff" d="M166.5,-267.97C162.95,-258.14 158.54,-245.92 153.76,-232.68"/>
<polygon fill="none" stroke="#63b8ff" points="153.74,-232.63 147.94,-228.35 149.67,-221.34 155.47,-225.63 153.74,-232.63"/>
</a>
</g>
<text text-anchor="middle" x="179" y="-242" font-family="Helvetica,sans-Serif" font-size="10.00" fill="grey"> &#45;_client</text>
</g>
</g>
</svg>
</svg>

<style type='text/css'>
<![CDATA[
[data-mouse-over-selected='false'] { opacity: 0.7; }
[data-mouse-over-selected='true']  { opacity: 1.0; }
]]>
</style>
<script type="application/ecmascript"><![CDATA[
document.addEventListener('DOMContentLoaded', (event) => {
  highlightEdges();
  highlightAdjacentNodes();
});
]]></script>
</svg>
