<?xml version="1.0" encoding="UTF-8" standalone="no"?>
<!DOCTYPE svg PUBLIC "-//W3C//DTD SVG 1.1//EN"
 "http://www.w3.org/Graphics/SVG/1.1/DTD/svg11.dtd">
<!-- Generated by graphviz version 2.43.0 (0)
 -->
<!-- Title: Ebceys.Infrastructure.HttpClient.ClientBase.ExecuteWithoutPolicyAsync Pages: 1 -->
<!--zoomable 875 -->

<svg id="main" version="1.1" xmlns="http://www.w3.org/2000/svg" xmlns:xlink="http://www.w3.org/1999/xlink" xml:space="preserve" onload="init(evt)">

<style type="text/css"><![CDATA[
.node, .edge {opacity: 0.7;}
.node.selected, .edge.selected {opacity: 1;}
.edge:hover path { stroke: red; }
.edge:hover polygon { stroke: red; fill: red; }
]]></style>

<defs>
  <circle id="rim" cx="0" cy="0" r="7"/>
  <circle id="rim2" cx="0" cy="0" r="3.5"/>
  <g id="zoomPlus">
    <use xlink:href="#rim" fill="#404040"><set attributeName="fill" to="#808080" begin="zoomplus.mouseover" end="zoomplus.mouseout"/></use>
    <path d="M-4,0h8M0,-4v8" fill="none" stroke="white" stroke-width="1.5" pointer-events="none"/>
  </g>
  <g id="zoomMin">
    <use xlink:href="#rim" fill="#404040"><set attributeName="fill" to="#808080" begin="zoomminus.mouseover" end="zoomminus.mouseout"/></use>
    <path d="M-4,0h8" fill="none" stroke="white" stroke-width="1.5" pointer-events="none"/>
  </g>
  <g id="arrowUp" transform="translate(30 24)">
    <use xlink:href="#rim"/>
    <path pointer-events="none" fill="none" stroke="white" stroke-width="1.5" d="M0,-3.0v7 M-2.5,-0.5L0,-3.0L2.5,-0.5"/>
  </g>
  <g id="arrowRight" transform="rotate(90) translate(36 -43)">
    <use xlink:href="#rim"/>
    <path pointer-events="none" fill="none" stroke="white" stroke-width="1.5" d="M0,-3.0v7 M-2.5,-0.5L0,-3.0L2.5,-0.5"/>
  </g>
  <g id="arrowDown" transform="rotate(180) translate(-30 -48)">
    <use xlink:href="#rim"/>
    <path pointer-events="none" fill="none" stroke="white" stroke-width="1.5" d="M0,-3.0v7 M-2.5,-0.5L0,-3.0L2.5,-0.5"/>
  </g>
  <g id="arrowLeft" transform="rotate(270) translate(-36 17)">
    <use xlink:href="#rim"/>
    <path pointer-events="none" fill="none" stroke="white" stroke-width="1.5" d="M0,-3.0v7 M-2.5,-0.5L0,-3.0L2.5,-0.5"/>
  </g>
  <g id="resetDef">
    <use xlink:href="#rim2" fill="#404040"><set attributeName="fill" to="#808080" begin="reset.mouseover" end="reset.mouseout"/></use>
  </g>
</defs>
<script type="application/ecmascript">
var viewWidth = 672;
var viewHeight = 875;
var sectionId = 'dynsection-5';
</script>
<script type="application/ecmascript" xlink:href="svg.min.js"/>
<svg id="graph" class="graph">
<g id="viewport">
<title>Ebceys.Infrastructure.HttpClient.ClientBase.ExecuteWithoutPolicyAsync</title>
<!-- Node1 -->
<g id="Node000001" class="node">
<title>Node1</title>
<g id="a_Node000001"><a xlink:title="Executes the request delegate without policy.">
<polygon fill="#999999" stroke="#666666" points="664,-454 484,-454 484,-413 664,-413 664,-454"/>
<text text-anchor="start" x="492" y="-442" font-family="Helvetica,sans-Serif" font-size="10.00">Ebceys.Infrastructure.Http</text>
<text text-anchor="start" x="492" y="-431" font-family="Helvetica,sans-Serif" font-size="10.00">Client.ClientBase.ExecuteWithout</text>
<text text-anchor="middle" x="574" y="-420" font-family="Helvetica,sans-Serif" font-size="10.00">PolicyAsync</text>
</a>
</g>
</g>
<!-- Node2 -->
<g id="Node000002" class="node">
<title>Node2</title>
<g id="a_Node000002"><a xlink:href="classEbceys_1_1Infrastructure_1_1HttpClient_1_1ClientBase.html#a1696185a0f91cbdecdbda5181719877b" target="_top" xlink:title="Executes the flurl request with Policy.">
<polygon fill="white" stroke="#666666" points="448,-448.5 225,-448.5 225,-418.5 448,-418.5 448,-448.5"/>
<text text-anchor="start" x="233" y="-436.5" font-family="Helvetica,sans-Serif" font-size="10.00">Ebceys.Infrastructure.Http</text>
<text text-anchor="middle" x="336.5" y="-425.5" font-family="Helvetica,sans-Serif" font-size="10.00">Client.ClientBase.ExecuteWithPolicyAsync</text>
</a>
</g>
</g>
<!-- Node1&#45;&gt;Node2 -->
<g id="edge1_Node000001_Node000002" class="edge">
<title>Node1&#45;&gt;Node2</title>
<g id="a_edge1_Node000001_Node000002"><a xlink:title=" ">
<path fill="none" stroke="#63b8ff" d="M473.71,-433.5C465.24,-433.5 456.64,-433.5 448.09,-433.5"/>
<polygon fill="#63b8ff" stroke="#63b8ff" points="473.97,-437 483.97,-433.5 473.97,-430 473.97,-437"/>
</a>
</g>
</g>
<!-- Node3 -->
<g id="Node000003" class="node">
<title>Node3</title>
<g id="a_Node000003"><a xlink:href="classEbceys_1_1Infrastructure_1_1HttpClient_1_1ClientBase.html#a3df617522e4af3ecef207afdef216eea" target="_top" xlink:title="Sends DELETE request.">
<polygon fill="white" stroke="#666666" points="177,-867 12,-867 12,-826 177,-826 177,-867"/>
<text text-anchor="start" x="20" y="-855" font-family="Helvetica,sans-Serif" font-size="10.00">Ebceys.Infrastructure.Http</text>
<text text-anchor="start" x="20" y="-844" font-family="Helvetica,sans-Serif" font-size="10.00">Client.ClientBase.DeleteAsync</text>
<text text-anchor="middle" x="94.5" y="-833" font-family="Helvetica,sans-Serif" font-size="10.00">&lt; TError &gt;</text>
</a>
</g>
</g>
<!-- Node2&#45;&gt;Node3 -->
<g id="edge2_Node000002_Node000003" class="edge">
<title>Node2&#45;&gt;Node3</title>
<g id="a_edge2_Node000002_Node000003"><a xlink:title=" ">
<path fill="none" stroke="#63b8ff" d="M333.34,-458.77C326.15,-526.92 296.95,-716.22 189,-817.5 185.41,-820.87 181.43,-823.85 177.19,-826.49"/>
<polygon fill="#63b8ff" stroke="#63b8ff" points="336.85,-458.84 334.35,-448.55 329.88,-458.15 336.85,-458.84"/>
</a>
</g>
</g>
<!-- Node4 -->
<g id="Node000004" class="node">
<title>Node4</title>
<g id="a_Node000004"><a xlink:href="classEbceys_1_1Infrastructure_1_1HttpClient_1_1ClientBase.html#a26ef17508251ba0fd49ca8be0b8425c1" target="_top" xlink:title="Sends DELETE request with awaiting serialized body response.">
<polygon fill="white" stroke="#666666" points="187,-808 2,-808 2,-767 187,-767 187,-808"/>
<text text-anchor="start" x="10" y="-796" font-family="Helvetica,sans-Serif" font-size="10.00">Ebceys.Infrastructure.Http</text>
<text text-anchor="start" x="10" y="-785" font-family="Helvetica,sans-Serif" font-size="10.00">Client.ClientBase.DeleteJsonAsync</text>
<text text-anchor="middle" x="94.5" y="-774" font-family="Helvetica,sans-Serif" font-size="10.00">&lt; TResponse, TError &gt;</text>
</a>
</g>
</g>
<!-- Node2&#45;&gt;Node4 -->
<g id="edge3_Node000002_Node000004" class="edge">
<title>Node2&#45;&gt;Node4</title>
<g id="a_edge3_Node000002_Node000004"><a xlink:title=" ">
<path fill="none" stroke="#63b8ff" d="M331.41,-458.56C320.2,-519.23 283.26,-675.16 189,-758.5 185.44,-761.65 181.53,-764.46 177.41,-766.97"/>
<polygon fill="#63b8ff" stroke="#63b8ff" points="334.86,-459.15 333.16,-448.7 327.97,-457.93 334.86,-459.15"/>
</a>
</g>
</g>
<!-- Node5 -->
<g id="Node000005" class="node">
<title>Node5</title>
<g id="a_Node000005"><a xlink:href="classEbceys_1_1Infrastructure_1_1HttpClient_1_1ClientBase.html#a7a7a02d4d110ad85f9a49edcaeefe31c" target="_top" xlink:title="Sends GET request.">
<polygon fill="white" stroke="#666666" points="169.5,-749 19.5,-749 19.5,-708 169.5,-708 169.5,-749"/>
<text text-anchor="start" x="27.5" y="-737" font-family="Helvetica,sans-Serif" font-size="10.00">Ebceys.Infrastructure.Http</text>
<text text-anchor="start" x="27.5" y="-726" font-family="Helvetica,sans-Serif" font-size="10.00">Client.ClientBase.GetAsync</text>
<text text-anchor="middle" x="94.5" y="-715" font-family="Helvetica,sans-Serif" font-size="10.00">&lt; TError &gt;</text>
</a>
</g>
</g>
<!-- Node2&#45;&gt;Node5 -->
<g id="edge4_Node000002_Node000005" class="edge">
<title>Node2&#45;&gt;Node5</title>
<g id="a_edge4_Node000002_Node000005"><a xlink:title=" ">
<path fill="none" stroke="#63b8ff" d="M328.66,-458.59C313.03,-511.23 269.66,-633.73 189,-699.5 183.2,-704.23 176.64,-708.18 169.74,-711.5"/>
<polygon fill="#63b8ff" stroke="#63b8ff" points="332.09,-459.33 331.5,-448.75 325.37,-457.39 332.09,-459.33"/>
</a>
</g>
</g>
<!-- Node6 -->
<g id="Node000006" class="node">
<title>Node6</title>
<g id="a_Node000006"><a xlink:href="classEbceys_1_1Infrastructure_1_1HttpClient_1_1ClientBase.html#a7aff94b2db61e56d4c6bab5e76c620ba" target="_top" xlink:title="Sends GET request with awaiting serialized body response.">
<polygon fill="white" stroke="#666666" points="179.5,-690 9.5,-690 9.5,-649 179.5,-649 179.5,-690"/>
<text text-anchor="start" x="17.5" y="-678" font-family="Helvetica,sans-Serif" font-size="10.00">Ebceys.Infrastructure.Http</text>
<text text-anchor="start" x="17.5" y="-667" font-family="Helvetica,sans-Serif" font-size="10.00">Client.ClientBase.GetJsonAsync</text>
<text text-anchor="middle" x="94.5" y="-656" font-family="Helvetica,sans-Serif" font-size="10.00">&lt; TResponse, TError &gt;</text>
</a>
</g>
</g>
<!-- Node2&#45;&gt;Node6 -->
<g id="edge5_Node000002_Node000006" class="edge">
<title>Node2&#45;&gt;Node6</title>
<g id="a_edge5_Node000002_Node000006"><a xlink:title=" ">
<path fill="none" stroke="#63b8ff" d="M324.87,-457.76C304.7,-500.96 256.77,-591.32 189,-640.5 184.74,-643.59 180.13,-646.37 175.34,-648.84"/>
<polygon fill="#63b8ff" stroke="#63b8ff" points="328.1,-459.11 329.07,-448.56 321.73,-456.2 328.1,-459.11"/>
</a>
</g>
</g>
<!-- Node7 -->
<g id="Node000007" class="node">
<title>Node7</title>
<g id="a_Node000007"><a xlink:href="classEbceys_1_1Infrastructure_1_1HttpClient_1_1ClientBase.html#ade0c9fdbd7a5602a7fc78556bd9539a7" target="_top" xlink:title="Sends GET request with awaiting byte array response.">
<polygon fill="white" stroke="#666666" points="180,-631 9,-631 9,-590 180,-590 180,-631"/>
<text text-anchor="start" x="17" y="-619" font-family="Helvetica,sans-Serif" font-size="10.00">Ebceys.Infrastructure.Http</text>
<text text-anchor="start" x="17" y="-608" font-family="Helvetica,sans-Serif" font-size="10.00">Client.ClientBase.GetRawAsync</text>
<text text-anchor="middle" x="94.5" y="-597" font-family="Helvetica,sans-Serif" font-size="10.00">&lt; TError &gt;</text>
</a>
</g>
</g>
<!-- Node2&#45;&gt;Node7 -->
<g id="edge6_Node000002_Node000007" class="edge">
<title>Node2&#45;&gt;Node7</title>
<g id="a_edge6_Node000002_Node000007"><a xlink:title=" ">
<path fill="none" stroke="#63b8ff" d="M318.34,-457C293.4,-489.54 244.04,-548.09 189,-581.5 183.92,-584.59 178.47,-587.37 172.87,-589.88"/>
<polygon fill="#63b8ff" stroke="#63b8ff" points="321.2,-459.02 324.43,-448.93 315.61,-454.8 321.2,-459.02"/>
</a>
</g>
</g>
<!-- Node8 -->
<g id="Node000008" class="node">
<title>Node8</title>
<g id="a_Node000008"><a xlink:href="classEbceys_1_1Infrastructure_1_1HttpClient_1_1ClientBase.html#aaa20322fa957e48c1068dc7961aa91e6" target="_top" xlink:title="Sends GET request with awaiting Stream response.">
<polygon fill="white" stroke="#666666" points="187,-572 2,-572 2,-531 187,-531 187,-572"/>
<text text-anchor="start" x="10" y="-560" font-family="Helvetica,sans-Serif" font-size="10.00">Ebceys.Infrastructure.Http</text>
<text text-anchor="start" x="10" y="-549" font-family="Helvetica,sans-Serif" font-size="10.00">Client.ClientBase.GetStreamAsync</text>
<text text-anchor="middle" x="94.5" y="-538" font-family="Helvetica,sans-Serif" font-size="10.00">&lt; TError &gt;</text>
</a>
</g>
</g>
<!-- Node2&#45;&gt;Node8 -->
<g id="edge7_Node000002_Node000008" class="edge">
<title>Node2&#45;&gt;Node8</title>
<g id="a_edge7_Node000002_Node000008"><a xlink:title=" ">
<path fill="none" stroke="#63b8ff" d="M305.71,-454.61C276.92,-474.26 231.54,-503.33 189,-522.5 182.34,-525.5 175.27,-528.31 168.13,-530.91"/>
<polygon fill="#63b8ff" stroke="#63b8ff" points="307.84,-457.39 314.09,-448.83 303.87,-451.62 307.84,-457.39"/>
</a>
</g>
</g>
<!-- Node9 -->
<g id="Node000009" class="node">
<title>Node9</title>
<g id="a_Node000009"><a xlink:href="classEbceys_1_1Infrastructure_1_1HttpClient_1_1ClientBase.html#af235956f006b50ba47b85d8a5f09c68d" target="_top" xlink:title="Sends POST request.">
<polygon fill="white" stroke="#666666" points="171.5,-513 17.5,-513 17.5,-472 171.5,-472 171.5,-513"/>
<text text-anchor="start" x="25.5" y="-501" font-family="Helvetica,sans-Serif" font-size="10.00">Ebceys.Infrastructure.Http</text>
<text text-anchor="start" x="25.5" y="-490" font-family="Helvetica,sans-Serif" font-size="10.00">Client.ClientBase.PostAsync</text>
<text text-anchor="middle" x="94.5" y="-479" font-family="Helvetica,sans-Serif" font-size="10.00">&lt; TError &gt;</text>
</a>
</g>
</g>
<!-- Node2&#45;&gt;Node9 -->
<g id="edge8_Node000002_Node000009" class="edge">
<title>Node2&#45;&gt;Node9</title>
<g id="a_edge8_Node000002_Node000009"><a xlink:title=" ">
<path fill="none" stroke="#63b8ff" d="M264.59,-450.93C235.34,-458.12 201.39,-466.47 171.61,-473.79"/>
<polygon fill="#63b8ff" stroke="#63b8ff" points="265.44,-454.33 274.32,-448.54 263.77,-447.53 265.44,-454.33"/>
</a>
</g>
</g>
<!-- Node10 -->
<g id="Node000010" class="node">
<title>Node10</title>
<g id="a_Node000010"><a xlink:href="classEbceys_1_1Infrastructure_1_1HttpClient_1_1ClientBase.html#aa537936f9c9d2ecabebdbf7f02495f89" target="_top" xlink:title="Sends POST request.">
<polygon fill="white" stroke="#666666" points="181.5,-454 7.5,-454 7.5,-413 181.5,-413 181.5,-454"/>
<text text-anchor="start" x="15.5" y="-442" font-family="Helvetica,sans-Serif" font-size="10.00">Ebceys.Infrastructure.Http</text>
<text text-anchor="start" x="15.5" y="-431" font-family="Helvetica,sans-Serif" font-size="10.00">Client.ClientBase.PostJsonAsync</text>
<text text-anchor="middle" x="94.5" y="-420" font-family="Helvetica,sans-Serif" font-size="10.00">&lt; TError &gt;</text>
</a>
</g>
</g>
<!-- Node2&#45;&gt;Node10 -->
<g id="edge9_Node000002_Node000010" class="edge">
<title>Node2&#45;&gt;Node10</title>
<g id="a_edge9_Node000002_Node000010"><a xlink:title=" ">
<path fill="none" stroke="#63b8ff" d="M214.76,-433.5C203.61,-433.5 192.47,-433.5 181.73,-433.5"/>
<polygon fill="#63b8ff" stroke="#63b8ff" points="214.98,-437 224.98,-433.5 214.98,-430 214.98,-437"/>
</a>
</g>
</g>
<!-- Node11 -->
<g id="Node000011" class="node">
<title>Node11</title>
<g id="a_Node000011"><a xlink:href="classEbceys_1_1Infrastructure_1_1HttpClient_1_1ClientBase.html#a6bfb86b34a36d2b2d2f33c082f32fd0b" target="_top" xlink:title="Sends POST request with specified serialized body.">
<polygon fill="white" stroke="#666666" points="181.5,-395 7.5,-395 7.5,-354 181.5,-354 181.5,-395"/>
<text text-anchor="start" x="15.5" y="-383" font-family="Helvetica,sans-Serif" font-size="10.00">Ebceys.Infrastructure.Http</text>
<text text-anchor="start" x="15.5" y="-372" font-family="Helvetica,sans-Serif" font-size="10.00">Client.ClientBase.PostJsonAsync</text>
<text text-anchor="middle" x="94.5" y="-361" font-family="Helvetica,sans-Serif" font-size="10.00">&lt; TRequest, TError &gt;</text>
</a>
</g>
</g>
<!-- Node2&#45;&gt;Node11 -->
<g id="edge10_Node000002_Node000011" class="edge">
<title>Node2&#45;&gt;Node11</title>
<g id="a_edge10_Node000002_Node000011"><a xlink:title=" ">
<path fill="none" stroke="#63b8ff" d="M264.28,-415.99C237.56,-409.42 206.96,-401.9 179.21,-395.08"/>
<polygon fill="#63b8ff" stroke="#63b8ff" points="263.77,-419.47 274.32,-418.46 265.44,-412.67 263.77,-419.47"/>
</a>
</g>
</g>
<!-- Node12 -->
<g id="Node000012" class="node">
<title>Node12</title>
<g id="a_Node000012"><a xlink:href="classEbceys_1_1Infrastructure_1_1HttpClient_1_1ClientBase.html#a1d934ccb04ed3e2b666666a16bfec65c" target="_top" xlink:title="Sends POST request with specified serialized body &#160;&#160;and with awaiting TResponse &#160;deserialized respons...">
<polygon fill="white" stroke="#666666" points="184,-336 5,-336 5,-295 184,-295 184,-336"/>
<text text-anchor="start" x="13" y="-324" font-family="Helvetica,sans-Serif" font-size="10.00">Ebceys.Infrastructure.Http</text>
<text text-anchor="start" x="13" y="-313" font-family="Helvetica,sans-Serif" font-size="10.00">Client.ClientBase.PostJsonAsync</text>
<text text-anchor="middle" x="94.5" y="-302" font-family="Helvetica,sans-Serif" font-size="10.00">&lt; TRequest, TResponse, TError &gt;</text>
</a>
</g>
</g>
<!-- Node2&#45;&gt;Node12 -->
<g id="edge11_Node000002_Node000012" class="edge">
<title>Node2&#45;&gt;Node12</title>
<g id="a_edge11_Node000002_Node000012"><a xlink:title=" ">
<path fill="none" stroke="#63b8ff" d="M305.63,-412.75C276.79,-393.4 231.37,-364.71 189,-345.5 181.55,-342.12 173.6,-338.95 165.61,-336.04"/>
<polygon fill="#63b8ff" stroke="#63b8ff" points="303.79,-415.72 314.03,-418.43 307.71,-409.93 303.79,-415.72"/>
</a>
</g>
</g>
<!-- Node13 -->
<g id="Node000013" class="node">
<title>Node13</title>
<g id="a_Node000013"><a xlink:href="classEbceys_1_1Infrastructure_1_1HttpClient_1_1ClientBase.html#abe61e559a86dbeba95ed4a24c7d8aebf" target="_top" xlink:title="Sends POST request &#160;and with awaiting TResponse &#160;deserialized response.">
<polygon fill="white" stroke="#666666" points="181.5,-277 7.5,-277 7.5,-236 181.5,-236 181.5,-277"/>
<text text-anchor="start" x="15.5" y="-265" font-family="Helvetica,sans-Serif" font-size="10.00">Ebceys.Infrastructure.Http</text>
<text text-anchor="start" x="15.5" y="-254" font-family="Helvetica,sans-Serif" font-size="10.00">Client.ClientBase.PostJsonAsync</text>
<text text-anchor="middle" x="94.5" y="-243" font-family="Helvetica,sans-Serif" font-size="10.00">&lt; TResponse, TError &gt;</text>
</a>
</g>
</g>
<!-- Node2&#45;&gt;Node13 -->
<g id="edge12_Node000002_Node000013" class="edge">
<title>Node2&#45;&gt;Node13</title>
<g id="a_edge12_Node000002_Node000013"><a xlink:title=" ">
<path fill="none" stroke="#63b8ff" d="M318.26,-410.24C293.22,-378.01 243.74,-319.97 189,-286.5 183.33,-283.03 177.21,-279.92 170.92,-277.15"/>
<polygon fill="#63b8ff" stroke="#63b8ff" points="315.52,-412.41 324.38,-418.23 321.08,-408.16 315.52,-412.41"/>
</a>
</g>
</g>
<!-- Node14 -->
<g id="Node000014" class="node">
<title>Node14</title>
<g id="a_Node000014"><a xlink:href="classEbceys_1_1Infrastructure_1_1HttpClient_1_1ClientBase.html#acc1f3b304179b1f651277700d6d0e98d" target="_top" xlink:title="Sends POST request with specified stream body.">
<polygon fill="white" stroke="#666666" points="189,-218 0,-218 0,-177 189,-177 189,-218"/>
<text text-anchor="start" x="8" y="-206" font-family="Helvetica,sans-Serif" font-size="10.00">Ebceys.Infrastructure.Http</text>
<text text-anchor="start" x="8" y="-195" font-family="Helvetica,sans-Serif" font-size="10.00">Client.ClientBase.PostStreamAsync</text>
<text text-anchor="middle" x="94.5" y="-184" font-family="Helvetica,sans-Serif" font-size="10.00">&lt; TError &gt;</text>
</a>
</g>
</g>
<!-- Node2&#45;&gt;Node14 -->
<g id="edge13_Node000002_Node000014" class="edge">
<title>Node2&#45;&gt;Node14</title>
<g id="a_edge13_Node000002_Node000014"><a xlink:title=" ">
<path fill="none" stroke="#63b8ff" d="M324.64,-409.11C304.26,-366.09 256.2,-276.66 189,-227.5 184.18,-223.98 178.94,-220.86 173.47,-218.1"/>
<polygon fill="#63b8ff" stroke="#63b8ff" points="321.51,-410.68 328.89,-418.28 327.86,-407.73 321.51,-410.68"/>
</a>
</g>
</g>
<!-- Node15 -->
<g id="Node000015" class="node">
<title>Node15</title>
<g id="a_Node000015"><a xlink:href="classEbceys_1_1Infrastructure_1_1HttpClient_1_1ClientBase.html#a57c753ac70e8b3a9b7f073b58215270e" target="_top" xlink:title="Sends POST request with specified stream body &#160;&#160;and with awaiting TResponse &#160;deserialized response.">
<polygon fill="white" stroke="#666666" points="189,-159 0,-159 0,-118 189,-118 189,-159"/>
<text text-anchor="start" x="8" y="-147" font-family="Helvetica,sans-Serif" font-size="10.00">Ebceys.Infrastructure.Http</text>
<text text-anchor="start" x="8" y="-136" font-family="Helvetica,sans-Serif" font-size="10.00">Client.ClientBase.PostStreamAsync</text>
<text text-anchor="middle" x="94.5" y="-125" font-family="Helvetica,sans-Serif" font-size="10.00">&lt; TResponse, TError &gt;</text>
</a>
</g>
</g>
<!-- Node2&#45;&gt;Node15 -->
<g id="edge14_Node000002_Node000015" class="edge">
<title>Node2&#45;&gt;Node15</title>
<g id="a_edge14_Node000002_Node000015"><a xlink:title=" ">
<path fill="none" stroke="#63b8ff" d="M328.59,-408.56C312.8,-356.24 269.16,-234.4 189,-168.5 184.79,-165.04 180.16,-161.97 175.3,-159.25"/>
<polygon fill="#63b8ff" stroke="#63b8ff" points="325.28,-409.73 331.45,-418.34 332,-407.76 325.28,-409.73"/>
</a>
</g>
</g>
<!-- Node16 -->
<g id="Node000016" class="node">
<title>Node16</title>
<g id="a_Node000016"><a xlink:href="classEbceys_1_1Infrastructure_1_1HttpClient_1_1ClientBase.html#af30abd96d05940f0d79b965e9e5a3015" target="_top" xlink:title="Sends PUT request with specified serialized body.">
<polygon fill="white" stroke="#666666" points="179,-100 10,-100 10,-59 179,-59 179,-100"/>
<text text-anchor="start" x="18" y="-88" font-family="Helvetica,sans-Serif" font-size="10.00">Ebceys.Infrastructure.Http</text>
<text text-anchor="start" x="18" y="-77" font-family="Helvetica,sans-Serif" font-size="10.00">Client.ClientBase.PutJsonAsync</text>
<text text-anchor="middle" x="94.5" y="-66" font-family="Helvetica,sans-Serif" font-size="10.00">&lt; TRequest, TError &gt;</text>
</a>
</g>
</g>
<!-- Node2&#45;&gt;Node16 -->
<g id="edge15_Node000002_Node000016" class="edge">
<title>Node2&#45;&gt;Node16</title>
<g id="a_edge15_Node000002_Node000016"><a xlink:title=" ">
<path fill="none" stroke="#63b8ff" d="M331.27,-408.2C319.8,-347.58 282.47,-192.86 189,-109.5 185.06,-105.98 180.7,-102.88 176.08,-100.13"/>
<polygon fill="#63b8ff" stroke="#63b8ff" points="327.89,-409.17 333.11,-418.39 334.77,-407.92 327.89,-409.17"/>
</a>
</g>
</g>
<!-- Node17 -->
<g id="Node000017" class="node">
<title>Node17</title>
<g id="a_Node000017"><a xlink:href="classEbceys_1_1Infrastructure_1_1HttpClient_1_1ClientBase.html#a1feab8fb1a7c17e521ce2864f9cad37b" target="_top" xlink:title="Sends PUT request with specified serialized body and with awaiting TResponse &#160;deserialized response.">
<polygon fill="white" stroke="#666666" points="184,-41 5,-41 5,0 184,0 184,-41"/>
<text text-anchor="start" x="13" y="-29" font-family="Helvetica,sans-Serif" font-size="10.00">Ebceys.Infrastructure.Http</text>
<text text-anchor="start" x="13" y="-18" font-family="Helvetica,sans-Serif" font-size="10.00">Client.ClientBase.PutJsonAsync</text>
<text text-anchor="middle" x="94.5" y="-7" font-family="Helvetica,sans-Serif" font-size="10.00">&lt; TRequest, TResponse, TError &gt;</text>
</a>
</g>
</g>
<!-- Node2&#45;&gt;Node17 -->
<g id="edge16_Node000002_Node000017" class="edge">
<title>Node2&#45;&gt;Node17</title>
<g id="a_edge16_Node000002_Node000017"><a xlink:title=" ">
<path fill="none" stroke="#63b8ff" d="M333.21,-407.89C325.75,-339.66 296.01,-151.8 189,-50.5 185.29,-46.98 181.16,-43.88 176.76,-41.14"/>
<polygon fill="#63b8ff" stroke="#63b8ff" points="329.76,-408.55 334.26,-418.14 336.73,-407.83 329.76,-408.55"/>
</a>
</g>
</g>
</g>
</svg>

<g id="navigator" transform="translate(0 0)" fill="#404254">
  <rect fill="#f2f5e9" fill-opacity="0.5" stroke="#606060" stroke-width=".5" x="0" y="0" width="60" height="60"/>
  <use id="zoomplus" xlink:href="#zoomPlus" x="17" y="9" onmousedown="handleZoom(evt,'in')"/>
  <use id="zoomminus" xlink:href="#zoomMin" x="42" y="9" onmousedown="handleZoom(evt,'out')"/>
  <use id="reset" xlink:href="#resetDef" x="30" y="36" onmousedown="handleReset()"/>
   <use id="arrowup" xlink:href="#arrowUp" x="0" y="0" onmousedown="handlePan(0,-1)"/>
  <use id="arrowright" xlink:href="#arrowRight" x="0" y="0" onmousedown="handlePan(1,0)"/>
  <use id="arrowdown" xlink:href="#arrowDown" x="0" y="0" onmousedown="handlePan(0,1)"/>
  <use id="arrowleft" xlink:href="#arrowLeft" x="0" y="0" onmousedown="handlePan(-1,0)"/>
</g>
<svg viewBox="0 0 15 15" width="100%" height="30px" preserveAspectRatio="xMaxYMin meet">
 <g id="arrow_out" transform="scale(0.3 0.3)">
  <a xlink:href="classEbceys_1_1Infrastructure_1_1HttpClient_1_1ClientBase_ae6d5d118c5f95d84981e1b675278b16f_icgraph_org.svg" target="_base">
   <rect id="button" ry="5" rx="5" y="6" x="6" height="38" width="38"
        fill="#f2f5e9" fill-opacity="0.5" stroke="#606060" stroke-width="1.0"/>
   <path id="arrow"
     d="M 11.500037,31.436501 C 11.940474,20.09759 22.043105,11.32322 32.158766,21.979434 L 37.068811,17.246167 C 37.068811,17.246167 37.088388,32 37.088388,32 L 22.160133,31.978069 C 22.160133,31.978069 26.997745,27.140456 26.997745,27.140456 C 18.528582,18.264221 13.291696,25.230495 11.500037,31.436501 z"
     style="fill:#404040;"/>
  </a>
 </g>
</svg>

<style type='text/css'>
<![CDATA[
[data-mouse-over-selected='false'] { opacity: 0.7; }
[data-mouse-over-selected='true']  { opacity: 1.0; }
]]>
</style>
<script type="application/ecmascript"><![CDATA[
document.addEventListener('DOMContentLoaded', (event) => {
  highlightEdges();
  highlightAdjacentNodes();
});
]]></script>
</svg>
