<?xml version="1.0" encoding="UTF-8" standalone="no"?>
<!DOCTYPE svg PUBLIC "-//W3C//DTD SVG 1.1//EN"
 "http://www.w3.org/Graphics/SVG/1.1/DTD/svg11.dtd">
<!-- Generated by graphviz version 2.43.0 (0)
 -->
<!-- Title: Ebceys.Tests.Infrastructure.Helpers.TestCaseSources.EbTestDataValidExecutor&lt; TEnumerator, TData &gt; Pages: 1 -->
<svg width="205pt" height="376pt"
 viewBox="0.00 0.00 205.00 376.00" xmlns="http://www.w3.org/2000/svg" xmlns:xlink="http://www.w3.org/1999/xlink">

<svg id="main" version="1.1" xmlns="http://www.w3.org/2000/svg" xmlns:xlink="http://www.w3.org/1999/xlink" xml:space="preserve">

<style type="text/css"><![CDATA[
.node, .edge {opacity: 0.7;}
.node.selected, .edge.selected {opacity: 1;}
.edge:hover path { stroke: red; }
.edge:hover polygon { stroke: red; fill: red; }
]]></style>
<script type="application/ecmascript" xlink:href="svg.min.js"/>
<svg id="graph" class="graph">
<g id="graph0" class="graph" transform="scale(1 1) rotate(0) translate(4 372)">
<title>Ebceys.Tests.Infrastructure.Helpers.TestCaseSources.EbTestDataValidExecutor&lt; TEnumerator, TData &gt;</title>
<!-- Node1 -->
<g id="Node000001" class="node">
<title>Node1</title>
<g id="a_Node000001"><a xlink:title="The valid test case executor. Executes the EbTestCaseSource&lt;TData&gt;.GetValidCases.">
<polygon fill="#999999" stroke="transparent" points="197,-101 0,-101 0,0 197,0 197,-101"/>
<text text-anchor="start" x="5.5" y="-88.5" font-family="Helvetica,sans-Serif" font-size="10.00">Ebceys.Tests.Infrastructure.</text>
<text text-anchor="start" x="5.5" y="-77.5" font-family="Helvetica,sans-Serif" font-size="10.00">Helpers.TestCaseSources.EbTestData</text>
<text text-anchor="start" x="5.5" y="-66.5" font-family="Helvetica,sans-Serif" font-size="10.00">ValidExecutor&lt; TEnumerator, TData &gt;</text>
<text text-anchor="start" x="18.5" y="-51.5" font-family="Helvetica,sans-Serif" font-size="10.00">&#45;</text>
<text text-anchor="start" x="40.5" y="-51.5" font-family="Helvetica,sans-Serif" font-size="10.00">_testCaseSource</text>
<text text-anchor="start" x="16" y="-36.5" font-family="Helvetica,sans-Serif" font-size="10.00">+</text>
<text text-anchor="start" x="40.5" y="-36.5" font-family="Helvetica,sans-Serif" font-size="10.00">EbTestDataValidExecutor()</text>
<text text-anchor="start" x="16" y="-21.5" font-family="Helvetica,sans-Serif" font-size="10.00">#</text>
<text text-anchor="start" x="40.5" y="-21.5" font-family="Helvetica,sans-Serif" font-size="10.00">override()</text>
<text text-anchor="start" x="18.5" y="-6.5" font-family="Helvetica,sans-Serif" font-size="10.00">&#45;</text>
<text text-anchor="start" x="40.5" y="-6.5" font-family="Helvetica,sans-Serif" font-size="10.00">GetCases()</text>
<polygon fill="#666666" stroke="#666666" points="0.5,-61.5 0.5,-61.5 197.5,-61.5 197.5,-61.5 0.5,-61.5"/>
<polygon fill="#666666" stroke="#666666" points="0.5,-46.5 0.5,-46.5 38.5,-46.5 38.5,-46.5 0.5,-46.5"/>
<polygon fill="#666666" stroke="#666666" points="38.5,-46.5 38.5,-46.5 197.5,-46.5 197.5,-46.5 38.5,-46.5"/>
<polygon fill="none" stroke="#666666" points="0,0 0,-101 197,-101 197,0 0,0"/>
</a>
</g>
</g>
<!-- Node2 -->
<g id="Node000002" class="node">
<title>Node2</title>
<g id="a_Node000002"><a xlink:href="classEbceys_1_1Tests_1_1Infrastructure_1_1Helpers_1_1TestCaseSources_1_1TestCaseEnumerator-1-g.html" target="_top" xlink:title="The TestCaseEnumerator&lt;TData&gt; class.">
<polygon fill="white" stroke="transparent" points="188,-283 9,-283 9,-137 188,-137 188,-283"/>
<text text-anchor="start" x="14.5" y="-271" font-family="Helvetica,sans-Serif" font-size="10.00">Ebceys.Tests.Infrastructure.</text>
<text text-anchor="start" x="14.5" y="-260" font-family="Helvetica,sans-Serif" font-size="10.00">Helpers.TestCaseSources.TestCase</text>
<text text-anchor="start" x="44.5" y="-249" font-family="Helvetica,sans-Serif" font-size="10.00">Enumerator&lt; TData &gt;</text>
<text text-anchor="start" x="25.5" y="-234" font-family="Helvetica,sans-Serif" font-size="10.00">+</text>
<text text-anchor="start" x="50.5" y="-234" font-family="Helvetica,sans-Serif" font-size="10.00">Cases</text>
<text text-anchor="start" x="25.5" y="-219" font-family="Helvetica,sans-Serif" font-size="10.00">#</text>
<text text-anchor="start" x="50.5" y="-219" font-family="Helvetica,sans-Serif" font-size="10.00">dataSource</text>
<text text-anchor="start" x="25.5" y="-204" font-family="Helvetica,sans-Serif" font-size="10.00">+</text>
<text text-anchor="start" x="50.5" y="-204" font-family="Helvetica,sans-Serif" font-size="10.00">GetEnumerator()</text>
<text text-anchor="start" x="25.5" y="-189" font-family="Helvetica,sans-Serif" font-size="10.00">#</text>
<text text-anchor="start" x="50.5" y="-189" font-family="Helvetica,sans-Serif" font-size="10.00">TestCaseEnumerator()</text>
<text text-anchor="start" x="25.5" y="-174" font-family="Helvetica,sans-Serif" font-size="10.00">#</text>
<text text-anchor="start" x="50.5" y="-174" font-family="Helvetica,sans-Serif" font-size="10.00">GetData()</text>
<text text-anchor="start" x="28" y="-159" font-family="Helvetica,sans-Serif" font-size="10.00">&#45;</text>
<text text-anchor="start" x="50.5" y="-159" font-family="Helvetica,sans-Serif" font-size="10.00">GetEnumerator()</text>
<text text-anchor="start" x="28" y="-144" font-family="Helvetica,sans-Serif" font-size="10.00">&#45;</text>
<text text-anchor="start" x="50.5" y="-144" font-family="Helvetica,sans-Serif" font-size="10.00">Enumerate()</text>
<polygon fill="#666666" stroke="#666666" points="9.5,-244 9.5,-244 188.5,-244 188.5,-244 9.5,-244"/>
<polygon fill="#666666" stroke="#666666" points="9.5,-214 9.5,-214 48.5,-214 48.5,-214 9.5,-214"/>
<polygon fill="#666666" stroke="#666666" points="48.5,-214 48.5,-214 188.5,-214 188.5,-214 48.5,-214"/>
<polygon fill="none" stroke="#666666" points="9,-137 9,-283 188,-283 188,-137 9,-137"/>
</a>
</g>
</g>
<!-- Node2&#45;&gt;Node1 -->
<g id="edge1_Node000001_Node000002" class="edge">
<title>Node2&#45;&gt;Node1</title>
<g id="a_edge1_Node000001_Node000002"><a xlink:title=" ">
<path fill="none" stroke="#63b8ff" d="M98.5,-126.58C98.5,-117.96 98.5,-109.4 98.5,-101.31"/>
<polygon fill="none" stroke="#63b8ff" points="95,-126.7 98.5,-136.7 102,-126.7 95,-126.7"/>
</a>
</g>
</g>
<!-- Node3 -->
<g id="Node000003" class="node">
<title>Node3</title>
<g id="a_Node000003"><a xlink:href="classIEnumerable-1-g.html" target="_top" xlink:title=" ">
<polygon fill="white" stroke="transparent" points="179,-368 18,-368 18,-319 179,-319 179,-368"/>
<text text-anchor="start" x="23.5" y="-355.5" font-family="Helvetica,sans-Serif" font-size="10.00">IEnumerable&lt; TestCaseData &gt;</text>
<text text-anchor="start" x="97" y="-340.5" font-family="Helvetica,sans-Serif" font-size="10.00"> </text>
<text text-anchor="start" x="97" y="-325.5" font-family="Helvetica,sans-Serif" font-size="10.00"> </text>
<polygon fill="#666666" stroke="#666666" points="18.5,-350.5 18.5,-350.5 179.5,-350.5 179.5,-350.5 18.5,-350.5"/>
<polygon fill="#666666" stroke="#666666" points="18.5,-335.5 18.5,-335.5 179.5,-335.5 179.5,-335.5 18.5,-335.5"/>
<polygon fill="none" stroke="#666666" points="18,-319 18,-368 179,-368 179,-319 18,-319"/>
</a>
</g>
</g>
<!-- Node3&#45;&gt;Node2 -->
<g id="edge2_Node000002_Node000003" class="edge">
<title>Node3&#45;&gt;Node2</title>
<g id="a_edge2_Node000002_Node000003"><a xlink:title=" ">
<path fill="none" stroke="#63b8ff" d="M98.5,-308.73C98.5,-300.78 98.5,-292.01 98.5,-283.08"/>
<polygon fill="none" stroke="#63b8ff" points="95,-308.99 98.5,-318.99 102,-308.99 95,-308.99"/>
</a>
</g>
</g>
</g>
</svg>
</svg>

<style type='text/css'>
<![CDATA[
[data-mouse-over-selected='false'] { opacity: 0.7; }
[data-mouse-over-selected='true']  { opacity: 1.0; }
]]>
</style>
<script type="application/ecmascript"><![CDATA[
document.addEventListener('DOMContentLoaded', (event) => {
  highlightEdges();
  highlightAdjacentNodes();
});
]]></script>
</svg>
