<?xml version="1.0" encoding="UTF-8" standalone="no"?>
<!DOCTYPE svg PUBLIC "-//W3C//DTD SVG 1.1//EN"
 "http://www.w3.org/Graphics/SVG/1.1/DTD/svg11.dtd">
<!-- Generated by graphviz version 2.43.0 (0)
 -->
<!-- Title: Ebceys.Infrastructure.TestApplication.BoundedContext.RoutesDictionary.TestControllerV1 Pages: 1 -->
<svg width="194pt" height="197pt"
 viewBox="0.00 0.00 194.00 197.00" xmlns="http://www.w3.org/2000/svg" xmlns:xlink="http://www.w3.org/1999/xlink">
<g id="graph0" class="graph" transform="scale(1 1) rotate(0) translate(4 193)">
<title>Ebceys.Infrastructure.TestApplication.BoundedContext.RoutesDictionary.TestControllerV1</title>
<!-- Node1 -->
<g id="Node000001" class="node">
<title>Node1</title>
<g id="a_Node000001"><a xlink:title=" ">
<polygon fill="#999999" stroke="transparent" points="186,-71 0,-71 0,0 186,0 186,-71"/>
<text text-anchor="start" x="5" y="-58.5" font-family="Helvetica,sans-Serif" font-size="10.00">Ebceys.Infrastructure.Test</text>
<text text-anchor="start" x="5" y="-47.5" font-family="Helvetica,sans-Serif" font-size="10.00">Application.BoundedContext.Routes</text>
<text text-anchor="start" x="26.5" y="-36.5" font-family="Helvetica,sans-Serif" font-size="10.00">Dictionary.TestControllerV1</text>
<text text-anchor="start" x="91" y="-21.5" font-family="Helvetica,sans-Serif" font-size="10.00"> </text>
<text text-anchor="start" x="91" y="-6.5" font-family="Helvetica,sans-Serif" font-size="10.00"> </text>
<polygon fill="#666666" stroke="#666666" points="0,-31.5 0,-31.5 186,-31.5 186,-31.5 0,-31.5"/>
<polygon fill="#666666" stroke="#666666" points="0,-16.5 0,-16.5 186,-16.5 186,-16.5 0,-16.5"/>
<polygon fill="none" stroke="#666666" points="0,0 0,-71 186,-71 186,0 0,0"/>
</a>
</g>
</g>
<!-- Node2 -->
<g id="Node000002" class="node">
<title>Node2</title>
<g id="a_Node000002"><a xlink:title=" ">
<polygon fill="white" stroke="transparent" points="127,-189 59,-189 59,-140 127,-140 127,-189"/>
<text text-anchor="start" x="64" y="-176.5" font-family="Helvetica,sans-Serif" font-size="10.00">const string</text>
<text text-anchor="start" x="91" y="-161.5" font-family="Helvetica,sans-Serif" font-size="10.00"> </text>
<text text-anchor="start" x="91" y="-146.5" font-family="Helvetica,sans-Serif" font-size="10.00"> </text>
<polygon fill="#666666" stroke="#666666" points="59,-171.5 59,-171.5 127,-171.5 127,-171.5 59,-171.5"/>
<polygon fill="#666666" stroke="#666666" points="59,-156.5 59,-156.5 127,-156.5 127,-156.5 59,-156.5"/>
<polygon fill="none" stroke="#666666" points="59,-140 59,-189 127,-189 127,-140 59,-140"/>
</a>
</g>
</g>
<!-- Node2&#45;&gt;Node1 -->
<g id="edge1_Node000001_Node000002" class="edge">
<title>Node2&#45;&gt;Node1</title>
<g id="a_edge1_Node000001_Node000002"><a xlink:title=" ">
<path fill="none" stroke="#63b8ff" d="M93,-139.91C93,-124.14 93,-102.85 93,-83.68"/>
<polygon fill="none" stroke="#63b8ff" points="93,-83.47 89,-77.47 93,-71.47 97,-77.47 93,-83.47"/>
</a>
</g>
<text text-anchor="middle" x="135.5" y="-114" font-family="Helvetica,sans-Serif" font-size="10.00" fill="grey"> +BaseRoute</text>
<text text-anchor="middle" x="135.5" y="-103" font-family="Helvetica,sans-Serif" font-size="10.00" fill="grey">~ApiVersion</text>
<text text-anchor="middle" x="135.5" y="-92" font-family="Helvetica,sans-Serif" font-size="10.00" fill="grey">~ControllerRoute</text>
</g>
</g>
</svg>
