<?xml version="1.0" encoding="UTF-8" standalone="no"?>
<!DOCTYPE svg PUBLIC "-//W3C//DTD SVG 1.1//EN"
 "http://www.w3.org/Graphics/SVG/1.1/DTD/svg11.dtd">
<!-- Generated by graphviz version 2.43.0 (0)
 -->
<!-- Title: Ebceys.Infrastructure.AuthorizationTestApplication.BoundedContext.RoutesDictionary.RabbitMqControllerV1.Methods Pages: 1 -->
<svg width="223pt" height="186pt"
 viewBox="0.00 0.00 223.00 186.00" xmlns="http://www.w3.org/2000/svg" xmlns:xlink="http://www.w3.org/1999/xlink">

<svg id="main" version="1.1" xmlns="http://www.w3.org/2000/svg" xmlns:xlink="http://www.w3.org/1999/xlink" xml:space="preserve">

<style type="text/css"><![CDATA[
.node, .edge {opacity: 0.7;}
.node.selected, .edge.selected {opacity: 1;}
.edge:hover path { stroke: red; }
.edge:hover polygon { stroke: red; fill: red; }
]]></style>
<script type="application/ecmascript" xlink:href="svg.min.js"/>
<svg id="graph" class="graph">
<g id="graph0" class="graph" transform="scale(1 1) rotate(0) translate(4 182)">
<title>Ebceys.Infrastructure.AuthorizationTestApplication.BoundedContext.RoutesDictionary.RabbitMqControllerV1.Methods</title>
<!-- Node1 -->
<g id="Node000001" class="node">
<title>Node1</title>
<g id="a_Node000001"><a xlink:title=" ">
<polygon fill="#999999" stroke="transparent" points="215,-71 0,-71 0,0 215,0 215,-71"/>
<text text-anchor="start" x="5.5" y="-58.5" font-family="Helvetica,sans-Serif" font-size="10.00">Ebceys.Infrastructure.Authorization</text>
<text text-anchor="start" x="5.5" y="-47.5" font-family="Helvetica,sans-Serif" font-size="10.00">TestApplication.BoundedContext.Routes</text>
<text text-anchor="start" x="5.5" y="-36.5" font-family="Helvetica,sans-Serif" font-size="10.00">Dictionary.RabbitMqControllerV1.Methods</text>
<text text-anchor="start" x="106" y="-21.5" font-family="Helvetica,sans-Serif" font-size="10.00"> </text>
<text text-anchor="start" x="106" y="-6.5" font-family="Helvetica,sans-Serif" font-size="10.00"> </text>
<polygon fill="#666666" stroke="#666666" points="0.5,-31.5 0.5,-31.5 215.5,-31.5 215.5,-31.5 0.5,-31.5"/>
<polygon fill="#666666" stroke="#666666" points="0.5,-16.5 0.5,-16.5 215.5,-16.5 215.5,-16.5 0.5,-16.5"/>
<polygon fill="none" stroke="#666666" points="0,0 0,-71 215,-71 215,0 0,0"/>
</a>
</g>
</g>
<!-- Node2 -->
<g id="Node000002" class="node">
<title>Node2</title>
<g id="a_Node000002"><a xlink:title=" ">
<polygon fill="white" stroke="transparent" points="141.5,-178 73.5,-178 73.5,-129 141.5,-129 141.5,-178"/>
<text text-anchor="start" x="78.5" y="-165.5" font-family="Helvetica,sans-Serif" font-size="10.00">const string</text>
<text text-anchor="start" x="105.5" y="-150.5" font-family="Helvetica,sans-Serif" font-size="10.00"> </text>
<text text-anchor="start" x="105.5" y="-135.5" font-family="Helvetica,sans-Serif" font-size="10.00"> </text>
<polygon fill="#666666" stroke="#666666" points="73.5,-160.5 73.5,-160.5 141.5,-160.5 141.5,-160.5 73.5,-160.5"/>
<polygon fill="#666666" stroke="#666666" points="73.5,-145.5 73.5,-145.5 141.5,-145.5 141.5,-145.5 73.5,-145.5"/>
<polygon fill="none" stroke="#666666" points="73.5,-129 73.5,-178 141.5,-178 141.5,-129 73.5,-129"/>
</a>
</g>
</g>
<!-- Node2&#45;&gt;Node1 -->
<g id="edge1_Node000001_Node000002" class="edge">
<title>Node2&#45;&gt;Node1</title>
<g id="a_edge1_Node000001_Node000002"><a xlink:title=" ">
<path fill="none" stroke="#63b8ff" d="M107.5,-128.75C107.5,-115.67 107.5,-98.98 107.5,-83.39"/>
<polygon fill="none" stroke="#63b8ff" points="107.5,-83.23 103.5,-77.23 107.5,-71.23 111.5,-77.23 107.5,-83.23"/>
</a>
</g>
<text text-anchor="middle" x="132" y="-103" font-family="Helvetica,sans-Serif" font-size="10.00" fill="grey"> +GetJson</text>
<text text-anchor="middle" x="132" y="-92" font-family="Helvetica,sans-Serif" font-size="10.00" fill="grey">+GetOk</text>
</g>
</g>
</svg>
</svg>

<style type='text/css'>
<![CDATA[
[data-mouse-over-selected='false'] { opacity: 0.7; }
[data-mouse-over-selected='true']  { opacity: 1.0; }
]]>
</style>
<script type="application/ecmascript"><![CDATA[
document.addEventListener('DOMContentLoaded', (event) => {
  highlightEdges();
  highlightAdjacentNodes();
});
]]></script>
</svg>
