<?xml version="1.0" encoding="UTF-8" standalone="no"?>
<!DOCTYPE svg PUBLIC "-//W3C//DTD SVG 1.1//EN"
 "http://www.w3.org/Graphics/SVG/1.1/DTD/svg11.dtd">
<!-- Generated by graphviz version 2.43.0 (0)
 -->
<!-- Title: Ebceys.Infrastructure.DatabaseRegistration.DbContextRegistrationExtensions Pages: 1 -->
<svg width="192pt" height="90pt"
 viewBox="0.00 0.00 192.00 90.00" xmlns="http://www.w3.org/2000/svg" xmlns:xlink="http://www.w3.org/1999/xlink">
<g id="graph0" class="graph" transform="scale(1 1) rotate(0) translate(4 86)">
<title>Ebceys.Infrastructure.DatabaseRegistration.DbContextRegistrationExtensions</title>
<!-- Node1 -->
<g id="Node000001" class="node">
<title>Node1</title>
<g id="a_Node000001"><a xlink:title="The DbContextRegistrationExtensions extension class.">
<polygon fill="#999999" stroke="transparent" points="184,-82 0,-82 0,0 184,0 184,-82"/>
<text text-anchor="start" x="5" y="-70" font-family="Helvetica,sans-Serif" font-size="10.00">Ebceys.Infrastructure.Database</text>
<text text-anchor="start" x="5" y="-59" font-family="Helvetica,sans-Serif" font-size="10.00">Registration.DbContextRegistration</text>
<text text-anchor="start" x="65" y="-48" font-family="Helvetica,sans-Serif" font-size="10.00">Extensions</text>
<text text-anchor="start" x="90" y="-33" font-family="Helvetica,sans-Serif" font-size="10.00"> </text>
<text text-anchor="start" x="19.5" y="-18" font-family="Helvetica,sans-Serif" font-size="10.00">+</text>
<text text-anchor="start" x="48" y="-18" font-family="Helvetica,sans-Serif" font-size="10.00">RegisterDbContext&lt;</text>
<text text-anchor="start" x="48" y="-7" font-family="Helvetica,sans-Serif" font-size="10.00"> TDbContext &gt;()</text>
<polygon fill="#666666" stroke="#666666" points="0,-43 0,-43 184,-43 184,-43 0,-43"/>
<polygon fill="#666666" stroke="#666666" points="0,-28 0,-28 184,-28 184,-28 0,-28"/>
<polygon fill="none" stroke="#666666" points="0,0 0,-82 184,-82 184,0 0,0"/>
</a>
</g>
</g>
</g>
</svg>
