<?xml version="1.0" encoding="UTF-8" standalone="no"?>
<!DOCTYPE svg PUBLIC "-//W3C//DTD SVG 1.1//EN"
 "http://www.w3.org/Graphics/SVG/1.1/DTD/svg11.dtd">
<!-- Generated by graphviz version 2.43.0 (0)
 -->
<!-- Title: Ebceys.Infrastructure.HttpClient.ClientRegistration.ClientRegistrationExtensions Pages: 1 -->
<svg width="169pt" height="90pt"
 viewBox="0.00 0.00 169.00 90.00" xmlns="http://www.w3.org/2000/svg" xmlns:xlink="http://www.w3.org/1999/xlink">
<g id="graph0" class="graph" transform="scale(1 1) rotate(0) translate(4 86)">
<title>Ebceys.Infrastructure.HttpClient.ClientRegistration.ClientRegistrationExtensions</title>
<!-- Node1 -->
<g id="Node000001" class="node">
<title>Node1</title>
<g id="a_Node000001"><a xlink:title="The ClientRegistrationExtensions extensions.">
<polygon fill="#999999" stroke="transparent" points="161,-82 0,-82 0,0 161,0 161,-82"/>
<text text-anchor="start" x="5.5" y="-70" font-family="Helvetica,sans-Serif" font-size="10.00">Ebceys.Infrastructure.Http</text>
<text text-anchor="start" x="5.5" y="-59" font-family="Helvetica,sans-Serif" font-size="10.00">Client.ClientRegistration.Client</text>
<text text-anchor="start" x="24.5" y="-48" font-family="Helvetica,sans-Serif" font-size="10.00">RegistrationExtensions</text>
<text text-anchor="start" x="79" y="-33" font-family="Helvetica,sans-Serif" font-size="10.00"> </text>
<text text-anchor="start" x="11.5" y="-18" font-family="Helvetica,sans-Serif" font-size="10.00">+</text>
<text text-anchor="start" x="31.5" y="-18" font-family="Helvetica,sans-Serif" font-size="10.00">AddClient&lt; TInterface,</text>
<text text-anchor="start" x="31.5" y="-7" font-family="Helvetica,sans-Serif" font-size="10.00"> TImplementation &gt;()</text>
<polygon fill="#666666" stroke="#666666" points="0.5,-43 0.5,-43 161.5,-43 161.5,-43 0.5,-43"/>
<polygon fill="#666666" stroke="#666666" points="0.5,-28 0.5,-28 161.5,-28 161.5,-28 0.5,-28"/>
<polygon fill="none" stroke="#666666" points="0,0 0,-82 161,-82 161,0 0,0"/>
</a>
</g>
</g>
</g>
</svg>
