<?xml version="1.0" encoding="UTF-8" standalone="no"?>
<!DOCTYPE svg PUBLIC "-//W3C//DTD SVG 1.1//EN"
 "http://www.w3.org/Graphics/SVG/1.1/DTD/svg11.dtd">
<!-- Generated by graphviz version 2.43.0 (0)
 -->
<!-- Title: Ebceys.Infrastructure.HttpClient.ClientBase.PostStreamAsync&lt; TError &gt; Pages: 1 -->
<svg width="689pt" height="194pt"
 viewBox="0.00 0.00 689.00 193.50" xmlns="http://www.w3.org/2000/svg" xmlns:xlink="http://www.w3.org/1999/xlink">
<g id="graph0" class="graph" transform="scale(1 1) rotate(0) translate(4 189.5)">
<title>Ebceys.Infrastructure.HttpClient.ClientBase.PostStreamAsync&lt; TError &gt;</title>
<!-- Node1 -->
<g id="Node000001" class="node">
<title>Node1</title>
<g id="a_Node000001"><a xlink:title="Sends POST request with specified stream body.">
<polygon fill="#999999" stroke="#666666" points="189,-83.5 0,-83.5 0,-42.5 189,-42.5 189,-83.5"/>
<text text-anchor="start" x="8" y="-71.5" font-family="Helvetica,sans-Serif" font-size="10.00">Ebceys.Infrastructure.Http</text>
<text text-anchor="start" x="8" y="-60.5" font-family="Helvetica,sans-Serif" font-size="10.00">Client.ClientBase.PostStreamAsync</text>
<text text-anchor="middle" x="94.5" y="-49.5" font-family="Helvetica,sans-Serif" font-size="10.00">&lt; TError &gt;</text>
</a>
</g>
</g>
<!-- Node2 -->
<g id="Node000002" class="node">
<title>Node2</title>
<g id="a_Node000002"><a xlink:href="classEbceys_1_1Infrastructure_1_1HttpClient_1_1ClientBase.html#a1696185a0f91cbdecdbda5181719877b" target="_top" xlink:title="Executes the flurl request with Policy.">
<polygon fill="white" stroke="#666666" points="448,-114 225,-114 225,-84 448,-84 448,-114"/>
<text text-anchor="start" x="233" y="-102" font-family="Helvetica,sans-Serif" font-size="10.00">Ebceys.Infrastructure.Http</text>
<text text-anchor="middle" x="336.5" y="-91" font-family="Helvetica,sans-Serif" font-size="10.00">Client.ClientBase.ExecuteWithPolicyAsync</text>
</a>
</g>
</g>
<!-- Node1&#45;&gt;Node2 -->
<g id="edge1_Node000001_Node000002" class="edge">
<title>Node1&#45;&gt;Node2</title>
<g id="a_edge1_Node000001_Node000002"><a xlink:title=" ">
<path fill="none" stroke="#63b8ff" d="M189.32,-77.07C201.13,-78.84 213.3,-80.67 225.34,-82.48"/>
<polygon fill="#63b8ff" stroke="#63b8ff" points="224.99,-85.96 235.4,-83.99 226.03,-79.04 224.99,-85.96"/>
</a>
</g>
</g>
<!-- Node6 -->
<g id="Node000006" class="node">
<title>Node6</title>
<g id="a_Node000006"><a xlink:href="classEbceys_1_1Infrastructure_1_1HttpClient_1_1ClientBase.html#a1215a1d2418cd433a86229b07718ee6e" target="_top" xlink:title=" ">
<polygon fill="white" stroke="#666666" points="427,-54 246,-54 246,-24 427,-24 427,-54"/>
<text text-anchor="start" x="254" y="-42" font-family="Helvetica,sans-Serif" font-size="10.00">Ebceys.Infrastructure.Http</text>
<text text-anchor="middle" x="336.5" y="-31" font-family="Helvetica,sans-Serif" font-size="10.00">Client.ClientBase.PrepareRequest</text>
</a>
</g>
</g>
<!-- Node1&#45;&gt;Node6 -->
<g id="edge5_Node000001_Node000006" class="edge">
<title>Node1&#45;&gt;Node6</title>
<g id="a_edge5_Node000001_Node000006"><a xlink:title=" ">
<path fill="none" stroke="#63b8ff" d="M189.32,-53.62C204.53,-52.1 220.32,-50.52 235.67,-48.98"/>
<polygon fill="#63b8ff" stroke="#63b8ff" points="236.07,-52.46 245.67,-47.98 235.37,-45.5 236.07,-52.46"/>
</a>
</g>
</g>
<!-- Node3 -->
<g id="Node000003" class="node">
<title>Node3</title>
<g id="a_Node000003"><a xlink:href="classEbceys_1_1Infrastructure_1_1HttpClient_1_1ClientBase.html#ae6d5d118c5f95d84981e1b675278b16f" target="_top" xlink:title="Executes the request delegate without policy.">
<polygon fill="white" stroke="#666666" points="672.5,-185.5 492.5,-185.5 492.5,-144.5 672.5,-144.5 672.5,-185.5"/>
<text text-anchor="start" x="500.5" y="-173.5" font-family="Helvetica,sans-Serif" font-size="10.00">Ebceys.Infrastructure.Http</text>
<text text-anchor="start" x="500.5" y="-162.5" font-family="Helvetica,sans-Serif" font-size="10.00">Client.ClientBase.ExecuteWithout</text>
<text text-anchor="middle" x="582.5" y="-151.5" font-family="Helvetica,sans-Serif" font-size="10.00">PolicyAsync</text>
</a>
</g>
</g>
<!-- Node2&#45;&gt;Node3 -->
<g id="edge2_Node000002_Node000003" class="edge">
<title>Node2&#45;&gt;Node3</title>
<g id="a_edge2_Node000002_Node000003"><a xlink:title=" ">
<path fill="none" stroke="#63b8ff" d="M393.17,-114.06C423.38,-122.23 461.39,-132.51 495.34,-141.69"/>
<polygon fill="#63b8ff" stroke="#63b8ff" points="494.69,-145.15 505.26,-144.38 496.52,-138.39 494.69,-145.15"/>
</a>
</g>
</g>
<!-- Node4 -->
<g id="Node000004" class="node">
<title>Node4</title>
<g id="a_Node000004"><a xlink:href="classEbceys_1_1Infrastructure_1_1HttpClient_1_1ClientBase.html#adbe434b6f97c2a5c74123c5aea4ac9e9" target="_top" xlink:title=" ">
<polygon fill="white" stroke="#666666" points="663,-126 502,-126 502,-96 663,-96 663,-126"/>
<text text-anchor="start" x="510" y="-114" font-family="Helvetica,sans-Serif" font-size="10.00">Ebceys.Infrastructure.Http</text>
<text text-anchor="middle" x="582.5" y="-103" font-family="Helvetica,sans-Serif" font-size="10.00">Client.ClientBase.LogRequest</text>
</a>
</g>
</g>
<!-- Node2&#45;&gt;Node4 -->
<g id="edge3_Node000002_Node000004" class="edge">
<title>Node2&#45;&gt;Node4</title>
<g id="a_edge3_Node000002_Node000004"><a xlink:title=" ">
<path fill="none" stroke="#63b8ff" d="M448.08,-104.44C462.69,-105.16 477.52,-105.89 491.72,-106.58"/>
<polygon fill="#63b8ff" stroke="#63b8ff" points="491.78,-110.09 501.94,-107.09 492.13,-103.1 491.78,-110.09"/>
</a>
</g>
</g>
<!-- Node5 -->
<g id="Node000005" class="node">
<title>Node5</title>
<g id="a_Node000005"><a xlink:href="classEbceys_1_1Infrastructure_1_1HttpClient_1_1ClientBase.html#a306e46acd18714d98371240e19234a68" target="_top" xlink:title=" ">
<polygon fill="white" stroke="#666666" points="666.5,-78 498.5,-78 498.5,-48 666.5,-48 666.5,-78"/>
<text text-anchor="start" x="506.5" y="-66" font-family="Helvetica,sans-Serif" font-size="10.00">Ebceys.Infrastructure.Http</text>
<text text-anchor="middle" x="582.5" y="-55" font-family="Helvetica,sans-Serif" font-size="10.00">Client.ClientBase.LogResponse</text>
</a>
</g>
</g>
<!-- Node2&#45;&gt;Node5 -->
<g id="edge4_Node000002_Node000005" class="edge">
<title>Node2&#45;&gt;Node5</title>
<g id="a_edge4_Node000002_Node000005"><a xlink:title=" ">
<path fill="none" stroke="#63b8ff" d="M439.21,-83.99C455.56,-81.58 472.41,-79.09 488.55,-76.71"/>
<polygon fill="#63b8ff" stroke="#63b8ff" points="489.11,-80.17 498.49,-75.25 488.08,-73.24 489.11,-80.17"/>
</a>
</g>
</g>
<!-- Node7 -->
<g id="Node000007" class="node">
<title>Node7</title>
<g id="a_Node000007"><a xlink:href="classEbceys_1_1Infrastructure_1_1HttpClient_1_1ClientBase.html#a9c91605887d6727560a6cc2f94938c16" target="_top" xlink:title=" ">
<polygon fill="white" stroke="#666666" points="681,-30 484,-30 484,0 681,0 681,-30"/>
<text text-anchor="start" x="492" y="-18" font-family="Helvetica,sans-Serif" font-size="10.00">Ebceys.Infrastructure.Http</text>
<text text-anchor="middle" x="582.5" y="-7" font-family="Helvetica,sans-Serif" font-size="10.00">Client.ClientBase.GetDefaultHeaders</text>
</a>
</g>
</g>
<!-- Node6&#45;&gt;Node7 -->
<g id="edge6_Node000006_Node000007" class="edge">
<title>Node6&#45;&gt;Node7</title>
<g id="a_edge6_Node000006_Node000007"><a xlink:title=" ">
<path fill="none" stroke="#63b8ff" d="M427.32,-30.17C442.37,-28.69 458.12,-27.14 473.56,-25.62"/>
<polygon fill="#63b8ff" stroke="#63b8ff" points="474.05,-29.09 483.66,-24.62 473.37,-22.12 474.05,-29.09"/>
</a>
</g>
</g>
</g>
</svg>
