<?xml version="1.0" encoding="UTF-8" standalone="no"?>
<!DOCTYPE svg PUBLIC "-//W3C//DTD SVG 1.1//EN"
 "http://www.w3.org/Graphics/SVG/1.1/DTD/svg11.dtd">
<!-- Generated by graphviz version 2.43.0 (0)
 -->
<!-- Title: Ebceys.Infrastructure.UnitTests.Helpers.EbRandomizerTests Pages: 1 -->
<!--zoomable 587 -->

<svg id="main" version="1.1" xmlns="http://www.w3.org/2000/svg" xmlns:xlink="http://www.w3.org/1999/xlink" xml:space="preserve" onload="init(evt)">

<style type="text/css"><![CDATA[
.node, .edge {opacity: 0.7;}
.node.selected, .edge.selected {opacity: 1;}
.edge:hover path { stroke: red; }
.edge:hover polygon { stroke: red; fill: red; }
]]></style>

<defs>
  <circle id="rim" cx="0" cy="0" r="7"/>
  <circle id="rim2" cx="0" cy="0" r="3.5"/>
  <g id="zoomPlus">
    <use xlink:href="#rim" fill="#404040"><set attributeName="fill" to="#808080" begin="zoomplus.mouseover" end="zoomplus.mouseout"/></use>
    <path d="M-4,0h8M0,-4v8" fill="none" stroke="white" stroke-width="1.5" pointer-events="none"/>
  </g>
  <g id="zoomMin">
    <use xlink:href="#rim" fill="#404040"><set attributeName="fill" to="#808080" begin="zoomminus.mouseover" end="zoomminus.mouseout"/></use>
    <path d="M-4,0h8" fill="none" stroke="white" stroke-width="1.5" pointer-events="none"/>
  </g>
  <g id="arrowUp" transform="translate(30 24)">
    <use xlink:href="#rim"/>
    <path pointer-events="none" fill="none" stroke="white" stroke-width="1.5" d="M0,-3.0v7 M-2.5,-0.5L0,-3.0L2.5,-0.5"/>
  </g>
  <g id="arrowRight" transform="rotate(90) translate(36 -43)">
    <use xlink:href="#rim"/>
    <path pointer-events="none" fill="none" stroke="white" stroke-width="1.5" d="M0,-3.0v7 M-2.5,-0.5L0,-3.0L2.5,-0.5"/>
  </g>
  <g id="arrowDown" transform="rotate(180) translate(-30 -48)">
    <use xlink:href="#rim"/>
    <path pointer-events="none" fill="none" stroke="white" stroke-width="1.5" d="M0,-3.0v7 M-2.5,-0.5L0,-3.0L2.5,-0.5"/>
  </g>
  <g id="arrowLeft" transform="rotate(270) translate(-36 17)">
    <use xlink:href="#rim"/>
    <path pointer-events="none" fill="none" stroke="white" stroke-width="1.5" d="M0,-3.0v7 M-2.5,-0.5L0,-3.0L2.5,-0.5"/>
  </g>
  <g id="resetDef">
    <use xlink:href="#rim2" fill="#404040"><set attributeName="fill" to="#808080" begin="reset.mouseover" end="reset.mouseout"/></use>
  </g>
</defs>
<script type="application/ecmascript">
var viewWidth = 201;
var viewHeight = 587;
var sectionId = 'dynsection-0';
</script>
<script type="application/ecmascript" xlink:href="svg.min.js"/>
<svg id="graph" class="graph">
<g id="viewport">
<title>Ebceys.Infrastructure.UnitTests.Helpers.EbRandomizerTests</title>
<!-- Node1 -->
<g id="Node000001" class="node">
<title>Node1</title>
<g id="a_Node000001"><a xlink:title=" ">
<polygon fill="#999999" stroke="transparent" points="178,-483 0,-483 0,0 178,0 178,-483"/>
<text text-anchor="start" x="7" y="-470.5" font-family="Helvetica,sans-Serif" font-size="10.00">Ebceys.Infrastructure.Unit</text>
<text text-anchor="start" x="7" y="-459.5" font-family="Helvetica,sans-Serif" font-size="10.00">Tests.Helpers.EbRandomizerTests</text>
<text text-anchor="start" x="87" y="-444.5" font-family="Helvetica,sans-Serif" font-size="10.00"> </text>
<text text-anchor="start" x="4" y="-429.5" font-family="Helvetica,sans-Serif" font-size="10.00">+</text>
<text text-anchor="start" x="17" y="-429.5" font-family="Helvetica,sans-Serif" font-size="10.00">Setup()</text>
<text text-anchor="start" x="4" y="-414.5" font-family="Helvetica,sans-Serif" font-size="10.00">+</text>
<text text-anchor="start" x="17" y="-414.5" font-family="Helvetica,sans-Serif" font-size="10.00">When_RandomString_With</text>
<text text-anchor="start" x="17" y="-403.5" font-family="Helvetica,sans-Serif" font-size="10.00">_SpecifiedNumOfAttempts</text>
<text text-anchor="start" x="17" y="-392.5" font-family="Helvetica,sans-Serif" font-size="10.00">_Result_ExpectedLength()</text>
<text text-anchor="start" x="4" y="-377.5" font-family="Helvetica,sans-Serif" font-size="10.00">+</text>
<text text-anchor="start" x="17" y="-377.5" font-family="Helvetica,sans-Serif" font-size="10.00">When_RandomInt_With</text>
<text text-anchor="start" x="17" y="-366.5" font-family="Helvetica,sans-Serif" font-size="10.00">_SpecifiedLimits_Result</text>
<text text-anchor="start" x="17" y="-355.5" font-family="Helvetica,sans-Serif" font-size="10.00">_ValueInRange()</text>
<text text-anchor="start" x="4" y="-340.5" font-family="Helvetica,sans-Serif" font-size="10.00">+</text>
<text text-anchor="start" x="17" y="-340.5" font-family="Helvetica,sans-Serif" font-size="10.00">When_RandomDouble_With</text>
<text text-anchor="start" x="17" y="-329.5" font-family="Helvetica,sans-Serif" font-size="10.00">_SpecifiedLimits_Result</text>
<text text-anchor="start" x="17" y="-318.5" font-family="Helvetica,sans-Serif" font-size="10.00">_ValueInRange()</text>
<text text-anchor="start" x="4" y="-303.5" font-family="Helvetica,sans-Serif" font-size="10.00">+</text>
<text text-anchor="start" x="17" y="-303.5" font-family="Helvetica,sans-Serif" font-size="10.00">When_RandomLong_With</text>
<text text-anchor="start" x="17" y="-292.5" font-family="Helvetica,sans-Serif" font-size="10.00">_SpecifiedLimits_Result</text>
<text text-anchor="start" x="17" y="-281.5" font-family="Helvetica,sans-Serif" font-size="10.00">_ValueInRange()</text>
<text text-anchor="start" x="4" y="-266.5" font-family="Helvetica,sans-Serif" font-size="10.00">+</text>
<text text-anchor="start" x="17" y="-266.5" font-family="Helvetica,sans-Serif" font-size="10.00">When_RandomUInt_With</text>
<text text-anchor="start" x="17" y="-255.5" font-family="Helvetica,sans-Serif" font-size="10.00">_SpecifiedLimits_Result</text>
<text text-anchor="start" x="17" y="-244.5" font-family="Helvetica,sans-Serif" font-size="10.00">_ValueInRange()</text>
<text text-anchor="start" x="4" y="-229.5" font-family="Helvetica,sans-Serif" font-size="10.00">+</text>
<text text-anchor="start" x="17" y="-229.5" font-family="Helvetica,sans-Serif" font-size="10.00">When_RandomDateTime</text>
<text text-anchor="start" x="17" y="-218.5" font-family="Helvetica,sans-Serif" font-size="10.00">_With_SpecifiedLimits</text>
<text text-anchor="start" x="17" y="-207.5" font-family="Helvetica,sans-Serif" font-size="10.00">_Result_ValueInRange()</text>
<text text-anchor="start" x="4" y="-192.5" font-family="Helvetica,sans-Serif" font-size="10.00">+</text>
<text text-anchor="start" x="17" y="-192.5" font-family="Helvetica,sans-Serif" font-size="10.00">When_RandomDateTimeOffset</text>
<text text-anchor="start" x="17" y="-181.5" font-family="Helvetica,sans-Serif" font-size="10.00">_With_SpecifiedLimits_Result</text>
<text text-anchor="start" x="17" y="-170.5" font-family="Helvetica,sans-Serif" font-size="10.00">_ValueInRange()</text>
<text text-anchor="start" x="4" y="-155.5" font-family="Helvetica,sans-Serif" font-size="10.00">+</text>
<text text-anchor="start" x="17" y="-155.5" font-family="Helvetica,sans-Serif" font-size="10.00">When_RandomStringArray</text>
<text text-anchor="start" x="17" y="-144.5" font-family="Helvetica,sans-Serif" font-size="10.00">_With_SpecifiedNumOfAttempts</text>
<text text-anchor="start" x="17" y="-133.5" font-family="Helvetica,sans-Serif" font-size="10.00">_Result_ExpectedLength()</text>
<text text-anchor="start" x="4" y="-118.5" font-family="Helvetica,sans-Serif" font-size="10.00">+</text>
<text text-anchor="start" x="17" y="-118.5" font-family="Helvetica,sans-Serif" font-size="10.00">When_RandomStringArray</text>
<text text-anchor="start" x="17" y="-107.5" font-family="Helvetica,sans-Serif" font-size="10.00">_WithSpecifiedLimits_Result</text>
<text text-anchor="start" x="17" y="-96.5" font-family="Helvetica,sans-Serif" font-size="10.00">_ValueInRange()</text>
<text text-anchor="start" x="17" y="-81.5" font-family="Helvetica,sans-Serif" font-size="10.00">and 13 more...</text>
<text text-anchor="start" x="6.5" y="-66.5" font-family="Helvetica,sans-Serif" font-size="10.00">&#45;</text>
<text text-anchor="start" x="17" y="-66.5" font-family="Helvetica,sans-Serif" font-size="10.00">GetTestDates()</text>
<text text-anchor="start" x="6.5" y="-51.5" font-family="Helvetica,sans-Serif" font-size="10.00">&#45;</text>
<text text-anchor="start" x="17" y="-51.5" font-family="Helvetica,sans-Serif" font-size="10.00">GetTestOffsetDates()</text>
<text text-anchor="start" x="6.5" y="-36.5" font-family="Helvetica,sans-Serif" font-size="10.00">&#45;</text>
<text text-anchor="start" x="17" y="-36.5" font-family="Helvetica,sans-Serif" font-size="10.00">IsEmailValid()</text>
<text text-anchor="start" x="6.5" y="-21.5" font-family="Helvetica,sans-Serif" font-size="10.00">&#45;</text>
<text text-anchor="start" x="17" y="-21.5" font-family="Helvetica,sans-Serif" font-size="10.00">GetTestTimeSpans()</text>
<text text-anchor="start" x="6.5" y="-6.5" font-family="Helvetica,sans-Serif" font-size="10.00">&#45;</text>
<text text-anchor="start" x="17" y="-6.5" font-family="Helvetica,sans-Serif" font-size="10.00">GetJwts()</text>
<polygon fill="#666666" stroke="#666666" points="0,-454.5 0,-454.5 178,-454.5 178,-454.5 0,-454.5"/>
<polygon fill="#666666" stroke="#666666" points="0,-439.5 0,-439.5 178,-439.5 178,-439.5 0,-439.5"/>
<polygon fill="none" stroke="#666666" points="0,0 0,-483 178,-483 178,0 0,0"/>
</a>
</g>
</g>
<!-- Node2 -->
<g id="Node000002" class="node">
<title>Node2</title>
<g id="a_Node000002"><a xlink:title=" ">
<polygon fill="white" stroke="transparent" points="73.5,-579 20.5,-579 20.5,-530 73.5,-530 73.5,-579"/>
<text text-anchor="start" x="26" y="-566.5" font-family="Helvetica,sans-Serif" font-size="10.00">const int</text>
<text text-anchor="start" x="45.5" y="-551.5" font-family="Helvetica,sans-Serif" font-size="10.00"> </text>
<text text-anchor="start" x="45.5" y="-536.5" font-family="Helvetica,sans-Serif" font-size="10.00"> </text>
<polygon fill="#666666" stroke="#666666" points="21,-561.5 21,-561.5 74,-561.5 74,-561.5 21,-561.5"/>
<polygon fill="#666666" stroke="#666666" points="21,-546.5 21,-546.5 74,-546.5 74,-546.5 21,-546.5"/>
<polygon fill="none" stroke="#666666" points="20.5,-530 20.5,-579 73.5,-579 73.5,-530 20.5,-530"/>
</a>
</g>
</g>
<!-- Node2&#45;&gt;Node1 -->
<g id="edge1_Node000001_Node000002" class="edge">
<title>Node2&#45;&gt;Node1</title>
<g id="a_edge1_Node000001_Node000002"><a xlink:title=" ">
<path fill="none" stroke="#63b8ff" d="M50.19,-529.87C51.46,-520.5 53.04,-508.75 54.85,-495.4"/>
<polygon fill="none" stroke="#63b8ff" points="54.88,-495.17 51.72,-488.69 56.48,-483.27 59.64,-489.76 54.88,-495.17"/>
</a>
</g>
<text text-anchor="middle" x="70.5" y="-504" font-family="Helvetica,sans-Serif" font-size="10.00" fill="grey"> &#45;Seed</text>
</g>
<!-- Node3 -->
<g id="Node000003" class="node">
<title>Node3</title>
<g id="a_Node000003"><a xlink:title=" ">
<polygon fill="white" stroke="transparent" points="172.5,-579 91.5,-579 91.5,-530 172.5,-530 172.5,-579"/>
<text text-anchor="start" x="97" y="-566.5" font-family="Helvetica,sans-Serif" font-size="10.00">EbRandomizer</text>
<text text-anchor="start" x="130.5" y="-551.5" font-family="Helvetica,sans-Serif" font-size="10.00"> </text>
<text text-anchor="start" x="130.5" y="-536.5" font-family="Helvetica,sans-Serif" font-size="10.00"> </text>
<polygon fill="#666666" stroke="#666666" points="92,-561.5 92,-561.5 173,-561.5 173,-561.5 92,-561.5"/>
<polygon fill="#666666" stroke="#666666" points="92,-546.5 92,-546.5 173,-546.5 173,-546.5 92,-546.5"/>
<polygon fill="none" stroke="#666666" points="91.5,-530 91.5,-579 172.5,-579 172.5,-530 91.5,-530"/>
</a>
</g>
</g>
<!-- Node3&#45;&gt;Node1 -->
<g id="edge2_Node000001_Node000003" class="edge">
<title>Node3&#45;&gt;Node1</title>
<g id="a_edge2_Node000001_Node000003"><a xlink:title=" ">
<path fill="none" stroke="#63b8ff" d="M128.73,-529.87C127.44,-520.5 125.81,-508.75 123.97,-495.4"/>
<polygon fill="none" stroke="#63b8ff" points="123.93,-495.16 119.15,-489.77 122.29,-483.27 127.07,-488.67 123.93,-495.16"/>
</a>
</g>
<text text-anchor="middle" x="159" y="-504" font-family="Helvetica,sans-Serif" font-size="10.00" fill="grey"> &#45;_randomizer</text>
</g>
</g>
</svg>

<g id="navigator" transform="translate(0 0)" fill="#404254">
  <rect fill="#f2f5e9" fill-opacity="0.5" stroke="#606060" stroke-width=".5" x="0" y="0" width="60" height="60"/>
  <use id="zoomplus" xlink:href="#zoomPlus" x="17" y="9" onmousedown="handleZoom(evt,'in')"/>
  <use id="zoomminus" xlink:href="#zoomMin" x="42" y="9" onmousedown="handleZoom(evt,'out')"/>
  <use id="reset" xlink:href="#resetDef" x="30" y="36" onmousedown="handleReset()"/>
   <use id="arrowup" xlink:href="#arrowUp" x="0" y="0" onmousedown="handlePan(0,-1)"/>
  <use id="arrowright" xlink:href="#arrowRight" x="0" y="0" onmousedown="handlePan(1,0)"/>
  <use id="arrowdown" xlink:href="#arrowDown" x="0" y="0" onmousedown="handlePan(0,1)"/>
  <use id="arrowleft" xlink:href="#arrowLeft" x="0" y="0" onmousedown="handlePan(-1,0)"/>
</g>
<svg viewBox="0 0 15 15" width="100%" height="30px" preserveAspectRatio="xMaxYMin meet">
 <g id="arrow_out" transform="scale(0.3 0.3)">
  <a xlink:href="classEbceys_1_1Infrastructure_1_1UnitTests_1_1Helpers_1_1EbRandomizerTests__coll__graph_org.svg" target="_base">
   <rect id="button" ry="5" rx="5" y="6" x="6" height="38" width="38"
        fill="#f2f5e9" fill-opacity="0.5" stroke="#606060" stroke-width="1.0"/>
   <path id="arrow"
     d="M 11.500037,31.436501 C 11.940474,20.09759 22.043105,11.32322 32.158766,21.979434 L 37.068811,17.246167 C 37.068811,17.246167 37.088388,32 37.088388,32 L 22.160133,31.978069 C 22.160133,31.978069 26.997745,27.140456 26.997745,27.140456 C 18.528582,18.264221 13.291696,25.230495 11.500037,31.436501 z"
     style="fill:#404040;"/>
  </a>
 </g>
</svg>

<style type='text/css'>
<![CDATA[
[data-mouse-over-selected='false'] { opacity: 0.7; }
[data-mouse-over-selected='true']  { opacity: 1.0; }
]]>
</style>
<script type="application/ecmascript"><![CDATA[
document.addEventListener('DOMContentLoaded', (event) => {
  highlightEdges();
  highlightAdjacentNodes();
});
]]></script>
</svg>
