<?xml version="1.0" encoding="UTF-8" standalone="no"?>
<!DOCTYPE svg PUBLIC "-//W3C//DTD SVG 1.1//EN"
 "http://www.w3.org/Graphics/SVG/1.1/DTD/svg11.dtd">
<!-- Generated by graphviz version 2.43.0 (0)
 -->
<!-- Title: Ebceys.Infrastructure.UnitTests.Validators.SimpleRabbitMqConfigurationValidatorTests Pages: 1 -->
<svg width="178pt" height="234pt"
 viewBox="0.00 0.00 178.00 234.00" xmlns="http://www.w3.org/2000/svg" xmlns:xlink="http://www.w3.org/1999/xlink">
<g id="graph0" class="graph" transform="scale(1 1) rotate(0) translate(4 230)">
<title>Ebceys.Infrastructure.UnitTests.Validators.SimpleRabbitMqConfigurationValidatorTests</title>
<!-- Node1 -->
<g id="Node000001" class="node">
<title>Node1</title>
<g id="a_Node000001"><a xlink:title=" ">
<polygon fill="#999999" stroke="transparent" points="170,-130 0,-130 0,0 170,0 170,-130"/>
<text text-anchor="start" x="5" y="-118" font-family="Helvetica,sans-Serif" font-size="10.00">Ebceys.Infrastructure.Unit</text>
<text text-anchor="start" x="5" y="-107" font-family="Helvetica,sans-Serif" font-size="10.00">Tests.Validators.SimpleRabbitMq</text>
<text text-anchor="start" x="18" y="-96" font-family="Helvetica,sans-Serif" font-size="10.00">ConfigurationValidatorTests</text>
<text text-anchor="start" x="83" y="-81" font-family="Helvetica,sans-Serif" font-size="10.00"> </text>
<text text-anchor="start" x="4.5" y="-66" font-family="Helvetica,sans-Serif" font-size="10.00">+</text>
<text text-anchor="start" x="18" y="-66" font-family="Helvetica,sans-Serif" font-size="10.00">When_Validate_With</text>
<text text-anchor="start" x="18" y="-55" font-family="Helvetica,sans-Serif" font-size="10.00">_SpecifiedValidCases</text>
<text text-anchor="start" x="18" y="-44" font-family="Helvetica,sans-Serif" font-size="10.00">_Result_NoException()</text>
<text text-anchor="start" x="4.5" y="-29" font-family="Helvetica,sans-Serif" font-size="10.00">+</text>
<text text-anchor="start" x="18" y="-29" font-family="Helvetica,sans-Serif" font-size="10.00">When_Validate_With</text>
<text text-anchor="start" x="18" y="-18" font-family="Helvetica,sans-Serif" font-size="10.00">_SpecifiedInvalidCases</text>
<text text-anchor="start" x="18" y="-7" font-family="Helvetica,sans-Serif" font-size="10.00">_Result_ValidationException()</text>
<polygon fill="#666666" stroke="#666666" points="0,-91 0,-91 170,-91 170,-91 0,-91"/>
<polygon fill="#666666" stroke="#666666" points="0,-76 0,-76 170,-76 170,-76 0,-76"/>
<polygon fill="none" stroke="#666666" points="0,0 0,-130 170,-130 170,0 0,0"/>
</a>
</g>
</g>
<!-- Node2 -->
<g id="Node000002" class="node">
<title>Node2</title>
<g id="a_Node000002"><a xlink:title=" ">
<polygon fill="white" stroke="transparent" points="125.5,-226 44.5,-226 44.5,-177 125.5,-177 125.5,-226"/>
<text text-anchor="start" x="50" y="-213.5" font-family="Helvetica,sans-Serif" font-size="10.00">EbRandomizer</text>
<text text-anchor="start" x="83.5" y="-198.5" font-family="Helvetica,sans-Serif" font-size="10.00"> </text>
<text text-anchor="start" x="83.5" y="-183.5" font-family="Helvetica,sans-Serif" font-size="10.00"> </text>
<polygon fill="#666666" stroke="#666666" points="45,-208.5 45,-208.5 126,-208.5 126,-208.5 45,-208.5"/>
<polygon fill="#666666" stroke="#666666" points="45,-193.5 45,-193.5 126,-193.5 126,-193.5 45,-193.5"/>
<polygon fill="none" stroke="#666666" points="44.5,-177 44.5,-226 125.5,-226 125.5,-177 44.5,-177"/>
</a>
</g>
</g>
<!-- Node2&#45;&gt;Node1 -->
<g id="edge1_Node000001_Node000002" class="edge">
<title>Node2&#45;&gt;Node1</title>
<g id="a_edge1_Node000001_Node000002"><a xlink:title=" ">
<path fill="none" stroke="#63b8ff" d="M85,-176.76C85,-166.88 85,-154.79 85,-142.28"/>
<polygon fill="none" stroke="#63b8ff" points="85,-142.21 81,-136.21 85,-130.21 89,-136.21 85,-142.21"/>
</a>
</g>
<text text-anchor="middle" x="118" y="-151" font-family="Helvetica,sans-Serif" font-size="10.00" fill="grey"> &#45;Randomizer</text>
</g>
</g>
</svg>
