<?xml version="1.0" encoding="UTF-8" standalone="no"?>
<!DOCTYPE svg PUBLIC "-//W3C//DTD SVG 1.1//EN"
 "http://www.w3.org/Graphics/SVG/1.1/DTD/svg11.dtd">
<!-- Generated by graphviz version 2.43.0 (0)
 -->
<!-- Title: Ebceys.Infrastructure.Tests.ClientTests.AuthClientTests Pages: 1 -->
<!--zoomable 312 -->

<svg id="main" version="1.1" xmlns="http://www.w3.org/2000/svg" xmlns:xlink="http://www.w3.org/1999/xlink" xml:space="preserve" onload="init(evt)">

<style type="text/css"><![CDATA[
.node, .edge {opacity: 0.7;}
.node.selected, .edge.selected {opacity: 1;}
.edge:hover path { stroke: red; }
.edge:hover polygon { stroke: red; fill: red; }
]]></style>

<defs>
  <circle id="rim" cx="0" cy="0" r="7"/>
  <circle id="rim2" cx="0" cy="0" r="3.5"/>
  <g id="zoomPlus">
    <use xlink:href="#rim" fill="#404040"><set attributeName="fill" to="#808080" begin="zoomplus.mouseover" end="zoomplus.mouseout"/></use>
    <path d="M-4,0h8M0,-4v8" fill="none" stroke="white" stroke-width="1.5" pointer-events="none"/>
  </g>
  <g id="zoomMin">
    <use xlink:href="#rim" fill="#404040"><set attributeName="fill" to="#808080" begin="zoomminus.mouseover" end="zoomminus.mouseout"/></use>
    <path d="M-4,0h8" fill="none" stroke="white" stroke-width="1.5" pointer-events="none"/>
  </g>
  <g id="arrowUp" transform="translate(30 24)">
    <use xlink:href="#rim"/>
    <path pointer-events="none" fill="none" stroke="white" stroke-width="1.5" d="M0,-3.0v7 M-2.5,-0.5L0,-3.0L2.5,-0.5"/>
  </g>
  <g id="arrowRight" transform="rotate(90) translate(36 -43)">
    <use xlink:href="#rim"/>
    <path pointer-events="none" fill="none" stroke="white" stroke-width="1.5" d="M0,-3.0v7 M-2.5,-0.5L0,-3.0L2.5,-0.5"/>
  </g>
  <g id="arrowDown" transform="rotate(180) translate(-30 -48)">
    <use xlink:href="#rim"/>
    <path pointer-events="none" fill="none" stroke="white" stroke-width="1.5" d="M0,-3.0v7 M-2.5,-0.5L0,-3.0L2.5,-0.5"/>
  </g>
  <g id="arrowLeft" transform="rotate(270) translate(-36 17)">
    <use xlink:href="#rim"/>
    <path pointer-events="none" fill="none" stroke="white" stroke-width="1.5" d="M0,-3.0v7 M-2.5,-0.5L0,-3.0L2.5,-0.5"/>
  </g>
  <g id="resetDef">
    <use xlink:href="#rim2" fill="#404040"><set attributeName="fill" to="#808080" begin="reset.mouseover" end="reset.mouseout"/></use>
  </g>
</defs>
<script type="application/ecmascript">
var viewWidth = 504;
var viewHeight = 312;
var sectionId = 'dynsection-0';
</script>
<script type="application/ecmascript" xlink:href="svg.min.js"/>
<svg id="graph" class="graph">
<g id="viewport">
<title>Ebceys.Infrastructure.Tests.ClientTests.AuthClientTests</title>
<!-- Node1 -->
<g id="Node000001" class="node">
<title>Node1</title>
<g id="a_Node000001"><a xlink:title=" ">
<polygon fill="#999999" stroke="transparent" points="353,-186 184,-186 184,0 353,0 353,-186"/>
<text text-anchor="start" x="201.5" y="-174" font-family="Helvetica,sans-Serif" font-size="10.00">Ebceys.Infrastructure.Tests.</text>
<text text-anchor="start" x="202.5" y="-163" font-family="Helvetica,sans-Serif" font-size="10.00">ClientTests.AuthClientTests</text>
<text text-anchor="start" x="267" y="-148" font-family="Helvetica,sans-Serif" font-size="10.00"> </text>
<text text-anchor="start" x="188.5" y="-133" font-family="Helvetica,sans-Serif" font-size="10.00">+</text>
<text text-anchor="start" x="201.5" y="-133" font-family="Helvetica,sans-Serif" font-size="10.00">Setup()</text>
<text text-anchor="start" x="188.5" y="-118" font-family="Helvetica,sans-Serif" font-size="10.00">+</text>
<text text-anchor="start" x="201.5" y="-118" font-family="Helvetica,sans-Serif" font-size="10.00">When_GetToken_With</text>
<text text-anchor="start" x="201.5" y="-107" font-family="Helvetica,sans-Serif" font-size="10.00">_AppClient_Result_Ok()</text>
<text text-anchor="start" x="188.5" y="-92" font-family="Helvetica,sans-Serif" font-size="10.00">+</text>
<text text-anchor="start" x="201.5" y="-92" font-family="Helvetica,sans-Serif" font-size="10.00">When_ValidateToken</text>
<text text-anchor="start" x="201.5" y="-81" font-family="Helvetica,sans-Serif" font-size="10.00">_With_GotToken_Result_Ok()</text>
<text text-anchor="start" x="188.5" y="-66" font-family="Helvetica,sans-Serif" font-size="10.00">+</text>
<text text-anchor="start" x="201.5" y="-66" font-family="Helvetica,sans-Serif" font-size="10.00">When_ValidateToken</text>
<text text-anchor="start" x="201.5" y="-55" font-family="Helvetica,sans-Serif" font-size="10.00">_With_RandomToken_Result</text>
<text text-anchor="start" x="201.5" y="-44" font-family="Helvetica,sans-Serif" font-size="10.00">_Forbidden()</text>
<text text-anchor="start" x="188.5" y="-29" font-family="Helvetica,sans-Serif" font-size="10.00">+</text>
<text text-anchor="start" x="201.5" y="-29" font-family="Helvetica,sans-Serif" font-size="10.00">When_ValidateAuth_With</text>
<text text-anchor="start" x="201.5" y="-18" font-family="Helvetica,sans-Serif" font-size="10.00">_TokenAndWithout_Result</text>
<text text-anchor="start" x="201.5" y="-7" font-family="Helvetica,sans-Serif" font-size="10.00">_FirstUnauthorizedSecondOk()</text>
<polygon fill="#666666" stroke="#666666" points="184.5,-158 184.5,-158 353.5,-158 353.5,-158 184.5,-158"/>
<polygon fill="#666666" stroke="#666666" points="184.5,-143 184.5,-143 353.5,-143 353.5,-143 184.5,-143"/>
<polygon fill="none" stroke="#666666" points="184,0 184,-186 353,-186 353,0 184,0"/>
</a>
</g>
</g>
<!-- Node2 -->
<g id="Node000002" class="node">
<title>Node2</title>
<g id="a_Node000002"><a xlink:title=" ">
<polygon fill="white" stroke="transparent" points="157,-293 0,-293 0,-244 157,-244 157,-293"/>
<text text-anchor="start" x="5.5" y="-280.5" font-family="Helvetica,sans-Serif" font-size="10.00">static readonly EbRandomizer</text>
<text text-anchor="start" x="77" y="-265.5" font-family="Helvetica,sans-Serif" font-size="10.00"> </text>
<text text-anchor="start" x="77" y="-250.5" font-family="Helvetica,sans-Serif" font-size="10.00"> </text>
<polygon fill="#666666" stroke="#666666" points="0.5,-275.5 0.5,-275.5 157.5,-275.5 157.5,-275.5 0.5,-275.5"/>
<polygon fill="#666666" stroke="#666666" points="0.5,-260.5 0.5,-260.5 157.5,-260.5 157.5,-260.5 0.5,-260.5"/>
<polygon fill="none" stroke="#666666" points="0,-244 0,-293 157,-293 157,-244 0,-244"/>
</a>
</g>
</g>
<!-- Node2&#45;&gt;Node1 -->
<g id="edge1_Node000001_Node000002" class="edge">
<title>Node2&#45;&gt;Node1</title>
<g id="a_edge1_Node000001_Node000002"><a xlink:title=" ">
<path fill="none" stroke="#63b8ff" d="M104.52,-243.74C122.98,-226.89 148.97,-203.15 174.83,-179.54"/>
<polygon fill="none" stroke="#63b8ff" points="175.09,-179.29 176.83,-172.29 183.96,-171.2 182.22,-178.2 175.09,-179.29"/>
</a>
</g>
<text text-anchor="middle" x="178.5" y="-207" font-family="Helvetica,sans-Serif" font-size="10.00" fill="grey"> &#45;Randomizer</text>
</g>
<!-- Node3 -->
<g id="Node000003" class="node">
<title>Node3</title>
<g id="a_Node000003"><a xlink:href="interfaceEbceys_1_1Infrastructure_1_1TestApplication_1_1Client_1_1Implementations_1_1ITestApplicationClient.html" target="_top" xlink:title=" ">
<polygon fill="white" stroke="transparent" points="361.5,-304 175.5,-304 175.5,-233 361.5,-233 361.5,-304"/>
<text text-anchor="start" x="180.5" y="-291.5" font-family="Helvetica,sans-Serif" font-size="10.00">Ebceys.Infrastructure.Test</text>
<text text-anchor="start" x="180.5" y="-280.5" font-family="Helvetica,sans-Serif" font-size="10.00">Application.Client.Implementations.</text>
<text text-anchor="start" x="215.5" y="-269.5" font-family="Helvetica,sans-Serif" font-size="10.00">ITestApplicationClient</text>
<text text-anchor="start" x="208.5" y="-254.5" font-family="Helvetica,sans-Serif" font-size="10.00">+</text>
<text text-anchor="start" x="250.5" y="-254.5" font-family="Helvetica,sans-Serif" font-size="10.00">TestClient</text>
<text text-anchor="start" x="266.5" y="-239.5" font-family="Helvetica,sans-Serif" font-size="10.00"> </text>
<polygon fill="#666666" stroke="#666666" points="175.5,-264.5 175.5,-264.5 361.5,-264.5 361.5,-264.5 175.5,-264.5"/>
<polygon fill="#666666" stroke="#666666" points="175.5,-249.5 175.5,-249.5 248.5,-249.5 248.5,-249.5 175.5,-249.5"/>
<polygon fill="#666666" stroke="#666666" points="248.5,-249.5 248.5,-249.5 361.5,-249.5 361.5,-249.5 248.5,-249.5"/>
<polygon fill="none" stroke="#666666" points="175.5,-233 175.5,-304 361.5,-304 361.5,-233 175.5,-233"/>
</a>
</g>
</g>
<!-- Node3&#45;&gt;Node1 -->
<g id="edge2_Node000001_Node000003" class="edge">
<title>Node3&#45;&gt;Node1</title>
<g id="a_edge2_Node000001_Node000003"><a xlink:title=" ">
<path fill="none" stroke="#63b8ff" d="M268.5,-232.81C268.5,-222.46 268.5,-210.56 268.5,-198.15"/>
<polygon fill="none" stroke="#63b8ff" points="268.5,-198.15 264.5,-192.15 268.5,-186.15 272.5,-192.15 268.5,-198.15"/>
</a>
</g>
<text text-anchor="middle" x="288.5" y="-207" font-family="Helvetica,sans-Serif" font-size="10.00" fill="grey"> &#45;_client</text>
</g>
<!-- Node4 -->
<g id="Node000004" class="node">
<title>Node4</title>
<g id="a_Node000004"><a xlink:title=" ">
<polygon fill="white" stroke="transparent" points="495.5,-293 379.5,-293 379.5,-244 495.5,-244 495.5,-293"/>
<text text-anchor="start" x="384.5" y="-280.5" font-family="Helvetica,sans-Serif" font-size="10.00">AppTestClientContext</text>
<text text-anchor="start" x="435.5" y="-265.5" font-family="Helvetica,sans-Serif" font-size="10.00"> </text>
<text text-anchor="start" x="435.5" y="-250.5" font-family="Helvetica,sans-Serif" font-size="10.00"> </text>
<polygon fill="#666666" stroke="#666666" points="379.5,-275.5 379.5,-275.5 495.5,-275.5 495.5,-275.5 379.5,-275.5"/>
<polygon fill="#666666" stroke="#666666" points="379.5,-260.5 379.5,-260.5 495.5,-260.5 495.5,-260.5 379.5,-260.5"/>
<polygon fill="none" stroke="#666666" points="379.5,-244 379.5,-293 495.5,-293 495.5,-244 379.5,-244"/>
</a>
</g>
</g>
<!-- Node4&#45;&gt;Node1 -->
<g id="edge3_Node000001_Node000004" class="edge">
<title>Node4&#45;&gt;Node1</title>
<g id="a_edge3_Node000001_Node000004"><a xlink:title=" ">
<path fill="none" stroke="#63b8ff" d="M414.36,-243.74C400.28,-229.28 381.27,-209.77 361.63,-189.61"/>
<polygon fill="none" stroke="#63b8ff" points="361.56,-189.53 354.5,-188.03 353.18,-180.94 360.24,-182.45 361.56,-189.53"/>
</a>
</g>
<text text-anchor="middle" x="407" y="-207" font-family="Helvetica,sans-Serif" font-size="10.00" fill="grey"> &#45;_context</text>
</g>
</g>
</svg>

<g id="navigator" transform="translate(0 0)" fill="#404254">
  <rect fill="#f2f5e9" fill-opacity="0.5" stroke="#606060" stroke-width=".5" x="0" y="0" width="60" height="60"/>
  <use id="zoomplus" xlink:href="#zoomPlus" x="17" y="9" onmousedown="handleZoom(evt,'in')"/>
  <use id="zoomminus" xlink:href="#zoomMin" x="42" y="9" onmousedown="handleZoom(evt,'out')"/>
  <use id="reset" xlink:href="#resetDef" x="30" y="36" onmousedown="handleReset()"/>
   <use id="arrowup" xlink:href="#arrowUp" x="0" y="0" onmousedown="handlePan(0,-1)"/>
  <use id="arrowright" xlink:href="#arrowRight" x="0" y="0" onmousedown="handlePan(1,0)"/>
  <use id="arrowdown" xlink:href="#arrowDown" x="0" y="0" onmousedown="handlePan(0,1)"/>
  <use id="arrowleft" xlink:href="#arrowLeft" x="0" y="0" onmousedown="handlePan(-1,0)"/>
</g>
<svg viewBox="0 0 15 15" width="100%" height="30px" preserveAspectRatio="xMaxYMin meet">
 <g id="arrow_out" transform="scale(0.3 0.3)">
  <a xlink:href="classEbceys_1_1Infrastructure_1_1Tests_1_1ClientTests_1_1AuthClientTests__coll__graph_org.svg" target="_base">
   <rect id="button" ry="5" rx="5" y="6" x="6" height="38" width="38"
        fill="#f2f5e9" fill-opacity="0.5" stroke="#606060" stroke-width="1.0"/>
   <path id="arrow"
     d="M 11.500037,31.436501 C 11.940474,20.09759 22.043105,11.32322 32.158766,21.979434 L 37.068811,17.246167 C 37.068811,17.246167 37.088388,32 37.088388,32 L 22.160133,31.978069 C 22.160133,31.978069 26.997745,27.140456 26.997745,27.140456 C 18.528582,18.264221 13.291696,25.230495 11.500037,31.436501 z"
     style="fill:#404040;"/>
  </a>
 </g>
</svg>

<style type='text/css'>
<![CDATA[
[data-mouse-over-selected='false'] { opacity: 0.7; }
[data-mouse-over-selected='true']  { opacity: 1.0; }
]]>
</style>
<script type="application/ecmascript"><![CDATA[
document.addEventListener('DOMContentLoaded', (event) => {
  highlightEdges();
  highlightAdjacentNodes();
});
]]></script>
</svg>
