<?xml version="1.0" encoding="UTF-8" standalone="no"?>
<!DOCTYPE svg PUBLIC "-//W3C//DTD SVG 1.1//EN"
 "http://www.w3.org/Graphics/SVG/1.1/DTD/svg11.dtd">
<!-- Generated by graphviz version 2.43.0 (0)
 -->
<!-- Title: Ebceys.Infrastructure.Extensions.EbServerExtensions Pages: 1 -->
<svg width="181pt" height="190pt"
 viewBox="0.00 0.00 181.00 190.00" xmlns="http://www.w3.org/2000/svg" xmlns:xlink="http://www.w3.org/1999/xlink">
<g id="graph0" class="graph" transform="scale(1 1) rotate(0) translate(4 186)">
<title>Ebceys.Infrastructure.Extensions.EbServerExtensions</title>
<!-- Node1 -->
<g id="Node000001" class="node">
<title>Node1</title>
<g id="a_Node000001"><a xlink:title="The EbServerExtensions class.">
<polygon fill="#999999" stroke="transparent" points="173,-75 0,-75 0,0 173,0 173,-75"/>
<text text-anchor="start" x="5.5" y="-62.5" font-family="Helvetica,sans-Serif" font-size="10.00">Ebceys.Infrastructure.Extensions.</text>
<text text-anchor="start" x="38.5" y="-51.5" font-family="Helvetica,sans-Serif" font-size="10.00">EbServerExtensions</text>
<text text-anchor="start" x="85" y="-36.5" font-family="Helvetica,sans-Serif" font-size="10.00"> </text>
<text text-anchor="start" x="29.5" y="-21.5" font-family="Helvetica,sans-Serif" font-size="10.00">&#45;</text>
<text text-anchor="start" x="62.5" y="-21.5" font-family="Helvetica,sans-Serif" font-size="10.00">extension()</text>
<text text-anchor="start" x="29.5" y="-6.5" font-family="Helvetica,sans-Serif" font-size="10.00">&#45;</text>
<text text-anchor="start" x="62.5" y="-6.5" font-family="Helvetica,sans-Serif" font-size="10.00">extension()</text>
<polygon fill="#666666" stroke="#666666" points="0.5,-46.5 0.5,-46.5 173.5,-46.5 173.5,-46.5 0.5,-46.5"/>
<polygon fill="#666666" stroke="#666666" points="0.5,-31.5 0.5,-31.5 173.5,-31.5 173.5,-31.5 0.5,-31.5"/>
<polygon fill="none" stroke="#666666" points="0,0 0,-75 173,-75 173,0 0,0"/>
</a>
</g>
</g>
<!-- Node2 -->
<g id="Node000002" class="node">
<title>Node2</title>
<g id="a_Node000002"><a xlink:title=" ">
<polygon fill="white" stroke="transparent" points="155,-182 18,-182 18,-122 155,-122 155,-182"/>
<text text-anchor="start" x="23.5" y="-170" font-family="Helvetica,sans-Serif" font-size="10.00">static readonly Dictionary</text>
<text text-anchor="start" x="52" y="-159" font-family="Helvetica,sans-Serif" font-size="10.00">&lt; int, string &gt;</text>
<text text-anchor="start" x="85" y="-144" font-family="Helvetica,sans-Serif" font-size="10.00"> </text>
<text text-anchor="start" x="85" y="-129" font-family="Helvetica,sans-Serif" font-size="10.00"> </text>
<polygon fill="#666666" stroke="#666666" points="18.5,-154 18.5,-154 155.5,-154 155.5,-154 18.5,-154"/>
<polygon fill="#666666" stroke="#666666" points="18.5,-139 18.5,-139 155.5,-139 155.5,-139 18.5,-139"/>
<polygon fill="none" stroke="#666666" points="18,-122 18,-182 155,-182 155,-122 18,-122"/>
</a>
</g>
</g>
<!-- Node2&#45;&gt;Node1 -->
<g id="edge1_Node000001_Node000002" class="edge">
<title>Node2&#45;&gt;Node1</title>
<g id="a_edge1_Node000001_Node000002"><a xlink:title=" ">
<path fill="none" stroke="#63b8ff" d="M86.5,-121.74C86.5,-111.31 86.5,-99.27 86.5,-87.64"/>
<polygon fill="none" stroke="#63b8ff" points="86.5,-87.28 82.5,-81.28 86.5,-75.28 90.5,-81.28 86.5,-87.28"/>
</a>
</g>
<text text-anchor="middle" x="120.5" y="-96" font-family="Helvetica,sans-Serif" font-size="10.00" fill="grey"> &#45;StatusCodes</text>
</g>
</g>
</svg>
