<?xml version="1.0" encoding="UTF-8" standalone="no"?>
<!DOCTYPE svg PUBLIC "-//W3C//DTD SVG 1.1//EN"
 "http://www.w3.org/Graphics/SVG/1.1/DTD/svg11.dtd">
<!-- Generated by graphviz version 2.43.0 (0)
 -->
<!-- Title: WebApplicationFactory Pages: 1 -->
<svg width="213pt" height="284pt"
 viewBox="0.00 0.00 213.00 284.00" xmlns="http://www.w3.org/2000/svg" xmlns:xlink="http://www.w3.org/1999/xlink">

<svg id="main" version="1.1" xmlns="http://www.w3.org/2000/svg" xmlns:xlink="http://www.w3.org/1999/xlink" xml:space="preserve">

<style type="text/css"><![CDATA[
.node, .edge {opacity: 0.7;}
.node.selected, .edge.selected {opacity: 1;}
.edge:hover path { stroke: red; }
.edge:hover polygon { stroke: red; fill: red; }
]]></style>
<script type="application/ecmascript" xlink:href="svg.min.js"/>
<svg id="graph" class="graph">
<g id="graph0" class="graph" transform="scale(1 1) rotate(0) translate(4 280)">
<title>WebApplicationFactory</title>
<!-- Node1 -->
<g id="Node000001" class="node">
<title>Node1</title>
<g id="a_Node000001"><a xlink:title=" ">
<polygon fill="#999999" stroke="transparent" points="163.5,-276 41.5,-276 41.5,-227 163.5,-227 163.5,-276"/>
<text text-anchor="start" x="46.5" y="-263.5" font-family="Helvetica,sans-Serif" font-size="10.00">WebApplicationFactory</text>
<text text-anchor="start" x="100.5" y="-248.5" font-family="Helvetica,sans-Serif" font-size="10.00"> </text>
<text text-anchor="start" x="100.5" y="-233.5" font-family="Helvetica,sans-Serif" font-size="10.00"> </text>
<polygon fill="#666666" stroke="#666666" points="41.5,-258.5 41.5,-258.5 163.5,-258.5 163.5,-258.5 41.5,-258.5"/>
<polygon fill="#666666" stroke="#666666" points="41.5,-243.5 41.5,-243.5 163.5,-243.5 163.5,-243.5 41.5,-243.5"/>
<polygon fill="none" stroke="#666666" points="41.5,-227 41.5,-276 163.5,-276 163.5,-227 41.5,-227"/>
</a>
</g>
</g>
<!-- Node2 -->
<g id="Node000002" class="node">
<title>Node2</title>
<g id="a_Node000002"><a xlink:href="classEbceys_1_1Tests_1_1Infrastructure_1_1IntegrationTests_1_1WebApplication_1_1TestWebApplicationFactory-1-g.html" target="_top" xlink:title="The TestWebApplicationFactory&lt;TStartup&gt; class.">
<polygon fill="white" stroke="transparent" points="205,-191 0,-191 0,0 205,0 205,-191"/>
<text text-anchor="start" x="5.5" y="-178.5" font-family="Helvetica,sans-Serif" font-size="10.00">Ebceys.Tests.Infrastructure.</text>
<text text-anchor="start" x="5.5" y="-167.5" font-family="Helvetica,sans-Serif" font-size="10.00">IntegrationTests.WebApplication.</text>
<text text-anchor="start" x="5.5" y="-156.5" font-family="Helvetica,sans-Serif" font-size="10.00">TestWebApplicationFactory&lt; TStartup &gt;</text>
<text text-anchor="start" x="18" y="-141.5" font-family="Helvetica,sans-Serif" font-size="10.00">+</text>
<text text-anchor="start" x="44.5" y="-141.5" font-family="Helvetica,sans-Serif" font-size="10.00">BaseAddress</text>
<text text-anchor="start" x="18" y="-126.5" font-family="Helvetica,sans-Serif" font-size="10.00">+</text>
<text text-anchor="start" x="44.5" y="-126.5" font-family="Helvetica,sans-Serif" font-size="10.00">ServiceId</text>
<text text-anchor="start" x="18" y="-111.5" font-family="Helvetica,sans-Serif" font-size="10.00">+</text>
<text text-anchor="start" x="44.5" y="-111.5" font-family="Helvetica,sans-Serif" font-size="10.00">UseProductionAppSettings</text>
<text text-anchor="start" x="18" y="-96.5" font-family="Helvetica,sans-Serif" font-size="10.00">#</text>
<text text-anchor="start" x="44.5" y="-96.5" font-family="Helvetica,sans-Serif" font-size="10.00">ConfigureWebHost()</text>
<text text-anchor="start" x="18" y="-81.5" font-family="Helvetica,sans-Serif" font-size="10.00">#</text>
<text text-anchor="start" x="44.5" y="-81.5" font-family="Helvetica,sans-Serif" font-size="10.00">CreateWebHostBuilder()</text>
<text text-anchor="start" x="18" y="-66.5" font-family="Helvetica,sans-Serif" font-size="10.00">#</text>
<text text-anchor="start" x="44.5" y="-66.5" font-family="Helvetica,sans-Serif" font-size="10.00">CreateServer()</text>
<text text-anchor="start" x="18" y="-51.5" font-family="Helvetica,sans-Serif" font-size="10.00">#</text>
<text text-anchor="start" x="44.5" y="-51.5" font-family="Helvetica,sans-Serif" font-size="10.00">CreateHost()</text>
<text text-anchor="start" x="18" y="-36.5" font-family="Helvetica,sans-Serif" font-size="10.00">#</text>
<text text-anchor="start" x="44.5" y="-36.5" font-family="Helvetica,sans-Serif" font-size="10.00">SetConfiguration()</text>
<text text-anchor="start" x="18" y="-21.5" font-family="Helvetica,sans-Serif" font-size="10.00">#</text>
<text text-anchor="start" x="44.5" y="-21.5" font-family="Helvetica,sans-Serif" font-size="10.00">ConfigureTestServices()</text>
<text text-anchor="start" x="20.5" y="-6.5" font-family="Helvetica,sans-Serif" font-size="10.00">&#45;</text>
<text text-anchor="start" x="44.5" y="-6.5" font-family="Helvetica,sans-Serif" font-size="10.00">CreateWebHostBuilder()</text>
<polygon fill="#666666" stroke="#666666" points="0.5,-151.5 0.5,-151.5 205.5,-151.5 205.5,-151.5 0.5,-151.5"/>
<polygon fill="#666666" stroke="#666666" points="0.5,-106.5 0.5,-106.5 42.5,-106.5 42.5,-106.5 0.5,-106.5"/>
<polygon fill="#666666" stroke="#666666" points="42.5,-106.5 42.5,-106.5 205.5,-106.5 205.5,-106.5 42.5,-106.5"/>
<polygon fill="none" stroke="#666666" points="0,0 0,-191 205,-191 205,0 0,0"/>
</a>
</g>
</g>
<!-- Node1&#45;&gt;Node2 -->
<g id="edge1_Node000001_Node000002" class="edge">
<title>Node1&#45;&gt;Node2</title>
<g id="a_edge1_Node000001_Node000002"><a xlink:title=" ">
<path fill="none" stroke="#63b8ff" d="M102.5,-216.72C102.5,-208.91 102.5,-200.22 102.5,-191.19"/>
<polygon fill="none" stroke="#63b8ff" points="99,-216.77 102.5,-226.77 106,-216.78 99,-216.77"/>
</a>
</g>
</g>
</g>
</svg>
</svg>

<style type='text/css'>
<![CDATA[
[data-mouse-over-selected='false'] { opacity: 0.7; }
[data-mouse-over-selected='true']  { opacity: 1.0; }
]]>
</style>
<script type="application/ecmascript"><![CDATA[
document.addEventListener('DOMContentLoaded', (event) => {
  highlightEdges();
  highlightAdjacentNodes();
});
]]></script>
</svg>
