<?xml version="1.0" encoding="UTF-8" standalone="no"?>
<!DOCTYPE svg PUBLIC "-//W3C//DTD SVG 1.1//EN"
 "http://www.w3.org/Graphics/SVG/1.1/DTD/svg11.dtd">
<!-- Generated by graphviz version 2.43.0 (0)
 -->
<!-- Title: Ebceys.Tests.Infrastructure.IntegrationTests.TestRoutingMessageHandler.SendAsync Pages: 1 -->
<svg width="440pt" height="67pt"
 viewBox="0.00 0.00 440.00 67.00" xmlns="http://www.w3.org/2000/svg" xmlns:xlink="http://www.w3.org/1999/xlink">
<g id="graph0" class="graph" transform="scale(1 1) rotate(0) translate(4 63)">
<title>Ebceys.Tests.Infrastructure.IntegrationTests.TestRoutingMessageHandler.SendAsync</title>
<!-- Node1 -->
<g id="Node000001" class="node">
<title>Node1</title>
<g id="a_Node000001"><a xlink:title=" ">
<polygon fill="#999999" stroke="#666666" points="432,-41 234,-41 234,0 432,0 432,-41"/>
<text text-anchor="start" x="242" y="-29" font-family="Helvetica,sans-Serif" font-size="10.00">Ebceys.Tests.Infrastructure.</text>
<text text-anchor="start" x="242" y="-18" font-family="Helvetica,sans-Serif" font-size="10.00">IntegrationTests.TestRoutingMessage</text>
<text text-anchor="middle" x="333" y="-7" font-family="Helvetica,sans-Serif" font-size="10.00">Handler.SendAsync</text>
</a>
</g>
</g>
<!-- Node2 -->
<g id="Node000002" class="node">
<title>Node2</title>
<g id="a_Node000002"><a xlink:href="classEbceys_1_1Tests_1_1Infrastructure_1_1IntegrationTests_1_1TestRoutingMessageHandler.html#a8143f8d8a072418d1151a9c0321d11fc" target="_top" xlink:title=" ">
<polygon fill="white" stroke="#666666" points="198,-41 0,-41 0,0 198,0 198,-41"/>
<text text-anchor="start" x="8" y="-29" font-family="Helvetica,sans-Serif" font-size="10.00">Ebceys.Tests.Infrastructure.</text>
<text text-anchor="start" x="8" y="-18" font-family="Helvetica,sans-Serif" font-size="10.00">IntegrationTests.TestRoutingMessage</text>
<text text-anchor="middle" x="99" y="-7" font-family="Helvetica,sans-Serif" font-size="10.00">Handler.HostHandler</text>
</a>
</g>
</g>
<!-- Node1&#45;&gt;Node2 -->
<g id="edge1_Node000001_Node000002" class="edge">
<title>Node1&#45;&gt;Node2</title>
<g id="a_edge1_Node000001_Node000002"><a xlink:title=" ">
<path fill="none" stroke="#63b8ff" d="M223.88,-13.76C215.27,-13.73 206.61,-13.75 198.07,-13.82"/>
<polygon fill="#63b8ff" stroke="#63b8ff" points="223.93,-17.26 233.95,-13.82 223.97,-10.26 223.93,-17.26"/>
</a>
</g>
</g>
<!-- Node2&#45;&gt;Node1 -->
<g id="edge3_Node000002_Node000001" class="edge">
<title>Node2&#45;&gt;Node1</title>
<g id="a_edge3_Node000002_Node000001"><a xlink:title=" ">
<path fill="none" stroke="#63b8ff" d="M208.14,-27.24C216.75,-27.27 225.41,-27.25 233.95,-27.18"/>
<polygon fill="#63b8ff" stroke="#63b8ff" points="208.09,-23.74 198.07,-27.18 208.05,-30.74 208.09,-23.74"/>
</a>
</g>
</g>
<!-- Node2&#45;&gt;Node2 -->
<g id="edge2_Node000002_Node000002" class="edge">
<title>Node2&#45;&gt;Node2</title>
<g id="a_edge2_Node000002_Node000002"><a xlink:title=" ">
<path fill="none" stroke="#63b8ff" d="M139.26,-50.96C133.27,-55.74 119.85,-59 99,-59 65.64,-59 51.3,-50.65 55.99,-41.1"/>
<polygon fill="#63b8ff" stroke="#63b8ff" points="142.69,-51.67 142.01,-41.1 135.95,-49.79 142.69,-51.67"/>
</a>
</g>
</g>
</g>
</svg>
