<?xml version="1.0" encoding="UTF-8" standalone="no"?>
<!DOCTYPE svg PUBLIC "-//W3C//DTD SVG 1.1//EN"
 "http://www.w3.org/Graphics/SVG/1.1/DTD/svg11.dtd">
<!-- Generated by graphviz version 2.43.0 (0)
 -->
<!-- Title: Ebceys.Infrastructure.AuthorizationTestApplication.BoundedContext.RoutesDictionary.AuthControllerV1.Methods Pages: 1 -->
<svg width="214pt" height="197pt"
 viewBox="0.00 0.00 214.00 197.00" xmlns="http://www.w3.org/2000/svg" xmlns:xlink="http://www.w3.org/1999/xlink">
<g id="graph0" class="graph" transform="scale(1 1) rotate(0) translate(4 193)">
<title>Ebceys.Infrastructure.AuthorizationTestApplication.BoundedContext.RoutesDictionary.AuthControllerV1.Methods</title>
<!-- Node1 -->
<g id="Node000001" class="node">
<title>Node1</title>
<g id="a_Node000001"><a xlink:title=" ">
<polygon fill="#999999" stroke="transparent" points="206,-71 0,-71 0,0 206,0 206,-71"/>
<text text-anchor="start" x="5" y="-58.5" font-family="Helvetica,sans-Serif" font-size="10.00">Ebceys.Infrastructure.Authorization</text>
<text text-anchor="start" x="5" y="-47.5" font-family="Helvetica,sans-Serif" font-size="10.00">TestApplication.BoundedContext.Routes</text>
<text text-anchor="start" x="12.5" y="-36.5" font-family="Helvetica,sans-Serif" font-size="10.00">Dictionary.AuthControllerV1.Methods</text>
<text text-anchor="start" x="101" y="-21.5" font-family="Helvetica,sans-Serif" font-size="10.00"> </text>
<text text-anchor="start" x="101" y="-6.5" font-family="Helvetica,sans-Serif" font-size="10.00"> </text>
<polygon fill="#666666" stroke="#666666" points="0,-31.5 0,-31.5 206,-31.5 206,-31.5 0,-31.5"/>
<polygon fill="#666666" stroke="#666666" points="0,-16.5 0,-16.5 206,-16.5 206,-16.5 0,-16.5"/>
<polygon fill="none" stroke="#666666" points="0,0 0,-71 206,-71 206,0 0,0"/>
</a>
</g>
</g>
<!-- Node2 -->
<g id="Node000002" class="node">
<title>Node2</title>
<g id="a_Node000002"><a xlink:title=" ">
<polygon fill="white" stroke="transparent" points="137,-189 69,-189 69,-140 137,-140 137,-189"/>
<text text-anchor="start" x="74" y="-176.5" font-family="Helvetica,sans-Serif" font-size="10.00">const string</text>
<text text-anchor="start" x="101" y="-161.5" font-family="Helvetica,sans-Serif" font-size="10.00"> </text>
<text text-anchor="start" x="101" y="-146.5" font-family="Helvetica,sans-Serif" font-size="10.00"> </text>
<polygon fill="#666666" stroke="#666666" points="69,-171.5 69,-171.5 137,-171.5 137,-171.5 69,-171.5"/>
<polygon fill="#666666" stroke="#666666" points="69,-156.5 69,-156.5 137,-156.5 137,-156.5 69,-156.5"/>
<polygon fill="none" stroke="#666666" points="69,-140 69,-189 137,-189 137,-140 69,-140"/>
</a>
</g>
</g>
<!-- Node2&#45;&gt;Node1 -->
<g id="edge1_Node000001_Node000002" class="edge">
<title>Node2&#45;&gt;Node1</title>
<g id="a_edge1_Node000001_Node000002"><a xlink:title=" ">
<path fill="none" stroke="#63b8ff" d="M103,-139.91C103,-124.14 103,-102.85 103,-83.68"/>
<polygon fill="none" stroke="#63b8ff" points="103,-83.47 99,-77.47 103,-71.47 107,-77.47 103,-83.47"/>
</a>
</g>
<text text-anchor="middle" x="141" y="-114" font-family="Helvetica,sans-Serif" font-size="10.00" fill="grey"> +GetToken</text>
<text text-anchor="middle" x="141" y="-103" font-family="Helvetica,sans-Serif" font-size="10.00" fill="grey">+ValidateAuth</text>
<text text-anchor="middle" x="141" y="-92" font-family="Helvetica,sans-Serif" font-size="10.00" fill="grey">+ValidateToken</text>
</g>
</g>
</svg>
