<?xml version="1.0" encoding="UTF-8" standalone="no"?>
<!DOCTYPE svg PUBLIC "-//W3C//DTD SVG 1.1//EN"
 "http://www.w3.org/Graphics/SVG/1.1/DTD/svg11.dtd">
<!-- Generated by graphviz version 2.43.0 (0)
 -->
<!-- Title: Ebceys.Infrastructure.UnitTests.Validators.ClientConfigurationValidatorTests Pages: 1 -->
<svg width="281pt" height="346pt"
 viewBox="0.00 0.00 281.00 346.00" xmlns="http://www.w3.org/2000/svg" xmlns:xlink="http://www.w3.org/1999/xlink">
<g id="graph0" class="graph" transform="scale(1 1) rotate(0) translate(4 342)">
<title>Ebceys.Infrastructure.UnitTests.Validators.ClientConfigurationValidatorTests</title>
<!-- Node1 -->
<g id="Node000001" class="node">
<title>Node1</title>
<g id="a_Node000001"><a xlink:title=" ">
<polygon fill="#999999" stroke="transparent" points="184,-134 0,-134 0,0 184,0 184,-134"/>
<text text-anchor="start" x="5" y="-122" font-family="Helvetica,sans-Serif" font-size="10.00">Ebceys.Infrastructure.Unit</text>
<text text-anchor="start" x="5" y="-111" font-family="Helvetica,sans-Serif" font-size="10.00">Tests.Validators.ClientConfiguration</text>
<text text-anchor="start" x="57.5" y="-100" font-family="Helvetica,sans-Serif" font-size="10.00">ValidatorTests</text>
<text text-anchor="start" x="90" y="-85" font-family="Helvetica,sans-Serif" font-size="10.00"> </text>
<text text-anchor="start" x="6" y="-70" font-family="Helvetica,sans-Serif" font-size="10.00">+</text>
<text text-anchor="start" x="21" y="-70" font-family="Helvetica,sans-Serif" font-size="10.00">Setup()</text>
<text text-anchor="start" x="6" y="-55" font-family="Helvetica,sans-Serif" font-size="10.00">+</text>
<text text-anchor="start" x="21" y="-55" font-family="Helvetica,sans-Serif" font-size="10.00">When_Validate_With</text>
<text text-anchor="start" x="21" y="-44" font-family="Helvetica,sans-Serif" font-size="10.00">_ValidCase_Result_NotThrows()</text>
<text text-anchor="start" x="6" y="-29" font-family="Helvetica,sans-Serif" font-size="10.00">+</text>
<text text-anchor="start" x="21" y="-29" font-family="Helvetica,sans-Serif" font-size="10.00">When_Validate_With</text>
<text text-anchor="start" x="21" y="-18" font-family="Helvetica,sans-Serif" font-size="10.00">_InvalidCase_Result</text>
<text text-anchor="start" x="21" y="-7" font-family="Helvetica,sans-Serif" font-size="10.00">_NotThrows()</text>
<polygon fill="#666666" stroke="#666666" points="0,-95 0,-95 184,-95 184,-95 0,-95"/>
<polygon fill="#666666" stroke="#666666" points="0,-80 0,-80 184,-80 184,-80 0,-80"/>
<polygon fill="none" stroke="#666666" points="0,0 0,-134 184,-134 184,0 0,0"/>
</a>
</g>
</g>
<!-- Node2 -->
<g id="Node000002" class="node">
<title>Node2</title>
<g id="a_Node000002"><a xlink:title=" ">
<polygon fill="white" stroke="transparent" points="88.5,-241 7.5,-241 7.5,-192 88.5,-192 88.5,-241"/>
<text text-anchor="start" x="13" y="-228.5" font-family="Helvetica,sans-Serif" font-size="10.00">EbRandomizer</text>
<text text-anchor="start" x="46.5" y="-213.5" font-family="Helvetica,sans-Serif" font-size="10.00"> </text>
<text text-anchor="start" x="46.5" y="-198.5" font-family="Helvetica,sans-Serif" font-size="10.00"> </text>
<polygon fill="#666666" stroke="#666666" points="8,-223.5 8,-223.5 89,-223.5 89,-223.5 8,-223.5"/>
<polygon fill="#666666" stroke="#666666" points="8,-208.5 8,-208.5 89,-208.5 89,-208.5 8,-208.5"/>
<polygon fill="none" stroke="#666666" points="7.5,-192 7.5,-241 88.5,-241 88.5,-192 7.5,-192"/>
</a>
</g>
</g>
<!-- Node2&#45;&gt;Node1 -->
<g id="edge1_Node000001_Node000002" class="edge">
<title>Node2&#45;&gt;Node1</title>
<g id="a_edge1_Node000001_Node000002"><a xlink:title=" ">
<path fill="none" stroke="#63b8ff" d="M55.07,-191.8C58.86,-179.1 63.77,-162.64 68.76,-145.9"/>
<polygon fill="none" stroke="#63b8ff" points="68.79,-145.81 66.67,-138.91 72.22,-134.31 74.34,-141.2 68.79,-145.81"/>
</a>
</g>
<text text-anchor="middle" x="100" y="-155" font-family="Helvetica,sans-Serif" font-size="10.00" fill="grey"> &#45;Randomizer</text>
</g>
<!-- Node3 -->
<g id="Node000003" class="node">
<title>Node3</title>
<g id="a_Node000003"><a xlink:title=" ">
<polygon fill="white" stroke="transparent" points="273,-252 107,-252 107,-181 273,-181 273,-252"/>
<text text-anchor="start" x="114.5" y="-239.5" font-family="Helvetica,sans-Serif" font-size="10.00">Ebceys.Infrastructure.Http</text>
<text text-anchor="start" x="114.5" y="-228.5" font-family="Helvetica,sans-Serif" font-size="10.00">Client.ClientRegistration.Client</text>
<text text-anchor="start" x="135.5" y="-217.5" font-family="Helvetica,sans-Serif" font-size="10.00">ConfigurationValidator</text>
<text text-anchor="start" x="188" y="-202.5" font-family="Helvetica,sans-Serif" font-size="10.00"> </text>
<text text-anchor="start" x="111" y="-187.5" font-family="Helvetica,sans-Serif" font-size="10.00">+</text>
<text text-anchor="start" x="124" y="-187.5" font-family="Helvetica,sans-Serif" font-size="10.00">ClientConfigurationValidator()</text>
<polygon fill="#666666" stroke="#666666" points="107,-212.5 107,-212.5 273,-212.5 273,-212.5 107,-212.5"/>
<polygon fill="#666666" stroke="#666666" points="107,-197.5 107,-197.5 273,-197.5 273,-197.5 107,-197.5"/>
<polygon fill="none" stroke="#666666" points="107,-181 107,-252 273,-252 273,-181 107,-181"/>
</a>
</g>
</g>
<!-- Node3&#45;&gt;Node1 -->
<g id="edge2_Node000001_Node000003" class="edge">
<title>Node3&#45;&gt;Node1</title>
<g id="a_edge2_Node000001_Node000003"><a xlink:title=" ">
<path fill="none" stroke="#63b8ff" d="M167.02,-180.92C159.7,-169.9 151.29,-157.24 142.8,-144.47"/>
<polygon fill="none" stroke="#63b8ff" points="142.64,-144.22 135.99,-141.44 136,-134.23 142.66,-137.01 142.64,-144.22"/>
</a>
</g>
<text text-anchor="middle" x="180" y="-155" font-family="Helvetica,sans-Serif" font-size="10.00" fill="grey"> &#45;_validator</text>
</g>
<!-- Node4 -->
<g id="Node000004" class="node">
<title>Node4</title>
<g id="a_Node000004"><a xlink:href="classAbstractValidator-1-g.html" target="_top" xlink:title=" ">
<polygon fill="white" stroke="transparent" points="237.5,-338 142.5,-338 142.5,-289 237.5,-289 237.5,-338"/>
<text text-anchor="start" x="148" y="-325.5" font-family="Helvetica,sans-Serif" font-size="10.00">AbstractValidator</text>
<text text-anchor="start" x="188.5" y="-310.5" font-family="Helvetica,sans-Serif" font-size="10.00"> </text>
<text text-anchor="start" x="188.5" y="-295.5" font-family="Helvetica,sans-Serif" font-size="10.00"> </text>
<polygon fill="#666666" stroke="#666666" points="143,-320.5 143,-320.5 238,-320.5 238,-320.5 143,-320.5"/>
<polygon fill="#666666" stroke="#666666" points="143,-305.5 143,-305.5 238,-305.5 238,-305.5 143,-305.5"/>
<polygon fill="none" stroke="#666666" points="142.5,-289 142.5,-338 237.5,-338 237.5,-289 142.5,-289"/>
</a>
</g>
</g>
<!-- Node4&#45;&gt;Node3 -->
<g id="edge3_Node000003_Node000004" class="edge">
<title>Node4&#45;&gt;Node3</title>
<g id="a_edge3_Node000003_Node000004"><a xlink:title=" ">
<path fill="none" stroke="#63b8ff" d="M190,-278.51C190,-269.98 190,-260.81 190,-252.23"/>
<polygon fill="none" stroke="#63b8ff" points="186.5,-278.53 190,-288.53 193.5,-278.53 186.5,-278.53"/>
</a>
</g>
</g>
</g>
</svg>
