<?xml version="1.0" encoding="UTF-8" standalone="no"?>
<!DOCTYPE svg PUBLIC "-//W3C//DTD SVG 1.1//EN"
 "http://www.w3.org/Graphics/SVG/1.1/DTD/svg11.dtd">
<!-- Generated by graphviz version 2.43.0 (0)
 -->
<!-- Title: /app/doc_state/github_reposRepoArchDocGenContext/EBCEYS/EBCEYS.Infrastructure/Ebceys.Infrastructure Pages: 1 -->
<!--zoomable 94 -->

<svg id="main" version="1.1" xmlns="http://www.w3.org/2000/svg" xmlns:xlink="http://www.w3.org/1999/xlink" xml:space="preserve" onload="init(evt)">

<style type="text/css"><![CDATA[
.node, .edge {opacity: 0.7;}
.node.selected, .edge.selected {opacity: 1;}
.edge:hover path { stroke: red; }
.edge:hover polygon { stroke: red; fill: red; }
]]></style>

<defs>
  <circle id="rim" cx="0" cy="0" r="7"/>
  <circle id="rim2" cx="0" cy="0" r="3.5"/>
  <g id="zoomPlus">
    <use xlink:href="#rim" fill="#404040"><set attributeName="fill" to="#808080" begin="zoomplus.mouseover" end="zoomplus.mouseout"/></use>
    <path d="M-4,0h8M0,-4v8" fill="none" stroke="white" stroke-width="1.5" pointer-events="none"/>
  </g>
  <g id="zoomMin">
    <use xlink:href="#rim" fill="#404040"><set attributeName="fill" to="#808080" begin="zoomminus.mouseover" end="zoomminus.mouseout"/></use>
    <path d="M-4,0h8" fill="none" stroke="white" stroke-width="1.5" pointer-events="none"/>
  </g>
  <g id="arrowUp" transform="translate(30 24)">
    <use xlink:href="#rim"/>
    <path pointer-events="none" fill="none" stroke="white" stroke-width="1.5" d="M0,-3.0v7 M-2.5,-0.5L0,-3.0L2.5,-0.5"/>
  </g>
  <g id="arrowRight" transform="rotate(90) translate(36 -43)">
    <use xlink:href="#rim"/>
    <path pointer-events="none" fill="none" stroke="white" stroke-width="1.5" d="M0,-3.0v7 M-2.5,-0.5L0,-3.0L2.5,-0.5"/>
  </g>
  <g id="arrowDown" transform="rotate(180) translate(-30 -48)">
    <use xlink:href="#rim"/>
    <path pointer-events="none" fill="none" stroke="white" stroke-width="1.5" d="M0,-3.0v7 M-2.5,-0.5L0,-3.0L2.5,-0.5"/>
  </g>
  <g id="arrowLeft" transform="rotate(270) translate(-36 17)">
    <use xlink:href="#rim"/>
    <path pointer-events="none" fill="none" stroke="white" stroke-width="1.5" d="M0,-3.0v7 M-2.5,-0.5L0,-3.0L2.5,-0.5"/>
  </g>
  <g id="resetDef">
    <use xlink:href="#rim2" fill="#404040"><set attributeName="fill" to="#808080" begin="reset.mouseover" end="reset.mouseout"/></use>
  </g>
</defs>
<script type="application/ecmascript">
var viewWidth = 1604;
var viewHeight = 94;
var sectionId = 'dynsection-0';
</script>
<script type="application/ecmascript" xlink:href="svg.min.js"/>
<svg id="graph" class="graph">
<g id="viewport">
<title>/app/doc_state/github_reposRepoArchDocGenContext/EBCEYS/EBCEYS.Infrastructure/Ebceys.Infrastructure</title>
<g id="clust1" class="cluster">
<title>clusterdir_257fbd82fa376f6d9e04bc851c6c4fe5</title>
<g id="a_clust1"><a xlink:href="dir_257fbd82fa376f6d9e04bc851c6c4fe5.html" target="_top" xlink:title="EBCEYS.Infrastructure">
<polygon fill="#edf0f7" stroke="#404040" stroke-dasharray="5,2" points="8,-8 8,-78 1588,-78 1588,-8 8,-8"/>
<text text-anchor="middle" x="798" y="-66" font-family="Helvetica,sans-Serif" font-size="10.00">EBCEYS.Infrastructure</text>
</a>
</g>
</g>
<g id="clust2" class="cluster">
<title>clusterdir_93e7d09c96a0520c920a882182cc1c65</title>
<g id="a_clust2"><a xlink:href="dir_93e7d09c96a0520c920a882182cc1c65.html" target="_top">
<polygon fill="#edf0f7" stroke="#404040" stroke-width="2" points="16,-16 16,-51 1580,-51 1580,-16 16,-16"/>
</a>
</g>
</g>
<!-- dir_93e7d09c96a0520c920a882182cc1c65 -->
<g id="node1" class="node">
<title>dir_93e7d09c96a0520c920a882182cc1c65</title>
<text text-anchor="middle" x="1512" y="-31" font-family="Helvetica,sans-Serif" font-size="10.00">Ebceys.Infrastructure</text>
</g>
<!-- dir_52970c93c8ce4e182e40c33deec40e5a -->
<g id="node2" class="node">
<title>dir_52970c93c8ce4e182e40c33deec40e5a</title>
<g id="a_node2"><a xlink:href="dir_52970c93c8ce4e182e40c33deec40e5a.html" target="_top" xlink:title="Attributes">
<polygon fill="#a2b4d6" stroke="#404040" points="1433.5,-43 1368.5,-43 1368.5,-24 1433.5,-24 1433.5,-43"/>
<text text-anchor="middle" x="1401" y="-31" font-family="Helvetica,sans-Serif" font-size="10.00">Attributes</text>
</a>
</g>
</g>
<!-- dir_8749ff0abd9b145f6a1661babff60c78 -->
<g id="node3" class="node">
<title>dir_8749ff0abd9b145f6a1661babff60c78</title>
<g id="a_node3"><a xlink:href="dir_8749ff0abd9b145f6a1661babff60c78.html" target="_top" xlink:title="ControllerFilters">
<polygon fill="#a2b4d6" stroke="#404040" points="1350.5,-43 1255.5,-43 1255.5,-24 1350.5,-24 1350.5,-43"/>
<text text-anchor="middle" x="1303" y="-31" font-family="Helvetica,sans-Serif" font-size="10.00">ControllerFilters</text>
</a>
</g>
</g>
<!-- dir_4ee1edd46c4da4a874b0d760bead4d50 -->
<g id="node4" class="node">
<title>dir_4ee1edd46c4da4a874b0d760bead4d50</title>
<g id="a_node4"><a xlink:href="dir_4ee1edd46c4da4a874b0d760bead4d50.html" target="_top" xlink:title="Controllers">
<polygon fill="#a2b4d6" stroke="#404040" points="1237,-43 1167,-43 1167,-24 1237,-24 1237,-43"/>
<text text-anchor="middle" x="1202" y="-31" font-family="Helvetica,sans-Serif" font-size="10.00">Controllers</text>
</a>
</g>
</g>
<!-- dir_35b03fb2906d5ae617a4590c93d48ad0 -->
<g id="node5" class="node">
<title>dir_35b03fb2906d5ae617a4590c93d48ad0</title>
<g id="a_node5"><a xlink:href="dir_35b03fb2906d5ae617a4590c93d48ad0.html" target="_top" xlink:title="DatabaseRegistration">
<polygon fill="#a2b4d6" stroke="#404040" points="1149,-43 1027,-43 1027,-24 1149,-24 1149,-43"/>
<text text-anchor="middle" x="1088" y="-31" font-family="Helvetica,sans-Serif" font-size="10.00">DatabaseRegistration</text>
</a>
</g>
</g>
<!-- dir_ae23ae678854b21920963b1bdb91bdf6 -->
<g id="node6" class="node">
<title>dir_ae23ae678854b21920963b1bdb91bdf6</title>
<g id="a_node6"><a xlink:href="dir_ae23ae678854b21920963b1bdb91bdf6.html" target="_top" xlink:title="Exceptions">
<polygon fill="#a2b4d6" stroke="#404040" points="1009,-43 939,-43 939,-24 1009,-24 1009,-43"/>
<text text-anchor="middle" x="974" y="-31" font-family="Helvetica,sans-Serif" font-size="10.00">Exceptions</text>
</a>
</g>
</g>
<!-- dir_993941f1d4c360f5b8c39d00fb84598d -->
<g id="node7" class="node">
<title>dir_993941f1d4c360f5b8c39d00fb84598d</title>
<g id="a_node7"><a xlink:href="dir_993941f1d4c360f5b8c39d00fb84598d.html" target="_top" xlink:title="Extensions">
<polygon fill="#a2b4d6" stroke="#404040" points="921,-43 851,-43 851,-24 921,-24 921,-43"/>
<text text-anchor="middle" x="886" y="-31" font-family="Helvetica,sans-Serif" font-size="10.00">Extensions</text>
</a>
</g>
</g>
<!-- dir_4a03a893ebb6b92f3cea43cd89bdd69c -->
<g id="node8" class="node">
<title>dir_4a03a893ebb6b92f3cea43cd89bdd69c</title>
<g id="a_node8"><a xlink:href="dir_4a03a893ebb6b92f3cea43cd89bdd69c.html" target="_top" xlink:title="HealthChecks">
<polygon fill="#a2b4d6" stroke="#404040" points="833,-43 749,-43 749,-24 833,-24 833,-43"/>
<text text-anchor="middle" x="791" y="-31" font-family="Helvetica,sans-Serif" font-size="10.00">HealthChecks</text>
</a>
</g>
</g>
<!-- dir_88dc547362e073d05c2e21deb8fee158 -->
<g id="node9" class="node">
<title>dir_88dc547362e073d05c2e21deb8fee158</title>
<g id="a_node9"><a xlink:href="dir_88dc547362e073d05c2e21deb8fee158.html" target="_top" xlink:title="Helpers">
<polygon fill="#a2b4d6" stroke="#404040" points="731,-43 677,-43 677,-24 731,-24 731,-43"/>
<text text-anchor="middle" x="704" y="-31" font-family="Helvetica,sans-Serif" font-size="10.00">Helpers</text>
</a>
</g>
</g>
<!-- dir_3377009e15c70b6094b89acfb48277db -->
<g id="node10" class="node">
<title>dir_3377009e15c70b6094b89acfb48277db</title>
<g id="a_node10"><a xlink:href="dir_3377009e15c70b6094b89acfb48277db.html" target="_top" xlink:title="HttpClient">
<polygon fill="#a2b4d6" stroke="#404040" points="659,-43 593,-43 593,-24 659,-24 659,-43"/>
<text text-anchor="middle" x="626" y="-31" font-family="Helvetica,sans-Serif" font-size="10.00">HttpClient</text>
</a>
</g>
</g>
<!-- dir_676f3bf1b053d8d59222d1ac2d737fe2 -->
<g id="node11" class="node">
<title>dir_676f3bf1b053d8d59222d1ac2d737fe2</title>
<g id="a_node11"><a xlink:href="dir_676f3bf1b053d8d59222d1ac2d737fe2.html" target="_top" xlink:title="Interfaces">
<polygon fill="#a2b4d6" stroke="#404040" points="574.5,-43 509.5,-43 509.5,-24 574.5,-24 574.5,-43"/>
<text text-anchor="middle" x="542" y="-31" font-family="Helvetica,sans-Serif" font-size="10.00">Interfaces</text>
</a>
</g>
</g>
<!-- dir_318950f9e1836dbd955bf0bb82d44857 -->
<g id="node12" class="node">
<title>dir_318950f9e1836dbd955bf0bb82d44857</title>
<g id="a_node12"><a xlink:href="dir_318950f9e1836dbd955bf0bb82d44857.html" target="_top" xlink:title="Middlewares">
<polygon fill="#a2b4d6" stroke="#404040" points="491.5,-43 412.5,-43 412.5,-24 491.5,-24 491.5,-43"/>
<text text-anchor="middle" x="452" y="-31" font-family="Helvetica,sans-Serif" font-size="10.00">Middlewares</text>
</a>
</g>
</g>
<!-- dir_ac743768ea5583b61a9993bce92575fb -->
<g id="node13" class="node">
<title>dir_ac743768ea5583b61a9993bce92575fb</title>
<g id="a_node13"><a xlink:href="dir_ac743768ea5583b61a9993bce92575fb.html" target="_top" xlink:title="Models">
<polygon fill="#a2b4d6" stroke="#404040" points="394,-43 342,-43 342,-24 394,-24 394,-43"/>
<text text-anchor="middle" x="368" y="-31" font-family="Helvetica,sans-Serif" font-size="10.00">Models</text>
</a>
</g>
</g>
<!-- dir_6d265d237a3e007ba26851351561be79 -->
<g id="node14" class="node">
<title>dir_6d265d237a3e007ba26851351561be79</title>
<g id="a_node14"><a xlink:href="dir_6d265d237a3e007ba26851351561be79.html" target="_top" xlink:title="Options">
<polygon fill="#a2b4d6" stroke="#404040" points="324,-43 270,-43 270,-24 324,-24 324,-43"/>
<text text-anchor="middle" x="297" y="-31" font-family="Helvetica,sans-Serif" font-size="10.00">Options</text>
</a>
</g>
</g>
<!-- dir_e90d3295bea1f3fa2faf7fd22b9cc2e3 -->
<g id="node15" class="node">
<title>dir_e90d3295bea1f3fa2faf7fd22b9cc2e3</title>
<g id="a_node15"><a xlink:href="dir_e90d3295bea1f3fa2faf7fd22b9cc2e3.html" target="_top" xlink:title="RabbitMq">
<polygon fill="#a2b4d6" stroke="#404040" points="251.5,-43 188.5,-43 188.5,-24 251.5,-24 251.5,-43"/>
<text text-anchor="middle" x="220" y="-31" font-family="Helvetica,sans-Serif" font-size="10.00">RabbitMq</text>
</a>
</g>
</g>
<!-- dir_2bd0c7e07c842cf487875f56bccbfdff -->
<g id="node16" class="node">
<title>dir_2bd0c7e07c842cf487875f56bccbfdff</title>
<g id="a_node16"><a xlink:href="dir_2bd0c7e07c842cf487875f56bccbfdff.html" target="_top" xlink:title="Scheduling">
<polygon fill="#a2b4d6" stroke="#404040" points="170,-43 100,-43 100,-24 170,-24 170,-43"/>
<text text-anchor="middle" x="135" y="-31" font-family="Helvetica,sans-Serif" font-size="10.00">Scheduling</text>
</a>
</g>
</g>
<!-- dir_c7952dcba91cfaed470dc11a697be906 -->
<g id="node17" class="node">
<title>dir_c7952dcba91cfaed470dc11a697be906</title>
<g id="a_node17"><a xlink:href="dir_c7952dcba91cfaed470dc11a697be906.html" target="_top" xlink:title="Services">
<polygon fill="#a2b4d6" stroke="#404040" points="82,-43 24,-43 24,-24 82,-24 82,-43"/>
<text text-anchor="middle" x="53" y="-31" font-family="Helvetica,sans-Serif" font-size="10.00">Services</text>
</a>
</g>
</g>
</g>
</svg>

<g id="navigator" transform="translate(0 0)" fill="#404254">
  <rect fill="#f2f5e9" fill-opacity="0.5" stroke="#606060" stroke-width=".5" x="0" y="0" width="60" height="60"/>
  <use id="zoomplus" xlink:href="#zoomPlus" x="17" y="9" onmousedown="handleZoom(evt,'in')"/>
  <use id="zoomminus" xlink:href="#zoomMin" x="42" y="9" onmousedown="handleZoom(evt,'out')"/>
  <use id="reset" xlink:href="#resetDef" x="30" y="36" onmousedown="handleReset()"/>
   <use id="arrowup" xlink:href="#arrowUp" x="0" y="0" onmousedown="handlePan(0,-1)"/>
  <use id="arrowright" xlink:href="#arrowRight" x="0" y="0" onmousedown="handlePan(1,0)"/>
  <use id="arrowdown" xlink:href="#arrowDown" x="0" y="0" onmousedown="handlePan(0,1)"/>
  <use id="arrowleft" xlink:href="#arrowLeft" x="0" y="0" onmousedown="handlePan(-1,0)"/>
</g>
<svg viewBox="0 0 15 15" width="100%" height="30px" preserveAspectRatio="xMaxYMin meet">
 <g id="arrow_out" transform="scale(0.3 0.3)">
  <a xlink:href="dir_93e7d09c96a0520c920a882182cc1c65_dep_org.svg" target="_base">
   <rect id="button" ry="5" rx="5" y="6" x="6" height="38" width="38"
        fill="#f2f5e9" fill-opacity="0.5" stroke="#606060" stroke-width="1.0"/>
   <path id="arrow"
     d="M 11.500037,31.436501 C 11.940474,20.09759 22.043105,11.32322 32.158766,21.979434 L 37.068811,17.246167 C 37.068811,17.246167 37.088388,32 37.088388,32 L 22.160133,31.978069 C 22.160133,31.978069 26.997745,27.140456 26.997745,27.140456 C 18.528582,18.264221 13.291696,25.230495 11.500037,31.436501 z"
     style="fill:#404040;"/>
  </a>
 </g>
</svg>

<style type='text/css'>
<![CDATA[
[data-mouse-over-selected='false'] { opacity: 0.7; }
[data-mouse-over-selected='true']  { opacity: 1.0; }
]]>
</style>
<script type="application/ecmascript"><![CDATA[
document.addEventListener('DOMContentLoaded', (event) => {
  highlightEdges();
  highlightAdjacentNodes();
});
]]></script>
</svg>
