<?xml version="1.0" encoding="UTF-8" standalone="no"?>
<!DOCTYPE svg PUBLIC "-//W3C//DTD SVG 1.1//EN"
 "http://www.w3.org/Graphics/SVG/1.1/DTD/svg11.dtd">
<!-- Generated by graphviz version 2.43.0 (0)
 -->
<!-- Title: /app/doc_state/github_reposRepoArchDocGenContext/EBCEYS/EBCEYS.Infrastructure/Ebceys.Infrastructure.AuthorizationTestApplication Pages: 1 -->
<!--zoomable 105 -->

<svg id="main" version="1.1" xmlns="http://www.w3.org/2000/svg" xmlns:xlink="http://www.w3.org/1999/xlink" xml:space="preserve" onload="init(evt)">

<style type="text/css"><![CDATA[
.node, .edge {opacity: 0.7;}
.node.selected, .edge.selected {opacity: 1;}
.edge:hover path { stroke: red; }
.edge:hover polygon { stroke: red; fill: red; }
]]></style>

<defs>
  <circle id="rim" cx="0" cy="0" r="7"/>
  <circle id="rim2" cx="0" cy="0" r="3.5"/>
  <g id="zoomPlus">
    <use xlink:href="#rim" fill="#404040"><set attributeName="fill" to="#808080" begin="zoomplus.mouseover" end="zoomplus.mouseout"/></use>
    <path d="M-4,0h8M0,-4v8" fill="none" stroke="white" stroke-width="1.5" pointer-events="none"/>
  </g>
  <g id="zoomMin">
    <use xlink:href="#rim" fill="#404040"><set attributeName="fill" to="#808080" begin="zoomminus.mouseover" end="zoomminus.mouseout"/></use>
    <path d="M-4,0h8" fill="none" stroke="white" stroke-width="1.5" pointer-events="none"/>
  </g>
  <g id="arrowUp" transform="translate(30 24)">
    <use xlink:href="#rim"/>
    <path pointer-events="none" fill="none" stroke="white" stroke-width="1.5" d="M0,-3.0v7 M-2.5,-0.5L0,-3.0L2.5,-0.5"/>
  </g>
  <g id="arrowRight" transform="rotate(90) translate(36 -43)">
    <use xlink:href="#rim"/>
    <path pointer-events="none" fill="none" stroke="white" stroke-width="1.5" d="M0,-3.0v7 M-2.5,-0.5L0,-3.0L2.5,-0.5"/>
  </g>
  <g id="arrowDown" transform="rotate(180) translate(-30 -48)">
    <use xlink:href="#rim"/>
    <path pointer-events="none" fill="none" stroke="white" stroke-width="1.5" d="M0,-3.0v7 M-2.5,-0.5L0,-3.0L2.5,-0.5"/>
  </g>
  <g id="arrowLeft" transform="rotate(270) translate(-36 17)">
    <use xlink:href="#rim"/>
    <path pointer-events="none" fill="none" stroke="white" stroke-width="1.5" d="M0,-3.0v7 M-2.5,-0.5L0,-3.0L2.5,-0.5"/>
  </g>
  <g id="resetDef">
    <use xlink:href="#rim2" fill="#404040"><set attributeName="fill" to="#808080" begin="reset.mouseover" end="reset.mouseout"/></use>
  </g>
</defs>
<script type="application/ecmascript">
var viewWidth = 686;
var viewHeight = 105;
var sectionId = 'dynsection-0';
</script>
<script type="application/ecmascript" xlink:href="svg.min.js"/>
<svg id="graph" class="graph">
<g id="viewport">
<title>/app/doc_state/github_reposRepoArchDocGenContext/EBCEYS/EBCEYS.Infrastructure/Ebceys.Infrastructure.AuthorizationTestApplication</title>
<g id="clust1" class="cluster">
<title>clusterdir_257fbd82fa376f6d9e04bc851c6c4fe5</title>
<g id="a_clust1"><a xlink:href="dir_257fbd82fa376f6d9e04bc851c6c4fe5.html" target="_top" xlink:title="EBCEYS.Infrastructure">
<polygon fill="#edf0f7" stroke="#404040" stroke-dasharray="5,2" points="8,-8 8,-89 670,-89 670,-8 8,-8"/>
<text text-anchor="middle" x="339" y="-77" font-family="Helvetica,sans-Serif" font-size="10.00">EBCEYS.Infrastructure</text>
</a>
</g>
</g>
<g id="clust2" class="cluster">
<title>clusterdir_5cb656f8d48709377893e64c28db2f4f</title>
<g id="a_clust2"><a xlink:href="dir_5cb656f8d48709377893e64c28db2f4f.html" target="_top">
<polygon fill="#edf0f7" stroke="#404040" stroke-width="2" points="16,-16 16,-62 662,-62 662,-16 16,-16"/>
</a>
</g>
</g>
<!-- dir_5cb656f8d48709377893e64c28db2f4f -->
<g id="node1" class="node">
<title>dir_5cb656f8d48709377893e64c28db2f4f</title>
<text text-anchor="start" x="474" y="-42" font-family="Helvetica,sans-Serif" font-size="10.00">Ebceys.Infrastructure.Authorization</text>
<text text-anchor="middle" x="560" y="-31" font-family="Helvetica,sans-Serif" font-size="10.00">TestApplication</text>
</g>
<!-- dir_05ee156dedecdc43540a0131e5d4c67f -->
<g id="node2" class="node">
<title>dir_05ee156dedecdc43540a0131e5d4c67f</title>
<g id="a_node2"><a xlink:href="dir_05ee156dedecdc43540a0131e5d4c67f.html" target="_top" xlink:title="BoundedContext">
<polygon fill="#a2b4d6" stroke="#404040" points="448,-48.5 350,-48.5 350,-29.5 448,-29.5 448,-48.5"/>
<text text-anchor="middle" x="399" y="-36.5" font-family="Helvetica,sans-Serif" font-size="10.00">BoundedContext</text>
</a>
</g>
</g>
<!-- dir_354b9bec7f5554af4df4311b87a31323 -->
<g id="node3" class="node">
<title>dir_354b9bec7f5554af4df4311b87a31323</title>
<g id="a_node3"><a xlink:href="dir_354b9bec7f5554af4df4311b87a31323.html" target="_top" xlink:title="Client">
<polygon fill="#a2b4d6" stroke="#404040" points="331.5,-48.5 286.5,-48.5 286.5,-29.5 331.5,-29.5 331.5,-48.5"/>
<text text-anchor="middle" x="309" y="-36.5" font-family="Helvetica,sans-Serif" font-size="10.00">Client</text>
</a>
</g>
</g>
<!-- dir_96713c6ce06d7d5c6f943b5ad9d02ecd -->
<g id="node4" class="node">
<title>dir_96713c6ce06d7d5c6f943b5ad9d02ecd</title>
<g id="a_node4"><a xlink:href="dir_96713c6ce06d7d5c6f943b5ad9d02ecd.html" target="_top" xlink:title="Controllers">
<polygon fill="#a2b4d6" stroke="#404040" points="268,-48.5 198,-48.5 198,-29.5 268,-29.5 268,-48.5"/>
<text text-anchor="middle" x="233" y="-36.5" font-family="Helvetica,sans-Serif" font-size="10.00">Controllers</text>
</a>
</g>
</g>
<!-- dir_ad41d54f06cb952d226441817d903669 -->
<g id="node5" class="node">
<title>dir_ad41d54f06cb952d226441817d903669</title>
<g id="a_node5"><a xlink:href="dir_ad41d54f06cb952d226441817d903669.html" target="_top" xlink:title="Rabbit">
<polygon fill="#a2b4d6" stroke="#404040" points="180,-48.5 132,-48.5 132,-29.5 180,-29.5 180,-48.5"/>
<text text-anchor="middle" x="156" y="-36.5" font-family="Helvetica,sans-Serif" font-size="10.00">Rabbit</text>
</a>
</g>
</g>
<!-- dir_28367d7066a7f02a3ceeb691a398d29c -->
<g id="node6" class="node">
<title>dir_28367d7066a7f02a3ceeb691a398d29c</title>
<g id="a_node6"><a xlink:href="dir_28367d7066a7f02a3ceeb691a398d29c.html" target="_top" xlink:title="SchedulingJobs">
<polygon fill="#a2b4d6" stroke="#404040" points="114,-48.5 24,-48.5 24,-29.5 114,-29.5 114,-48.5"/>
<text text-anchor="middle" x="69" y="-36.5" font-family="Helvetica,sans-Serif" font-size="10.00">SchedulingJobs</text>
</a>
</g>
</g>
</g>
</svg>

<g id="navigator" transform="translate(0 0)" fill="#404254">
  <rect fill="#f2f5e9" fill-opacity="0.5" stroke="#606060" stroke-width=".5" x="0" y="0" width="60" height="60"/>
  <use id="zoomplus" xlink:href="#zoomPlus" x="17" y="9" onmousedown="handleZoom(evt,'in')"/>
  <use id="zoomminus" xlink:href="#zoomMin" x="42" y="9" onmousedown="handleZoom(evt,'out')"/>
  <use id="reset" xlink:href="#resetDef" x="30" y="36" onmousedown="handleReset()"/>
   <use id="arrowup" xlink:href="#arrowUp" x="0" y="0" onmousedown="handlePan(0,-1)"/>
  <use id="arrowright" xlink:href="#arrowRight" x="0" y="0" onmousedown="handlePan(1,0)"/>
  <use id="arrowdown" xlink:href="#arrowDown" x="0" y="0" onmousedown="handlePan(0,1)"/>
  <use id="arrowleft" xlink:href="#arrowLeft" x="0" y="0" onmousedown="handlePan(-1,0)"/>
</g>
<svg viewBox="0 0 15 15" width="100%" height="30px" preserveAspectRatio="xMaxYMin meet">
 <g id="arrow_out" transform="scale(0.3 0.3)">
  <a xlink:href="dir_5cb656f8d48709377893e64c28db2f4f_dep_org.svg" target="_base">
   <rect id="button" ry="5" rx="5" y="6" x="6" height="38" width="38"
        fill="#f2f5e9" fill-opacity="0.5" stroke="#606060" stroke-width="1.0"/>
   <path id="arrow"
     d="M 11.500037,31.436501 C 11.940474,20.09759 22.043105,11.32322 32.158766,21.979434 L 37.068811,17.246167 C 37.068811,17.246167 37.088388,32 37.088388,32 L 22.160133,31.978069 C 22.160133,31.978069 26.997745,27.140456 26.997745,27.140456 C 18.528582,18.264221 13.291696,25.230495 11.500037,31.436501 z"
     style="fill:#404040;"/>
  </a>
 </g>
</svg>

<style type='text/css'>
<![CDATA[
[data-mouse-over-selected='false'] { opacity: 0.7; }
[data-mouse-over-selected='true']  { opacity: 1.0; }
]]>
</style>
<script type="application/ecmascript"><![CDATA[
document.addEventListener('DOMContentLoaded', (event) => {
  highlightEdges();
  highlightAdjacentNodes();
});
]]></script>
</svg>
