<?xml version="1.0" encoding="UTF-8" standalone="no"?>
<!DOCTYPE svg PUBLIC "-//W3C//DTD SVG 1.1//EN"
 "http://www.w3.org/Graphics/SVG/1.1/DTD/svg11.dtd">
<!-- Generated by graphviz version 2.43.0 (0)
 -->
<!-- Title: /app/doc_state/github_reposRepoArchDocGenContext/EBCEYS/EBCEYS.Infrastructure/Ebceys.Infrastructure.TestApplication Pages: 1 -->
<!--zoomable 105 -->

<svg id="main" version="1.1" xmlns="http://www.w3.org/2000/svg" xmlns:xlink="http://www.w3.org/1999/xlink" xml:space="preserve" onload="init(evt)">

<style type="text/css"><![CDATA[
.node, .edge {opacity: 0.7;}
.node.selected, .edge.selected {opacity: 1;}
.edge:hover path { stroke: red; }
.edge:hover polygon { stroke: red; fill: red; }
]]></style>

<defs>
  <circle id="rim" cx="0" cy="0" r="7"/>
  <circle id="rim2" cx="0" cy="0" r="3.5"/>
  <g id="zoomPlus">
    <use xlink:href="#rim" fill="#404040"><set attributeName="fill" to="#808080" begin="zoomplus.mouseover" end="zoomplus.mouseout"/></use>
    <path d="M-4,0h8M0,-4v8" fill="none" stroke="white" stroke-width="1.5" pointer-events="none"/>
  </g>
  <g id="zoomMin">
    <use xlink:href="#rim" fill="#404040"><set attributeName="fill" to="#808080" begin="zoomminus.mouseover" end="zoomminus.mouseout"/></use>
    <path d="M-4,0h8" fill="none" stroke="white" stroke-width="1.5" pointer-events="none"/>
  </g>
  <g id="arrowUp" transform="translate(30 24)">
    <use xlink:href="#rim"/>
    <path pointer-events="none" fill="none" stroke="white" stroke-width="1.5" d="M0,-3.0v7 M-2.5,-0.5L0,-3.0L2.5,-0.5"/>
  </g>
  <g id="arrowRight" transform="rotate(90) translate(36 -43)">
    <use xlink:href="#rim"/>
    <path pointer-events="none" fill="none" stroke="white" stroke-width="1.5" d="M0,-3.0v7 M-2.5,-0.5L0,-3.0L2.5,-0.5"/>
  </g>
  <g id="arrowDown" transform="rotate(180) translate(-30 -48)">
    <use xlink:href="#rim"/>
    <path pointer-events="none" fill="none" stroke="white" stroke-width="1.5" d="M0,-3.0v7 M-2.5,-0.5L0,-3.0L2.5,-0.5"/>
  </g>
  <g id="arrowLeft" transform="rotate(270) translate(-36 17)">
    <use xlink:href="#rim"/>
    <path pointer-events="none" fill="none" stroke="white" stroke-width="1.5" d="M0,-3.0v7 M-2.5,-0.5L0,-3.0L2.5,-0.5"/>
  </g>
  <g id="resetDef">
    <use xlink:href="#rim2" fill="#404040"><set attributeName="fill" to="#808080" begin="reset.mouseover" end="reset.mouseout"/></use>
  </g>
</defs>
<script type="application/ecmascript">
var viewWidth = 782;
var viewHeight = 105;
var sectionId = 'dynsection-0';
</script>
<script type="application/ecmascript" xlink:href="svg.min.js"/>
<svg id="graph" class="graph">
<g id="viewport">
<title>/app/doc_state/github_reposRepoArchDocGenContext/EBCEYS/EBCEYS.Infrastructure/Ebceys.Infrastructure.TestApplication</title>
<g id="clust1" class="cluster">
<title>clusterdir_257fbd82fa376f6d9e04bc851c6c4fe5</title>
<g id="a_clust1"><a xlink:href="dir_257fbd82fa376f6d9e04bc851c6c4fe5.html" target="_top" xlink:title="EBCEYS.Infrastructure">
<polygon fill="#edf0f7" stroke="#404040" stroke-dasharray="5,2" points="8,-8 8,-89 766,-89 766,-8 8,-8"/>
<text text-anchor="middle" x="387" y="-77" font-family="Helvetica,sans-Serif" font-size="10.00">EBCEYS.Infrastructure</text>
</a>
</g>
</g>
<g id="clust2" class="cluster">
<title>clusterdir_85a2d155bc51a80ac36dea3acddc145c</title>
<g id="a_clust2"><a xlink:href="dir_85a2d155bc51a80ac36dea3acddc145c.html" target="_top">
<polygon fill="#edf0f7" stroke="#404040" stroke-width="2" points="16,-16 16,-62 758,-62 758,-16 16,-16"/>
</a>
</g>
</g>
<!-- dir_85a2d155bc51a80ac36dea3acddc145c -->
<g id="node1" class="node">
<title>dir_85a2d155bc51a80ac36dea3acddc145c</title>
<text text-anchor="start" x="614.5" y="-42" font-family="Helvetica,sans-Serif" font-size="10.00">Ebceys.Infrastructure.Test</text>
<text text-anchor="middle" x="678" y="-31" font-family="Helvetica,sans-Serif" font-size="10.00">Application</text>
</g>
<!-- dir_5489846885b9b74229ad81447cf96f94 -->
<g id="node2" class="node">
<title>dir_5489846885b9b74229ad81447cf96f94</title>
<g id="a_node2"><a xlink:href="dir_5489846885b9b74229ad81447cf96f94.html" target="_top" xlink:title="BoundedContext">
<polygon fill="#a2b4d6" stroke="#404040" points="588,-48.5 490,-48.5 490,-29.5 588,-29.5 588,-48.5"/>
<text text-anchor="middle" x="539" y="-36.5" font-family="Helvetica,sans-Serif" font-size="10.00">BoundedContext</text>
</a>
</g>
</g>
<!-- dir_c293d1fffdb8060584de5dad539b9a92 -->
<g id="node3" class="node">
<title>dir_c293d1fffdb8060584de5dad539b9a92</title>
<g id="a_node3"><a xlink:href="dir_c293d1fffdb8060584de5dad539b9a92.html" target="_top" xlink:title="Client">
<polygon fill="#a2b4d6" stroke="#404040" points="471.5,-48.5 426.5,-48.5 426.5,-29.5 471.5,-29.5 471.5,-48.5"/>
<text text-anchor="middle" x="449" y="-36.5" font-family="Helvetica,sans-Serif" font-size="10.00">Client</text>
</a>
</g>
</g>
<!-- dir_e17ca49a4b92fd1dc34e92c3f9976c03 -->
<g id="node4" class="node">
<title>dir_e17ca49a4b92fd1dc34e92c3f9976c03</title>
<g id="a_node4"><a xlink:href="dir_e17ca49a4b92fd1dc34e92c3f9976c03.html" target="_top" xlink:title="Commands">
<polygon fill="#a2b4d6" stroke="#404040" points="408,-48.5 336,-48.5 336,-29.5 408,-29.5 408,-48.5"/>
<text text-anchor="middle" x="372" y="-36.5" font-family="Helvetica,sans-Serif" font-size="10.00">Commands</text>
</a>
</g>
</g>
<!-- dir_3c277a60efb93f823d87ee5e7d94f2a6 -->
<g id="node5" class="node">
<title>dir_3c277a60efb93f823d87ee5e7d94f2a6</title>
<g id="a_node5"><a xlink:href="dir_3c277a60efb93f823d87ee5e7d94f2a6.html" target="_top" xlink:title="Controllers">
<polygon fill="#a2b4d6" stroke="#404040" points="318,-48.5 248,-48.5 248,-29.5 318,-29.5 318,-48.5"/>
<text text-anchor="middle" x="283" y="-36.5" font-family="Helvetica,sans-Serif" font-size="10.00">Controllers</text>
</a>
</g>
</g>
<!-- dir_c8edcd139b04a64d46f322bb19d41b07 -->
<g id="node6" class="node">
<title>dir_c8edcd139b04a64d46f322bb19d41b07</title>
<g id="a_node6"><a xlink:href="dir_c8edcd139b04a64d46f322bb19d41b07.html" target="_top" xlink:title="DaL">
<polygon fill="#a2b4d6" stroke="#404040" points="229.5,-48.5 194.5,-48.5 194.5,-29.5 229.5,-29.5 229.5,-48.5"/>
<text text-anchor="middle" x="212" y="-36.5" font-family="Helvetica,sans-Serif" font-size="10.00">DaL</text>
</a>
</g>
</g>
<!-- dir_7fbe1f0d445f7450730bcca6ec3373a4 -->
<g id="node7" class="node">
<title>dir_7fbe1f0d445f7450730bcca6ec3373a4</title>
<g id="a_node7"><a xlink:href="dir_7fbe1f0d445f7450730bcca6ec3373a4.html" target="_top" xlink:title="Migrations">
<polygon fill="#a2b4d6" stroke="#404040" points="176,-48.5 108,-48.5 108,-29.5 176,-29.5 176,-48.5"/>
<text text-anchor="middle" x="142" y="-36.5" font-family="Helvetica,sans-Serif" font-size="10.00">Migrations</text>
</a>
</g>
</g>
<!-- dir_72b6143a7e1b011bc8e0db08c28502c5 -->
<g id="node8" class="node">
<title>dir_72b6143a7e1b011bc8e0db08c28502c5</title>
<g id="a_node8"><a xlink:href="dir_72b6143a7e1b011bc8e0db08c28502c5.html" target="_top" xlink:title="Validators">
<polygon fill="#a2b4d6" stroke="#404040" points="89.5,-48.5 24.5,-48.5 24.5,-29.5 89.5,-29.5 89.5,-48.5"/>
<text text-anchor="middle" x="57" y="-36.5" font-family="Helvetica,sans-Serif" font-size="10.00">Validators</text>
</a>
</g>
</g>
</g>
</svg>

<g id="navigator" transform="translate(0 0)" fill="#404254">
  <rect fill="#f2f5e9" fill-opacity="0.5" stroke="#606060" stroke-width=".5" x="0" y="0" width="60" height="60"/>
  <use id="zoomplus" xlink:href="#zoomPlus" x="17" y="9" onmousedown="handleZoom(evt,'in')"/>
  <use id="zoomminus" xlink:href="#zoomMin" x="42" y="9" onmousedown="handleZoom(evt,'out')"/>
  <use id="reset" xlink:href="#resetDef" x="30" y="36" onmousedown="handleReset()"/>
   <use id="arrowup" xlink:href="#arrowUp" x="0" y="0" onmousedown="handlePan(0,-1)"/>
  <use id="arrowright" xlink:href="#arrowRight" x="0" y="0" onmousedown="handlePan(1,0)"/>
  <use id="arrowdown" xlink:href="#arrowDown" x="0" y="0" onmousedown="handlePan(0,1)"/>
  <use id="arrowleft" xlink:href="#arrowLeft" x="0" y="0" onmousedown="handlePan(-1,0)"/>
</g>
<svg viewBox="0 0 15 15" width="100%" height="30px" preserveAspectRatio="xMaxYMin meet">
 <g id="arrow_out" transform="scale(0.3 0.3)">
  <a xlink:href="dir_85a2d155bc51a80ac36dea3acddc145c_dep_org.svg" target="_base">
   <rect id="button" ry="5" rx="5" y="6" x="6" height="38" width="38"
        fill="#f2f5e9" fill-opacity="0.5" stroke="#606060" stroke-width="1.0"/>
   <path id="arrow"
     d="M 11.500037,31.436501 C 11.940474,20.09759 22.043105,11.32322 32.158766,21.979434 L 37.068811,17.246167 C 37.068811,17.246167 37.088388,32 37.088388,32 L 22.160133,31.978069 C 22.160133,31.978069 26.997745,27.140456 26.997745,27.140456 C 18.528582,18.264221 13.291696,25.230495 11.500037,31.436501 z"
     style="fill:#404040;"/>
  </a>
 </g>
</svg>

<style type='text/css'>
<![CDATA[
[data-mouse-over-selected='false'] { opacity: 0.7; }
[data-mouse-over-selected='true']  { opacity: 1.0; }
]]>
</style>
<script type="application/ecmascript"><![CDATA[
document.addEventListener('DOMContentLoaded', (event) => {
  highlightEdges();
  highlightAdjacentNodes();
});
]]></script>
</svg>
