<?xml version="1.0" encoding="UTF-8" standalone="no"?>
<!DOCTYPE svg PUBLIC "-//W3C//DTD SVG 1.1//EN"
 "http://www.w3.org/Graphics/SVG/1.1/DTD/svg11.dtd">
<!-- Generated by graphviz version 2.43.0 (0)
 -->
<!-- Title: Graphical Class Hierarchy Pages: 1 -->
<svg width="354pt" height="86pt"
 viewBox="0.00 0.00 354.00 86.00" xmlns="http://www.w3.org/2000/svg" xmlns:xlink="http://www.w3.org/1999/xlink">
<g id="graph0" class="graph" transform="scale(1 1) rotate(0) translate(4 82)">
<title>Graphical Class Hierarchy</title>
<!-- Node0 -->
<g id="Node000000" class="node">
<title>Node0</title>
<g id="a_Node000000"><a xlink:href="classControllerBase.html" target="_top" xlink:title=" ">
<polygon fill="white" stroke="#666666" points="89,-48.5 0,-48.5 0,-29.5 89,-29.5 89,-48.5"/>
<text text-anchor="middle" x="44.5" y="-36.5" font-family="Helvetica,sans-Serif" font-size="10.00">ControllerBase</text>
</a>
</g>
</g>
<!-- Node1 -->
<g id="Node000001" class="node">
<title>Node1</title>
<g id="a_Node000001"><a xlink:href="classEbceys_1_1Infrastructure_1_1AuthorizationTestApplication_1_1Controllers_1_1AuthController.html" target="_top" xlink:title=" ">
<polygon fill="white" stroke="#666666" points="346,-78 125,-78 125,-48 346,-48 346,-78"/>
<text text-anchor="start" x="133" y="-66" font-family="Helvetica,sans-Serif" font-size="10.00">Ebceys.Infrastructure.Authorization</text>
<text text-anchor="middle" x="235.5" y="-55" font-family="Helvetica,sans-Serif" font-size="10.00">TestApplication.Controllers.AuthController</text>
</a>
</g>
</g>
<!-- Node0&#45;&gt;Node1 -->
<g id="edge6_Node000000_Node000001" class="edge">
<title>Node0&#45;&gt;Node1</title>
<g id="a_edge6_Node000000_Node000001"><a xlink:title=" ">
<path fill="none" stroke="#63b8ff" d="M99.36,-45.84C107.51,-46.87 116.15,-47.97 124.97,-49.09"/>
<polygon fill="#63b8ff" stroke="#63b8ff" points="99.7,-42.35 89.34,-44.57 98.81,-49.3 99.7,-42.35"/>
</a>
</g>
</g>
<!-- Node2 -->
<g id="Node000002" class="node">
<title>Node2</title>
<g id="a_Node000002"><a xlink:href="classEbceys_1_1Infrastructure_1_1TestApplication_1_1Controllers_1_1TestController.html" target="_top" xlink:title=" ">
<polygon fill="white" stroke="#666666" points="334.5,-30 136.5,-30 136.5,0 334.5,0 334.5,-30"/>
<text text-anchor="start" x="144.5" y="-18" font-family="Helvetica,sans-Serif" font-size="10.00">Ebceys.Infrastructure.Test</text>
<text text-anchor="middle" x="235.5" y="-7" font-family="Helvetica,sans-Serif" font-size="10.00">Application.Controllers.TestController</text>
</a>
</g>
</g>
<!-- Node0&#45;&gt;Node2 -->
<g id="edge7_Node000000_Node000002" class="edge">
<title>Node0&#45;&gt;Node2</title>
<g id="a_edge7_Node000000_Node000002"><a xlink:title=" ">
<path fill="none" stroke="#63b8ff" d="M99.28,-32.17C110.92,-30.69 123.58,-29.08 136.33,-27.47"/>
<polygon fill="#63b8ff" stroke="#63b8ff" points="98.81,-28.7 89.34,-33.43 99.7,-35.65 98.81,-28.7"/>
</a>
</g>
</g>
</g>
</svg>
