<?xml version="1.0" encoding="UTF-8" standalone="no"?>
<!DOCTYPE svg PUBLIC "-//W3C//DTD SVG 1.1//EN"
 "http://www.w3.org/Graphics/SVG/1.1/DTD/svg11.dtd">
<!-- Generated by graphviz version 2.43.0 (0)
 -->
<!-- Title: Graphical Class Hierarchy Pages: 1 -->
<svg width="286pt" height="86pt"
 viewBox="0.00 0.00 286.00 86.00" xmlns="http://www.w3.org/2000/svg" xmlns:xlink="http://www.w3.org/1999/xlink">
<g id="graph0" class="graph" transform="scale(1 1) rotate(0) translate(4 82)">
<title>Graphical Class Hierarchy</title>
<!-- Node0 -->
<g id="Node000000" class="node">
<title>Node0</title>
<g id="a_Node000000"><a xlink:href="classAttribute.html" target="_top" xlink:title=" ">
<polygon fill="white" stroke="#666666" points="59,-48.5 0,-48.5 0,-29.5 59,-29.5 59,-48.5"/>
<text text-anchor="middle" x="29.5" y="-36.5" font-family="Helvetica,sans-Serif" font-size="10.00">Attribute</text>
</a>
</g>
</g>
<!-- Node1 -->
<g id="Node000001" class="node">
<title>Node1</title>
<g id="a_Node000001"><a xlink:href="classEbceys_1_1Infrastructure_1_1Attributes_1_1NoRequestBodyLoggingAttribute.html" target="_top" xlink:title="The NoRequestBodyLoggingAttribute class.">
<polygon fill="white" stroke="#666666" points="274.5,-78 98.5,-78 98.5,-48 274.5,-48 274.5,-78"/>
<text text-anchor="start" x="106.5" y="-66" font-family="Helvetica,sans-Serif" font-size="10.00">Ebceys.Infrastructure.Attributes.</text>
<text text-anchor="middle" x="186.5" y="-55" font-family="Helvetica,sans-Serif" font-size="10.00">NoRequestBodyLoggingAttribute</text>
</a>
</g>
</g>
<!-- Node0&#45;&gt;Node1 -->
<g id="edge3_Node000000_Node000001" class="edge">
<title>Node0&#45;&gt;Node1</title>
<g id="a_edge3_Node000000_Node000001"><a xlink:title=" ">
<path fill="none" stroke="#63b8ff" d="M69.33,-45.01C78.28,-46.4 88.15,-47.93 98.25,-49.49"/>
<polygon fill="#63b8ff" stroke="#63b8ff" points="69.71,-41.53 59.29,-43.46 68.64,-48.45 69.71,-41.53"/>
</a>
</g>
</g>
<!-- Node2 -->
<g id="Node000002" class="node">
<title>Node2</title>
<g id="a_Node000002"><a xlink:href="classEbceys_1_1Infrastructure_1_1Attributes_1_1NoResponseBodyLoggingAttribute.html" target="_top" xlink:title="The NoResponseBodyLoggingAttribute class.">
<polygon fill="white" stroke="#666666" points="278,-30 95,-30 95,0 278,0 278,-30"/>
<text text-anchor="start" x="103" y="-18" font-family="Helvetica,sans-Serif" font-size="10.00">Ebceys.Infrastructure.Attributes.</text>
<text text-anchor="middle" x="186.5" y="-7" font-family="Helvetica,sans-Serif" font-size="10.00">NoResponseBodyLoggingAttribute</text>
</a>
</g>
</g>
<!-- Node0&#45;&gt;Node2 -->
<g id="edge4_Node000000_Node000002" class="edge">
<title>Node0&#45;&gt;Node2</title>
<g id="a_edge4_Node000000_Node000002"><a xlink:title=" ">
<path fill="none" stroke="#63b8ff" d="M69.32,-32.99C77.31,-31.75 86.03,-30.4 94.99,-29.01"/>
<polygon fill="#63b8ff" stroke="#63b8ff" points="68.64,-29.55 59.29,-34.54 69.71,-36.47 68.64,-29.55"/>
</a>
</g>
</g>
</g>
</svg>
