<?xml version="1.0" encoding="UTF-8" standalone="no"?>
<!DOCTYPE svg PUBLIC "-//W3C//DTD SVG 1.1//EN"
 "http://www.w3.org/Graphics/SVG/1.1/DTD/svg11.dtd">
<!-- Generated by graphviz version 2.43.0 (0)
 -->
<!-- Title: Graphical Class Hierarchy Pages: 1 -->
<svg width="337pt" height="108pt"
 viewBox="0.00 0.00 337.00 108.00" xmlns="http://www.w3.org/2000/svg" xmlns:xlink="http://www.w3.org/1999/xlink">
<g id="graph0" class="graph" transform="scale(1 1) rotate(0) translate(4 104)">
<title>Graphical Class Hierarchy</title>
<!-- Node0 -->
<g id="Node000000" class="node">
<title>Node0</title>
<g id="a_Node000000"><a xlink:href="classAbstractValidator-1-g.html" target="_top" xlink:title=" ">
<polygon fill="white" stroke="#666666" points="101,-59 0,-59 0,-40 101,-40 101,-59"/>
<text text-anchor="middle" x="50.5" y="-47" font-family="Helvetica,sans-Serif" font-size="10.00">AbstractValidator</text>
</a>
</g>
</g>
<!-- Node1 -->
<g id="Node000001" class="node">
<title>Node1</title>
<g id="a_Node000001"><a xlink:href="classEbceys_1_1Infrastructure_1_1TestApplication_1_1Validators_1_1ChangeNameRequestValidator.html" target="_top" xlink:title=" ">
<polygon fill="white" stroke="#666666" points="329,-100 137,-100 137,-59 329,-59 329,-100"/>
<text text-anchor="start" x="145" y="-88" font-family="Helvetica,sans-Serif" font-size="10.00">Ebceys.Infrastructure.Test</text>
<text text-anchor="start" x="145" y="-77" font-family="Helvetica,sans-Serif" font-size="10.00">Application.Validators.ChangeName</text>
<text text-anchor="middle" x="233" y="-66" font-family="Helvetica,sans-Serif" font-size="10.00">RequestValidator</text>
</a>
</g>
</g>
<!-- Node0&#45;&gt;Node1 -->
<g id="edge1_Node000000_Node000001" class="edge">
<title>Node0&#45;&gt;Node1</title>
<g id="a_edge1_Node000000_Node000001"><a xlink:title=" ">
<path fill="none" stroke="#63b8ff" d="M111.22,-59.43C119.53,-60.81 128.24,-62.25 137,-63.71"/>
<polygon fill="#63b8ff" stroke="#63b8ff" points="111.74,-55.96 101.3,-57.78 110.59,-62.87 111.74,-55.96"/>
</a>
</g>
</g>
<!-- Node2 -->
<g id="Node000002" class="node">
<title>Node2</title>
<g id="a_Node000002"><a xlink:href="classEbceys_1_1Infrastructure_1_1TestApplication_1_1Validators_1_1SomeBodyRequestValidator.html" target="_top" xlink:title=" ">
<polygon fill="white" stroke="#666666" points="322.5,-41 143.5,-41 143.5,0 322.5,0 322.5,-41"/>
<text text-anchor="start" x="151.5" y="-29" font-family="Helvetica,sans-Serif" font-size="10.00">Ebceys.Infrastructure.Test</text>
<text text-anchor="start" x="151.5" y="-18" font-family="Helvetica,sans-Serif" font-size="10.00">Application.Validators.SomeBody</text>
<text text-anchor="middle" x="233" y="-7" font-family="Helvetica,sans-Serif" font-size="10.00">RequestValidator</text>
</a>
</g>
</g>
<!-- Node0&#45;&gt;Node2 -->
<g id="edge2_Node000000_Node000002" class="edge">
<title>Node0&#45;&gt;Node2</title>
<g id="a_edge2_Node000000_Node000002"><a xlink:title=" ">
<path fill="none" stroke="#63b8ff" d="M111.33,-39.89C121.57,-38.24 132.41,-36.5 143.22,-34.76"/>
<polygon fill="#63b8ff" stroke="#63b8ff" points="110.62,-36.46 101.3,-41.5 111.73,-43.37 110.62,-36.46"/>
</a>
</g>
</g>
</g>
</svg>
