<?xml version="1.0" encoding="UTF-8" standalone="no"?>
<!DOCTYPE svg PUBLIC "-//W3C//DTD SVG 1.1//EN"
 "http://www.w3.org/Graphics/SVG/1.1/DTD/svg11.dtd">
<!-- Generated by graphviz version 2.43.0 (0)
 -->
<!-- Title: Graphical Class Hierarchy Pages: 1 -->
<svg width="350pt" height="108pt"
 viewBox="0.00 0.00 350.00 108.00" xmlns="http://www.w3.org/2000/svg" xmlns:xlink="http://www.w3.org/1999/xlink">
<g id="graph0" class="graph" transform="scale(1 1) rotate(0) translate(4 104)">
<title>Graphical Class Hierarchy</title>
<!-- Node0 -->
<g id="Node000000" class="node">
<title>Node0</title>
<g id="a_Node000000"><a xlink:href="classDelegatingHandler.html" target="_top" xlink:title=" ">
<polygon fill="white" stroke="#666666" points="108,-59 0,-59 0,-40 108,-40 108,-59"/>
<text text-anchor="middle" x="54" y="-47" font-family="Helvetica,sans-Serif" font-size="10.00">DelegatingHandler</text>
</a>
</g>
</g>
<!-- Node1 -->
<g id="Node000001" class="node">
<title>Node1</title>
<g id="a_Node000001"><a xlink:href="classEbceys_1_1Tests_1_1Infrastructure_1_1IntegrationTests_1_1TestRoutingMessageHandler.html" target="_top" xlink:title="The TestRoutingMessageHandler class.">
<polygon fill="white" stroke="#666666" points="342,-100 144,-100 144,-59 342,-59 342,-100"/>
<text text-anchor="start" x="152" y="-88" font-family="Helvetica,sans-Serif" font-size="10.00">Ebceys.Tests.Infrastructure.</text>
<text text-anchor="start" x="152" y="-77" font-family="Helvetica,sans-Serif" font-size="10.00">IntegrationTests.TestRoutingMessage</text>
<text text-anchor="middle" x="243" y="-66" font-family="Helvetica,sans-Serif" font-size="10.00">Handler</text>
</a>
</g>
</g>
<!-- Node0&#45;&gt;Node1 -->
<g id="edge8_Node000000_Node000001" class="edge">
<title>Node0&#45;&gt;Node1</title>
<g id="a_edge8_Node000000_Node000001"><a xlink:title=" ">
<path fill="none" stroke="#63b8ff" d="M118.05,-59.61C126.37,-60.95 135.07,-62.34 143.81,-63.75"/>
<polygon fill="#63b8ff" stroke="#63b8ff" points="118.51,-56.14 108.09,-58.02 117.41,-63.06 118.51,-56.14"/>
</a>
</g>
</g>
<!-- Node2 -->
<g id="Node000002" class="node">
<title>Node2</title>
<g id="a_Node000002"><a xlink:href="classEbceys_1_1Tests_1_1Infrastructure_1_1IntegrationTests_1_1WebApplication_1_1RoutingMessageHandler.html" target="_top" xlink:title=" ">
<polygon fill="white" stroke="#666666" points="331,-41 155,-41 155,0 331,0 331,-41"/>
<text text-anchor="start" x="163" y="-29" font-family="Helvetica,sans-Serif" font-size="10.00">Ebceys.Tests.Infrastructure.</text>
<text text-anchor="start" x="163" y="-18" font-family="Helvetica,sans-Serif" font-size="10.00">IntegrationTests.WebApplication.</text>
<text text-anchor="middle" x="243" y="-7" font-family="Helvetica,sans-Serif" font-size="10.00">RoutingMessageHandler</text>
</a>
</g>
</g>
<!-- Node0&#45;&gt;Node2 -->
<g id="edge9_Node000000_Node000002" class="edge">
<title>Node0&#45;&gt;Node2</title>
<g id="a_edge9_Node000000_Node000002"><a xlink:title=" ">
<path fill="none" stroke="#63b8ff" d="M118.22,-39.7C129.99,-37.87 142.48,-35.93 154.82,-34.02"/>
<polygon fill="#63b8ff" stroke="#63b8ff" points="117.43,-36.28 108.09,-41.27 118.5,-43.19 117.43,-36.28"/>
</a>
</g>
</g>
</g>
</svg>
