<?xml version="1.0" encoding="UTF-8" standalone="no"?>
<!DOCTYPE svg PUBLIC "-//W3C//DTD SVG 1.1//EN"
 "http://www.w3.org/Graphics/SVG/1.1/DTD/svg11.dtd">
<!-- Generated by graphviz version 2.43.0 (0)
 -->
<!-- Title: Graphical Class Hierarchy Pages: 1 -->
<svg width="555pt" height="108pt"
 viewBox="0.00 0.00 555.00 108.00" xmlns="http://www.w3.org/2000/svg" xmlns:xlink="http://www.w3.org/1999/xlink">
<g id="graph0" class="graph" transform="scale(1 1) rotate(0) translate(4 104)">
<title>Graphical Class Hierarchy</title>
<!-- Node0 -->
<g id="Node000000" class="node">
<title>Node0</title>
<g id="a_Node000000"><a xlink:href="classIEnumerable-1-g.html" target="_top" xlink:title=" ">
<polygon fill="white" stroke="#666666" points="78,-59 0,-59 0,-40 78,-40 78,-59"/>
<text text-anchor="middle" x="39" y="-47" font-family="Helvetica,sans-Serif" font-size="10.00">IEnumerable</text>
</a>
</g>
</g>
<!-- Node1 -->
<g id="Node000001" class="node">
<title>Node1</title>
<g id="a_Node000001"><a xlink:href="classEbceys_1_1Tests_1_1Infrastructure_1_1Helpers_1_1TestCaseSources_1_1TestCaseEnumerator-1-g.html" target="_top" xlink:title="The TestCaseEnumerator&lt;TData&gt; class.">
<polygon fill="white" stroke="#666666" points="299,-70 114,-70 114,-29 299,-29 299,-70"/>
<text text-anchor="start" x="122" y="-58" font-family="Helvetica,sans-Serif" font-size="10.00">Ebceys.Tests.Infrastructure.</text>
<text text-anchor="start" x="122" y="-47" font-family="Helvetica,sans-Serif" font-size="10.00">Helpers.TestCaseSources.TestCase</text>
<text text-anchor="middle" x="206.5" y="-36" font-family="Helvetica,sans-Serif" font-size="10.00">Enumerator&lt; TData &gt;</text>
</a>
</g>
</g>
<!-- Node0&#45;&gt;Node1 -->
<g id="edge16_Node000000_Node000001" class="edge">
<title>Node0&#45;&gt;Node1</title>
<g id="a_edge16_Node000000_Node000001"><a xlink:title=" ">
<path fill="none" stroke="#63b8ff" d="M88.61,-49.5C96.65,-49.5 105.2,-49.5 113.89,-49.5"/>
<polygon fill="#63b8ff" stroke="#63b8ff" points="88.39,-46 78.39,-49.5 88.38,-53 88.39,-46"/>
</a>
</g>
</g>
<!-- Node2 -->
<g id="Node000002" class="node">
<title>Node2</title>
<g id="a_Node000002"><a xlink:href="classEbceys_1_1Tests_1_1Infrastructure_1_1Helpers_1_1TestCaseSources_1_1EbTestDataInvalidExecutor-2-g.html" target="_top" xlink:title="The invalid test case executor. Executes the EbTestCaseSource&lt;TData&gt;.GetInvalidCases.">
<polygon fill="white" stroke="#666666" points="547,-100 335,-100 335,-59 547,-59 547,-100"/>
<text text-anchor="start" x="343" y="-88" font-family="Helvetica,sans-Serif" font-size="10.00">Ebceys.Tests.Infrastructure.</text>
<text text-anchor="start" x="343" y="-77" font-family="Helvetica,sans-Serif" font-size="10.00">Helpers.TestCaseSources.EbTestData</text>
<text text-anchor="middle" x="441" y="-66" font-family="Helvetica,sans-Serif" font-size="10.00">InvalidExecutor&lt; TEnumerator, TData &gt;</text>
</a>
</g>
</g>
<!-- Node1&#45;&gt;Node2 -->
<g id="edge17_Node000001_Node000002" class="edge">
<title>Node1&#45;&gt;Node2</title>
<g id="a_edge17_Node000001_Node000002"><a xlink:title=" ">
<path fill="none" stroke="#63b8ff" d="M308.99,-62.6C317.51,-63.69 326.13,-64.81 334.67,-65.91"/>
<polygon fill="#63b8ff" stroke="#63b8ff" points="309.42,-59.12 299.06,-61.31 308.53,-66.06 309.42,-59.12"/>
</a>
</g>
</g>
<!-- Node3 -->
<g id="Node000003" class="node">
<title>Node3</title>
<g id="a_Node000003"><a xlink:href="classEbceys_1_1Tests_1_1Infrastructure_1_1Helpers_1_1TestCaseSources_1_1EbTestDataValidExecutor-2-g.html" target="_top" xlink:title="The valid test case executor. Executes the EbTestCaseSource&lt;TData&gt;.GetValidCases.">
<polygon fill="white" stroke="#666666" points="542.5,-41 339.5,-41 339.5,0 542.5,0 542.5,-41"/>
<text text-anchor="start" x="347.5" y="-29" font-family="Helvetica,sans-Serif" font-size="10.00">Ebceys.Tests.Infrastructure.</text>
<text text-anchor="start" x="347.5" y="-18" font-family="Helvetica,sans-Serif" font-size="10.00">Helpers.TestCaseSources.EbTestData</text>
<text text-anchor="middle" x="441" y="-7" font-family="Helvetica,sans-Serif" font-size="10.00">ValidExecutor&lt; TEnumerator, TData &gt;</text>
</a>
</g>
</g>
<!-- Node1&#45;&gt;Node3 -->
<g id="edge18_Node000001_Node000003" class="edge">
<title>Node1&#45;&gt;Node3</title>
<g id="a_edge18_Node000001_Node000003"><a xlink:title=" ">
<path fill="none" stroke="#63b8ff" d="M309.04,-36.83C319.09,-35.58 329.28,-34.31 339.32,-33.06"/>
<polygon fill="#63b8ff" stroke="#63b8ff" points="308.55,-33.37 299.06,-38.08 309.41,-40.32 308.55,-33.37"/>
</a>
</g>
</g>
</g>
</svg>
