<?xml version="1.0" encoding="UTF-8" standalone="no"?>
<!DOCTYPE svg PUBLIC "-//W3C//DTD SVG 1.1//EN"
 "http://www.w3.org/Graphics/SVG/1.1/DTD/svg11.dtd">
<!-- Generated by graphviz version 2.43.0 (0)
 -->
<!-- Title: Ebceys.Infrastructure.TestApplication.Commands.DeleteElementCommandContext Pages: 1 -->
<svg width="692pt" height="127pt"
 viewBox="0.00 0.00 692.00 126.50" xmlns="http://www.w3.org/2000/svg" xmlns:xlink="http://www.w3.org/1999/xlink">
<g id="graph0" class="graph" transform="scale(1 1) rotate(0) translate(4 122.5)">
<title>Ebceys.Infrastructure.TestApplication.Commands.DeleteElementCommandContext</title>
<!-- Node1 -->
<g id="Node000001" class="node">
<title>Node1</title>
<g id="a_Node000001"><a xlink:title=" ">
<polygon fill="#999999" stroke="#666666" points="684,-62.5 478,-62.5 478,-21.5 684,-21.5 684,-62.5"/>
<text text-anchor="start" x="486" y="-50.5" font-family="Helvetica,sans-Serif" font-size="10.00">Ebceys.Infrastructure.Test</text>
<text text-anchor="start" x="486" y="-39.5" font-family="Helvetica,sans-Serif" font-size="10.00">Application.Commands.DeleteElement</text>
<text text-anchor="middle" x="581" y="-28.5" font-family="Helvetica,sans-Serif" font-size="10.00">CommandContext</text>
</a>
</g>
</g>
<!-- Node2 -->
<g id="Node000002" class="node">
<title>Node2</title>
<g id="a_Node000002"><a xlink:href="classEbceys_1_1Infrastructure_1_1TestApplication_1_1Controllers_1_1TestController.html#a72843f35fe34a08d1ca3a45fc3542016" target="_top" xlink:title=" ">
<polygon fill="white" stroke="#666666" points="200,-118.5 0,-118.5 0,-77.5 200,-77.5 200,-118.5"/>
<text text-anchor="start" x="8" y="-106.5" font-family="Helvetica,sans-Serif" font-size="10.00">Ebceys.Infrastructure.Test</text>
<text text-anchor="start" x="8" y="-95.5" font-family="Helvetica,sans-Serif" font-size="10.00">Application.Controllers.TestController.</text>
<text text-anchor="middle" x="100" y="-84.5" font-family="Helvetica,sans-Serif" font-size="10.00">DeleteCommand</text>
</a>
</g>
</g>
<!-- Node1&#45;&gt;Node2 -->
<g id="edge1_Node000001_Node000002" class="edge">
<title>Node1&#45;&gt;Node2</title>
<g id="a_edge1_Node000001_Node000002"><a xlink:title=" ">
<path fill="none" stroke="#63b8ff" d="M523.27,-66.2C498.75,-75.48 469.43,-85.03 442,-90 361.59,-104.56 268.78,-105.75 200.31,-103.75"/>
<polygon fill="#63b8ff" stroke="#63b8ff" points="524.7,-69.4 532.77,-62.53 522.18,-62.87 524.7,-69.4"/>
</a>
</g>
</g>
<!-- Node3 -->
<g id="Node000003" class="node">
<title>Node3</title>
<g id="a_Node000003"><a xlink:href="namespaceEbceys_1_1Infrastructure_1_1TestApplication_1_1Commands.html#a2a114d426beecb5d879d15b53da8f89c" target="_top" xlink:title=" ">
<polygon fill="white" stroke="#666666" points="442,-62.5 236,-62.5 236,-21.5 442,-21.5 442,-62.5"/>
<text text-anchor="start" x="244" y="-50.5" font-family="Helvetica,sans-Serif" font-size="10.00">Ebceys.Infrastructure.Test</text>
<text text-anchor="start" x="244" y="-39.5" font-family="Helvetica,sans-Serif" font-size="10.00">Application.Commands.DeleteElement</text>
<text text-anchor="middle" x="339" y="-28.5" font-family="Helvetica,sans-Serif" font-size="10.00">CommandResult</text>
</a>
</g>
</g>
<!-- Node1&#45;&gt;Node3 -->
<g id="edge2_Node000001_Node000003" class="edge">
<title>Node1&#45;&gt;Node3</title>
<g id="a_edge2_Node000001_Node000003"><a xlink:title=" ">
<path fill="none" stroke="#63b8ff" d="M467.81,-42C459.22,-42 450.57,-42 442.04,-42"/>
<polygon fill="#63b8ff" stroke="#63b8ff" points="467.87,-45.5 477.87,-42 467.87,-38.5 467.87,-45.5"/>
</a>
</g>
</g>
<!-- Node4 -->
<g id="Node000004" class="node">
<title>Node4</title>
<g id="a_Node000004"><a xlink:href="namespaceEbceys_1_1Infrastructure_1_1TestApplication.html#ab81a1413fa2d4078311b09b25cfd7256" target="_top" xlink:title=" ">
<polygon fill="white" stroke="#666666" points="171.5,-30 28.5,-30 28.5,0 171.5,0 171.5,-30"/>
<text text-anchor="start" x="36.5" y="-18" font-family="Helvetica,sans-Serif" font-size="10.00">Ebceys.Infrastructure.Test</text>
<text text-anchor="middle" x="100" y="-7" font-family="Helvetica,sans-Serif" font-size="10.00">Application.Startup</text>
</a>
</g>
</g>
<!-- Node1&#45;&gt;Node4 -->
<g id="edge7_Node000001_Node000004" class="edge">
<title>Node1&#45;&gt;Node4</title>
<g id="a_edge7_Node000001_Node000004"><a xlink:title=" ">
<path fill="none" stroke="#63b8ff" d="M489.27,-19.39C473.6,-16.32 457.4,-13.65 442,-12 348.99,-2.01 240.9,-5.49 171.77,-9.62"/>
<polygon fill="#63b8ff" stroke="#63b8ff" points="488.98,-22.91 499.48,-21.47 490.37,-16.05 488.98,-22.91"/>
</a>
</g>
</g>
<!-- Node3&#45;&gt;Node2 -->
<g id="edge3_Node000003_Node000002" class="edge">
<title>Node3&#45;&gt;Node2</title>
<g id="a_edge3_Node000003_Node000002"><a xlink:title=" ">
<path fill="none" stroke="#63b8ff" d="M241.35,-64.84C223.65,-69.02 205.28,-73.36 187.89,-77.47"/>
<polygon fill="#63b8ff" stroke="#63b8ff" points="242.17,-68.24 251.1,-62.53 240.56,-61.43 242.17,-68.24"/>
</a>
</g>
</g>
<!-- Node3&#45;&gt;Node3 -->
<g id="edge4_Node000003_Node000003" class="edge">
<title>Node3&#45;&gt;Node3</title>
<g id="a_edge4_Node000003_Node000003"><a xlink:title=" ">
<path fill="none" stroke="#63b8ff" d="M379.95,-72.46C373.86,-77.24 360.21,-80.5 339,-80.5 305.07,-80.5 290.49,-72.15 295.26,-62.6"/>
<polygon fill="#63b8ff" stroke="#63b8ff" points="383.38,-73.17 382.74,-62.6 376.65,-71.26 383.38,-73.17"/>
</a>
</g>
</g>
<!-- Node3&#45;&gt;Node4 -->
<g id="edge5_Node000003_Node000004" class="edge">
<title>Node3&#45;&gt;Node4</title>
<g id="a_edge5_Node000003_Node000004"><a xlink:title=" ">
<path fill="none" stroke="#63b8ff" d="M225.82,-29.22C207.32,-27.11 188.61,-24.98 171.5,-23.03"/>
<polygon fill="#63b8ff" stroke="#63b8ff" points="225.44,-32.7 235.77,-30.35 226.23,-25.74 225.44,-32.7"/>
</a>
</g>
</g>
<!-- Node4&#45;&gt;Node4 -->
<g id="edge6_Node000004_Node000004" class="edge">
<title>Node4&#45;&gt;Node4</title>
<g id="a_edge6_Node000004_Node000004"><a xlink:title=" ">
<path fill="none" stroke="#63b8ff" d="M141.66,-40.6C135.97,-44.97 122.08,-48 100,-48 62.81,-48 48.87,-39.41 58.16,-30.28"/>
<polygon fill="#63b8ff" stroke="#63b8ff" points="145.16,-40.33 141.84,-30.28 138.16,-40.21 145.16,-40.33"/>
</a>
</g>
</g>
</g>
</svg>
