<?xml version="1.0" encoding="UTF-8" standalone="no"?>
<!DOCTYPE svg PUBLIC "-//W3C//DTD SVG 1.1//EN"
 "http://www.w3.org/Graphics/SVG/1.1/DTD/svg11.dtd">
<!-- Generated by graphviz version 2.43.0 (0)
 -->
<!-- Title: Ebceys.Infrastructure.TestApplication.BoundedContext.Requests.ChangeNameRequest Pages: 1 -->
<svg width="484pt" height="245pt"
 viewBox="0.00 0.00 484.00 244.50" xmlns="http://www.w3.org/2000/svg" xmlns:xlink="http://www.w3.org/1999/xlink">
<g id="graph0" class="graph" transform="scale(1 1) rotate(0) translate(4 240.5)">
<title>Ebceys.Infrastructure.TestApplication.BoundedContext.Requests.ChangeNameRequest</title>
<!-- Node1 -->
<g id="Node000001" class="node">
<title>Node1</title>
<g id="a_Node000001"><a xlink:title=" ">
<polygon fill="#999999" stroke="#666666" points="476,-141.5 270,-141.5 270,-100.5 476,-100.5 476,-141.5"/>
<text text-anchor="start" x="278" y="-129.5" font-family="Helvetica,sans-Serif" font-size="10.00">Ebceys.Infrastructure.Test</text>
<text text-anchor="start" x="278" y="-118.5" font-family="Helvetica,sans-Serif" font-size="10.00">Application.BoundedContext.Requests.</text>
<text text-anchor="middle" x="373" y="-107.5" font-family="Helvetica,sans-Serif" font-size="10.00">ChangeNameRequest</text>
</a>
</g>
</g>
<!-- Node2 -->
<g id="Node000002" class="node">
<title>Node2</title>
<g id="a_Node000002"><a xlink:href="classEbceys_1_1Infrastructure_1_1TestApplication_1_1Controllers_1_1TestController.html#a82fd01449a1cae6fdcf7c43d6506c1d2" target="_top" xlink:title=" ">
<polygon fill="white" stroke="#666666" points="217,-236.5 17,-236.5 17,-195.5 217,-195.5 217,-236.5"/>
<text text-anchor="start" x="25" y="-224.5" font-family="Helvetica,sans-Serif" font-size="10.00">Ebceys.Infrastructure.Test</text>
<text text-anchor="start" x="25" y="-213.5" font-family="Helvetica,sans-Serif" font-size="10.00">Application.Controllers.TestController.</text>
<text text-anchor="middle" x="117" y="-202.5" font-family="Helvetica,sans-Serif" font-size="10.00">PutCommand</text>
</a>
</g>
</g>
<!-- Node1&#45;&gt;Node2 -->
<g id="edge1_Node000001_Node000002" class="edge">
<title>Node1&#45;&gt;Node2</title>
<g id="a_edge1_Node000001_Node000002"><a xlink:title=" ">
<path fill="none" stroke="#63b8ff" d="M325.26,-146.25C298.99,-159.7 265.29,-175.73 234,-187 225.6,-190.02 216.75,-192.85 207.84,-195.46"/>
<polygon fill="#63b8ff" stroke="#63b8ff" points="326.95,-149.32 334.22,-141.62 323.73,-143.1 326.95,-149.32"/>
</a>
</g>
</g>
<!-- Node3 -->
<g id="Node000003" class="node">
<title>Node3</title>
<g id="a_Node000003"><a xlink:href="interfaceEbceys_1_1Infrastructure_1_1TestApplication_1_1Client_1_1Interfaces_1_1ITestClient.html#a39616f227caf996bcea912d0af53a366" target="_top" xlink:title=" ">
<polygon fill="white" stroke="#666666" points="200,-177.5 34,-177.5 34,-136.5 200,-136.5 200,-177.5"/>
<text text-anchor="start" x="42" y="-165.5" font-family="Helvetica,sans-Serif" font-size="10.00">Ebceys.Infrastructure.Test</text>
<text text-anchor="start" x="42" y="-154.5" font-family="Helvetica,sans-Serif" font-size="10.00">Application.Client.Interfaces.</text>
<text text-anchor="middle" x="117" y="-143.5" font-family="Helvetica,sans-Serif" font-size="10.00">ITestClient.PutCommandAsync</text>
</a>
</g>
</g>
<!-- Node1&#45;&gt;Node3 -->
<g id="edge2_Node000001_Node000003" class="edge">
<title>Node1&#45;&gt;Node3</title>
<g id="a_edge2_Node000001_Node000003"><a xlink:title=" ">
<path fill="none" stroke="#63b8ff" d="M259.68,-136.92C239.65,-139.76 219.12,-142.67 200.12,-145.36"/>
<polygon fill="#63b8ff" stroke="#63b8ff" points="260.38,-140.36 269.79,-135.49 259.39,-133.42 260.38,-140.36"/>
</a>
</g>
</g>
<!-- Node4 -->
<g id="Node000004" class="node">
<title>Node4</title>
<g id="a_Node000004"><a xlink:href="namespaceEbceys_1_1Infrastructure_1_1TestApplication.html#ab81a1413fa2d4078311b09b25cfd7256" target="_top" xlink:title=" ">
<polygon fill="white" stroke="#666666" points="188.5,-100 45.5,-100 45.5,-70 188.5,-70 188.5,-100"/>
<text text-anchor="start" x="53.5" y="-88" font-family="Helvetica,sans-Serif" font-size="10.00">Ebceys.Infrastructure.Test</text>
<text text-anchor="middle" x="117" y="-77" font-family="Helvetica,sans-Serif" font-size="10.00">Application.Startup</text>
</a>
</g>
</g>
<!-- Node1&#45;&gt;Node4 -->
<g id="edge3_Node000001_Node000004" class="edge">
<title>Node1&#45;&gt;Node4</title>
<g id="a_edge3_Node000001_Node000004"><a xlink:title=" ">
<path fill="none" stroke="#63b8ff" d="M259.86,-105.11C235.73,-101.69 210.86,-98.16 188.83,-95.04"/>
<polygon fill="#63b8ff" stroke="#63b8ff" points="259.39,-108.58 269.79,-106.51 260.38,-101.64 259.39,-108.58"/>
</a>
</g>
</g>
<!-- Node5 -->
<g id="Node000005" class="node">
<title>Node5</title>
<g id="a_Node000005"><a xlink:href="classEbceys_1_1Infrastructure_1_1Tests_1_1Middlewares_1_1RequestLoggingMiddlewareTests.html#ada64b1e0e61d6681e72fd663ad8254d4" target="_top" xlink:title=" ">
<polygon fill="white" stroke="#666666" points="234,-52 0,-52 0,0 234,0 234,-52"/>
<text text-anchor="start" x="8" y="-40" font-family="Helvetica,sans-Serif" font-size="10.00">Ebceys.Infrastructure.Tests.</text>
<text text-anchor="start" x="8" y="-29" font-family="Helvetica,sans-Serif" font-size="10.00">Middlewares.RequestLoggingMiddleware</text>
<text text-anchor="start" x="8" y="-18" font-family="Helvetica,sans-Serif" font-size="10.00">Tests.When_Requests_With_NoLoggingInAttr</text>
<text text-anchor="middle" x="117" y="-7" font-family="Helvetica,sans-Serif" font-size="10.00">_Result_CatcherDontLogBodies</text>
</a>
</g>
</g>
<!-- Node1&#45;&gt;Node5 -->
<g id="edge5_Node000001_Node000005" class="edge">
<title>Node1&#45;&gt;Node5</title>
<g id="a_edge5_Node000001_Node000005"><a xlink:title=" ">
<path fill="none" stroke="#63b8ff" d="M319.29,-96.36C293.81,-84.89 262.62,-71.5 234,-61 225.61,-57.92 216.8,-54.9 207.96,-52"/>
<polygon fill="#63b8ff" stroke="#63b8ff" points="317.85,-99.55 328.41,-100.48 320.74,-93.17 317.85,-99.55"/>
</a>
</g>
</g>
<!-- Node4&#45;&gt;Node4 -->
<g id="edge4_Node000004_Node000004" class="edge">
<title>Node4&#45;&gt;Node4</title>
<g id="a_edge4_Node000004_Node000004"><a xlink:title=" ">
<path fill="none" stroke="#63b8ff" d="M161.81,-110.6C155.69,-114.97 140.75,-118 117,-118 77,-118 62,-109.41 72,-100.28"/>
<polygon fill="#63b8ff" stroke="#63b8ff" points="165.31,-110.34 162,-100.28 158.32,-110.21 165.31,-110.34"/>
</a>
</g>
</g>
</g>
</svg>
