<?xml version="1.0" encoding="UTF-8" standalone="no"?>
<!DOCTYPE svg PUBLIC "-//W3C//DTD SVG 1.1//EN"
 "http://www.w3.org/Graphics/SVG/1.1/DTD/svg11.dtd">
<!-- Generated by graphviz version 2.43.0 (0)
 -->
<!-- Title: Ebceys.Infrastructure.TestApplication.Commands.GetEntitiesCommandResult Pages: 1 -->
<svg width="419pt" height="67pt"
 viewBox="0.00 0.00 419.00 67.00" xmlns="http://www.w3.org/2000/svg" xmlns:xlink="http://www.w3.org/1999/xlink">
<g id="graph0" class="graph" transform="scale(1 1) rotate(0) translate(4 63)">
<title>Ebceys.Infrastructure.TestApplication.Commands.GetEntitiesCommandResult</title>
<!-- Node1 -->
<g id="Node000001" class="node">
<title>Node1</title>
<g id="a_Node000001"><a xlink:title=" ">
<polygon fill="#999999" stroke="#666666" points="187,-41 0,-41 0,0 187,0 187,-41"/>
<text text-anchor="start" x="8" y="-29" font-family="Helvetica,sans-Serif" font-size="10.00">Ebceys.Infrastructure.Test</text>
<text text-anchor="start" x="8" y="-18" font-family="Helvetica,sans-Serif" font-size="10.00">Application.Commands.GetEntities</text>
<text text-anchor="middle" x="93.5" y="-7" font-family="Helvetica,sans-Serif" font-size="10.00">CommandResult</text>
</a>
</g>
</g>
<!-- Node1&#45;&gt;Node1 -->
<g id="edge3_Node000001_Node000001" class="edge">
<title>Node1&#45;&gt;Node1</title>
<g id="a_edge3_Node000001_Node000001"><a xlink:title=" ">
<path fill="none" stroke="#63b8ff" d="M52.7,-41.1C48.25,-50.65 61.85,-59 93.5,-59 113.28,-59 126.01,-55.74 131.69,-50.96"/>
<polygon fill="#63b8ff" stroke="#63b8ff" points="135.13,-51.66 134.3,-41.1 128.36,-49.87 135.13,-51.66"/>
</a>
</g>
</g>
<!-- Node2 -->
<g id="Node000002" class="node">
<title>Node2</title>
<g id="a_Node000002"><a xlink:href="namespaceEbceys_1_1Infrastructure_1_1TestApplication_1_1DaL.html#a3cb9ad5fd6ae558d6f20c0c275eb32da" target="_top" xlink:title=" ">
<polygon fill="white" stroke="#666666" points="411,-35.5 223,-35.5 223,-5.5 411,-5.5 411,-35.5"/>
<text text-anchor="start" x="231" y="-23.5" font-family="Helvetica,sans-Serif" font-size="10.00">Ebceys.Infrastructure.Test</text>
<text text-anchor="middle" x="317" y="-12.5" font-family="Helvetica,sans-Serif" font-size="10.00">Application.DaL.DataModelContext</text>
</a>
</g>
</g>
<!-- Node1&#45;&gt;Node2 -->
<g id="edge1_Node000001_Node000002" class="edge">
<title>Node1&#45;&gt;Node2</title>
<g id="a_edge1_Node000001_Node000002"><a xlink:title=" ">
<path fill="none" stroke="#63b8ff" d="M187.15,-20.5C195.5,-20.5 203.98,-20.5 212.41,-20.5"/>
<polygon fill="#63b8ff" stroke="#63b8ff" points="212.65,-24 222.65,-20.5 212.65,-17 212.65,-24"/>
</a>
</g>
</g>
<!-- Node2&#45;&gt;Node2 -->
<g id="edge2_Node000002_Node000002" class="edge">
<title>Node2&#45;&gt;Node2</title>
<g id="a_edge2_Node000002_Node000002"><a xlink:title=" ">
<path fill="none" stroke="#63b8ff" d="M277.98,-35.78C269.3,-44.91 282.31,-53.5 317,-53.5 337.6,-53.5 350.55,-50.47 355.86,-46.1"/>
<polygon fill="#63b8ff" stroke="#63b8ff" points="359.36,-45.83 356.02,-35.78 352.36,-45.72 359.36,-45.83"/>
</a>
</g>
</g>
</g>
</svg>
