<?xml version="1.0" encoding="UTF-8" standalone="no"?>
<!DOCTYPE svg PUBLIC "-//W3C//DTD SVG 1.1//EN"
 "http://www.w3.org/Graphics/SVG/1.1/DTD/svg11.dtd">
<!-- Generated by graphviz version 2.43.0 (0)
 -->
<!-- Title: Ebceys.Infrastructure.AuthorizationTestApplication.BoundedContext.GenerateTokenRequest Pages: 1 -->
<svg width="702pt" height="344pt"
 viewBox="0.00 0.00 702.00 344.00" xmlns="http://www.w3.org/2000/svg" xmlns:xlink="http://www.w3.org/1999/xlink">
<g id="graph0" class="graph" transform="scale(1 1) rotate(0) translate(4 340)">
<title>Ebceys.Infrastructure.AuthorizationTestApplication.BoundedContext.GenerateTokenRequest</title>
<!-- Node1 -->
<g id="Node000001" class="node">
<title>Node1</title>
<g id="a_Node000001"><a xlink:title=" ">
<polygon fill="#999999" stroke="#666666" points="694,-188 471,-188 471,-147 694,-147 694,-188"/>
<text text-anchor="start" x="479" y="-176" font-family="Helvetica,sans-Serif" font-size="10.00">Ebceys.Infrastructure.Authorization</text>
<text text-anchor="start" x="479" y="-165" font-family="Helvetica,sans-Serif" font-size="10.00">TestApplication.BoundedContext.Generate</text>
<text text-anchor="middle" x="582.5" y="-154" font-family="Helvetica,sans-Serif" font-size="10.00">TokenRequest</text>
</a>
</g>
</g>
<!-- Node2 -->
<g id="Node000002" class="node">
<title>Node2</title>
<g id="a_Node000002"><a xlink:href="interfaceEbceys_1_1Infrastructure_1_1AuthorizationTestApplication_1_1Client_1_1IAppRabbitClient.html#a77b0250b2e083b32cc3f396e2c7b3d79" target="_top" xlink:title=" ">
<polygon fill="white" stroke="#666666" points="428.5,-336 218.5,-336 218.5,-295 428.5,-295 428.5,-336"/>
<text text-anchor="start" x="226.5" y="-324" font-family="Helvetica,sans-Serif" font-size="10.00">Ebceys.Infrastructure.Authorization</text>
<text text-anchor="start" x="226.5" y="-313" font-family="Helvetica,sans-Serif" font-size="10.00">TestApplication.Client.IAppRabbitClient.</text>
<text text-anchor="middle" x="323.5" y="-302" font-family="Helvetica,sans-Serif" font-size="10.00">GenerateTokenAsync</text>
</a>
</g>
</g>
<!-- Node1&#45;&gt;Node2 -->
<g id="edge1_Node000001_Node000002" class="edge">
<title>Node1&#45;&gt;Node2</title>
<g id="a_edge1_Node000001_Node000002"><a xlink:title=" ">
<path fill="none" stroke="#63b8ff" d="M554.38,-195.63C526.75,-222.71 481.48,-262.92 435,-286.5 428.81,-289.64 422.25,-292.46 415.53,-295"/>
<polygon fill="#63b8ff" stroke="#63b8ff" points="557.06,-197.9 561.69,-188.37 552.13,-192.93 557.06,-197.9"/>
</a>
</g>
</g>
<!-- Node3 -->
<g id="Node000003" class="node">
<title>Node3</title>
<g id="a_Node000003"><a xlink:href="interfaceEbceys_1_1Infrastructure_1_1AuthorizationTestApplication_1_1Client_1_1IAuthAppClient.html#a2eaab4f62cd4bd8267db70850c924080" target="_top" xlink:title=" ">
<polygon fill="white" stroke="#666666" points="424,-277 223,-277 223,-236 424,-236 424,-277"/>
<text text-anchor="start" x="231" y="-265" font-family="Helvetica,sans-Serif" font-size="10.00">Ebceys.Infrastructure.Authorization</text>
<text text-anchor="start" x="231" y="-254" font-family="Helvetica,sans-Serif" font-size="10.00">TestApplication.Client.IAuthAppClient.</text>
<text text-anchor="middle" x="323.5" y="-243" font-family="Helvetica,sans-Serif" font-size="10.00">GenerateTokenAsync</text>
</a>
</g>
</g>
<!-- Node1&#45;&gt;Node3 -->
<g id="edge2_Node000001_Node000003" class="edge">
<title>Node1&#45;&gt;Node3</title>
<g id="a_edge2_Node000001_Node000003"><a xlink:title=" ">
<path fill="none" stroke="#63b8ff" d="M526.24,-192.15C499.08,-203.75 465.66,-217.25 435,-227.5 426.16,-230.46 416.84,-233.3 407.52,-235.98"/>
<polygon fill="#63b8ff" stroke="#63b8ff" points="527.77,-195.3 535.57,-188.14 525.01,-188.87 527.77,-195.3"/>
</a>
</g>
</g>
<!-- Node4 -->
<g id="Node000004" class="node">
<title>Node4</title>
<g id="a_Node000004"><a xlink:href="classEbceys_1_1Infrastructure_1_1AuthorizationTestApplication_1_1Controllers_1_1AuthController.html#a3b59d5746a0d04755018952ca89b90b2" target="_top" xlink:title=" ">
<polygon fill="white" stroke="#666666" points="435,-218 212,-218 212,-177 435,-177 435,-218"/>
<text text-anchor="start" x="220" y="-206" font-family="Helvetica,sans-Serif" font-size="10.00">Ebceys.Infrastructure.Authorization</text>
<text text-anchor="start" x="220" y="-195" font-family="Helvetica,sans-Serif" font-size="10.00">TestApplication.Controllers.AuthController.</text>
<text text-anchor="middle" x="323.5" y="-184" font-family="Helvetica,sans-Serif" font-size="10.00">GetToken</text>
</a>
</g>
</g>
<!-- Node1&#45;&gt;Node4 -->
<g id="edge3_Node000001_Node000004" class="edge">
<title>Node1&#45;&gt;Node4</title>
<g id="a_edge3_Node000001_Node000004"><a xlink:title=" ">
<path fill="none" stroke="#63b8ff" d="M460.47,-181.63C452.11,-182.6 443.7,-183.59 435.4,-184.56"/>
<polygon fill="#63b8ff" stroke="#63b8ff" points="461.12,-185.08 470.64,-180.44 460.31,-178.12 461.12,-185.08"/>
</a>
</g>
</g>
<!-- Node5 -->
<g id="Node000005" class="node">
<title>Node5</title>
<g id="a_Node000005"><a xlink:href="classEbceys_1_1Infrastructure_1_1TestApplication_1_1Controllers_1_1TestController.html#a870a6c2244475858cd1d74165b20a2d3" target="_top" xlink:title=" ">
<polygon fill="white" stroke="#666666" points="423.5,-159 223.5,-159 223.5,-118 423.5,-118 423.5,-159"/>
<text text-anchor="start" x="231.5" y="-147" font-family="Helvetica,sans-Serif" font-size="10.00">Ebceys.Infrastructure.Test</text>
<text text-anchor="start" x="231.5" y="-136" font-family="Helvetica,sans-Serif" font-size="10.00">Application.Controllers.TestController.</text>
<text text-anchor="middle" x="323.5" y="-125" font-family="Helvetica,sans-Serif" font-size="10.00">GetToken</text>
</a>
</g>
</g>
<!-- Node1&#45;&gt;Node5 -->
<g id="edge4_Node000001_Node000005" class="edge">
<title>Node1&#45;&gt;Node5</title>
<g id="a_edge4_Node000001_Node000005"><a xlink:title=" ">
<path fill="none" stroke="#63b8ff" d="M460.35,-153.83C448.06,-152.44 435.68,-151.05 423.66,-149.69"/>
<polygon fill="#63b8ff" stroke="#63b8ff" points="460.31,-157.35 470.64,-154.99 461.1,-150.39 460.31,-157.35"/>
</a>
</g>
</g>
<!-- Node6 -->
<g id="Node000006" class="node">
<title>Node6</title>
<g id="a_Node000006"><a xlink:href="classEbceys_1_1Infrastructure_1_1AuthorizationTestApplication_1_1Controllers_1_1AuthController.html#a8eba667312dc5a90e97222e584d54396" target="_top" xlink:title=" ">
<polygon fill="white" stroke="#666666" points="435,-100 212,-100 212,-59 435,-59 435,-100"/>
<text text-anchor="start" x="220" y="-88" font-family="Helvetica,sans-Serif" font-size="10.00">Ebceys.Infrastructure.Authorization</text>
<text text-anchor="start" x="220" y="-77" font-family="Helvetica,sans-Serif" font-size="10.00">TestApplication.Controllers.AuthController.</text>
<text text-anchor="middle" x="323.5" y="-66" font-family="Helvetica,sans-Serif" font-size="10.00">ValidateToken</text>
</a>
</g>
</g>
<!-- Node1&#45;&gt;Node6 -->
<g id="edge5_Node000001_Node000006" class="edge">
<title>Node1&#45;&gt;Node6</title>
<g id="a_edge5_Node000001_Node000006"><a xlink:title=" ">
<path fill="none" stroke="#63b8ff" d="M523.91,-142.97C497.13,-132.02 464.71,-119.38 435,-109.5 425.19,-106.24 414.81,-103.06 404.49,-100.08"/>
<polygon fill="#63b8ff" stroke="#63b8ff" points="522.92,-146.35 533.5,-146.92 525.59,-139.88 522.92,-146.35"/>
</a>
</g>
</g>
<!-- Node7 -->
<g id="Node000007" class="node">
<title>Node7</title>
<g id="a_Node000007"><a xlink:href="classEbceys_1_1Infrastructure_1_1Tests_1_1ClientTests_1_1RabbitMqClientTests.html#a858b0e39a54824f913e086ce72b41897" target="_top" xlink:title=" ">
<polygon fill="white" stroke="#666666" points="411.5,-41 235.5,-41 235.5,0 411.5,0 411.5,-41"/>
<text text-anchor="start" x="243.5" y="-29" font-family="Helvetica,sans-Serif" font-size="10.00">Ebceys.Infrastructure.Tests.</text>
<text text-anchor="start" x="243.5" y="-18" font-family="Helvetica,sans-Serif" font-size="10.00">ClientTests.RabbitMqClientTests.</text>
<text text-anchor="middle" x="323.5" y="-7" font-family="Helvetica,sans-Serif" font-size="10.00">When_GetJson_With_Result_Ok</text>
</a>
</g>
</g>
<!-- Node1&#45;&gt;Node7 -->
<g id="edge6_Node000001_Node000007" class="edge">
<title>Node1&#45;&gt;Node7</title>
<g id="a_edge6_Node000001_Node000007"><a xlink:title=" ">
<path fill="none" stroke="#63b8ff" d="M553.76,-139.49C525.99,-112.95 480.9,-73.79 435,-50.5 427.64,-46.77 419.77,-43.46 411.73,-40.53"/>
<polygon fill="#63b8ff" stroke="#63b8ff" points="551.5,-142.17 561.12,-146.61 556.37,-137.14 551.5,-142.17"/>
</a>
</g>
</g>
<!-- Node8 -->
<g id="Node000008" class="node">
<title>Node8</title>
<g id="a_Node000008"><a xlink:href="classEbceys_1_1Infrastructure_1_1Tests_1_1ClientTests_1_1RabbitMqClientTests.html#aeb8aafad37548dc1545d50784ac6cea4" target="_top" xlink:title=" ">
<polygon fill="white" stroke="#666666" points="176,-41 0,-41 0,0 176,0 176,-41"/>
<text text-anchor="start" x="8" y="-29" font-family="Helvetica,sans-Serif" font-size="10.00">Ebceys.Infrastructure.Tests.</text>
<text text-anchor="start" x="8" y="-18" font-family="Helvetica,sans-Serif" font-size="10.00">ClientTests.RabbitMqClientTests.</text>
<text text-anchor="middle" x="88" y="-7" font-family="Helvetica,sans-Serif" font-size="10.00">LittleBenchmark</text>
</a>
</g>
</g>
<!-- Node7&#45;&gt;Node8 -->
<g id="edge7_Node000007_Node000008" class="edge">
<title>Node7&#45;&gt;Node8</title>
<g id="a_edge7_Node000007_Node000008"><a xlink:title=" ">
<path fill="none" stroke="#63b8ff" d="M225.18,-20.5C208.92,-20.5 192.15,-20.5 176.17,-20.5"/>
<polygon fill="#63b8ff" stroke="#63b8ff" points="225.22,-24 235.22,-20.5 225.22,-17 225.22,-24"/>
</a>
</g>
</g>
</g>
</svg>
