<?xml version="1.0" encoding="UTF-8" standalone="no"?>
<!DOCTYPE svg PUBLIC "-//W3C//DTD SVG 1.1//EN"
 "http://www.w3.org/Graphics/SVG/1.1/DTD/svg11.dtd">
<!-- Generated by graphviz version 2.43.0 (0)
 -->
<!-- Title: Ebceys.Infrastructure.AuthorizationTestApplication.AuthorizationStartup Pages: 1 -->
<svg width="399pt" height="56pt"
 viewBox="0.00 0.00 399.00 56.00" xmlns="http://www.w3.org/2000/svg" xmlns:xlink="http://www.w3.org/1999/xlink">
<g id="graph0" class="graph" transform="scale(1 1) rotate(0) translate(4 52)">
<title>Ebceys.Infrastructure.AuthorizationTestApplication.AuthorizationStartup</title>
<!-- Node1 -->
<g id="Node000001" class="node">
<title>Node1</title>
<g id="a_Node000001"><a xlink:title=" ">
<polygon fill="#999999" stroke="#666666" points="194,-30 0,-30 0,0 194,0 194,-30"/>
<text text-anchor="start" x="8" y="-18" font-family="Helvetica,sans-Serif" font-size="10.00">Ebceys.Infrastructure.Authorization</text>
<text text-anchor="middle" x="97" y="-7" font-family="Helvetica,sans-Serif" font-size="10.00">TestApplication.AuthorizationStartup</text>
</a>
</g>
</g>
<!-- Node1&#45;&gt;Node1 -->
<g id="edge1_Node000001_Node000001" class="edge">
<title>Node1&#45;&gt;Node1</title>
<g id="a_edge1_Node000001_Node000001"><a xlink:title=" ">
<path fill="none" stroke="#63b8ff" d="M59.73,-30.28C51.45,-39.41 63.88,-48 97,-48 116.67,-48 129.04,-44.97 134.11,-40.6"/>
<polygon fill="#63b8ff" stroke="#63b8ff" points="137.61,-40.33 134.27,-30.28 130.61,-40.22 137.61,-40.33"/>
</a>
</g>
</g>
<!-- Node2 -->
<g id="Node000002" class="node">
<title>Node2</title>
<g id="a_Node000002"><a xlink:href="namespaceEbceys_1_1Infrastructure_1_1Models.html#a1a9fec053ac62ed2793d0b919055f879" target="_top" xlink:title="The service api info.">
<polygon fill="white" stroke="#666666" points="391,-30 230,-30 230,0 391,0 391,-30"/>
<text text-anchor="start" x="238" y="-18" font-family="Helvetica,sans-Serif" font-size="10.00">Ebceys.Infrastructure.Models.</text>
<text text-anchor="middle" x="310.5" y="-7" font-family="Helvetica,sans-Serif" font-size="10.00">ServiceApiInfo</text>
</a>
</g>
</g>
<!-- Node1&#45;&gt;Node2 -->
<g id="edge2_Node000001_Node000002" class="edge">
<title>Node1&#45;&gt;Node2</title>
<g id="a_edge2_Node000001_Node000002"><a xlink:title=" ">
<path fill="none" stroke="#63b8ff" d="M194.16,-15C202.61,-15 211.15,-15 219.55,-15"/>
<polygon fill="#63b8ff" stroke="#63b8ff" points="219.72,-18.5 229.72,-15 219.72,-11.5 219.72,-18.5"/>
</a>
</g>
</g>
</g>
</svg>
