<?xml version="1.0" encoding="UTF-8" standalone="no"?>
<!DOCTYPE svg PUBLIC "-//W3C//DTD SVG 1.1//EN"
 "http://www.w3.org/Graphics/SVG/1.1/DTD/svg11.dtd">
<!-- Generated by graphviz version 2.43.0 (0)
 -->
<!-- Title: Ebceys.Infrastructure.TestApplication.BoundedContext.Requests.SomeBodyRequest Pages: 1 -->
<svg width="489pt" height="245pt"
 viewBox="0.00 0.00 489.00 244.50" xmlns="http://www.w3.org/2000/svg" xmlns:xlink="http://www.w3.org/1999/xlink">
<g id="graph0" class="graph" transform="scale(1 1) rotate(0) translate(4 240.5)">
<title>Ebceys.Infrastructure.TestApplication.BoundedContext.Requests.SomeBodyRequest</title>
<!-- Node1 -->
<g id="Node000001" class="node">
<title>Node1</title>
<g id="a_Node000001"><a xlink:title=" ">
<polygon fill="#999999" stroke="#666666" points="481,-141.5 275,-141.5 275,-100.5 481,-100.5 481,-141.5"/>
<text text-anchor="start" x="283" y="-129.5" font-family="Helvetica,sans-Serif" font-size="10.00">Ebceys.Infrastructure.Test</text>
<text text-anchor="start" x="283" y="-118.5" font-family="Helvetica,sans-Serif" font-size="10.00">Application.BoundedContext.Requests.</text>
<text text-anchor="middle" x="378" y="-107.5" font-family="Helvetica,sans-Serif" font-size="10.00">SomeBodyRequest</text>
</a>
</g>
</g>
<!-- Node2 -->
<g id="Node000002" class="node">
<title>Node2</title>
<g id="a_Node000002"><a xlink:href="classEbceys_1_1Infrastructure_1_1TestApplication_1_1Controllers_1_1TestController.html#ac8353339152244224a555a5c3632e05a" target="_top" xlink:title=" ">
<polygon fill="white" stroke="#666666" points="219.5,-236.5 19.5,-236.5 19.5,-195.5 219.5,-195.5 219.5,-236.5"/>
<text text-anchor="start" x="27.5" y="-224.5" font-family="Helvetica,sans-Serif" font-size="10.00">Ebceys.Infrastructure.Test</text>
<text text-anchor="start" x="27.5" y="-213.5" font-family="Helvetica,sans-Serif" font-size="10.00">Application.Controllers.TestController.</text>
<text text-anchor="middle" x="119.5" y="-202.5" font-family="Helvetica,sans-Serif" font-size="10.00">PostBody</text>
</a>
</g>
</g>
<!-- Node1&#45;&gt;Node2 -->
<g id="edge1_Node000001_Node000002" class="edge">
<title>Node1&#45;&gt;Node2</title>
<g id="a_edge1_Node000001_Node000002"><a xlink:title=" ">
<path fill="none" stroke="#63b8ff" d="M330.56,-146.17C304.26,-159.66 270.43,-175.77 239,-187 230.52,-190.03 221.59,-192.85 212.6,-195.45"/>
<polygon fill="#63b8ff" stroke="#63b8ff" points="332.27,-149.23 339.53,-141.52 329.04,-143.01 332.27,-149.23"/>
</a>
</g>
</g>
<!-- Node3 -->
<g id="Node000003" class="node">
<title>Node3</title>
<g id="a_Node000003"><a xlink:href="interfaceEbceys_1_1Infrastructure_1_1TestApplication_1_1Client_1_1Interfaces_1_1ITestClient.html#ac8918425a63b40a23fef19545e7d4a22" target="_top" xlink:title=" ">
<polygon fill="white" stroke="#666666" points="198.5,-177.5 40.5,-177.5 40.5,-136.5 198.5,-136.5 198.5,-177.5"/>
<text text-anchor="start" x="48.5" y="-165.5" font-family="Helvetica,sans-Serif" font-size="10.00">Ebceys.Infrastructure.Test</text>
<text text-anchor="start" x="48.5" y="-154.5" font-family="Helvetica,sans-Serif" font-size="10.00">Application.Client.Interfaces.</text>
<text text-anchor="middle" x="119.5" y="-143.5" font-family="Helvetica,sans-Serif" font-size="10.00">ITestClient.PostBodyAsync</text>
</a>
</g>
</g>
<!-- Node1&#45;&gt;Node3 -->
<g id="edge2_Node000001_Node000003" class="edge">
<title>Node1&#45;&gt;Node3</title>
<g id="a_edge2_Node000001_Node000003"><a xlink:title=" ">
<path fill="none" stroke="#63b8ff" d="M264.69,-136.76C242.38,-139.89 219.41,-143.12 198.54,-146.05"/>
<polygon fill="#63b8ff" stroke="#63b8ff" points="265.47,-140.19 274.89,-135.33 264.5,-133.26 265.47,-140.19"/>
</a>
</g>
</g>
<!-- Node4 -->
<g id="Node000004" class="node">
<title>Node4</title>
<g id="a_Node000004"><a xlink:href="namespaceEbceys_1_1Infrastructure_1_1TestApplication.html#ab81a1413fa2d4078311b09b25cfd7256" target="_top" xlink:title=" ">
<polygon fill="white" stroke="#666666" points="191,-100 48,-100 48,-70 191,-70 191,-100"/>
<text text-anchor="start" x="56" y="-88" font-family="Helvetica,sans-Serif" font-size="10.00">Ebceys.Infrastructure.Test</text>
<text text-anchor="middle" x="119.5" y="-77" font-family="Helvetica,sans-Serif" font-size="10.00">Application.Startup</text>
</a>
</g>
</g>
<!-- Node1&#45;&gt;Node4 -->
<g id="edge3_Node000001_Node000004" class="edge">
<title>Node1&#45;&gt;Node4</title>
<g id="a_edge3_Node000001_Node000004"><a xlink:title=" ">
<path fill="none" stroke="#63b8ff" d="M264.95,-105.27C239.87,-101.75 213.95,-98.12 191.11,-94.91"/>
<polygon fill="#63b8ff" stroke="#63b8ff" points="264.5,-108.74 274.89,-106.67 265.47,-101.81 264.5,-108.74"/>
</a>
</g>
</g>
<!-- Node5 -->
<g id="Node000005" class="node">
<title>Node5</title>
<g id="a_Node000005"><a xlink:href="classEbceys_1_1Infrastructure_1_1Tests_1_1Middlewares_1_1RequestLoggingMiddlewareTests.html#aad36344227951e2151031861f1f9ec1f" target="_top" xlink:title=" ">
<polygon fill="white" stroke="#666666" points="239,-52 0,-52 0,0 239,0 239,-52"/>
<text text-anchor="start" x="8" y="-40" font-family="Helvetica,sans-Serif" font-size="10.00">Ebceys.Infrastructure.Tests.</text>
<text text-anchor="start" x="8" y="-29" font-family="Helvetica,sans-Serif" font-size="10.00">Middlewares.RequestLoggingMiddleware</text>
<text text-anchor="start" x="8" y="-18" font-family="Helvetica,sans-Serif" font-size="10.00">Tests.When_Requests_With_NoLoggingInOpts</text>
<text text-anchor="middle" x="119.5" y="-7" font-family="Helvetica,sans-Serif" font-size="10.00">_Result_CatcherDontLogBodies</text>
</a>
</g>
</g>
<!-- Node1&#45;&gt;Node5 -->
<g id="edge5_Node000001_Node000005" class="edge">
<title>Node1&#45;&gt;Node5</title>
<g id="a_edge5_Node000001_Node000005"><a xlink:title=" ">
<path fill="none" stroke="#63b8ff" d="M324.32,-96.28C298.85,-84.8 267.65,-71.41 239,-61 230.53,-57.92 221.65,-54.91 212.73,-52.03"/>
<polygon fill="#63b8ff" stroke="#63b8ff" points="322.88,-99.47 333.43,-100.42 325.77,-93.1 322.88,-99.47"/>
</a>
</g>
</g>
<!-- Node4&#45;&gt;Node4 -->
<g id="edge4_Node000004_Node000004" class="edge">
<title>Node4&#45;&gt;Node4</title>
<g id="a_edge4_Node000004_Node000004"><a xlink:title=" ">
<path fill="none" stroke="#63b8ff" d="M164.66,-110.6C158.49,-114.97 143.44,-118 119.5,-118 79.19,-118 64.07,-109.41 74.15,-100.28"/>
<polygon fill="#63b8ff" stroke="#63b8ff" points="168.16,-110.34 164.85,-100.28 161.17,-110.21 168.16,-110.34"/>
</a>
</g>
</g>
</g>
</svg>
