<?xml version="1.0" encoding="UTF-8" standalone="no"?>
<!DOCTYPE svg PUBLIC "-//W3C//DTD SVG 1.1//EN"
 "http://www.w3.org/Graphics/SVG/1.1/DTD/svg11.dtd">
<!-- Generated by graphviz version 2.43.0 (0)
 -->
<!-- Title: Ebceys.Infrastructure.TestApplication.Startup Pages: 1 -->
<svg width="635pt" height="551pt"
 viewBox="0.00 0.00 635.00 551.27" xmlns="http://www.w3.org/2000/svg" xmlns:xlink="http://www.w3.org/1999/xlink">
<g id="graph0" class="graph" transform="scale(1 1) rotate(0) translate(4 547.27)">
<title>Ebceys.Infrastructure.TestApplication.Startup</title>
<!-- Node1 -->
<g id="Node000001" class="node">
<title>Node1</title>
<g id="a_Node000001"><a xlink:title=" ">
<polygon fill="#999999" stroke="#666666" points="143,-278.5 0,-278.5 0,-248.5 143,-248.5 143,-278.5"/>
<text text-anchor="start" x="8" y="-266.5" font-family="Helvetica,sans-Serif" font-size="10.00">Ebceys.Infrastructure.Test</text>
<text text-anchor="middle" x="71.5" y="-255.5" font-family="Helvetica,sans-Serif" font-size="10.00">Application.Startup</text>
</a>
</g>
</g>
<!-- Node1&#45;&gt;Node1 -->
<g id="edge18_Node000001_Node000001" class="edge">
<title>Node1&#45;&gt;Node1</title>
<g id="a_edge18_Node000001_Node000001"><a xlink:title=" ">
<path fill="none" stroke="#63b8ff" d="M34.59,-278.78C26.38,-287.91 38.69,-296.5 71.5,-296.5 90.98,-296.5 103.24,-293.47 108.26,-289.1"/>
<polygon fill="#63b8ff" stroke="#63b8ff" points="111.76,-288.83 108.41,-278.78 104.76,-288.72 111.76,-288.83"/>
</a>
</g>
</g>
<!-- Node2 -->
<g id="Node000002" class="node">
<title>Node2</title>
<g id="a_Node000002"><a xlink:href="namespaceEbceys_1_1Infrastructure_1_1TestApplication_1_1Commands.html#a73b52a43bcbe10adc6505765c367a3db" target="_top" xlink:title=" ">
<polygon fill="white" stroke="#666666" points="614,-522 434,-522 434,-481 614,-481 614,-522"/>
<text text-anchor="start" x="442" y="-510" font-family="Helvetica,sans-Serif" font-size="10.00">Ebceys.Infrastructure.Test</text>
<text text-anchor="start" x="442" y="-499" font-family="Helvetica,sans-Serif" font-size="10.00">Application.Commands.AddEntity</text>
<text text-anchor="middle" x="524" y="-488" font-family="Helvetica,sans-Serif" font-size="10.00">CommandContext</text>
</a>
</g>
</g>
<!-- Node1&#45;&gt;Node2 -->
<g id="edge1_Node000001_Node000002" class="edge">
<title>Node1&#45;&gt;Node2</title>
<g id="a_edge1_Node000001_Node000002"><a xlink:title=" ">
<path fill="none" stroke="#63b8ff" d="M73.65,-278.52C77.96,-322.96 97.4,-454.08 179,-507.5 260.07,-560.57 376.52,-543.97 450.96,-524.69"/>
<polygon fill="#63b8ff" stroke="#63b8ff" points="451.97,-528.05 460.73,-522.09 450.17,-521.28 451.97,-528.05"/>
</a>
</g>
</g>
<!-- Node3 -->
<g id="Node000003" class="node">
<title>Node3</title>
<g id="a_Node000003"><a xlink:href="namespaceEbceys_1_1Infrastructure_1_1TestApplication_1_1Commands.html#a250926b0041b9824f967701a7a10ab96" target="_top" xlink:title=" ">
<polygon fill="white" stroke="#666666" points="372,-498 192,-498 192,-457 372,-457 372,-498"/>
<text text-anchor="start" x="200" y="-486" font-family="Helvetica,sans-Serif" font-size="10.00">Ebceys.Infrastructure.Test</text>
<text text-anchor="start" x="200" y="-475" font-family="Helvetica,sans-Serif" font-size="10.00">Application.Commands.AddEntity</text>
<text text-anchor="middle" x="282" y="-464" font-family="Helvetica,sans-Serif" font-size="10.00">CommandResult</text>
</a>
</g>
</g>
<!-- Node1&#45;&gt;Node3 -->
<g id="edge2_Node000001_Node000003" class="edge">
<title>Node1&#45;&gt;Node3</title>
<g id="a_edge2_Node000001_Node000003"><a xlink:title=" ">
<path fill="none" stroke="#63b8ff" d="M77.41,-278.65C89.27,-312.88 122.73,-396.78 179,-442.5 183.36,-446.04 188.1,-449.23 193.07,-452.11"/>
<polygon fill="#63b8ff" stroke="#63b8ff" points="191.75,-455.37 202.23,-456.95 195.02,-449.18 191.75,-455.37"/>
</a>
</g>
</g>
<!-- Node4 -->
<g id="Node000004" class="node">
<title>Node4</title>
<g id="a_Node000004"><a xlink:href="namespaceEbceys_1_1Infrastructure_1_1TestApplication_1_1DaL.html#a3cb9ad5fd6ae558d6f20c0c275eb32da" target="_top" xlink:title=" ">
<polygon fill="white" stroke="#666666" points="618,-368.5 430,-368.5 430,-338.5 618,-338.5 618,-368.5"/>
<text text-anchor="start" x="438" y="-356.5" font-family="Helvetica,sans-Serif" font-size="10.00">Ebceys.Infrastructure.Test</text>
<text text-anchor="middle" x="524" y="-345.5" font-family="Helvetica,sans-Serif" font-size="10.00">Application.DaL.DataModelContext</text>
</a>
</g>
</g>
<!-- Node1&#45;&gt;Node4 -->
<g id="edge7_Node000001_Node000004" class="edge">
<title>Node1&#45;&gt;Node4</title>
<g id="a_edge7_Node000001_Node000004"><a xlink:title=" ">
<path fill="none" stroke="#63b8ff" d="M78.08,-278.73C90.54,-310.13 123.9,-381.49 179,-409.5 281.31,-461.51 420.85,-405.71 486.29,-373.3"/>
<polygon fill="#63b8ff" stroke="#63b8ff" points="488.05,-376.34 495.4,-368.71 484.89,-370.09 488.05,-376.34"/>
</a>
</g>
</g>
<!-- Node5 -->
<g id="Node000005" class="node">
<title>Node5</title>
<g id="a_Node000005"><a xlink:href="namespaceEbceys_1_1Infrastructure_1_1TestApplication_1_1BoundedContext_1_1Requests.html#a8e94e6f96ec7f9ce57f47938740f844c" target="_top" xlink:title=" ">
<polygon fill="white" stroke="#666666" points="385,-400 179,-400 179,-359 385,-359 385,-400"/>
<text text-anchor="start" x="187" y="-388" font-family="Helvetica,sans-Serif" font-size="10.00">Ebceys.Infrastructure.Test</text>
<text text-anchor="start" x="187" y="-377" font-family="Helvetica,sans-Serif" font-size="10.00">Application.BoundedContext.Requests.</text>
<text text-anchor="middle" x="282" y="-366" font-family="Helvetica,sans-Serif" font-size="10.00">ChangeNameRequest</text>
</a>
</g>
</g>
<!-- Node1&#45;&gt;Node5 -->
<g id="edge6_Node000001_Node000005" class="edge">
<title>Node1&#45;&gt;Node5</title>
<g id="a_edge6_Node000001_Node000005"><a xlink:title=" ">
<path fill="none" stroke="#63b8ff" d="M86.94,-278.64C106.21,-298 142.17,-331.28 179,-350.5 182.07,-352.1 185.24,-353.63 188.48,-355.08"/>
<polygon fill="#63b8ff" stroke="#63b8ff" points="187.19,-358.33 197.77,-358.96 189.89,-351.87 187.19,-358.33"/>
</a>
</g>
</g>
<!-- Node6 -->
<g id="Node000006" class="node">
<title>Node6</title>
<g id="a_Node000006"><a xlink:href="namespaceEbceys_1_1Infrastructure_1_1TestApplication_1_1Commands.html#a20e4f18f3273a3f5832d377084c5125f" target="_top" xlink:title=" ">
<polygon fill="white" stroke="#666666" points="627,-222 421,-222 421,-181 627,-181 627,-222"/>
<text text-anchor="start" x="429" y="-210" font-family="Helvetica,sans-Serif" font-size="10.00">Ebceys.Infrastructure.Test</text>
<text text-anchor="start" x="429" y="-199" font-family="Helvetica,sans-Serif" font-size="10.00">Application.Commands.DeleteElement</text>
<text text-anchor="middle" x="524" y="-188" font-family="Helvetica,sans-Serif" font-size="10.00">CommandContext</text>
</a>
</g>
</g>
<!-- Node1&#45;&gt;Node6 -->
<g id="edge8_Node000001_Node000006" class="edge">
<title>Node1&#45;&gt;Node6</title>
<g id="a_edge8_Node000001_Node000006"><a xlink:title=" ">
<path fill="none" stroke="#63b8ff" d="M89.42,-248.28C109.23,-231.58 143.83,-205.77 179,-195.5 253.99,-173.6 342.14,-175.64 410.43,-182.88"/>
<polygon fill="#63b8ff" stroke="#63b8ff" points="410.46,-186.41 420.79,-184.03 411.24,-179.45 410.46,-186.41"/>
</a>
</g>
</g>
<!-- Node7 -->
<g id="Node000007" class="node">
<title>Node7</title>
<g id="a_Node000007"><a xlink:href="namespaceEbceys_1_1Infrastructure_1_1TestApplication_1_1Commands.html#a2a114d426beecb5d879d15b53da8f89c" target="_top" xlink:title=" ">
<polygon fill="white" stroke="#666666" points="385,-246 179,-246 179,-205 385,-205 385,-246"/>
<text text-anchor="start" x="187" y="-234" font-family="Helvetica,sans-Serif" font-size="10.00">Ebceys.Infrastructure.Test</text>
<text text-anchor="start" x="187" y="-223" font-family="Helvetica,sans-Serif" font-size="10.00">Application.Commands.DeleteElement</text>
<text text-anchor="middle" x="282" y="-212" font-family="Helvetica,sans-Serif" font-size="10.00">CommandResult</text>
</a>
</g>
</g>
<!-- Node1&#45;&gt;Node7 -->
<g id="edge9_Node000001_Node000007" class="edge">
<title>Node1&#45;&gt;Node7</title>
<g id="a_edge9_Node000001_Node000007"><a xlink:title=" ">
<path fill="none" stroke="#63b8ff" d="M143.09,-250.63C151.41,-249.12 160.06,-247.54 168.78,-245.95"/>
<polygon fill="#63b8ff" stroke="#63b8ff" points="169.44,-249.39 178.65,-244.15 168.18,-242.5 169.44,-249.39"/>
</a>
</g>
</g>
<!-- Node8 -->
<g id="Node000008" class="node">
<title>Node8</title>
<g id="a_Node000008"><a xlink:href="namespaceEbceys_1_1Infrastructure_1_1TestApplication_1_1Commands.html#a71cd9444528c7fa8dc1deddf1b7c50a9" target="_top" xlink:title=" ">
<polygon fill="white" stroke="#666666" points="375.5,-323 188.5,-323 188.5,-282 375.5,-282 375.5,-323"/>
<text text-anchor="start" x="196.5" y="-311" font-family="Helvetica,sans-Serif" font-size="10.00">Ebceys.Infrastructure.Test</text>
<text text-anchor="start" x="196.5" y="-300" font-family="Helvetica,sans-Serif" font-size="10.00">Application.Commands.GetEntities</text>
<text text-anchor="middle" x="282" y="-289" font-family="Helvetica,sans-Serif" font-size="10.00">CommandResult</text>
</a>
</g>
</g>
<!-- Node1&#45;&gt;Node8 -->
<g id="edge13_Node000001_Node000008" class="edge">
<title>Node1&#45;&gt;Node8</title>
<g id="a_edge13_Node000001_Node000008"><a xlink:title=" ">
<path fill="none" stroke="#63b8ff" d="M143.09,-276.7C154.44,-278.83 166.39,-281.06 178.31,-283.29"/>
<polygon fill="#63b8ff" stroke="#63b8ff" points="177.83,-286.76 188.31,-285.16 179.12,-279.88 177.83,-286.76"/>
</a>
</g>
</g>
<!-- Node9 -->
<g id="Node000009" class="node">
<title>Node9</title>
<g id="a_Node000009"><a xlink:href="namespaceEbceys_1_1Infrastructure_1_1Models.html#a1a9fec053ac62ed2793d0b919055f879" target="_top" xlink:title="The service api info.">
<polygon fill="white" stroke="#666666" points="362.5,-148.5 201.5,-148.5 201.5,-118.5 362.5,-118.5 362.5,-148.5"/>
<text text-anchor="start" x="209.5" y="-136.5" font-family="Helvetica,sans-Serif" font-size="10.00">Ebceys.Infrastructure.Models.</text>
<text text-anchor="middle" x="282" y="-125.5" font-family="Helvetica,sans-Serif" font-size="10.00">ServiceApiInfo</text>
</a>
</g>
</g>
<!-- Node1&#45;&gt;Node9 -->
<g id="edge16_Node000001_Node000009" class="edge">
<title>Node1&#45;&gt;Node9</title>
<g id="a_edge16_Node000001_Node000009"><a xlink:title=" ">
<path fill="none" stroke="#63b8ff" d="M84.25,-248.45C102.28,-226.37 138.93,-185.34 179,-162.5 185.99,-158.51 193.57,-155.04 201.34,-152.03"/>
<polygon fill="#63b8ff" stroke="#63b8ff" points="202.66,-155.27 210.87,-148.58 200.27,-148.69 202.66,-155.27"/>
</a>
</g>
</g>
<!-- Node10 -->
<g id="Node000010" class="node">
<title>Node10</title>
<g id="a_Node000010"><a xlink:href="namespaceEbceys_1_1Infrastructure_1_1TestApplication_1_1BoundedContext_1_1Requests.html#af449e41339d2ed56bb4d6fea0ddb89f8" target="_top" xlink:title=" ">
<polygon fill="white" stroke="#666666" points="385,-100 179,-100 179,-59 385,-59 385,-100"/>
<text text-anchor="start" x="187" y="-88" font-family="Helvetica,sans-Serif" font-size="10.00">Ebceys.Infrastructure.Test</text>
<text text-anchor="start" x="187" y="-77" font-family="Helvetica,sans-Serif" font-size="10.00">Application.BoundedContext.Requests.</text>
<text text-anchor="middle" x="282" y="-66" font-family="Helvetica,sans-Serif" font-size="10.00">SomeBodyRequest</text>
</a>
</g>
</g>
<!-- Node1&#45;&gt;Node10 -->
<g id="edge17_Node000001_Node000010" class="edge">
<title>Node1&#45;&gt;Node10</title>
<g id="a_edge17_Node000001_Node000010"><a xlink:title=" ">
<path fill="none" stroke="#63b8ff" d="M78.8,-248.24C92.37,-217.27 127.36,-146.83 179,-109.5 181.16,-107.94 183.4,-106.46 185.71,-105.05"/>
<polygon fill="#63b8ff" stroke="#63b8ff" points="187.81,-107.89 194.89,-100.01 184.44,-101.76 187.81,-107.89"/>
</a>
</g>
</g>
<!-- Node11 -->
<g id="Node000011" class="node">
<title>Node11</title>
<g id="a_Node000011"><a xlink:href="namespaceEbceys_1_1Infrastructure_1_1TestApplication_1_1Commands.html#a06ebce165945411878e0b37fb1c44fce" target="_top" xlink:title=" ">
<polygon fill="white" stroke="#666666" points="380.5,-41 183.5,-41 183.5,0 380.5,0 380.5,-41"/>
<text text-anchor="start" x="191.5" y="-29" font-family="Helvetica,sans-Serif" font-size="10.00">Ebceys.Infrastructure.Test</text>
<text text-anchor="start" x="191.5" y="-18" font-family="Helvetica,sans-Serif" font-size="10.00">Application.Commands.UpdateEntity</text>
<text text-anchor="middle" x="282" y="-7" font-family="Helvetica,sans-Serif" font-size="10.00">CommandContext</text>
</a>
</g>
</g>
<!-- Node1&#45;&gt;Node11 -->
<g id="edge19_Node000001_Node000011" class="edge">
<title>Node1&#45;&gt;Node11</title>
<g id="a_edge19_Node000001_Node000011"><a xlink:title=" ">
<path fill="none" stroke="#63b8ff" d="M75.57,-248.45C84.35,-209.4 113.23,-104.12 179,-49.5 180.04,-48.64 181.1,-47.81 182.18,-47"/>
<polygon fill="#63b8ff" stroke="#63b8ff" points="184.45,-49.69 190.86,-41.26 180.59,-43.85 184.45,-49.69"/>
</a>
</g>
</g>
<!-- Node3&#45;&gt;Node2 -->
<g id="edge3_Node000003_Node000002" class="edge">
<title>Node3&#45;&gt;Node2</title>
<g id="a_edge3_Node000003_Node000002"><a xlink:title=" ">
<path fill="none" stroke="#63b8ff" d="M372.03,-486.4C388.86,-488.09 406.58,-489.86 423.71,-491.57"/>
<polygon fill="#63b8ff" stroke="#63b8ff" points="423.42,-495.06 433.72,-492.57 424.12,-488.09 423.42,-495.06"/>
</a>
</g>
</g>
<!-- Node3&#45;&gt;Node4 -->
<g id="edge4_Node000003_Node000004" class="edge">
<title>Node3&#45;&gt;Node4</title>
<g id="a_edge4_Node000003_Node000004"><a xlink:title=" ">
<path fill="none" stroke="#63b8ff" d="M350.33,-456.99C362.09,-452.68 374.05,-447.81 385,-442.5 425.04,-423.08 467.56,-394.25 494.65,-374.71"/>
<polygon fill="#63b8ff" stroke="#63b8ff" points="496.86,-377.43 502.88,-368.71 492.74,-371.77 496.86,-377.43"/>
</a>
</g>
</g>
<!-- Node4&#45;&gt;Node4 -->
<g id="edge5_Node000004_Node000004" class="edge">
<title>Node4&#45;&gt;Node4</title>
<g id="a_edge5_Node000004_Node000004"><a xlink:title=" ">
<path fill="none" stroke="#63b8ff" d="M481.46,-368.78C472.01,-377.91 486.19,-386.5 524,-386.5 546.45,-386.5 560.57,-383.47 566.36,-379.1"/>
<polygon fill="#63b8ff" stroke="#63b8ff" points="569.86,-378.83 566.54,-368.78 562.87,-378.71 569.86,-378.83"/>
</a>
</g>
</g>
<!-- Node7&#45;&gt;Node4 -->
<g id="edge10_Node000007_Node000004" class="edge">
<title>Node7&#45;&gt;Node4</title>
<g id="a_edge10_Node000007_Node000004"><a xlink:title=" ">
<path fill="none" stroke="#63b8ff" d="M328.85,-246.06C346.56,-254.27 366.88,-264.01 385,-273.5 421.36,-292.55 461.89,-316.37 489.56,-333.04"/>
<polygon fill="#63b8ff" stroke="#63b8ff" points="488.06,-336.22 498.43,-338.4 491.68,-330.23 488.06,-336.22"/>
</a>
</g>
</g>
<!-- Node7&#45;&gt;Node6 -->
<g id="edge11_Node000007_Node000006" class="edge">
<title>Node7&#45;&gt;Node6</title>
<g id="a_edge11_Node000007_Node000006"><a xlink:title=" ">
<path fill="none" stroke="#63b8ff" d="M385.13,-215.29C393.66,-214.43 402.31,-213.57 410.91,-212.71"/>
<polygon fill="#63b8ff" stroke="#63b8ff" points="411.36,-216.18 420.96,-211.7 410.66,-209.22 411.36,-216.18"/>
</a>
</g>
</g>
<!-- Node7&#45;&gt;Node7 -->
<g id="edge12_Node000007_Node000007" class="edge">
<title>Node7&#45;&gt;Node7</title>
<g id="a_edge12_Node000007_Node000007"><a xlink:title=" ">
<path fill="none" stroke="#63b8ff" d="M243.4,-246.1C239.19,-255.65 252.06,-264 282,-264 300.71,-264 312.76,-260.74 318.13,-255.96"/>
<polygon fill="#63b8ff" stroke="#63b8ff" points="321.57,-256.65 320.6,-246.1 314.77,-254.95 321.57,-256.65"/>
</a>
</g>
</g>
<!-- Node8&#45;&gt;Node4 -->
<g id="edge14_Node000008_Node000004" class="edge">
<title>Node8&#45;&gt;Node4</title>
<g id="a_edge14_Node000008_Node000004"><a xlink:title=" ">
<path fill="none" stroke="#63b8ff" d="M375.79,-322.22C397.65,-326.86 420.79,-331.78 442.08,-336.3"/>
<polygon fill="#63b8ff" stroke="#63b8ff" points="441.54,-339.77 452.05,-338.42 442.99,-332.92 441.54,-339.77"/>
</a>
</g>
</g>
<!-- Node8&#45;&gt;Node8 -->
<g id="edge15_Node000008_Node000008" class="edge">
<title>Node8&#45;&gt;Node8</title>
<g id="a_edge15_Node000008_Node000008"><a xlink:title=" ">
<path fill="none" stroke="#63b8ff" d="M243.4,-323.1C239.19,-332.65 252.06,-341 282,-341 300.71,-341 312.76,-337.74 318.13,-332.96"/>
<polygon fill="#63b8ff" stroke="#63b8ff" points="321.57,-333.65 320.6,-323.1 314.77,-331.95 321.57,-333.65"/>
</a>
</g>
</g>
</g>
</svg>
