<?xml version="1.0" encoding="UTF-8" standalone="no"?>
<!DOCTYPE svg PUBLIC "-//W3C//DTD SVG 1.1//EN"
 "http://www.w3.org/Graphics/SVG/1.1/DTD/svg11.dtd">
<!-- Generated by graphviz version 2.43.0 (0)
 -->
<!-- Title: Ebceys.Infrastructure.TestApplication.DaL.DataModelContext Pages: 1 -->
<svg width="718pt" height="306pt"
 viewBox="0.00 0.00 718.00 306.00" xmlns="http://www.w3.org/2000/svg" xmlns:xlink="http://www.w3.org/1999/xlink">
<g id="graph0" class="graph" transform="scale(1 1) rotate(0) translate(4 302)">
<title>Ebceys.Infrastructure.TestApplication.DaL.DataModelContext</title>
<!-- Node1 -->
<g id="Node000001" class="node">
<title>Node1</title>
<g id="a_Node000001"><a xlink:title=" ">
<polygon fill="#999999" stroke="#666666" points="710,-171.5 522,-171.5 522,-141.5 710,-141.5 710,-171.5"/>
<text text-anchor="start" x="530" y="-159.5" font-family="Helvetica,sans-Serif" font-size="10.00">Ebceys.Infrastructure.Test</text>
<text text-anchor="middle" x="616" y="-148.5" font-family="Helvetica,sans-Serif" font-size="10.00">Application.DaL.DataModelContext</text>
</a>
</g>
</g>
<!-- Node1&#45;&gt;Node1 -->
<g id="edge5_Node000001_Node000001" class="edge">
<title>Node1&#45;&gt;Node1</title>
<g id="a_edge5_Node000001_Node000001"><a xlink:title=" ">
<path fill="none" stroke="#63b8ff" d="M660.46,-182.1C654.38,-186.47 639.56,-189.5 616,-189.5 576.31,-189.5 561.43,-180.91 571.35,-171.78"/>
<polygon fill="#63b8ff" stroke="#63b8ff" points="663.96,-181.84 660.65,-171.78 656.97,-181.71 663.96,-181.84"/>
</a>
</g>
</g>
<!-- Node2 -->
<g id="Node000002" class="node">
<title>Node2</title>
<g id="a_Node000002"><a xlink:href="namespaceEbceys_1_1Infrastructure_1_1TestApplication_1_1Commands.html#a250926b0041b9824f967701a7a10ab96" target="_top" xlink:title=" ">
<polygon fill="white" stroke="#666666" points="451,-293 271,-293 271,-252 451,-252 451,-293"/>
<text text-anchor="start" x="279" y="-281" font-family="Helvetica,sans-Serif" font-size="10.00">Ebceys.Infrastructure.Test</text>
<text text-anchor="start" x="279" y="-270" font-family="Helvetica,sans-Serif" font-size="10.00">Application.Commands.AddEntity</text>
<text text-anchor="middle" x="361" y="-259" font-family="Helvetica,sans-Serif" font-size="10.00">CommandResult</text>
</a>
</g>
</g>
<!-- Node1&#45;&gt;Node2 -->
<g id="edge1_Node000001_Node000002" class="edge">
<title>Node1&#45;&gt;Node2</title>
<g id="a_edge1_Node000001_Node000002"><a xlink:title=" ">
<path fill="none" stroke="#63b8ff" d="M586.65,-177.64C561.36,-195.67 522.75,-221.18 486,-237.5 473.73,-242.95 460.41,-247.76 447.19,-251.95"/>
<polygon fill="#63b8ff" stroke="#63b8ff" points="588.96,-180.29 595.02,-171.6 584.86,-174.62 588.96,-180.29"/>
</a>
</g>
</g>
<!-- Node4 -->
<g id="Node000004" class="node">
<title>Node4</title>
<g id="a_Node000004"><a xlink:href="namespaceEbceys_1_1Infrastructure_1_1TestApplication.html#ab81a1413fa2d4078311b09b25cfd7256" target="_top" xlink:title=" ">
<polygon fill="white" stroke="#666666" points="171.5,-220.5 28.5,-220.5 28.5,-190.5 171.5,-190.5 171.5,-220.5"/>
<text text-anchor="start" x="36.5" y="-208.5" font-family="Helvetica,sans-Serif" font-size="10.00">Ebceys.Infrastructure.Test</text>
<text text-anchor="middle" x="100" y="-197.5" font-family="Helvetica,sans-Serif" font-size="10.00">Application.Startup</text>
</a>
</g>
</g>
<!-- Node1&#45;&gt;Node4 -->
<g id="edge14_Node000001_Node000004" class="edge">
<title>Node1&#45;&gt;Node4</title>
<g id="a_edge14_Node000001_Node000004"><a xlink:title=" ">
<path fill="none" stroke="#63b8ff" d="M574.93,-175.6C549.98,-186.43 516.86,-198.9 486,-204.5 377.65,-224.15 249.3,-218.92 171.58,-212.7"/>
<polygon fill="#63b8ff" stroke="#63b8ff" points="576.35,-178.8 584.07,-171.55 573.51,-172.4 576.35,-178.8"/>
</a>
</g>
</g>
<!-- Node5 -->
<g id="Node000005" class="node">
<title>Node5</title>
<g id="a_Node000005"><a xlink:href="namespaceEbceys_1_1Infrastructure_1_1TestApplication_1_1Commands.html#a2a114d426beecb5d879d15b53da8f89c" target="_top" xlink:title=" ">
<polygon fill="white" stroke="#666666" points="464,-177 258,-177 258,-136 464,-136 464,-177"/>
<text text-anchor="start" x="266" y="-165" font-family="Helvetica,sans-Serif" font-size="10.00">Ebceys.Infrastructure.Test</text>
<text text-anchor="start" x="266" y="-154" font-family="Helvetica,sans-Serif" font-size="10.00">Application.Commands.DeleteElement</text>
<text text-anchor="middle" x="361" y="-143" font-family="Helvetica,sans-Serif" font-size="10.00">CommandResult</text>
</a>
</g>
</g>
<!-- Node1&#45;&gt;Node5 -->
<g id="edge6_Node000001_Node000005" class="edge">
<title>Node1&#45;&gt;Node5</title>
<g id="a_edge6_Node000001_Node000005"><a xlink:title=" ">
<path fill="none" stroke="#63b8ff" d="M511.68,-156.5C496.04,-156.5 479.92,-156.5 464.31,-156.5"/>
<polygon fill="#63b8ff" stroke="#63b8ff" points="511.87,-160 521.87,-156.5 511.87,-153 511.87,-160"/>
</a>
</g>
</g>
<!-- Node7 -->
<g id="Node000007" class="node">
<title>Node7</title>
<g id="a_Node000007"><a xlink:href="namespaceEbceys_1_1Infrastructure_1_1TestApplication_1_1Commands.html#a71cd9444528c7fa8dc1deddf1b7c50a9" target="_top" xlink:title=" ">
<polygon fill="white" stroke="#666666" points="454.5,-100 267.5,-100 267.5,-59 454.5,-59 454.5,-100"/>
<text text-anchor="start" x="275.5" y="-88" font-family="Helvetica,sans-Serif" font-size="10.00">Ebceys.Infrastructure.Test</text>
<text text-anchor="start" x="275.5" y="-77" font-family="Helvetica,sans-Serif" font-size="10.00">Application.Commands.GetEntities</text>
<text text-anchor="middle" x="361" y="-66" font-family="Helvetica,sans-Serif" font-size="10.00">CommandResult</text>
</a>
</g>
</g>
<!-- Node1&#45;&gt;Node7 -->
<g id="edge10_Node000001_Node000007" class="edge">
<title>Node1&#45;&gt;Node7</title>
<g id="a_edge10_Node000001_Node000007"><a xlink:title=" ">
<path fill="none" stroke="#63b8ff" d="M555.76,-138.47C517.93,-126.96 468.78,-112 429.44,-100.03"/>
<polygon fill="#63b8ff" stroke="#63b8ff" points="555.03,-141.91 565.62,-141.47 557.07,-135.21 555.03,-141.91"/>
</a>
</g>
</g>
<!-- Node9 -->
<g id="Node000009" class="node">
<title>Node9</title>
<g id="a_Node000009"><a xlink:href="classEbceys_1_1Infrastructure_1_1Tests_1_1DiTests_1_1DiCTests.html#acc360a4d09f1a7fd374150cd36c90e5d" target="_top" xlink:title=" ">
<polygon fill="white" stroke="#666666" points="486,-41 236,-41 236,0 486,0 486,-41"/>
<text text-anchor="start" x="244" y="-29" font-family="Helvetica,sans-Serif" font-size="10.00">Ebceys.Infrastructure.Tests.</text>
<text text-anchor="start" x="244" y="-18" font-family="Helvetica,sans-Serif" font-size="10.00">DiTests.DiCTests.When_AppIsRunning</text>
<text text-anchor="middle" x="361" y="-7" font-family="Helvetica,sans-Serif" font-size="10.00">_With_TestApp_Result_DataModelContextExists</text>
</a>
</g>
</g>
<!-- Node1&#45;&gt;Node9 -->
<g id="edge15_Node000001_Node000009" class="edge">
<title>Node1&#45;&gt;Node9</title>
<g id="a_edge15_Node000001_Node000009"><a xlink:title=" ">
<path fill="none" stroke="#63b8ff" d="M594.04,-133.71C570.22,-109.2 529.03,-70.88 486,-49.5 479.66,-46.35 472.97,-43.54 466.12,-41.02"/>
<polygon fill="#63b8ff" stroke="#63b8ff" points="591.71,-136.33 601.15,-141.14 596.77,-131.49 591.71,-136.33"/>
</a>
</g>
</g>
<!-- Node3 -->
<g id="Node000003" class="node">
<title>Node3</title>
<g id="a_Node000003"><a xlink:href="classEbceys_1_1Infrastructure_1_1TestApplication_1_1Controllers_1_1TestController.html#a02fcb274a4cb10df45f9728506044124" target="_top" xlink:title=" ">
<polygon fill="white" stroke="#666666" points="200,-298 0,-298 0,-257 200,-257 200,-298"/>
<text text-anchor="start" x="8" y="-286" font-family="Helvetica,sans-Serif" font-size="10.00">Ebceys.Infrastructure.Test</text>
<text text-anchor="start" x="8" y="-275" font-family="Helvetica,sans-Serif" font-size="10.00">Application.Controllers.TestController.</text>
<text text-anchor="middle" x="100" y="-264" font-family="Helvetica,sans-Serif" font-size="10.00">PostCommand</text>
</a>
</g>
</g>
<!-- Node2&#45;&gt;Node3 -->
<g id="edge2_Node000002_Node000003" class="edge">
<title>Node2&#45;&gt;Node3</title>
<g id="a_edge2_Node000002_Node000003"><a xlink:title=" ">
<path fill="none" stroke="#63b8ff" d="M260.86,-274.41C240.93,-274.8 219.99,-275.2 200.06,-275.59"/>
<polygon fill="#63b8ff" stroke="#63b8ff" points="260.94,-277.91 270.87,-274.22 260.8,-270.91 260.94,-277.91"/>
</a>
</g>
</g>
<!-- Node2&#45;&gt;Node4 -->
<g id="edge3_Node000002_Node000004" class="edge">
<title>Node2&#45;&gt;Node4</title>
<g id="a_edge3_Node000002_Node000004"><a xlink:title=" ">
<path fill="none" stroke="#63b8ff" d="M270.77,-249.42C233.9,-239.88 192.19,-229.09 159.34,-220.59"/>
<polygon fill="#63b8ff" stroke="#63b8ff" points="269.97,-252.83 280.53,-251.94 271.73,-246.05 269.97,-252.83"/>
</a>
</g>
</g>
<!-- Node4&#45;&gt;Node4 -->
<g id="edge4_Node000004_Node000004" class="edge">
<title>Node4&#45;&gt;Node4</title>
<g id="a_edge4_Node000004_Node000004"><a xlink:title=" ">
<path fill="none" stroke="#63b8ff" d="M145.51,-231.1C139.29,-235.47 124.12,-238.5 100,-238.5 59.38,-238.5 44.14,-229.91 54.3,-220.78"/>
<polygon fill="#63b8ff" stroke="#63b8ff" points="149.02,-230.84 145.7,-220.78 142.02,-230.71 149.02,-230.84"/>
</a>
</g>
</g>
<!-- Node5&#45;&gt;Node4 -->
<g id="edge9_Node000005_Node000004" class="edge">
<title>Node5&#45;&gt;Node4</title>
<g id="a_edge9_Node000005_Node000004"><a xlink:title=" ">
<path fill="none" stroke="#63b8ff" d="M247.77,-177.73C221.88,-182.63 195.06,-187.7 171.54,-192.16"/>
<polygon fill="#63b8ff" stroke="#63b8ff" points="248.46,-181.16 257.64,-175.87 247.16,-174.29 248.46,-181.16"/>
</a>
</g>
</g>
<!-- Node5&#45;&gt;Node5 -->
<g id="edge8_Node000005_Node000005" class="edge">
<title>Node5&#45;&gt;Node5</title>
<g id="a_edge8_Node000005_Node000005"><a xlink:title=" ">
<path fill="none" stroke="#63b8ff" d="M404.7,-186.96C398.2,-191.74 383.63,-195 361,-195 324.79,-195 309.22,-186.65 314.32,-177.1"/>
<polygon fill="#63b8ff" stroke="#63b8ff" points="408.14,-187.68 407.68,-177.1 401.44,-185.65 408.14,-187.68"/>
</a>
</g>
</g>
<!-- Node6 -->
<g id="Node000006" class="node">
<title>Node6</title>
<g id="a_Node000006"><a xlink:href="classEbceys_1_1Infrastructure_1_1TestApplication_1_1Controllers_1_1TestController.html#a72843f35fe34a08d1ca3a45fc3542016" target="_top" xlink:title=" ">
<polygon fill="white" stroke="#666666" points="200,-172 0,-172 0,-131 200,-131 200,-172"/>
<text text-anchor="start" x="8" y="-160" font-family="Helvetica,sans-Serif" font-size="10.00">Ebceys.Infrastructure.Test</text>
<text text-anchor="start" x="8" y="-149" font-family="Helvetica,sans-Serif" font-size="10.00">Application.Controllers.TestController.</text>
<text text-anchor="middle" x="100" y="-138" font-family="Helvetica,sans-Serif" font-size="10.00">DeleteCommand</text>
</a>
</g>
</g>
<!-- Node5&#45;&gt;Node6 -->
<g id="edge7_Node000005_Node000006" class="edge">
<title>Node5&#45;&gt;Node6</title>
<g id="a_edge7_Node000005_Node000006"><a xlink:title=" ">
<path fill="none" stroke="#63b8ff" d="M247.35,-154.33C231.62,-154.02 215.54,-153.71 200.08,-153.41"/>
<polygon fill="#63b8ff" stroke="#63b8ff" points="247.57,-157.83 257.64,-154.52 247.71,-150.83 247.57,-157.83"/>
</a>
</g>
</g>
<!-- Node7&#45;&gt;Node4 -->
<g id="edge13_Node000007_Node000004" class="edge">
<title>Node7&#45;&gt;Node4</title>
<g id="a_edge13_Node000007_Node000004"><a xlink:title=" ">
<path fill="none" stroke="#63b8ff" d="M275.61,-104.05C261.55,-110.34 247.74,-118.08 236,-127.5 213.5,-145.55 223.64,-164.97 200,-181.5 191.52,-187.43 181.75,-191.9 171.72,-195.27"/>
<polygon fill="#63b8ff" stroke="#63b8ff" points="277.03,-107.25 284.86,-100.11 274.29,-100.8 277.03,-107.25"/>
</a>
</g>
</g>
<!-- Node7&#45;&gt;Node7 -->
<g id="edge12_Node000007_Node000007" class="edge">
<title>Node7&#45;&gt;Node7</title>
<g id="a_edge12_Node000007_Node000007"><a xlink:title=" ">
<path fill="none" stroke="#63b8ff" d="M404.7,-109.96C398.2,-114.74 383.63,-118 361,-118 324.79,-118 309.22,-109.65 314.32,-100.1"/>
<polygon fill="#63b8ff" stroke="#63b8ff" points="408.14,-110.68 407.68,-100.1 401.44,-108.65 408.14,-110.68"/>
</a>
</g>
</g>
<!-- Node8 -->
<g id="Node000008" class="node">
<title>Node8</title>
<g id="a_Node000008"><a xlink:href="classEbceys_1_1Infrastructure_1_1TestApplication_1_1Controllers_1_1TestController.html#ad10e2f05d374eb0b9887cdb3ed919367" target="_top" xlink:title=" ">
<polygon fill="white" stroke="#666666" points="200,-100 0,-100 0,-59 200,-59 200,-100"/>
<text text-anchor="start" x="8" y="-88" font-family="Helvetica,sans-Serif" font-size="10.00">Ebceys.Infrastructure.Test</text>
<text text-anchor="start" x="8" y="-77" font-family="Helvetica,sans-Serif" font-size="10.00">Application.Controllers.TestController.</text>
<text text-anchor="middle" x="100" y="-66" font-family="Helvetica,sans-Serif" font-size="10.00">GetCommand</text>
</a>
</g>
</g>
<!-- Node7&#45;&gt;Node8 -->
<g id="edge11_Node000007_Node000008" class="edge">
<title>Node7&#45;&gt;Node8</title>
<g id="a_edge11_Node000007_Node000008"><a xlink:title=" ">
<path fill="none" stroke="#63b8ff" d="M257.18,-79.5C238.39,-79.5 218.81,-79.5 200.13,-79.5"/>
<polygon fill="#63b8ff" stroke="#63b8ff" points="257.23,-83 267.23,-79.5 257.23,-76 257.23,-83"/>
</a>
</g>
</g>
</g>
</svg>
