<?xml version="1.0" encoding="UTF-8" standalone="no"?>
<!DOCTYPE svg PUBLIC "-//W3C//DTD SVG 1.1//EN"
 "http://www.w3.org/Graphics/SVG/1.1/DTD/svg11.dtd">
<!-- Generated by graphviz version 2.43.0 (0)
 -->
<!-- Title: Ebceys.Infrastructure.TestApplication.Commands.DeleteElementCommandResult Pages: 1 -->
<svg width="456pt" height="116pt"
 viewBox="0.00 0.00 456.00 115.50" xmlns="http://www.w3.org/2000/svg" xmlns:xlink="http://www.w3.org/1999/xlink">

<svg id="main" version="1.1" xmlns="http://www.w3.org/2000/svg" xmlns:xlink="http://www.w3.org/1999/xlink" xml:space="preserve">

<style type="text/css"><![CDATA[
.node, .edge {opacity: 0.7;}
.node.selected, .edge.selected {opacity: 1;}
.edge:hover path { stroke: red; }
.edge:hover polygon { stroke: red; fill: red; }
]]></style>
<script type="application/ecmascript" xlink:href="svg.min.js"/>
<svg id="graph" class="graph">
<g id="graph0" class="graph" transform="scale(1 1) rotate(0) translate(4 111.5)">
<title>Ebceys.Infrastructure.TestApplication.Commands.DeleteElementCommandResult</title>
<!-- Node1 -->
<g id="Node000001" class="node">
<title>Node1</title>
<g id="a_Node000001"><a xlink:title=" ">
<polygon fill="#999999" stroke="#666666" points="206,-68 0,-68 0,-27 206,-27 206,-68"/>
<text text-anchor="start" x="8" y="-56" font-family="Helvetica,sans-Serif" font-size="10.00">Ebceys.Infrastructure.Test</text>
<text text-anchor="start" x="8" y="-45" font-family="Helvetica,sans-Serif" font-size="10.00">Application.Commands.DeleteElement</text>
<text text-anchor="middle" x="103" y="-34" font-family="Helvetica,sans-Serif" font-size="10.00">CommandResult</text>
</a>
</g>
</g>
<!-- Node1&#45;&gt;Node1 -->
<g id="edge4_Node000001_Node000001" class="edge">
<title>Node1&#45;&gt;Node1</title>
<g id="a_edge4_Node000001_Node000001"><a xlink:title=" ">
<path fill="none" stroke="#63b8ff" d="M58.52,-68.1C53.67,-77.65 68.5,-86 103,-86 124.56,-86 138.44,-82.74 144.63,-77.96"/>
<polygon fill="#63b8ff" stroke="#63b8ff" points="148.07,-78.68 147.48,-68.1 141.34,-76.74 148.07,-78.68"/>
</a>
</g>
</g>
<!-- Node2 -->
<g id="Node000002" class="node">
<title>Node2</title>
<g id="a_Node000002"><a xlink:href="namespaceEbceys_1_1Infrastructure_1_1TestApplication_1_1DaL.html#a3cb9ad5fd6ae558d6f20c0c275eb32da" target="_top" xlink:title=" ">
<polygon fill="white" stroke="#666666" points="439,-89.5 251,-89.5 251,-59.5 439,-59.5 439,-89.5"/>
<text text-anchor="start" x="259" y="-77.5" font-family="Helvetica,sans-Serif" font-size="10.00">Ebceys.Infrastructure.Test</text>
<text text-anchor="middle" x="345" y="-66.5" font-family="Helvetica,sans-Serif" font-size="10.00">Application.DaL.DataModelContext</text>
</a>
</g>
</g>
<!-- Node1&#45;&gt;Node2 -->
<g id="edge1_Node000001_Node000002" class="edge">
<title>Node1&#45;&gt;Node2</title>
<g id="a_edge1_Node000001_Node000002"><a xlink:title=" ">
<path fill="none" stroke="#63b8ff" d="M206.13,-58.99C217.58,-60.28 229.24,-61.59 240.71,-62.88"/>
<polygon fill="#63b8ff" stroke="#63b8ff" points="240.38,-66.37 250.71,-64.01 241.17,-59.41 240.38,-66.37"/>
</a>
</g>
</g>
<!-- Node3 -->
<g id="Node000003" class="node">
<title>Node3</title>
<g id="a_Node000003"><a xlink:href="namespaceEbceys_1_1Infrastructure_1_1TestApplication_1_1Commands.html#a20e4f18f3273a3f5832d377084c5125f" target="_top" xlink:title=" ">
<polygon fill="white" stroke="#666666" points="448,-41 242,-41 242,0 448,0 448,-41"/>
<text text-anchor="start" x="250" y="-29" font-family="Helvetica,sans-Serif" font-size="10.00">Ebceys.Infrastructure.Test</text>
<text text-anchor="start" x="250" y="-18" font-family="Helvetica,sans-Serif" font-size="10.00">Application.Commands.DeleteElement</text>
<text text-anchor="middle" x="345" y="-7" font-family="Helvetica,sans-Serif" font-size="10.00">CommandContext</text>
</a>
</g>
</g>
<!-- Node1&#45;&gt;Node3 -->
<g id="edge3_Node000001_Node000003" class="edge">
<title>Node1&#45;&gt;Node3</title>
<g id="a_edge3_Node000001_Node000003"><a xlink:title=" ">
<path fill="none" stroke="#63b8ff" d="M206.13,-36.01C214.66,-35.05 223.31,-34.08 231.91,-33.11"/>
<polygon fill="#63b8ff" stroke="#63b8ff" points="232.42,-36.58 241.96,-31.98 231.63,-29.62 232.42,-36.58"/>
</a>
</g>
</g>
<!-- Node2&#45;&gt;Node2 -->
<g id="edge2_Node000002_Node000002" class="edge">
<title>Node2&#45;&gt;Node2</title>
<g id="a_edge2_Node000002_Node000002"><a xlink:title=" ">
<path fill="none" stroke="#63b8ff" d="M302.46,-89.78C293.01,-98.91 307.19,-107.5 345,-107.5 367.45,-107.5 381.57,-104.47 387.36,-100.1"/>
<polygon fill="#63b8ff" stroke="#63b8ff" points="390.86,-99.83 387.54,-89.78 383.87,-99.71 390.86,-99.83"/>
</a>
</g>
</g>
</g>
</svg>
</svg>

<style type='text/css'>
<![CDATA[
[data-mouse-over-selected='false'] { opacity: 0.7; }
[data-mouse-over-selected='true']  { opacity: 1.0; }
]]>
</style>
<script type="application/ecmascript"><![CDATA[
document.addEventListener('DOMContentLoaded', (event) => {
  highlightEdges();
  highlightAdjacentNodes();
});
]]></script>
</svg>
