<?xml version="1.0" encoding="UTF-8" standalone="no"?>
<!DOCTYPE svg PUBLIC "-//W3C//DTD SVG 1.1//EN"
 "http://www.w3.org/Graphics/SVG/1.1/DTD/svg11.dtd">
<!-- Generated by graphviz version 2.43.0 (0)
 -->
<!-- Title: Ebceys.Infrastructure.TestApplication.Commands.GetEntitiesCommandResult Pages: 1 -->
<svg width="431pt" height="116pt"
 viewBox="0.00 0.00 431.00 115.50" xmlns="http://www.w3.org/2000/svg" xmlns:xlink="http://www.w3.org/1999/xlink">
<g id="graph0" class="graph" transform="scale(1 1) rotate(0) translate(4 111.5)">
<title>Ebceys.Infrastructure.TestApplication.Commands.GetEntitiesCommandResult</title>
<!-- Node1 -->
<g id="Node000001" class="node">
<title>Node1</title>
<g id="a_Node000001"><a xlink:title=" ">
<polygon fill="#999999" stroke="#666666" points="423,-71.5 236,-71.5 236,-30.5 423,-30.5 423,-71.5"/>
<text text-anchor="start" x="244" y="-59.5" font-family="Helvetica,sans-Serif" font-size="10.00">Ebceys.Infrastructure.Test</text>
<text text-anchor="start" x="244" y="-48.5" font-family="Helvetica,sans-Serif" font-size="10.00">Application.Commands.GetEntities</text>
<text text-anchor="middle" x="329.5" y="-37.5" font-family="Helvetica,sans-Serif" font-size="10.00">CommandResult</text>
</a>
</g>
</g>
<!-- Node1&#45;&gt;Node1 -->
<g id="edge2_Node000001_Node000001" class="edge">
<title>Node1&#45;&gt;Node1</title>
<g id="a_edge2_Node000001_Node000001"><a xlink:title=" ">
<path fill="none" stroke="#63b8ff" d="M368.73,-81.46C362.89,-86.24 349.82,-89.5 329.5,-89.5 296.99,-89.5 283.02,-81.15 287.6,-71.6"/>
<polygon fill="#63b8ff" stroke="#63b8ff" points="372.16,-82.16 371.4,-71.6 365.41,-80.33 372.16,-82.16"/>
</a>
</g>
</g>
<!-- Node2 -->
<g id="Node000002" class="node">
<title>Node2</title>
<g id="a_Node000002"><a xlink:href="classEbceys_1_1Infrastructure_1_1TestApplication_1_1Controllers_1_1TestController.html#ad10e2f05d374eb0b9887cdb3ed919367" target="_top" xlink:title=" ">
<polygon fill="white" stroke="#666666" points="200,-107.5 0,-107.5 0,-66.5 200,-66.5 200,-107.5"/>
<text text-anchor="start" x="8" y="-95.5" font-family="Helvetica,sans-Serif" font-size="10.00">Ebceys.Infrastructure.Test</text>
<text text-anchor="start" x="8" y="-84.5" font-family="Helvetica,sans-Serif" font-size="10.00">Application.Controllers.TestController.</text>
<text text-anchor="middle" x="100" y="-73.5" font-family="Helvetica,sans-Serif" font-size="10.00">GetCommand</text>
</a>
</g>
</g>
<!-- Node1&#45;&gt;Node2 -->
<g id="edge1_Node000001_Node000002" class="edge">
<title>Node1&#45;&gt;Node2</title>
<g id="a_edge1_Node000001_Node000002"><a xlink:title=" ">
<path fill="none" stroke="#63b8ff" d="M225.94,-67.23C217.35,-68.59 208.68,-69.96 200.12,-71.31"/>
<polygon fill="#63b8ff" stroke="#63b8ff" points="226.64,-70.66 235.97,-65.64 225.54,-63.75 226.64,-70.66"/>
</a>
</g>
</g>
<!-- Node3 -->
<g id="Node000003" class="node">
<title>Node3</title>
<g id="a_Node000003"><a xlink:href="namespaceEbceys_1_1Infrastructure_1_1TestApplication.html#ab81a1413fa2d4078311b09b25cfd7256" target="_top" xlink:title=" ">
<polygon fill="white" stroke="#666666" points="171.5,-30 28.5,-30 28.5,0 171.5,0 171.5,-30"/>
<text text-anchor="start" x="36.5" y="-18" font-family="Helvetica,sans-Serif" font-size="10.00">Ebceys.Infrastructure.Test</text>
<text text-anchor="middle" x="100" y="-7" font-family="Helvetica,sans-Serif" font-size="10.00">Application.Startup</text>
</a>
</g>
</g>
<!-- Node1&#45;&gt;Node3 -->
<g id="edge3_Node000001_Node000003" class="edge">
<title>Node1&#45;&gt;Node3</title>
<g id="a_edge3_Node000001_Node000003"><a xlink:title=" ">
<path fill="none" stroke="#63b8ff" d="M225.87,-34.76C207.6,-31.87 188.95,-28.92 171.81,-26.21"/>
<polygon fill="#63b8ff" stroke="#63b8ff" points="225.54,-38.25 235.97,-36.36 226.64,-31.34 225.54,-38.25"/>
</a>
</g>
</g>
<!-- Node3&#45;&gt;Node3 -->
<g id="edge4_Node000003_Node000003" class="edge">
<title>Node3&#45;&gt;Node3</title>
<g id="a_edge4_Node000003_Node000003"><a xlink:title=" ">
<path fill="none" stroke="#63b8ff" d="M139.91,-40.6C134.46,-44.97 121.15,-48 100,-48 64.38,-48 51.02,-39.41 59.92,-30.28"/>
<polygon fill="#63b8ff" stroke="#63b8ff" points="143.41,-40.33 140.08,-30.28 136.41,-40.22 143.41,-40.33"/>
</a>
</g>
</g>
</g>
</svg>
