<?xml version="1.0" encoding="UTF-8" standalone="no"?>
<!DOCTYPE svg PUBLIC "-//W3C//DTD SVG 1.1//EN"
 "http://www.w3.org/Graphics/SVG/1.1/DTD/svg11.dtd">
<!-- Generated by graphviz version 2.43.0 (0)
 -->
<!-- Title: Ebceys.Infrastructure.Models.ServiceApiInfo Pages: 1 -->
<svg width="399pt" height="122pt"
 viewBox="0.00 0.00 399.00 122.00" xmlns="http://www.w3.org/2000/svg" xmlns:xlink="http://www.w3.org/1999/xlink">
<g id="graph0" class="graph" transform="scale(1 1) rotate(0) translate(4 118)">
<title>Ebceys.Infrastructure.Models.ServiceApiInfo</title>
<!-- Node1 -->
<g id="Node000001" class="node">
<title>Node1</title>
<g id="a_Node000001"><a xlink:title="The service api info.">
<polygon fill="#999999" stroke="#666666" points="391,-63 230,-63 230,-33 391,-33 391,-63"/>
<text text-anchor="start" x="238" y="-51" font-family="Helvetica,sans-Serif" font-size="10.00">Ebceys.Infrastructure.Models.</text>
<text text-anchor="middle" x="310.5" y="-40" font-family="Helvetica,sans-Serif" font-size="10.00">ServiceApiInfo</text>
</a>
</g>
</g>
<!-- Node2 -->
<g id="Node000002" class="node">
<title>Node2</title>
<g id="a_Node000002"><a xlink:href="namespaceEbceys_1_1Infrastructure_1_1AuthorizationTestApplication.html#a0f1a291ecc09c874982ef9a117225c14" target="_top" xlink:title=" ">
<polygon fill="white" stroke="#666666" points="194,-96 0,-96 0,-66 194,-66 194,-96"/>
<text text-anchor="start" x="8" y="-84" font-family="Helvetica,sans-Serif" font-size="10.00">Ebceys.Infrastructure.Authorization</text>
<text text-anchor="middle" x="97" y="-73" font-family="Helvetica,sans-Serif" font-size="10.00">TestApplication.AuthorizationStartup</text>
</a>
</g>
</g>
<!-- Node1&#45;&gt;Node2 -->
<g id="edge1_Node000001_Node000002" class="edge">
<title>Node1&#45;&gt;Node2</title>
<g id="a_edge1_Node000001_Node000002"><a xlink:title=" ">
<path fill="none" stroke="#63b8ff" d="M219.69,-62.01C211.3,-63.32 202.78,-64.65 194.33,-65.97"/>
<polygon fill="#63b8ff" stroke="#63b8ff" points="220.5,-65.43 229.84,-60.43 219.42,-58.51 220.5,-65.43"/>
</a>
</g>
</g>
<!-- Node3 -->
<g id="Node000003" class="node">
<title>Node3</title>
<g id="a_Node000003"><a xlink:href="namespaceEbceys_1_1Infrastructure_1_1TestApplication.html#ab81a1413fa2d4078311b09b25cfd7256" target="_top" xlink:title=" ">
<polygon fill="white" stroke="#666666" points="168.5,-30 25.5,-30 25.5,0 168.5,0 168.5,-30"/>
<text text-anchor="start" x="33.5" y="-18" font-family="Helvetica,sans-Serif" font-size="10.00">Ebceys.Infrastructure.Test</text>
<text text-anchor="middle" x="97" y="-7" font-family="Helvetica,sans-Serif" font-size="10.00">Application.Startup</text>
</a>
</g>
</g>
<!-- Node1&#45;&gt;Node3 -->
<g id="edge3_Node000001_Node000003" class="edge">
<title>Node1&#45;&gt;Node3</title>
<g id="a_edge3_Node000001_Node000003"><a xlink:title=" ">
<path fill="none" stroke="#63b8ff" d="M219.83,-34.01C202.7,-31.34 184.99,-28.57 168.56,-26.01"/>
<polygon fill="#63b8ff" stroke="#63b8ff" points="219.42,-37.49 229.84,-35.57 220.5,-30.57 219.42,-37.49"/>
</a>
</g>
</g>
<!-- Node2&#45;&gt;Node2 -->
<g id="edge2_Node000002_Node000002" class="edge">
<title>Node2&#45;&gt;Node2</title>
<g id="a_edge2_Node000002_Node000002"><a xlink:title=" ">
<path fill="none" stroke="#63b8ff" d="M134.11,-106.6C129.04,-110.97 116.67,-114 97,-114 63.87,-114 51.45,-105.41 59.73,-96.28"/>
<polygon fill="#63b8ff" stroke="#63b8ff" points="137.61,-106.33 134.27,-96.28 130.61,-106.22 137.61,-106.33"/>
</a>
</g>
</g>
<!-- Node3&#45;&gt;Node3 -->
<g id="edge4_Node000003_Node000003" class="edge">
<title>Node3&#45;&gt;Node3</title>
<g id="a_edge4_Node000003_Node000003"><a xlink:title=" ">
<path fill="none" stroke="#63b8ff" d="M134.11,-40.6C129.04,-44.97 116.67,-48 97,-48 63.87,-48 51.45,-39.41 59.73,-30.28"/>
<polygon fill="#63b8ff" stroke="#63b8ff" points="137.61,-40.33 134.27,-30.28 130.61,-40.22 137.61,-40.33"/>
</a>
</g>
</g>
</g>
</svg>
