<?xml version="1.0" encoding="UTF-8" standalone="no"?>
<!DOCTYPE svg PUBLIC "-//W3C//DTD SVG 1.1//EN"
 "http://www.w3.org/Graphics/SVG/1.1/DTD/svg11.dtd">
<!-- Generated by graphviz version 2.43.0 (0)
 -->
<!-- Title: Ebceys.Infrastructure.TestApplication.Commands.AddEntityCommandResult Pages: 1 -->
<svg width="412pt" height="116pt"
 viewBox="0.00 0.00 412.00 115.50" xmlns="http://www.w3.org/2000/svg" xmlns:xlink="http://www.w3.org/1999/xlink">
<g id="graph0" class="graph" transform="scale(1 1) rotate(0) translate(4 111.5)">
<title>Ebceys.Infrastructure.TestApplication.Commands.AddEntityCommandResult</title>
<!-- Node1 -->
<g id="Node000001" class="node">
<title>Node1</title>
<g id="a_Node000001"><a xlink:title=" ">
<polygon fill="#999999" stroke="#666666" points="180,-71.5 0,-71.5 0,-30.5 180,-30.5 180,-71.5"/>
<text text-anchor="start" x="8" y="-59.5" font-family="Helvetica,sans-Serif" font-size="10.00">Ebceys.Infrastructure.Test</text>
<text text-anchor="start" x="8" y="-48.5" font-family="Helvetica,sans-Serif" font-size="10.00">Application.Commands.AddEntity</text>
<text text-anchor="middle" x="90" y="-37.5" font-family="Helvetica,sans-Serif" font-size="10.00">CommandResult</text>
</a>
</g>
</g>
<!-- Node2 -->
<g id="Node000002" class="node">
<title>Node2</title>
<g id="a_Node000002"><a xlink:href="namespaceEbceys_1_1Infrastructure_1_1TestApplication_1_1Commands.html#a73b52a43bcbe10adc6505765c367a3db" target="_top" xlink:title=" ">
<polygon fill="white" stroke="#666666" points="400,-107.5 220,-107.5 220,-66.5 400,-66.5 400,-107.5"/>
<text text-anchor="start" x="228" y="-95.5" font-family="Helvetica,sans-Serif" font-size="10.00">Ebceys.Infrastructure.Test</text>
<text text-anchor="start" x="228" y="-84.5" font-family="Helvetica,sans-Serif" font-size="10.00">Application.Commands.AddEntity</text>
<text text-anchor="middle" x="310" y="-73.5" font-family="Helvetica,sans-Serif" font-size="10.00">CommandContext</text>
</a>
</g>
</g>
<!-- Node1&#45;&gt;Node2 -->
<g id="edge1_Node000001_Node000002" class="edge">
<title>Node1&#45;&gt;Node2</title>
<g id="a_edge1_Node000001_Node000002"><a xlink:title=" ">
<path fill="none" stroke="#63b8ff" d="M180.3,-65.75C189.98,-67.35 199.89,-68.98 209.68,-70.6"/>
<polygon fill="#63b8ff" stroke="#63b8ff" points="209.4,-74.1 219.84,-72.28 210.54,-67.19 209.4,-74.1"/>
</a>
</g>
</g>
<!-- Node3 -->
<g id="Node000003" class="node">
<title>Node3</title>
<g id="a_Node000003"><a xlink:href="namespaceEbceys_1_1Infrastructure_1_1TestApplication_1_1DaL.html#a3cb9ad5fd6ae558d6f20c0c275eb32da" target="_top" xlink:title=" ">
<polygon fill="white" stroke="#666666" points="404,-30 216,-30 216,0 404,0 404,-30"/>
<text text-anchor="start" x="224" y="-18" font-family="Helvetica,sans-Serif" font-size="10.00">Ebceys.Infrastructure.Test</text>
<text text-anchor="middle" x="310" y="-7" font-family="Helvetica,sans-Serif" font-size="10.00">Application.DaL.DataModelContext</text>
</a>
</g>
</g>
<!-- Node1&#45;&gt;Node3 -->
<g id="edge2_Node000001_Node000003" class="edge">
<title>Node1&#45;&gt;Node3</title>
<g id="a_edge2_Node000001_Node000003"><a xlink:title=" ">
<path fill="none" stroke="#63b8ff" d="M180.3,-36.25C189.45,-34.74 198.8,-33.2 208.06,-31.67"/>
<polygon fill="#63b8ff" stroke="#63b8ff" points="208.78,-35.1 218.08,-30.02 207.64,-28.19 208.78,-35.1"/>
</a>
</g>
</g>
<!-- Node3&#45;&gt;Node3 -->
<g id="edge3_Node000003_Node000003" class="edge">
<title>Node3&#45;&gt;Node3</title>
<g id="a_edge3_Node000003_Node000003"><a xlink:title=" ">
<path fill="none" stroke="#63b8ff" d="M271.33,-30.28C262.73,-39.41 275.62,-48 310,-48 330.41,-48 343.25,-44.97 348.51,-40.6"/>
<polygon fill="#63b8ff" stroke="#63b8ff" points="352.01,-40.33 348.67,-30.28 345.01,-40.22 352.01,-40.33"/>
</a>
</g>
</g>
</g>
</svg>
