<?xml version="1.0" encoding="UTF-8" standalone="no"?>
<!DOCTYPE svg PUBLIC "-//W3C//DTD SVG 1.1//EN"
 "http://www.w3.org/Graphics/SVG/1.1/DTD/svg11.dtd">
<!-- Generated by graphviz version 2.43.0 (0)
 -->
<!-- Title: Ebceys.Tests.Infrastructure.Helpers.EbRandomizer Pages: 1 -->
<svg width="481pt" height="308pt"
 viewBox="0.00 0.00 481.00 308.00" xmlns="http://www.w3.org/2000/svg" xmlns:xlink="http://www.w3.org/1999/xlink">
<g id="graph0" class="graph" transform="scale(1 1) rotate(0) translate(4 304)">
<title>Ebceys.Tests.Infrastructure.Helpers.EbRandomizer</title>
<!-- Node1 -->
<g id="Node000001" class="node">
<title>Node1</title>
<g id="a_Node000001"><a xlink:title="The EbRandomizer class.">
<polygon fill="#999999" stroke="#666666" points="473,-181.5 322,-181.5 322,-151.5 473,-151.5 473,-181.5"/>
<text text-anchor="start" x="330" y="-169.5" font-family="Helvetica,sans-Serif" font-size="10.00">Ebceys.Tests.Infrastructure.</text>
<text text-anchor="middle" x="397.5" y="-158.5" font-family="Helvetica,sans-Serif" font-size="10.00">Helpers.EbRandomizer</text>
</a>
</g>
</g>
<!-- Node1&#45;&gt;Node1 -->
<g id="edge1_Node000001_Node000001" class="edge">
<title>Node1&#45;&gt;Node1</title>
<g id="a_edge1_Node000001_Node000001"><a xlink:title=" ">
<path fill="none" stroke="#63b8ff" d="M441.96,-192.1C435.88,-196.47 421.06,-199.5 397.5,-199.5 357.81,-199.5 342.93,-190.91 352.85,-181.78"/>
<polygon fill="#63b8ff" stroke="#63b8ff" points="445.46,-191.84 442.15,-181.78 438.47,-191.71 445.46,-191.84"/>
</a>
</g>
</g>
<!-- Node2 -->
<g id="Node000002" class="node">
<title>Node2</title>
<g id="a_Node000002"><a xlink:href="classEbceys_1_1Tests_1_1Infrastructure_1_1IntegrationTests_1_1ExternalServices_1_1Containers_1_1ExternalDependenciesExtensions.html#ad11ff1019fa39fadf17e0858cefe05f7" target="_top" xlink:title=" ">
<polygon fill="white" stroke="#666666" points="286,-300 0,-300 0,-259 286,-259 286,-300"/>
<text text-anchor="start" x="8" y="-288" font-family="Helvetica,sans-Serif" font-size="10.00">Ebceys.Tests.Infrastructure.</text>
<text text-anchor="start" x="8" y="-277" font-family="Helvetica,sans-Serif" font-size="10.00">IntegrationTests.ExternalServices.</text>
<text text-anchor="middle" x="143" y="-266" font-family="Helvetica,sans-Serif" font-size="10.00">Containers.ExternalDependenciesExtensions.extension</text>
</a>
</g>
</g>
<!-- Node1&#45;&gt;Node2 -->
<g id="edge2_Node000001_Node000002" class="edge">
<title>Node1&#45;&gt;Node2</title>
<g id="a_edge2_Node000001_Node000002"><a xlink:title=" ">
<path fill="none" stroke="#63b8ff" d="M374.07,-188.47C353.04,-207.79 319.86,-235.15 286,-250.5 279.13,-253.62 271.91,-256.4 264.53,-258.89"/>
<polygon fill="#63b8ff" stroke="#63b8ff" points="376.6,-190.9 381.51,-181.5 371.81,-185.79 376.6,-190.9"/>
</a>
</g>
</g>
<!-- Node3 -->
<g id="Node000003" class="node">
<title>Node3</title>
<g id="a_Node000003"><a xlink:href="classEbceys_1_1Infrastructure_1_1UnitTests_1_1Helpers_1_1EbRandomizerTests.html#a62f84c5a6dfe572ca32e65902c2b6c49" target="_top" xlink:title=" ">
<polygon fill="white" stroke="#666666" points="234.5,-241 51.5,-241 51.5,-200 234.5,-200 234.5,-241"/>
<text text-anchor="start" x="59.5" y="-229" font-family="Helvetica,sans-Serif" font-size="10.00">Ebceys.Infrastructure.Unit</text>
<text text-anchor="start" x="59.5" y="-218" font-family="Helvetica,sans-Serif" font-size="10.00">Tests.Helpers.EbRandomizerTests.</text>
<text text-anchor="middle" x="143" y="-207" font-family="Helvetica,sans-Serif" font-size="10.00">GetJwts</text>
</a>
</g>
</g>
<!-- Node1&#45;&gt;Node3 -->
<g id="edge3_Node000001_Node000003" class="edge">
<title>Node1&#45;&gt;Node3</title>
<g id="a_edge3_Node000001_Node000003"><a xlink:title=" ">
<path fill="none" stroke="#63b8ff" d="M317.47,-183.72C306.89,-186.01 296.18,-188.32 286,-190.5 269.37,-194.06 251.64,-197.83 234.54,-201.45"/>
<polygon fill="#63b8ff" stroke="#63b8ff" points="318.51,-187.08 327.55,-181.54 317.03,-180.24 318.51,-187.08"/>
</a>
</g>
</g>
<!-- Node4 -->
<g id="Node000004" class="node">
<title>Node4</title>
<g id="a_Node000004"><a xlink:href="classEbceys_1_1Infrastructure_1_1UnitTests_1_1Helpers_1_1EbRandomizerTests.html#a3a65dfde382fdb26a46b526c356c8978" target="_top" xlink:title=" ">
<polygon fill="white" stroke="#666666" points="248.5,-181.5 37.5,-181.5 37.5,-151.5 248.5,-151.5 248.5,-181.5"/>
<text text-anchor="start" x="45.5" y="-169.5" font-family="Helvetica,sans-Serif" font-size="10.00">Ebceys.Infrastructure.Unit</text>
<text text-anchor="middle" x="143" y="-158.5" font-family="Helvetica,sans-Serif" font-size="10.00">Tests.Helpers.EbRandomizerTests.Setup</text>
</a>
</g>
</g>
<!-- Node1&#45;&gt;Node4 -->
<g id="edge4_Node000001_Node000004" class="edge">
<title>Node1&#45;&gt;Node4</title>
<g id="a_edge4_Node000001_Node000004"><a xlink:title=" ">
<path fill="none" stroke="#63b8ff" d="M311.71,-166.5C291.57,-166.5 269.86,-166.5 248.94,-166.5"/>
<polygon fill="#63b8ff" stroke="#63b8ff" points="311.77,-170 321.77,-166.5 311.77,-163 311.77,-170"/>
</a>
</g>
</g>
<!-- Node5 -->
<g id="Node000005" class="node">
<title>Node5</title>
<g id="a_Node000005"><a xlink:href="classEbceys_1_1Infrastructure_1_1UnitTests_1_1Helpers_1_1EbRandomizerTests.html#a413a2b61dac566688b24afda6eb05090" target="_top" xlink:title=" ">
<polygon fill="white" stroke="#666666" points="258,-133.5 28,-133.5 28,-81.5 258,-81.5 258,-133.5"/>
<text text-anchor="start" x="36" y="-121.5" font-family="Helvetica,sans-Serif" font-size="10.00">Ebceys.Infrastructure.Unit</text>
<text text-anchor="start" x="36" y="-110.5" font-family="Helvetica,sans-Serif" font-size="10.00">Tests.Helpers.EbRandomizerTests.</text>
<text text-anchor="start" x="36" y="-99.5" font-family="Helvetica,sans-Serif" font-size="10.00">When_RandomEmail_With_NotValidDomain</text>
<text text-anchor="middle" x="143" y="-88.5" font-family="Helvetica,sans-Serif" font-size="10.00">_Result_InvalidOperationException</text>
</a>
</g>
</g>
<!-- Node1&#45;&gt;Node5 -->
<g id="edge5_Node000001_Node000005" class="edge">
<title>Node1&#45;&gt;Node5</title>
<g id="a_edge5_Node000001_Node000005"><a xlink:title=" ">
<path fill="none" stroke="#63b8ff" d="M322.34,-149.17C301.35,-144.27 278.02,-138.82 255.35,-133.52"/>
<polygon fill="#63b8ff" stroke="#63b8ff" points="321.6,-152.59 332.13,-151.46 323.19,-145.78 321.6,-152.59"/>
</a>
</g>
</g>
<!-- Node6 -->
<g id="Node000006" class="node">
<title>Node6</title>
<g id="a_Node000006"><a xlink:href="classEbceys_1_1Infrastructure_1_1Tests_1_1ClientTests_1_1ServiceSystemClientTests.html#abaff34fb32afdbdf2b0e07fe3095896e" target="_top" xlink:title=" ">
<polygon fill="white" stroke="#666666" points="234,-63 52,-63 52,0 234,0 234,-63"/>
<text text-anchor="start" x="60" y="-51" font-family="Helvetica,sans-Serif" font-size="10.00">Ebceys.Infrastructure.Tests.</text>
<text text-anchor="start" x="60" y="-40" font-family="Helvetica,sans-Serif" font-size="10.00">ClientTests.ServiceSystemClient</text>
<text text-anchor="start" x="60" y="-29" font-family="Helvetica,sans-Serif" font-size="10.00">Tests.When_ServicesStarted_With</text>
<text text-anchor="start" x="60" y="-18" font-family="Helvetica,sans-Serif" font-size="10.00">_HealthzStatusUnhealthy_Result</text>
<text text-anchor="middle" x="143" y="-7" font-family="Helvetica,sans-Serif" font-size="10.00">_Unhealthy</text>
</a>
</g>
</g>
<!-- Node1&#45;&gt;Node6 -->
<g id="edge6_Node000001_Node000006" class="edge">
<title>Node1&#45;&gt;Node6</title>
<g id="a_edge6_Node000001_Node000006"><a xlink:title=" ">
<path fill="none" stroke="#63b8ff" d="M375.59,-143.86C354.78,-122.58 320.98,-91.29 286,-72.5 269.95,-63.88 251.88,-56.88 234.15,-51.28"/>
<polygon fill="#63b8ff" stroke="#63b8ff" points="373.19,-146.41 382.65,-151.2 378.24,-141.56 373.19,-146.41"/>
</a>
</g>
</g>
</g>
</svg>
