<?xml version="1.0" encoding="UTF-8" standalone="no"?>
<!DOCTYPE svg PUBLIC "-//W3C//DTD SVG 1.1//EN"
 "http://www.w3.org/Graphics/SVG/1.1/DTD/svg11.dtd">
<!-- Generated by graphviz version 2.43.0 (0)
 -->
<!-- Title: Ebceys.Infrastructure.TestApplication.Commands.UpdateEntityCommandContext Pages: 1 -->
<svg width="441pt" height="116pt"
 viewBox="0.00 0.00 441.00 115.50" xmlns="http://www.w3.org/2000/svg" xmlns:xlink="http://www.w3.org/1999/xlink">
<g id="graph0" class="graph" transform="scale(1 1) rotate(0) translate(4 111.5)">
<title>Ebceys.Infrastructure.TestApplication.Commands.UpdateEntityCommandContext</title>
<!-- Node1 -->
<g id="Node000001" class="node">
<title>Node1</title>
<g id="a_Node000001"><a xlink:title=" ">
<polygon fill="#999999" stroke="#666666" points="433,-71.5 236,-71.5 236,-30.5 433,-30.5 433,-71.5"/>
<text text-anchor="start" x="244" y="-59.5" font-family="Helvetica,sans-Serif" font-size="10.00">Ebceys.Infrastructure.Test</text>
<text text-anchor="start" x="244" y="-48.5" font-family="Helvetica,sans-Serif" font-size="10.00">Application.Commands.UpdateEntity</text>
<text text-anchor="middle" x="334.5" y="-37.5" font-family="Helvetica,sans-Serif" font-size="10.00">CommandContext</text>
</a>
</g>
</g>
<!-- Node2 -->
<g id="Node000002" class="node">
<title>Node2</title>
<g id="a_Node000002"><a xlink:href="classEbceys_1_1Infrastructure_1_1TestApplication_1_1Controllers_1_1TestController.html#a82fd01449a1cae6fdcf7c43d6506c1d2" target="_top" xlink:title=" ">
<polygon fill="white" stroke="#666666" points="200,-107.5 0,-107.5 0,-66.5 200,-66.5 200,-107.5"/>
<text text-anchor="start" x="8" y="-95.5" font-family="Helvetica,sans-Serif" font-size="10.00">Ebceys.Infrastructure.Test</text>
<text text-anchor="start" x="8" y="-84.5" font-family="Helvetica,sans-Serif" font-size="10.00">Application.Controllers.TestController.</text>
<text text-anchor="middle" x="100" y="-73.5" font-family="Helvetica,sans-Serif" font-size="10.00">PutCommand</text>
</a>
</g>
</g>
<!-- Node1&#45;&gt;Node2 -->
<g id="edge1_Node000001_Node000002" class="edge">
<title>Node1&#45;&gt;Node2</title>
<g id="a_edge1_Node000001_Node000002"><a xlink:title=" ">
<path fill="none" stroke="#63b8ff" d="M225.9,-67.66C217.33,-68.99 208.71,-70.32 200.21,-71.64"/>
<polygon fill="#63b8ff" stroke="#63b8ff" points="226.56,-71.1 235.91,-66.11 225.49,-64.18 226.56,-71.1"/>
</a>
</g>
</g>
<!-- Node3 -->
<g id="Node000003" class="node">
<title>Node3</title>
<g id="a_Node000003"><a xlink:href="namespaceEbceys_1_1Infrastructure_1_1TestApplication.html#ab81a1413fa2d4078311b09b25cfd7256" target="_top" xlink:title=" ">
<polygon fill="white" stroke="#666666" points="171.5,-30 28.5,-30 28.5,0 171.5,0 171.5,-30"/>
<text text-anchor="start" x="36.5" y="-18" font-family="Helvetica,sans-Serif" font-size="10.00">Ebceys.Infrastructure.Test</text>
<text text-anchor="middle" x="100" y="-7" font-family="Helvetica,sans-Serif" font-size="10.00">Application.Startup</text>
</a>
</g>
</g>
<!-- Node1&#45;&gt;Node3 -->
<g id="edge2_Node000001_Node000003" class="edge">
<title>Node1&#45;&gt;Node3</title>
<g id="a_edge2_Node000001_Node000003"><a xlink:title=" ">
<path fill="none" stroke="#63b8ff" d="M225.78,-34.32C207.47,-31.49 188.88,-28.61 171.84,-25.97"/>
<polygon fill="#63b8ff" stroke="#63b8ff" points="225.49,-37.82 235.91,-35.89 226.56,-30.9 225.49,-37.82"/>
</a>
</g>
</g>
<!-- Node3&#45;&gt;Node3 -->
<g id="edge3_Node000003_Node000003" class="edge">
<title>Node3&#45;&gt;Node3</title>
<g id="a_edge3_Node000003_Node000003"><a xlink:title=" ">
<path fill="none" stroke="#63b8ff" d="M140.96,-40.6C135.36,-44.97 121.71,-48 100,-48 63.44,-48 49.73,-39.41 58.87,-30.28"/>
<polygon fill="#63b8ff" stroke="#63b8ff" points="144.46,-40.33 141.13,-30.28 137.46,-40.21 144.46,-40.33"/>
</a>
</g>
</g>
</g>
</svg>
