<?xml version="1.0" encoding="UTF-8" standalone="no"?>
<!DOCTYPE svg PUBLIC "-//W3C//DTD SVG 1.1//EN"
 "http://www.w3.org/Graphics/SVG/1.1/DTD/svg11.dtd">
<!-- Generated by graphviz version 2.43.0 (0)
 -->
<!-- Title: Ebceys.Infrastructure.Middlewares.RequestLoggingMiddleware Pages: 1 -->
<svg width="471pt" height="130pt"
 viewBox="0.00 0.00 471.00 130.00" xmlns="http://www.w3.org/2000/svg" xmlns:xlink="http://www.w3.org/1999/xlink">
<g id="graph0" class="graph" transform="scale(1 1) rotate(0) translate(4 126)">
<title>Ebceys.Infrastructure.Middlewares.RequestLoggingMiddleware</title>
<!-- Node1 -->
<g id="Node000001" class="node">
<title>Node1</title>
<g id="a_Node000001"><a xlink:title="The request logging middleware.">
<polygon fill="#999999" stroke="#666666" points="463,-76 275,-76 275,-46 463,-46 463,-76"/>
<text text-anchor="start" x="283" y="-64" font-family="Helvetica,sans-Serif" font-size="10.00">Ebceys.Infrastructure.Middlewares.</text>
<text text-anchor="middle" x="369" y="-53" font-family="Helvetica,sans-Serif" font-size="10.00">RequestLoggingMiddleware</text>
</a>
</g>
</g>
<!-- Node1&#45;&gt;Node1 -->
<g id="edge1_Node000001_Node000001" class="edge">
<title>Node1&#45;&gt;Node1</title>
<g id="a_edge1_Node000001_Node000001"><a xlink:title=" ">
<path fill="none" stroke="#63b8ff" d="M412.41,-86.6C406.48,-90.97 392.01,-94 369,-94 330.25,-94 315.72,-85.41 325.41,-76.28"/>
<polygon fill="#63b8ff" stroke="#63b8ff" points="415.91,-86.34 412.59,-76.28 408.92,-86.21 415.91,-86.34"/>
</a>
</g>
</g>
<!-- Node2 -->
<g id="Node000002" class="node">
<title>Node2</title>
<g id="a_Node000002"><a xlink:href="classEbceys_1_1Infrastructure_1_1Tests_1_1Middlewares_1_1RequestLoggingMiddlewareTests.html#ada64b1e0e61d6681e72fd663ad8254d4" target="_top" xlink:title=" ">
<polygon fill="white" stroke="#666666" points="236.5,-122 2.5,-122 2.5,-70 236.5,-70 236.5,-122"/>
<text text-anchor="start" x="10.5" y="-110" font-family="Helvetica,sans-Serif" font-size="10.00">Ebceys.Infrastructure.Tests.</text>
<text text-anchor="start" x="10.5" y="-99" font-family="Helvetica,sans-Serif" font-size="10.00">Middlewares.RequestLoggingMiddleware</text>
<text text-anchor="start" x="10.5" y="-88" font-family="Helvetica,sans-Serif" font-size="10.00">Tests.When_Requests_With_NoLoggingInAttr</text>
<text text-anchor="middle" x="119.5" y="-77" font-family="Helvetica,sans-Serif" font-size="10.00">_Result_CatcherDontLogBodies</text>
</a>
</g>
</g>
<!-- Node1&#45;&gt;Node2 -->
<g id="edge2_Node000001_Node000002" class="edge">
<title>Node1&#45;&gt;Node2</title>
<g id="a_edge2_Node000001_Node000002"><a xlink:title=" ">
<path fill="none" stroke="#63b8ff" d="M264.76,-75.6C255.46,-76.91 246,-78.25 236.6,-79.58"/>
<polygon fill="#63b8ff" stroke="#63b8ff" points="265.37,-79.05 274.78,-74.18 264.39,-72.12 265.37,-79.05"/>
</a>
</g>
</g>
<!-- Node3 -->
<g id="Node000003" class="node">
<title>Node3</title>
<g id="a_Node000003"><a xlink:href="classEbceys_1_1Infrastructure_1_1Tests_1_1Middlewares_1_1RequestLoggingMiddlewareTests.html#aad36344227951e2151031861f1f9ec1f" target="_top" xlink:title=" ">
<polygon fill="white" stroke="#666666" points="239,-52 0,-52 0,0 239,0 239,-52"/>
<text text-anchor="start" x="8" y="-40" font-family="Helvetica,sans-Serif" font-size="10.00">Ebceys.Infrastructure.Tests.</text>
<text text-anchor="start" x="8" y="-29" font-family="Helvetica,sans-Serif" font-size="10.00">Middlewares.RequestLoggingMiddleware</text>
<text text-anchor="start" x="8" y="-18" font-family="Helvetica,sans-Serif" font-size="10.00">Tests.When_Requests_With_NoLoggingInOpts</text>
<text text-anchor="middle" x="119.5" y="-7" font-family="Helvetica,sans-Serif" font-size="10.00">_Result_CatcherDontLogBodies</text>
</a>
</g>
</g>
<!-- Node1&#45;&gt;Node3 -->
<g id="edge3_Node000001_Node000003" class="edge">
<title>Node1&#45;&gt;Node3</title>
<g id="a_edge3_Node000001_Node000003"><a xlink:title=" ">
<path fill="none" stroke="#63b8ff" d="M264.87,-46.42C256.37,-45.21 247.74,-43.99 239.14,-42.78"/>
<polygon fill="#63b8ff" stroke="#63b8ff" points="264.39,-49.88 274.78,-47.82 265.37,-42.95 264.39,-49.88"/>
</a>
</g>
</g>
</g>
</svg>
