<?xml version="1.0" encoding="UTF-8" standalone="no"?>
<!DOCTYPE svg PUBLIC "-//W3C//DTD SVG 1.1//EN"
 "http://www.w3.org/Graphics/SVG/1.1/DTD/svg11.dtd">
<!-- Generated by graphviz version 2.43.0 (0)
 -->
<!-- Title: Ebceys.Infrastructure.TestApplication.Commands.AddEntityCommandContext Pages: 1 -->
<svg width="640pt" height="122pt"
 viewBox="0.00 0.00 640.00 121.50" xmlns="http://www.w3.org/2000/svg" xmlns:xlink="http://www.w3.org/1999/xlink">
<g id="graph0" class="graph" transform="scale(1 1) rotate(0) translate(4 117.5)">
<title>Ebceys.Infrastructure.TestApplication.Commands.AddEntityCommandContext</title>
<!-- Node1 -->
<g id="Node000001" class="node">
<title>Node1</title>
<g id="a_Node000001"><a xlink:title=" ">
<polygon fill="#999999" stroke="#666666" points="632,-71.5 452,-71.5 452,-30.5 632,-30.5 632,-71.5"/>
<text text-anchor="start" x="460" y="-59.5" font-family="Helvetica,sans-Serif" font-size="10.00">Ebceys.Infrastructure.Test</text>
<text text-anchor="start" x="460" y="-48.5" font-family="Helvetica,sans-Serif" font-size="10.00">Application.Commands.AddEntity</text>
<text text-anchor="middle" x="542" y="-37.5" font-family="Helvetica,sans-Serif" font-size="10.00">CommandContext</text>
</a>
</g>
</g>
<!-- Node2 -->
<g id="Node000002" class="node">
<title>Node2</title>
<g id="a_Node000002"><a xlink:href="namespaceEbceys_1_1Infrastructure_1_1TestApplication_1_1Commands.html#a250926b0041b9824f967701a7a10ab96" target="_top" xlink:title=" ">
<polygon fill="white" stroke="#666666" points="416,-71.5 236,-71.5 236,-30.5 416,-30.5 416,-71.5"/>
<text text-anchor="start" x="244" y="-59.5" font-family="Helvetica,sans-Serif" font-size="10.00">Ebceys.Infrastructure.Test</text>
<text text-anchor="start" x="244" y="-48.5" font-family="Helvetica,sans-Serif" font-size="10.00">Application.Commands.AddEntity</text>
<text text-anchor="middle" x="326" y="-37.5" font-family="Helvetica,sans-Serif" font-size="10.00">CommandResult</text>
</a>
</g>
</g>
<!-- Node1&#45;&gt;Node2 -->
<g id="edge1_Node000001_Node000002" class="edge">
<title>Node1&#45;&gt;Node2</title>
<g id="a_edge1_Node000001_Node000002"><a xlink:title=" ">
<path fill="none" stroke="#63b8ff" d="M441.77,-51C433.19,-51 424.55,-51 416.06,-51"/>
<polygon fill="#63b8ff" stroke="#63b8ff" points="441.79,-54.5 451.79,-51 441.79,-47.5 441.79,-54.5"/>
</a>
</g>
</g>
<!-- Node3 -->
<g id="Node000003" class="node">
<title>Node3</title>
<g id="a_Node000003"><a xlink:href="classEbceys_1_1Infrastructure_1_1TestApplication_1_1Controllers_1_1TestController.html#a02fcb274a4cb10df45f9728506044124" target="_top" xlink:title=" ">
<polygon fill="white" stroke="#666666" points="200,-113.5 0,-113.5 0,-72.5 200,-72.5 200,-113.5"/>
<text text-anchor="start" x="8" y="-101.5" font-family="Helvetica,sans-Serif" font-size="10.00">Ebceys.Infrastructure.Test</text>
<text text-anchor="start" x="8" y="-90.5" font-family="Helvetica,sans-Serif" font-size="10.00">Application.Controllers.TestController.</text>
<text text-anchor="middle" x="100" y="-79.5" font-family="Helvetica,sans-Serif" font-size="10.00">PostCommand</text>
</a>
</g>
</g>
<!-- Node1&#45;&gt;Node3 -->
<g id="edge5_Node000001_Node000003" class="edge">
<title>Node1&#45;&gt;Node3</title>
<g id="a_edge5_Node000001_Node000003"><a xlink:title=" ">
<path fill="none" stroke="#63b8ff" d="M456.01,-73.77C442.7,-76.65 429.04,-79.21 416,-81 344.16,-90.89 262.31,-93.76 200.04,-94.22"/>
<polygon fill="#63b8ff" stroke="#63b8ff" points="457.11,-77.11 466.1,-71.51 455.58,-70.28 457.11,-77.11"/>
</a>
</g>
</g>
<!-- Node4 -->
<g id="Node000004" class="node">
<title>Node4</title>
<g id="a_Node000004"><a xlink:href="namespaceEbceys_1_1Infrastructure_1_1TestApplication.html#ab81a1413fa2d4078311b09b25cfd7256" target="_top" xlink:title=" ">
<polygon fill="white" stroke="#666666" points="171.5,-30 28.5,-30 28.5,0 171.5,0 171.5,-30"/>
<text text-anchor="start" x="36.5" y="-18" font-family="Helvetica,sans-Serif" font-size="10.00">Ebceys.Infrastructure.Test</text>
<text text-anchor="middle" x="100" y="-7" font-family="Helvetica,sans-Serif" font-size="10.00">Application.Startup</text>
</a>
</g>
</g>
<!-- Node1&#45;&gt;Node4 -->
<g id="edge6_Node000001_Node000004" class="edge">
<title>Node1&#45;&gt;Node4</title>
<g id="a_edge6_Node000001_Node000004"><a xlink:title=" ">
<path fill="none" stroke="#63b8ff" d="M457.25,-28.27C443.55,-25.32 429.45,-22.72 416,-21 332.58,-10.32 235.74,-10.31 171.69,-12"/>
<polygon fill="#63b8ff" stroke="#63b8ff" points="456.61,-31.71 467.13,-30.48 458.13,-24.88 456.61,-31.71"/>
</a>
</g>
</g>
<!-- Node2&#45;&gt;Node3 -->
<g id="edge2_Node000002_Node000003" class="edge">
<title>Node2&#45;&gt;Node3</title>
<g id="a_edge2_Node000002_Node000003"><a xlink:title=" ">
<path fill="none" stroke="#63b8ff" d="M225.87,-69.59C217.34,-71.19 208.72,-72.8 200.19,-74.4"/>
<polygon fill="#63b8ff" stroke="#63b8ff" points="226.64,-73 235.83,-67.72 225.35,-66.12 226.64,-73"/>
</a>
</g>
</g>
<!-- Node2&#45;&gt;Node4 -->
<g id="edge3_Node000002_Node000004" class="edge">
<title>Node2&#45;&gt;Node4</title>
<g id="a_edge3_Node000002_Node000004"><a xlink:title=" ">
<path fill="none" stroke="#63b8ff" d="M225.75,-35.05C207.49,-32.12 188.78,-29.11 171.59,-26.34"/>
<polygon fill="#63b8ff" stroke="#63b8ff" points="225.4,-38.54 235.83,-36.67 226.51,-31.63 225.4,-38.54"/>
</a>
</g>
</g>
<!-- Node4&#45;&gt;Node4 -->
<g id="edge4_Node000004_Node000004" class="edge">
<title>Node4&#45;&gt;Node4</title>
<g id="a_edge4_Node000004_Node000004"><a xlink:title=" ">
<path fill="none" stroke="#63b8ff" d="M139.56,-40.6C134.15,-44.97 120.97,-48 100,-48 64.69,-48 51.45,-39.41 60.27,-30.28"/>
<polygon fill="#63b8ff" stroke="#63b8ff" points="143.06,-40.33 139.73,-30.28 136.06,-40.22 143.06,-40.33"/>
</a>
</g>
</g>
</g>
</svg>
